<svg width="250" height="437" viewBox="0 0 250 437" fill="none" xmlns="http://www.w3.org/2000/svg">
<path d="M77.3818 312.439L77.7504 312.163C77.6122 311.955 63.7439 291.544 34.3948 298.398C18.338 302.141 7.53363 286.96 5.0226 271.836C2.5346 256.885 8.52422 241.404 20.2731 232.581C43.241 215.315 44.842 190.124 44.8536 189.871L44.4043 189.848C44.3928 190.101 42.8033 215.085 20.0082 232.213C8.12108 241.14 2.07386 256.793 4.5849 271.928C7.13049 287.237 18.2689 302.66 34.4984 298.87C63.5481 292.086 77.2436 312.243 77.3818 312.439Z" fill="url(#paint0_linear_74_2150)"/>
<path d="M44.6367 154.728C44.6367 154.728 46.9174 154.037 47.8273 155.869C48.7373 157.7 51.6054 179.643 50.7991 185.805C49.9928 191.979 47.7122 189.698 47.7122 189.698C47.7122 189.698 47.9425 193.35 49.4169 194.386L49.4284 194.375C49.4515 194.363 49.486 194.34 49.5321 194.306C49.5666 194.283 49.6127 194.248 49.6703 194.214H49.6818C50.5572 193.638 53.5981 191.622 56.4086 189.698C59.7259 187.406 61.6611 185.46 61.6611 185.46C61.6611 185.46 61.2003 181.808 61.2003 180.783C61.2003 179.746 68.5146 155.408 75.7136 147.863C82.4289 140.837 75.8288 101.225 74.9073 95.8802L74.8037 95.2812C74.8037 95.2812 68.9753 96.9975 66.4643 98.8405C63.9532 100.683 54.9227 122.949 54.462 134.375C54.0013 145.801 49.8892 152.286 49.8892 152.286C49.8892 152.286 48.5184 151.457 46.2263 152.286L44.6367 154.728Z" fill="url(#paint1_linear_74_2150)"/>
<path opacity="0.83" d="M49.6953 194.214C50.5707 193.638 53.6116 191.622 56.4221 189.698C59.7394 187.406 61.6746 185.46 61.6746 185.46C61.6746 185.46 61.2138 181.808 61.2138 180.783C61.2138 179.746 68.5281 155.408 75.7271 147.863C82.4424 140.837 75.8423 101.225 74.9208 95.8802L74.8172 95.2812C74.8172 95.2812 70.0715 101.225 68.0212 113.054C65.9594 124.884 68.8736 148.209 68.8736 148.209C68.8736 148.209 64.7615 167.065 54.6483 167.41C54.6483 167.41 63.1374 179.839 59.7855 186.07C59.1405 187.256 51.2388 193.119 49.6953 194.214Z" fill="url(#paint2_linear_74_2150)"/>
<path d="M60.6929 399.175C60.739 397.908 60.8427 396.986 61.0269 396.744C61.8102 395.754 65.5652 396.744 65.5652 396.744C70.5067 374.26 72.1538 334.452 72.246 320.434C72.2229 320.284 72.1884 320.135 72.1653 320.008C71.6585 317.716 70.737 315.723 69.9999 313.062V313.051C69.5621 311.507 69.2051 309.733 69.0093 307.545C68.5024 301.59 63.8375 255.516 69.9999 219.935C69.9999 219.935 68.1684 218.657 68.4218 217.263C68.6867 215.869 70.6449 215.432 70.6449 215.432L72.3842 209.695C72.3842 209.695 127.316 216.917 134.331 224.232C134.331 224.232 134.688 231.223 135.413 240.657V240.68C135.943 247.43 136.657 255.827 137.59 263.648C139.825 282.435 148.222 310.793 150.445 314.951C152.68 319.11 159.706 330.248 161.249 337.677C164.889 362.603 164.175 393.104 164.175 393.104L167.308 395.569C167.423 395.903 167.538 396.283 167.654 396.698C168.932 401.075 170.764 410.244 170.764 410.244L169.508 412.548L163.714 407.272C159.798 408.09 145.561 416.003 145.561 416.003L142.428 422.108C141.645 417.984 141.173 406.282 141.173 406.282L144.064 402.527C142.589 383.556 136.957 354.068 133.444 336.894C132.672 333.911 129.804 323.118 128.318 320.169C128.318 320.169 125.231 318.545 123.699 316.737C122.156 314.94 107.009 283.379 100.835 256.161C100.835 256.161 100.812 256.242 100.789 256.414C100.178 260.089 93.129 302.972 94.4421 315.412C95.8128 328.428 96.9531 332.459 97.8746 337.666H97.817C98.2663 339.612 98.5657 340.868 98.5657 340.868C98.105 358.733 89.6504 401.006 89.8002 401.997C89.9614 402.987 92.4609 405.291 92.2997 406.719C92.1499 408.148 88.8672 417.501 88.8672 417.501C77.2795 409.104 62.7317 409.253 62.7317 409.253L61.0961 411.407C61.1306 411.43 60.5892 403.137 60.6929 399.175Z" fill="url(#paint3_linear_74_2150)"/>
<path opacity="0.62" d="M134.504 227.019C134.504 227.019 117.894 224.934 107.436 229.991C96.9767 235.047 97.9212 243.767 97.9212 243.767L100.87 256.172L90.7107 244.93L70.0234 219.924C70.0234 219.924 73.8936 222.308 78.9272 223.356C78.9272 223.356 71.8779 218.91 70.6685 215.42L72.4078 209.684L134.516 223.183V227.019H134.504Z" fill="url(#paint4_linear_74_2150)"/>
<path d="M52.4909 179.584C52.4909 179.584 53.182 187.301 48.5516 190.895C48.5516 190.895 39.0373 185.919 34.3493 177.81C29.6613 169.689 52.4909 179.584 52.4909 179.584Z" fill="url(#paint5_linear_74_2150)"/>
<path d="M134.355 223.63L134.516 224.828C134.516 224.828 121.684 221.58 115.51 221.35C109.337 221.119 102.794 226.026 89.6514 223.63C76.5088 221.235 71.625 211.743 71.625 211.743L72.4083 209.336L134.355 223.63Z" fill="url(#paint6_linear_74_2150)"/>
<path opacity="0.62" d="M130.031 223.773C130.031 223.773 117.568 220.64 100.245 218.67C82.9207 216.7 76.4013 216.101 74.7772 214.811C73.1531 213.521 72.0703 210.342 72.0703 210.342L72.3928 209.352L134.339 223.635L134.501 224.832L130.031 223.773Z" fill="url(#paint7_linear_74_2150)"/>
<path d="M15.8286 155.281C15.8286 155.281 13.1793 157.435 13.1563 159.278C13.1448 161.121 17.5448 160.269 17.5448 160.269L15.8286 155.281Z" fill="url(#paint8_linear_74_2150)"/>
<path d="M146.353 146.839L148.231 136.553C148.231 136.553 153.034 136.553 160.06 143.072C160.06 143.072 160.233 146.597 162.641 151.009C162.641 151.009 170.727 154.913 174.482 160.223C178.237 165.533 179.653 166.063 183.57 163.057C184.606 162.262 185.32 159.555 185.689 155.869C186.242 150.306 186.035 142.508 185.079 135.643C184.284 129.976 182.971 124.954 181.151 122.339C181.151 122.339 181.324 118.849 179.607 116.108C179.527 116.165 179.434 116.211 179.354 116.28C178.789 116.637 177.35 117.409 175.841 117.144C173.894 116.799 172.27 113.827 172.27 113.827C172.27 113.827 171.153 113.942 170.588 114.748C170.588 114.748 162.813 110.037 157.895 102.101C152.976 94.1764 152.182 93.1973 152.182 93.1973C152.182 93.1973 150.926 92.679 149.221 92.368C147.885 92.1146 146.261 91.9994 144.752 92.3449C144.752 92.3219 120.863 129.239 146.353 146.839Z" fill="url(#paint9_linear_74_2150)"/>
<path d="M95.4915 95.2923C95.4915 95.2923 98.4633 90.8462 98.4633 80.5026L121.639 69.1914C121.639 69.1914 120.475 77.1737 124.403 84.0963C125.44 85.9278 130.277 88.8189 130.277 88.8189C130.277 88.8189 109.095 114.943 98.924 112.432C88.7532 109.921 90.792 98.8515 90.792 98.8515C90.792 98.8515 92.5197 99.5196 95.4915 95.2923Z" fill="url(#paint10_linear_74_2150)"/>
<path d="M127.443 86.9219C127.443 86.9219 115.959 98.3598 106.076 99.0048C95.4908 99.6959 97.23 90.8958 97.23 90.8958C97.23 90.8958 92.4383 97.6111 93.809 102.898C95.1797 108.185 105.639 108.438 113.69 104.925C121.753 101.412 129.459 87.7627 129.459 87.7627L127.443 86.9219Z" fill="url(#paint11_linear_74_2150)"/>
<path opacity="0.83" d="M146.353 146.839L148.231 136.553C148.231 136.553 153.034 136.553 160.06 143.072C160.06 143.072 160.233 146.597 162.641 151.008C162.641 151.008 170.727 154.913 174.482 160.223C178.237 165.533 179.653 166.063 183.57 163.057C184.606 162.262 185.32 159.555 185.689 155.869L185.079 154.395V135.643C184.284 129.976 182.971 124.954 181.151 122.339C181.151 122.339 181.324 118.849 179.607 116.107C179.527 116.165 179.434 116.211 179.354 116.28C172.708 120.611 170.358 133.362 169.897 142.853C169.84 140.446 168.308 131.128 167.156 131.312C165.67 131.542 163.159 148.682 163.159 148.682C160.187 133.984 169.759 116.246 170.531 114.829C161.777 126.912 160.302 140.792 160.302 140.792L146.699 130.851C146.699 130.851 138.509 122.615 141.343 108.448C144.176 94.2798 149.221 92.3563 149.221 92.3563C147.885 92.1028 146.261 91.9877 144.752 92.3332C144.752 92.3217 120.863 129.238 146.353 146.839Z" fill="url(#paint12_linear_74_2150)"/>
<path d="M89.5561 78.0819C89.5791 78.1049 89.6252 78.1395 89.6482 78.1855C89.9707 78.5772 90.3163 78.8767 90.6849 79.061C95.8337 81.6987 109.541 81.0076 116.97 74.4881C119.792 72.0116 121.912 69.0399 123.593 66.0105C123.605 65.9875 123.616 65.976 123.616 65.976C126.312 61.0576 127.844 55.9548 129.329 52.4302C131.725 46.717 133.695 37.1567 133.211 31.6278C132.762 26.4905 131.725 22.1481 124.757 16.2045C117.788 10.261 100.648 9.91542 96.3059 15.859C91.9635 21.8025 92.0786 35.1755 91.0535 38.1473C90.0168 41.119 86.3655 44.6667 85.3403 48.6637C84.3728 52.3611 85.3749 72.864 89.5561 78.0819Z" fill="url(#paint13_linear_74_2150)"/>
<path d="M89.5078 41.02C89.5078 41.02 89.7267 44.5908 92.5141 44.8326C94.6911 45.0285 96.0273 41.8033 96.0273 41.8033C96.0273 41.8033 96.4189 33.0723 95.3131 28.7759L94.2765 25.3433C94.2765 25.3433 97.2598 22.2218 101.717 22.6135C106.175 23.0051 107.776 27.7622 107.776 27.7622C107.776 27.7622 103.814 39.0849 104.39 44.5447C104.39 44.5447 107.373 47.4013 112.407 47.0557C118.223 46.6641 121.149 43.197 121.149 43.197C121.149 43.197 124.328 46.906 124.927 50.062C125.653 53.8286 124.409 65.7502 124.409 65.7502C124.409 65.7502 128.406 52.838 129.5 49.0599C130.583 45.2934 132.587 28.5455 131.389 25.6889C130.191 22.8323 126.724 13.5254 111.888 11.6939C97.0409 9.86248 94.288 14.8385 94.288 14.8385L92.756 22.2103L92.7675 26.0114C92.7675 26.0114 91.7309 35.8137 91.3623 37.4493C90.9822 39.0964 89.5078 41.02 89.5078 41.02Z" fill="url(#paint14_linear_74_2150)"/>
<path d="M92.6926 26.378C92.6926 26.378 93.0957 21.3444 95.9523 16.3684C95.9523 16.3684 99.1314 19.7203 104.269 21.5057C104.269 21.5057 101.884 19.2941 100.767 17.5778C100.963 17.7276 104.165 20.2041 108.634 22.1161C108.634 22.1161 107.344 20.1465 107.344 19.2826C107.344 18.4187 110.604 14.6637 114.37 14.7443C118.148 14.8364 125.348 17.3129 128.941 24.1779C132.535 31.0314 128.918 31.665 126.949 33.4619C126.949 33.4619 127.939 41.9625 127.72 49.0809C127.651 51.2119 127.467 53.2046 127.133 54.8172C127.075 55.0821 127.018 55.324 126.949 55.5543L132.097 50.8548C132.097 50.8548 132.143 47.7102 134.125 43.2065C134.343 42.6882 134.597 42.1583 134.873 41.6054L134.896 41.5594C135 41.3405 135.127 41.1217 135.242 40.9028C136.474 38.5991 140.264 34.3027 139.711 29.9257C139.193 25.8136 131.706 22.2774 129.874 19.5245C129.874 19.5245 135.622 21.3559 138.34 24.0973C138.34 24.0973 137.903 21.5172 135.772 20.0658C133.641 18.6145 131.855 19.5129 128.757 18.269C125.659 17.025 121.466 6.61223 116.501 2.6729C111.525 -1.26642 100.122 -0.494684 96.4476 2.6729C95.5031 3.49072 94.789 4.46979 94.2706 5.48342H94.2591C94.2591 5.49494 94.2591 5.49494 94.2591 5.49494V5.50646C94.2476 5.5295 94.2361 5.52949 94.2361 5.55253C92.7156 8.46671 92.6696 11.5882 92.6696 11.5882C92.6696 11.5882 90.5501 20.3538 92.6926 26.378Z" fill="url(#paint15_linear_74_2150)"/>
<path d="M177.547 121.116L181.152 122.314C181.152 122.314 197.612 112.546 202.922 88.8068C202.922 88.8068 198.81 81.6884 198.637 79.1197C198.465 76.5511 201.091 71.172 201.897 64.4337C202.692 57.6953 201.102 52.5465 201.206 51.7518C201.321 50.957 205.433 50.8418 206.574 54.1476C207.714 57.465 205.998 63.4085 206.574 64.5488C207.149 65.6892 208.52 67.6358 208.52 67.6358C208.52 67.6358 214.579 58.4901 216.18 57.5801C217.781 56.6702 220.292 61.1509 221.432 61.3582C222.573 61.577 226.742 55.8063 230.774 52.4659C234.805 49.1256 242.35 42.0993 243.122 42.2605C243.893 42.4333 244.919 43.804 244.746 45.1747C244.573 46.5454 241.313 52.5466 236.349 54.9424C236.349 54.9424 230.348 59.0545 227.18 64.6295C227.18 64.6295 228.551 66.9447 229.495 67.0253C230.44 67.1059 235.842 63.5122 240.127 61.7959C244.412 60.0796 248.351 58.9624 249.042 59.2273C249.733 59.4807 249.468 61.0242 249.042 62.0608C248.616 63.086 244.757 66.0923 240.553 67.1174C240.553 67.1174 234.299 69.6054 232.237 72.1741C232.237 72.1741 232.49 74.7427 233.181 75.1689C233.872 75.5951 239.01 74.8233 242.177 74.3971C245.345 73.971 249.019 74.4778 249.457 74.9155C249.895 75.3417 249.549 76.8045 246.98 77.749C244.412 78.6936 241.325 78.0946 240.807 78.1752C240.288 78.2558 230.947 81.17 229.829 81.8611C228.712 82.5522 223.828 89.855 220.315 92.078C216.802 94.3011 211.745 93.1723 211.745 93.1723C211.745 93.1723 206.113 124.779 203.371 137.346C200.63 149.912 190.114 162.951 180.968 163.516C180.968 163.516 172.744 160.314 172.283 143.404C171.834 126.495 177.547 121.116 177.547 121.116Z" fill="url(#paint16_linear_74_2150)"/>
<path d="M78.463 156.213C78.463 156.213 81.884 174.102 77.4263 193.476C77.4263 193.476 74.6849 195.353 74.3394 197.761C74.3394 197.761 74.3394 197.784 74.3279 197.807C74.0053 200.191 74.5121 202.391 74.5121 202.391C74.5121 202.391 73.3142 203.589 72.2776 205.305C72.0817 205.628 71.9781 206.008 71.9435 206.423C71.7823 208.196 72.7959 210.443 72.7959 210.443C72.7959 210.443 74.8577 215.764 96.2821 217.642C117.707 219.531 134.339 223.643 134.339 223.643C134.339 223.643 135.629 219.358 133.268 216.11C133.268 216.11 136.919 212.85 136.747 211.652C136.574 210.454 128.684 196.736 130.734 187.141C132.796 177.546 140.502 169.748 144.798 151.007C144.798 151.007 147.655 150.051 147.827 148.669C148 147.298 146.572 145.064 146.572 145.064L146.054 146.043C146.054 146.043 136.286 140.445 138.912 116.786C141.538 93.1266 144.314 91.6868 149.21 92.3434C149.21 92.3434 145.305 88.7381 144.395 88.8187C143.485 88.8994 143.139 90.581 143.139 90.581C143.139 90.581 140.075 91.8366 136.482 90.581C132.876 89.3255 130.469 86.9297 130.469 86.9297C130.469 86.9297 108.757 105.313 99.2308 104.184C88.3574 102.894 96.0287 90.9957 96.0287 90.9957C96.0287 90.9957 89.1982 92.3319 85.5469 93.1842C81.884 94.0481 80.5133 93.1842 80.5133 93.1842C80.5133 93.1842 78.3363 89.9591 75.4797 92.113C72.6231 94.267 69.0869 106.154 70.2273 125.355C71.3676 144.545 78.463 156.213 78.463 156.213Z" fill="url(#paint17_linear_74_2150)"/>
<path d="M115.555 40.6406C115.555 40.6406 116.131 42.4029 115.832 43.981C115.532 45.5705 109.83 47.114 107.112 44.7067C104.417 42.3108 115.555 40.6406 115.555 40.6406Z" fill="#E87A8D"/>
<path d="M0.96875 121.128C8.05263 140.099 27.4843 180.449 27.4843 180.449C53.0784 185.367 77.083 181.243 77.083 181.243L78.4537 179.032C69.5384 152.067 50.337 116.912 50.337 116.912C26.7932 115.657 1.8787 119.424 1.8787 119.424L0.96875 121.128Z" fill="url(#paint18_linear_74_2150)"/>
<path opacity="0.62" d="M23.6584 149.671C23.6584 149.671 24.7412 162.411 21.7694 168.4L10.0781 142.898L15.6416 144.212L14.9159 146.792C14.9159 146.78 19.5463 146.561 23.6584 149.671Z" fill="url(#paint19_linear_74_2150)"/>
<path d="M10.9186 142.898C10.9186 142.898 9.05264 144.373 8.69556 145.582C8.29242 146.895 7.7856 150.201 11.6097 151.238L13.326 151.699C13.326 151.699 12.0705 152.275 11.8401 153.127C11.6097 153.979 13.038 155.868 15.3302 156.329C17.6109 156.79 21.4465 155.868 22.5869 154.843C23.7272 153.818 22.99 152.39 21.2738 151.987C21.2738 151.987 23.7848 151.422 23.6696 149.671C23.5544 147.921 17.7837 146.043 11.6673 146.607L10.9186 142.898Z" fill="url(#paint20_linear_74_2150)"/>
<path d="M95.4892 42.3317C95.4892 42.3317 94.5677 43.806 92.5174 43.3683C90.4671 42.9421 90.663 39.3829 91.0315 38.1389C91.4117 36.9064 95.4546 41.1798 95.4892 42.3317Z" fill="#E87A8D"/>
<path d="M6.29008 134.203C6.29008 134.203 3.20312 137.071 3.20312 139.041C3.20312 141.011 7.74141 143.499 15.551 144.466C15.551 144.466 16.2766 142.957 15.551 141.322C14.8253 139.697 10.9205 137.405 7.70686 136.898L6.29008 134.203Z" fill="url(#paint21_linear_74_2150)"/>
<path d="M15.2734 157.469C15.2734 157.469 20.5719 156.951 20.1112 161.8C20.1112 161.8 17.1509 162.215 14.9739 161.593C12.7969 160.959 13.0849 159.312 13.2577 158.736C13.442 158.149 13.6263 157.7 15.2734 157.469Z" fill="url(#paint22_linear_74_2150)"/>
<path d="M121.406 37.1232C121.406 37.1232 120.98 34.3587 118.273 31.5712C116.326 29.5555 112.571 27.5282 109.945 26.5031C109.945 26.5031 109.542 27.3555 109.542 28.9565C109.542 28.9565 109.116 27.4476 108.747 26.0078C108.747 26.0078 108.16 27.4361 108.333 30.2236C108.333 30.2236 110.636 31.0299 114.414 32.0665C119.137 33.3451 121.406 37.1232 121.406 37.1232Z" fill="url(#paint23_linear_74_2150)"/>
<path d="M96.032 40.6369C96.032 40.6369 96.032 33.4033 93.9356 33.0116C92.1733 32.6776 91.3555 36.7552 91.3555 36.7552L96.032 40.6369Z" fill="#77485E"/>
<path d="M115.832 42.6893C115.832 42.6893 115.901 37.6096 111.743 35.8127C107.584 34.0158 106.145 39.8442 106.145 39.8442L115.832 42.6893Z" fill="#77485E"/>
<path d="M105.719 42.6877C105.834 43.7475 107.263 45.6365 110.35 45.6365C113.091 45.6365 115.844 44.2658 115.832 42.6877C115.832 42.1349 115.683 41.5359 115.429 40.9369C114.876 39.6123 113.759 38.2877 112.411 37.4929C111.501 36.9631 110.488 36.6751 109.44 36.7788C106.122 37.1243 105.615 41.6396 105.719 42.6877Z" fill="url(#paint24_linear_74_2150)"/>
<path d="M90.9859 39.0943C90.9398 41.4441 91.9649 43.241 93.7503 43.2064C94.499 43.1834 94.9598 42.9761 95.2938 42.619C95.5702 42.308 95.7315 41.8818 95.8582 41.375C95.9158 41.1446 95.9849 40.9027 96.0425 40.6378C96.0425 40.6378 95.8467 38.4263 95.2592 36.6063C95.121 36.2032 94.9828 35.8346 94.8215 35.5236C94.5336 34.9592 94.1765 34.533 93.7503 34.3833C92.3566 33.8764 91.0204 36.7331 90.9859 39.0943Z" fill="url(#paint25_linear_74_2150)"/>
<path d="M221.445 61.359C221.445 61.359 224.025 64.8376 227.135 70.4355C229.67 74.9969 229.854 81.8619 229.854 81.8619C229.854 81.8619 233.459 80.2378 235.429 79.8001C237.398 79.3624 230.626 68.9151 230.626 68.9151L222.931 60.4375L221.445 61.359Z" fill="url(#paint26_linear_74_2150)"/>
<path d="M108.309 41.0198C108.309 42.9894 109.898 44.579 111.879 44.579C113.849 44.579 115.45 42.9894 115.45 41.0198C115.45 40.9967 115.45 40.9506 115.439 40.9276C114.886 39.603 113.768 38.2783 112.421 37.4836C112.248 37.4605 112.064 37.4375 111.879 37.4375C109.898 37.449 108.309 39.0501 108.309 41.0198Z" fill="url(#paint27_radial_74_2150)"/>
<path d="M109.406 41.0156C109.406 42.3863 110.512 43.492 111.883 43.492C113.253 43.492 114.359 42.3863 114.359 41.0156C114.359 39.6448 113.253 38.5391 111.883 38.5391C110.512 38.5506 109.406 39.6564 109.406 41.0156Z" fill="url(#paint28_linear_74_2150)"/>
<path d="M92.5156 39.0824C92.5156 41.0521 93.5984 42.6417 94.946 42.6417C95.0612 42.6417 95.1764 42.6301 95.2916 42.6071C95.568 42.2961 95.7293 41.8699 95.856 41.3631C95.9136 41.1327 95.9827 40.8908 96.0403 40.6259C96.0403 40.6259 95.8445 38.4144 95.257 36.5944C95.1188 36.1913 94.9806 35.8227 94.8193 35.5117C93.5293 35.6154 92.5156 37.1819 92.5156 39.0824Z" fill="url(#paint29_radial_74_2150)"/>
<path d="M240.554 67.1182C240.554 67.1182 238.159 67.9706 237.087 67.7171C236.016 67.4637 235.463 65.1255 235.463 64.8375C235.463 64.5496 238.539 62.4993 238.539 62.4993L234.657 64.4574L230.844 59.9537C230.844 59.9537 232.975 57.1892 236.005 55.1965C236.005 55.1965 232.895 57.074 231.95 56.3945C231.006 55.7033 230.614 54.4248 230.614 53.7798C230.614 53.1347 233.793 49.875 233.793 49.875C233.793 49.875 229.013 53.7913 228.61 54.4478C228.218 55.1044 230.867 64.6072 230.867 64.6072L236.039 69.2837C236.039 69.2952 239.138 67.8438 240.554 67.1182Z" fill="url(#paint30_linear_74_2150)"/>
<path d="M93.5195 39.0854C93.5195 40.4562 94.2682 41.5504 95.2012 41.5504C95.4316 41.5504 95.6505 41.4813 95.8578 41.3546C95.9154 41.1242 95.9845 40.8823 96.0421 40.6174C96.0421 40.6174 95.8463 38.4059 95.2588 36.5859H95.2012C94.2798 36.609 93.5195 37.7263 93.5195 39.0854Z" fill="url(#paint31_linear_74_2150)"/>
<path d="M95.176 26.4375C95.176 26.4375 97.088 36.6083 96.0399 41.8032C96.0399 41.8032 96.6619 33.9821 94.2891 28.4187L95.176 26.4375Z" fill="#E87A8D"/>
<path d="M95.5472 30.2575C95.5472 30.2575 95.3169 26.8249 94.8101 23.9108L94.4645 25.1087L93.4624 22.5977C93.4624 22.5977 90.8822 24.1642 92.4603 27.5276C92.4718 27.5391 94.119 27.3433 95.5472 30.2575Z" fill="url(#paint32_linear_74_2150)"/>
<path d="M105.522 55.1484C105.522 55.1484 105.303 57.4752 101.018 58.7883C96.7334 60.1014 93.0705 59.2951 91.7344 57.8092C91.7344 57.8092 93.1166 59.4679 95.6276 59.9286C98.1386 60.3894 101.951 59.7904 103.737 58.4197C105.706 56.9108 106.109 55.5631 106.109 55.5631L105.522 55.1484Z" fill="#E87A8D"/>
<path d="M107.377 56.1274C107.377 56.1274 105.292 55.0562 103.438 54.7452C103.438 54.7452 105.407 54.3766 106.329 54.607C107.239 54.8374 107.377 56.1274 107.377 56.1274Z" fill="#E37E7F"/>
<path d="M102.976 49.8075C102.976 49.8075 100.005 49.8075 97.2632 49.9803C94.5218 50.1531 91.9992 49.8075 90.9741 49.0703C90.9741 49.0703 90.8013 52.2725 94.2338 54.2191C94.2338 54.2191 95.6045 54.7374 97.0328 54.2191C97.0328 54.2191 98.3459 52.7908 100.799 52.33C100.811 52.3185 103.092 51.6389 102.976 49.8075Z" fill="url(#paint33_linear_74_2150)"/>
<path d="M97.5499 44.5894C101.098 45.0847 102.975 49.8073 102.975 49.8073L96.2944 50.9476C93.265 50.7749 90.9844 49.0586 90.9844 49.0586C90.9844 49.0586 94.0022 44.0941 97.5499 44.5894Z" fill="url(#paint34_linear_74_2150)"/>
<path d="M101.02 52.2363C101.02 52.2363 100.686 51.9253 99.5918 51.9944C98.4976 52.0635 97.4609 53.8258 97.4609 53.8258C97.4609 53.8258 98.5897 52.7892 101.02 52.2363Z" fill="#9F4A8B"/>
<path d="M223.405 43.4726L234.52 64.1484C234.52 64.1484 237.388 76.1276 242.71 80.8387C242.71 80.8387 243.332 83.1308 241.788 86.5864L218.383 43.0695C218.383 43.081 221.182 41.8946 223.405 43.4726Z" fill="url(#paint35_linear_74_2150)"/>
<path d="M215.94 47.4819L227.055 68.1576C227.055 68.1576 235.464 77.1535 236.466 84.1913C236.466 84.1913 238.044 85.9767 241.776 86.5872L218.37 43.0703C218.382 43.0818 215.848 44.752 215.94 47.4819Z" fill="url(#paint36_linear_74_2150)"/>
<path d="M242.226 85.4922L240.613 86.3561C240.613 86.3561 241.984 88.0838 242.445 87.8304C242.917 87.577 242.226 85.4922 242.226 85.4922Z" fill="url(#paint37_linear_74_2150)"/>
<path d="M242.709 80.8505L236.477 84.2023C236.477 84.2023 235.751 78.1782 227.066 68.1686L234.519 64.1602C234.519 64.1602 236.247 73.4326 242.709 80.8505Z" fill="url(#paint38_linear_74_2150)"/>
<path d="M214.359 59.4831C214.359 59.4831 218.011 54.9563 221.213 49.9227C224.415 44.8891 230.186 36.7801 232.155 37.6325C234.125 38.4848 232.409 43.6336 230.612 46.8933C228.815 50.1531 226.5 51.351 225.463 53.0673C224.438 54.7835 221.432 61.3606 221.432 61.3606C221.432 61.3606 216.79 62.4664 214.359 59.4831Z" fill="url(#paint39_linear_74_2150)"/>
<path d="M43.8086 182.5C43.8086 182.5 45.2599 189.434 44.6379 189.86C44.0044 190.286 40.6641 182.246 40.6641 182.246L43.8086 182.5Z" fill="url(#paint40_linear_74_2150)"/>
<path d="M127.502 53.8955C127.502 53.8955 133.169 48.2514 136.544 51.442C140.564 55.2316 137.719 63.571 133.273 67.1763C129.414 70.3093 125.256 69.48 124.392 65.748C124.415 65.748 123.229 57.328 127.502 53.8955Z" fill="url(#paint41_linear_74_2150)"/>
<path d="M127.65 59.2078C127.65 59.2078 130.979 55.303 133.732 56.3051C136.485 57.3072 135.69 61.6958 135.69 61.6958C135.69 61.6958 135.656 58.4936 133.87 58.0098C132.085 57.5261 130.991 59.8413 130.991 59.8413C130.991 59.8413 131.947 59.9219 131.912 62.6288C131.877 65.3356 128.721 67.8466 127.466 65.9346C126.222 64.011 127.65 59.2078 127.65 59.2078Z" fill="#E87A8D"/>
<path d="M107.781 41.2396C107.781 41.5736 108.046 41.8385 108.38 41.8385C108.714 41.8385 108.979 41.5736 108.979 41.2396C108.979 40.9056 108.714 40.6406 108.38 40.6406C108.046 40.6406 107.781 40.9056 107.781 41.2396Z" fill="white"/>
<path d="M91.7344 39.1495C91.7344 39.4836 92.0108 39.76 92.3449 39.76C92.6789 39.76 92.9553 39.4836 92.9553 39.1495C92.9553 38.8155 92.6789 38.5391 92.3449 38.5391C92.0108 38.5506 91.7344 38.8155 91.7344 39.1495Z" fill="white"/>
<path d="M121.646 75.135C121.646 75.135 112.742 92.4357 97.2266 90.8923C97.2266 90.8923 98.6088 84.822 98.4591 80.5026C98.4591 80.5026 105.681 80.3068 111.037 78.0952C117.073 75.5957 121.634 69.1914 121.634 69.1914L121.646 75.135Z" fill="url(#paint42_linear_74_2150)"/>
<path d="M214.359 84.6632C218.563 85.8612 226.384 82.1637 227.064 78.6045C227.743 75.0453 222.468 65.4043 217.757 66.0033C213.046 66.6022 210.776 70.0808 211.755 73.2023C212.873 76.7961 211.951 83.9836 214.359 84.6632Z" fill="url(#paint43_linear_74_2150)"/>
<path d="M208.52 67.6352C208.52 67.6352 213.208 75.4332 212.781 81.8606C212.781 81.8606 214.014 72.5536 209.637 65.9766L208.52 67.6352Z" fill="url(#paint44_linear_74_2150)"/>
<path d="M211.76 93.1737C211.76 93.1737 207.383 92.3213 205.586 91.0312L210.735 98.8408C210.735 98.8408 211.426 95.7308 211.76 93.1737Z" fill="url(#paint45_linear_74_2150)"/>
<path d="M181.153 122.327C181.153 122.327 178.101 125.932 176.062 140.1C174.035 154.267 179.621 162.71 179.621 162.71C179.621 162.71 173.954 161.639 172.273 145.064C170.579 128.489 177.56 121.117 177.56 121.117L181.153 122.327Z" fill="url(#paint46_linear_74_2150)"/>
<path opacity="0.62" d="M72.7959 210.43C72.7959 210.43 74.8577 215.751 96.2821 217.629C117.707 219.518 134.339 223.63 134.339 223.63C134.339 223.63 135.629 219.345 133.268 216.097C133.268 216.097 136.919 212.837 136.747 211.639C136.574 210.441 128.684 196.723 130.734 187.128C132.796 177.533 140.502 169.735 144.798 150.994C144.798 150.994 147.655 150.038 147.827 148.656C148 147.285 146.572 145.051 146.572 145.051L146.054 146.03C146.054 146.03 136.286 140.432 138.912 116.773C141.538 93.1139 144.314 91.6741 149.21 92.3307C149.21 92.3307 145.305 88.7254 144.395 88.806C144.395 88.806 138.59 93.1715 134.581 116.635C131.229 136.285 125.643 148.552 125.643 148.552C125.643 148.552 114.654 152.665 101.765 152.238C88.8988 151.812 90.2119 150.188 78.9122 151.006C78.9122 151.006 103.32 153.609 112.569 155.291C121.819 156.972 130.273 160.474 130.273 160.474C130.273 160.474 122.429 178.742 123.719 190.906C124.641 199.614 127.831 206.894 127.831 206.894C127.831 206.894 126.219 207.527 110.484 206.848C94.7502 206.157 74.3509 197.759 74.3509 197.759C74.3509 197.759 74.3509 197.783 74.3394 197.806C74.2703 198.163 73.8902 200.57 74.5237 202.39C74.5237 202.39 90.2349 205.822 104.748 208.564C119.262 211.305 127.831 215.763 127.831 215.763C127.831 215.763 124.871 217.422 102.26 214.957C79.6494 212.503 73.1069 210.994 71.9666 206.398L71.9551 206.421C71.7938 208.195 72.7959 210.43 72.7959 210.43Z" fill="url(#paint47_linear_74_2150)"/>
<path opacity="0.62" d="M133.282 156.229C133.282 156.229 130.599 152.647 124.402 151.644C118.205 150.642 108.391 153.027 102.344 153.015C102.344 153.015 119.241 156.217 125.646 157.127C132.061 158.037 133.282 156.229 133.282 156.229Z" fill="url(#paint48_linear_74_2150)"/>
<path opacity="0.62" d="M80.5246 93.1747C80.5246 93.1747 74.3507 103.979 73.2104 127.062C73.2104 127.062 72.1852 108.805 78.4743 91.5391C78.4628 91.5391 79.4534 91.804 80.5246 93.1747Z" fill="url(#paint49_linear_74_2150)"/>
<path opacity="0.62" d="M81.3828 102.895C81.3828 102.895 83.2603 116.452 97.9234 135.872C97.9234 135.872 88.3285 128.097 84.9651 120.552C81.3828 112.547 81.3828 102.895 81.3828 102.895Z" fill="url(#paint50_linear_74_2150)"/>
<path opacity="0.62" d="M117.811 189.883C117.811 189.883 113.549 196.782 104.289 198.499C95.0277 200.215 82.6914 197.013 82.6914 197.013C82.6914 197.013 94.5785 199.075 103.494 196.103C112.409 193.12 117.811 189.883 117.811 189.883Z" fill="url(#paint51_linear_74_2150)"/>
<path opacity="0.5" d="M148.231 136.555C148.231 136.555 141.297 133.687 138.625 128.492C138.625 128.492 139.04 141.358 146.066 146.046C146.066 146.046 147.817 140.828 148.231 136.555Z" fill="url(#paint52_linear_74_2150)"/>
<path opacity="0.62" d="M100.869 256.175L97.2063 242.146C97.2063 242.146 90.8481 232.781 80.5391 228.508L90.6984 244.357L100.869 256.175Z" fill="url(#paint53_linear_74_2150)"/>
<path opacity="0.62" d="M141.553 314.467C141.784 312.06 139.906 300.299 137.165 273.081C134.492 246.554 135.414 241.186 135.437 240.668C135.967 247.418 136.681 255.815 137.614 263.636C139.849 282.423 148.246 310.781 150.469 314.939C152.703 319.097 159.729 330.236 161.273 337.665C164.913 362.591 164.199 393.092 164.199 393.092L147.359 403.321C156.262 399.07 163.703 397.354 167.677 396.698C168.956 401.075 170.787 410.243 170.787 410.243L169.532 412.547L163.738 407.272C159.822 408.089 145.585 416.003 145.585 416.003L142.452 422.107C141.668 417.984 141.196 406.281 141.196 406.281L144.087 402.526C142.613 383.555 136.98 354.068 133.467 336.894C132.696 333.922 129.827 323.117 128.342 320.169C128.342 320.169 125.255 318.545 123.723 316.736C130.127 322.657 141.323 316.874 141.553 314.467Z" fill="url(#paint54_linear_74_2150)"/>
<path opacity="0.62" d="M60.6929 399.175L83.3498 405.591C80.1592 401.225 65.5767 396.756 65.5767 396.756C70.5182 374.272 72.1653 334.464 72.2575 320.446C72.2344 320.296 72.1999 320.146 72.1768 320.02C71.67 317.727 70.7485 315.735 70.0114 313.074C73.0062 319.593 84.8011 316.829 89.1436 308.639C91.1478 304.861 100.017 260.388 100.812 256.438C100.201 260.112 93.152 302.995 94.4651 315.435C95.8358 328.451 96.9762 332.483 97.8976 337.689H97.84C98.2893 339.636 98.5888 340.891 98.5888 340.891C98.128 358.756 89.6734 401.029 89.8232 402.02C89.9844 403.01 92.484 405.314 92.3227 406.742C92.173 408.171 88.8902 417.524 88.8902 417.524C77.3026 409.127 62.7547 409.276 62.7547 409.276L61.1191 411.43C61.1306 411.43 60.5892 403.137 60.6929 399.175Z" fill="url(#paint55_linear_74_2150)"/>
<path opacity="0.62" d="M141.264 315.148C141.264 315.148 139.363 323.914 130.171 325.216L128.351 320.194C128.351 320.194 124.873 317.959 124.297 317.36C124.297 317.36 126.866 319.41 132.774 318.443C138.695 317.475 141.264 315.148 141.264 315.148Z" fill="url(#paint56_linear_74_2150)"/>
<path opacity="0.62" d="M84.6248 314.353C84.6248 314.353 80.4666 319.282 72.1733 320.008C72.1733 320.008 70.6183 315.746 70.0078 313.062C70.0078 313.062 73.4749 316.53 77.3105 316.53C81.3766 316.53 84.6248 314.353 84.6248 314.353Z" fill="url(#paint57_linear_74_2150)"/>
<path d="M0.96875 121.128C35.6049 116.671 49.6805 118.732 49.6805 118.732C62.0744 139.949 77.083 181.243 77.083 181.243L78.4537 179.032C69.5384 152.067 50.337 116.912 50.337 116.912C26.7932 115.657 1.8787 119.424 1.8787 119.424L0.96875 121.128Z" fill="url(#paint58_linear_74_2150)"/>
<path d="M13.3179 151.699C13.3179 151.699 17.8332 152.218 21.2657 151.987C21.2657 151.987 16.5546 152.851 12.7305 152.045L13.3179 151.699Z" fill="url(#paint59_linear_74_2150)"/>
<path opacity="0.83" d="M130.358 94.9844C130.335 95.0535 130.312 95.1226 130.289 95.1917C130.324 95.0996 130.347 95.0189 130.358 94.9844Z" fill="url(#paint60_linear_74_2150)"/>
<path d="M127.832 206.888C127.832 206.888 119.469 207.164 102.249 204.1C83.9347 200.841 77.4268 193.469 77.4268 193.469C77.4268 193.469 74.8006 195.185 74.3398 197.754C74.3398 197.754 89.8668 204.308 102.249 205.92C114.632 207.533 125.321 207.648 127.832 206.888Z" fill="url(#paint61_linear_74_2150)"/>
<path d="M110.004 215.71C110.004 215.71 99.637 214.039 88.0609 211.217C76.4848 208.384 72.2806 205.297 72.2806 205.297C72.2806 205.297 70.3685 209.017 77.9707 211.16C85.5844 213.314 110.004 215.71 110.004 215.71Z" fill="url(#paint62_linear_74_2150)"/>
<path opacity="0.5" d="M63.0506 146.088L25.7422 176.796L27.493 180.447C27.493 180.447 51.0368 185.297 77.0917 181.242L78.4624 179.031C78.4624 179.031 70.0538 156.524 64.3983 144.844L63.0506 146.088Z" fill="url(#paint63_linear_74_2150)"/>
<path opacity="0.62" d="M134.501 250.172C134.501 250.172 136.839 269.88 132.773 290.867L134.501 250.172Z" fill="url(#paint64_linear_74_2150)"/>
<path opacity="0.62" d="M96.1244 254.973C96.1244 254.973 89.7777 281.466 84.6289 292.731C84.6289 292.731 94.7537 278.102 98.4281 268.22L100.812 256.436L97.9098 243.777L96.1244 254.973Z" fill="url(#paint65_linear_74_2150)"/>
<path d="M96.0314 90.9828L97.2293 90.8906C97.2293 90.8906 94.7528 94.853 94.246 98.1012C93.7277 101.361 95.8931 103.457 99.245 104.171C99.245 104.171 93.8544 103.86 93.1633 100.14C92.4721 96.431 96.0314 90.9828 96.0314 90.9828Z" fill="url(#paint66_linear_74_2150)"/>
<path d="M134.447 23.5215C134.447 23.5215 140.195 26.8273 140.368 31.2043C140.54 35.5813 136.843 38.3918 136.843 38.3918L136.336 36.0306C136.336 36.0306 133.503 36.4913 130.853 35.5237C128.193 34.5562 126.972 33.4619 126.972 33.4619C126.972 33.4619 130.347 31.4807 130.427 28.1749C130.508 24.8691 124.668 18.9141 124.668 18.9141L129.909 19.5245C129.897 19.513 133.238 22.1853 134.447 23.5215Z" fill="url(#paint67_linear_74_2150)"/>
<path opacity="0.84" d="M107.354 19.2943C107.354 19.2943 102.09 13.5811 101.03 9.58417C99.9701 5.58725 104.197 3.64062 104.197 3.64062C104.197 3.64062 102.7 5.29929 103 9.12343C103.276 12.9476 107.354 19.2943 107.354 19.2943Z" fill="url(#paint68_linear_74_2150)"/>
<path opacity="0.84" d="M123.712 18.1794C123.712 18.1794 118.356 8.78031 113.334 8.66513C108.312 8.54994 106.837 17.8108 107.356 19.2967C107.356 19.2967 107.505 15.6338 113.749 15.4495C119.98 15.2652 123.712 18.1794 123.712 18.1794Z" fill="url(#paint69_linear_74_2150)"/>
<path opacity="0.84" d="M95.9515 16.3813C95.9515 16.3813 93.1986 12.8567 92.6918 11.5781C92.6918 11.5781 92.0007 14.6766 91.874 16.8997C91.874 16.8997 91.4708 17.9363 94.9033 18.4431L95.9515 16.3813Z" fill="url(#paint70_linear_74_2150)"/>
<path opacity="0.62" d="M132.107 50.8419L122.927 43.1936C122.927 43.1936 122.581 50.4503 116.235 51.7403C109.888 53.0304 105.165 50.9571 103.426 46.9486C101.698 42.9402 101.376 37.3768 101.376 37.3768C101.376 37.3768 100.95 36.7317 98.9224 36.7548C96.8951 36.7778 96.0312 37.5726 96.0312 37.5726V34.117C96.0312 34.117 100.235 33.472 102.055 34.9464C102.055 34.9464 101.433 46.0732 105.396 48.8262C109.358 51.5791 112.733 51.9362 116.972 49.7822C120.255 48.112 121.637 42.8135 120.612 39.7496L123.687 40.3716L132.487 50.7037L132.107 50.8419Z" fill="url(#paint71_linear_74_2150)"/>
<path d="M102.687 46.6021C104.427 49.2513 107.375 51.2901 113.653 50.0461C119.021 48.9864 123.363 41.5685 119.977 37.825C116.59 34.0815 104.519 31.893 102.78 34.2082C101.225 36.293 100.844 43.8031 102.687 46.6021ZM103.436 34.8071C105.141 33.0103 119.101 35.049 120.126 39.7601C121.152 44.4711 116.556 48.6639 113.86 49.378C109.483 50.5414 104.288 49.2283 102.872 45.3235C101.455 41.4072 102.065 36.2585 103.436 34.8071Z" fill="url(#paint72_linear_74_2150)"/>
<path d="M102.363 46.5708C104.103 49.2201 107.051 51.2589 113.329 50.0149C118.697 48.9552 123.039 41.5372 119.653 37.7937C116.266 34.0502 104.195 31.8617 102.455 34.1769C100.889 36.2618 100.52 43.7718 102.363 46.5708ZM103.112 34.7644C104.817 32.9675 118.777 35.0062 119.802 39.7173C120.827 44.4284 116.232 48.6211 113.536 49.3353C109.159 50.4986 103.964 49.1855 102.548 45.2808C101.131 41.376 101.73 36.2157 103.112 34.7644Z" fill="url(#paint73_linear_74_2150)"/>
<path d="M89.0695 46.5214C89.7721 47.0167 92.1104 47.5351 93.746 45.3465C96.3492 41.891 96.8675 33.6668 95.9115 32.9872C94.4486 31.939 88.5742 31.294 87.5491 32.9872C86.5239 34.6804 87.1229 45.1507 89.0695 46.5214ZM88.1941 33.4364C89.5648 31.9275 94.3565 32.3652 95.3125 33.805C96.4529 35.5328 94.8979 43.5151 93.1355 45.1392C91.1774 46.9476 89.1847 46.4293 88.3784 44.2062C87.4454 41.6145 86.8234 34.9453 88.1941 33.4364Z" fill="url(#paint74_linear_74_2150)"/>
<path d="M88.7026 46.5214C89.4052 47.0167 91.7434 47.5351 93.3791 45.3465C95.9823 41.891 96.5006 33.6668 95.5446 32.9872C94.0817 31.939 88.2073 31.294 87.1821 32.9872C86.1685 34.6804 86.7675 45.1507 88.7026 46.5214ZM87.8272 33.4364C89.1979 31.9275 93.9896 32.3652 94.9456 33.805C96.0859 35.5328 94.5309 43.5151 92.7686 45.1392C90.8104 46.9476 88.8177 46.4293 88.0114 44.2062C87.09 41.6145 86.4565 34.9453 87.8272 33.4364Z" fill="url(#paint75_linear_74_2150)"/>
<path d="M101.883 35.339C101.883 35.339 99.2454 33.3694 95.9857 34.7746C95.9857 34.7746 96.0548 34.072 95.8359 33.5767C95.8359 33.5767 98.1512 32.8856 102.643 33.9683C102.655 33.9798 102.033 34.9244 101.883 35.339Z" fill="url(#paint76_linear_74_2150)"/>
<path d="M120.633 38.7578L123.708 39.7484L133.752 50.4721C133.752 50.4721 133.407 50.3685 132.508 50.714L123.512 41.1997C123.512 41.1997 122.027 40.4165 120.978 40.6353C120.99 40.6353 121.036 39.3913 120.633 38.7578Z" fill="url(#paint77_linear_74_2150)"/>
<path d="M124.893 41.0156L124.801 42.5591L126.863 44.7361L126.955 43.2272L124.893 41.0156Z" fill="url(#paint78_linear_74_2150)"/>
<path d="M101.856 33.7966L101.326 34.3495C101.326 34.3495 99.7711 34.0039 98.2852 33.9924C96.7993 33.9809 96.4307 34.1537 96.4307 34.1537L96.0391 33.5317C96.0391 33.5432 98.6653 32.9673 101.856 33.7966Z" fill="#D7E2FF"/>
<path d="M94.6684 32.5631L94.3459 32.9893C94.3459 32.9893 92.261 31.7568 88.8516 32.5631L88.9437 32.0793C88.9437 32.0793 91.8003 31.561 94.6684 32.5631Z" fill="#D7E2FF"/>
<path d="M107.776 33.855L107.614 33.3712C107.614 33.3712 103.767 32.9681 102.719 34.0393C101.671 35.1105 101.383 37.3912 101.383 37.3912L101.855 37.4603C101.855 37.4603 102.224 35.0414 103.387 34.3388C104.573 33.6016 107.776 33.855 107.776 33.855Z" fill="#D7E2FF"/>
<path d="M116.242 47.8581C116.242 47.8581 114.215 50.3806 109.584 50.0005C104.954 49.6089 102.984 46.2109 102.984 46.2109C102.984 46.2109 105.173 49.6435 109.7 49.7817C114.215 49.9199 116.242 47.8581 116.242 47.8581Z" fill="#D7D9FF"/>
<path d="M92.783 45.1419C92.783 45.1419 91.5275 46.5472 90.1107 46.3514C88.6939 46.1555 88.1641 44.543 88.1641 44.543C88.1641 44.543 88.9704 46.1901 90.4678 46.098C91.9767 46.0288 92.783 45.1419 92.783 45.1419Z" fill="#D7D9FF"/>
<path d="M111.316 49.7505C111.316 49.7505 110.959 50.027 109.957 50.05C108.954 50.073 107.906 49.5547 107.906 49.5547C107.906 49.5547 109.876 49.8657 111.316 49.7505Z" fill="#D7D9FF"/>
<path d="M91.7081 45.9483C91.7081 45.9483 90.6023 46.3515 89.7038 45.9483C88.8169 45.5452 88.6211 45.2227 88.6211 45.2227C88.6211 45.2227 88.6557 46.2363 89.7499 46.3745C90.8442 46.5012 91.7081 45.9483 91.7081 45.9483Z" fill="#D7D9FF"/>
<path d="M114.847 48.9894C114.847 48.9894 115.02 45.2804 110.62 42.6887C106.22 40.0971 102.166 42.2971 102.166 42.2971C102.166 42.2971 102.027 45.5223 104.389 47.7454C106.773 49.9684 111.933 50.0951 114.847 48.9894Z" fill="#D7D9FF"/>
<path d="M93.6915 43.7223C93.6915 43.7223 90.7312 39.9442 87.4023 38.7578C87.4023 38.7578 87.4715 43.8605 88.6233 45.2197C89.7867 46.5789 91.9867 47.0166 93.6915 43.7223Z" fill="#D7D9FF"/>
<path d="M119.674 40.9028C119.674 40.9028 119.202 43.9091 117.486 45.5217L115.758 45.107C115.758 45.107 117.094 39.9122 117.128 37.332C117.128 37.332 119.329 38.6451 119.674 40.9028Z" fill="url(#paint79_linear_74_2150)"/>
<path d="M89.6484 78.175C89.971 78.5667 90.3165 78.8661 90.6851 79.0504C95.8339 81.6882 109.541 80.9971 116.97 74.4776C119.792 72.0011 121.912 69.0294 123.593 66C123.236 66.4607 119.435 72.9572 110.451 76.5394C101.063 80.2829 90.305 79.1196 89.6484 78.175Z" fill="url(#paint80_linear_74_2150)"/>
<path d="M29.2109 431.113L89.6255 429.857L88.7731 425.526L88.3584 423.453L88.8998 417.509C88.8998 417.509 83.1866 412.211 75.2043 408.122L75.1813 408.11C71.5529 406.267 67.4524 404.643 63.2135 403.895C63.2135 403.895 54.6553 412.476 52.7202 413.731C50.7851 414.987 33.0927 419.456 31.9639 420.02C31.4225 420.297 30.7659 422.9 30.2246 425.526C29.6371 428.314 29.2109 431.113 29.2109 431.113Z" fill="url(#paint81_radial_74_2150)"/>
<path fill-rule="evenodd" clip-rule="evenodd" d="M30.2266 425.526L41.987 425.1H42.0445L53.4479 424.685L88.3719 423.441L88.9133 417.498C88.9133 417.498 83.2001 412.199 75.2178 408.11L75.1948 408.099C71.5665 406.256 67.4659 404.632 63.2271 403.883C63.2271 403.883 54.6688 412.464 52.7337 413.72C50.7986 414.975 33.1062 419.444 31.9774 420.009C31.4245 420.308 30.7679 422.911 30.2266 425.526Z" fill="#452651"/>
<path opacity="0.4" fill-rule="evenodd" clip-rule="evenodd" d="M88.7735 425.526L88.3588 423.452L88.9002 417.509C88.9002 417.509 83.187 412.21 75.2047 408.121L84.9954 416.553L82.6572 420.814L66.37 421.886L53.4463 424.685L42.043 425.099L88.7735 425.526Z" fill="#7C0477"/>
<path d="M182.12 435.455C167.964 437.794 152.022 435.525 146.758 434.638C145.595 434.442 144.961 434.315 144.961 434.315L144.823 432.368L143.648 431.343C143.648 431.343 142.323 428.256 142.208 426.77C142.105 425.285 143.613 415.943 143.613 415.943C145.848 413.305 148.751 411.474 151.734 410.218C151.734 410.207 151.746 410.207 151.757 410.207C159.048 407.131 166.858 407.396 166.858 407.396C166.858 407.396 171.108 414.987 173.976 418.477C174.61 419.249 180.473 423.557 180.473 423.557C181.129 425.008 181.544 426.586 181.786 428.107C182.488 431.988 182.12 435.455 182.12 435.455Z" fill="url(#paint82_radial_74_2150)"/>
<path fill-rule="evenodd" clip-rule="evenodd" d="M181.809 428.107C181.394 428.141 170.417 429.12 159.382 429.328L158.898 429.339H158.518C154.153 429.408 149.799 429.351 146.159 429.051L144.074 427.231L142.197 426.77C142.093 425.285 143.602 415.943 143.602 415.943C145.836 413.305 148.739 411.474 151.722 410.218C151.722 410.207 151.734 410.207 151.745 410.207C159.037 407.131 166.846 407.396 166.846 407.396C166.846 407.396 171.096 414.987 173.965 418.477C174.598 419.249 180.461 423.557 180.461 423.557C181.152 425.008 181.567 426.586 181.809 428.107Z" fill="#452651"/>
<path opacity="0.4" fill-rule="evenodd" clip-rule="evenodd" d="M158.906 429.339L146.443 429.743L146.766 434.638C145.602 434.442 144.969 434.315 144.969 434.315L144.831 432.369L143.656 431.344C143.656 431.344 142.331 428.257 142.216 426.771C142.112 425.285 143.621 415.943 143.621 415.943C145.856 413.306 148.759 411.474 151.742 410.219C149.45 411.382 145.971 413.548 145.084 416.358L147.342 422.751L148.263 427.266C148.263 427.266 152.295 429.328 158.526 429.328H158.906V429.339Z" fill="#7C0477"/>
<defs>
<linearGradient id="paint0_linear_74_2150" x1="40.8889" y1="312.445" x2="40.8889" y2="189.855" gradientUnits="userSpaceOnUse">
<stop stop-color="#1C257B"/>
<stop offset="1" stop-color="#482C83"/>
</linearGradient>
<linearGradient id="paint1_linear_74_2150" x1="61.6691" y1="194.384" x2="61.6691" y2="95.2915" gradientUnits="userSpaceOnUse">
<stop stop-color="#744FD8"/>
<stop offset="1" stop-color="#3996F7"/>
</linearGradient>
<linearGradient id="paint2_linear_74_2150" x1="64.1953" y1="194.212" x2="64.1953" y2="95.2915" gradientUnits="userSpaceOnUse">
<stop stop-color="#9D68C2"/>
<stop offset="1" stop-color="#CCEDFF"/>
</linearGradient>
<linearGradient id="paint3_linear_74_2150" x1="115.728" y1="422.136" x2="115.728" y2="209.692" gradientUnits="userSpaceOnUse">
<stop stop-color="#1C257B"/>
<stop offset="1" stop-color="#482C83"/>
</linearGradient>
<linearGradient id="paint4_linear_74_2150" x1="102.261" y1="256.175" x2="102.261" y2="209.688" gradientUnits="userSpaceOnUse">
<stop stop-color="#8B8BE0"/>
<stop offset="1" stop-color="#A177B7"/>
</linearGradient>
<linearGradient id="paint5_linear_74_2150" x1="43.1201" y1="190.895" x2="43.1201" y2="174.61" gradientUnits="userSpaceOnUse">
<stop offset="0.016" stop-color="#FFC2A9"/>
<stop offset="1" stop-color="#FF9595"/>
</linearGradient>
<linearGradient id="paint6_linear_74_2150" x1="103.062" y1="224.828" x2="103.062" y2="209.348" gradientUnits="userSpaceOnUse">
<stop stop-color="#D1C8F8"/>
<stop offset="1" stop-color="#EEE5F9"/>
</linearGradient>
<linearGradient id="paint7_linear_74_2150" x1="103.288" y1="224.832" x2="103.288" y2="209.352" gradientUnits="userSpaceOnUse">
<stop stop-color="#8B8BE0"/>
<stop offset="1" stop-color="#A177B7"/>
</linearGradient>
<linearGradient id="paint8_linear_74_2150" x1="15.3563" y1="160.465" x2="15.3563" y2="155.281" gradientUnits="userSpaceOnUse">
<stop offset="0.016" stop-color="#FFA58B"/>
<stop offset="1" stop-color="#FF898E"/>
</linearGradient>
<linearGradient id="paint9_linear_74_2150" x1="160.294" y1="164.878" x2="160.294" y2="92.1036" gradientUnits="userSpaceOnUse">
<stop stop-color="#744FD8"/>
<stop offset="1" stop-color="#3996F7"/>
</linearGradient>
<linearGradient id="paint10_linear_74_2150" x1="110.46" y1="112.598" x2="110.46" y2="69.1858" gradientUnits="userSpaceOnUse">
<stop offset="0.016" stop-color="#FFA58B"/>
<stop offset="1" stop-color="#FF898E"/>
</linearGradient>
<linearGradient id="paint11_linear_74_2150" x1="111.521" y1="107.267" x2="111.521" y2="86.9252" gradientUnits="userSpaceOnUse">
<stop stop-color="#D1C8F8"/>
<stop offset="1" stop-color="#EEE5F9"/>
</linearGradient>
<linearGradient id="paint12_linear_74_2150" x1="160.144" y1="164.878" x2="160.144" y2="92.1034" gradientUnits="userSpaceOnUse">
<stop stop-color="#9D68C2"/>
<stop offset="1" stop-color="#CCEDFF"/>
</linearGradient>
<linearGradient id="paint13_linear_74_2150" x1="109.134" y1="80.4941" x2="109.134" y2="11.5673" gradientUnits="userSpaceOnUse">
<stop offset="0.016" stop-color="#FFC2A9"/>
<stop offset="1" stop-color="#FF9595"/>
</linearGradient>
<linearGradient id="paint14_linear_74_2150" x1="110.628" y1="65.7514" x2="110.628" y2="11.2907" gradientUnits="userSpaceOnUse">
<stop offset="0.016" stop-color="#FFA58B"/>
<stop offset="1" stop-color="#FF898E"/>
</linearGradient>
<linearGradient id="paint15_linear_74_2150" x1="111.193" y1="53.0552" x2="119.329" y2="1.686" gradientUnits="userSpaceOnUse">
<stop stop-color="#D49092"/>
<stop offset="0.1274" stop-color="#D18E92"/>
<stop offset="0.2036" stop-color="#C98991"/>
<stop offset="0.2664" stop-color="#BB7F90"/>
<stop offset="0.3218" stop-color="#A7718F"/>
<stop offset="0.3725" stop-color="#8C5F8D"/>
<stop offset="0.4196" stop-color="#6C498A"/>
<stop offset="0.4631" stop-color="#472F88"/>
<stop offset="0.4721" stop-color="#3E2987"/>
<stop offset="0.6068" stop-color="#352278"/>
<stop offset="0.8455" stop-color="#291762"/>
<stop offset="1" stop-color="#24135A"/>
</linearGradient>
<linearGradient id="paint16_linear_74_2150" x1="210.946" y1="163.523" x2="210.946" y2="42.2583" gradientUnits="userSpaceOnUse">
<stop offset="0.016" stop-color="#FFC2A9"/>
<stop offset="1" stop-color="#FF9595"/>
</linearGradient>
<linearGradient id="paint17_linear_74_2150" x1="109.616" y1="223.636" x2="109.616" y2="86.9215" gradientUnits="userSpaceOnUse">
<stop stop-color="#744FD8"/>
<stop offset="1" stop-color="#3996F7"/>
</linearGradient>
<linearGradient id="paint18_linear_74_2150" x1="39.7197" y1="182.852" x2="39.7197" y2="116.64" gradientUnits="userSpaceOnUse">
<stop stop-color="#1C257B"/>
<stop offset="1" stop-color="#482C83"/>
</linearGradient>
<linearGradient id="paint19_linear_74_2150" x1="16.969" y1="168.396" x2="16.969" y2="142.894" gradientUnits="userSpaceOnUse">
<stop stop-color="#8B8BE0"/>
<stop offset="1" stop-color="#A177B7"/>
</linearGradient>
<linearGradient id="paint20_linear_74_2150" x1="16.0383" y1="156.444" x2="16.0383" y2="142.894" gradientUnits="userSpaceOnUse">
<stop offset="0.016" stop-color="#FFC2A9"/>
<stop offset="1" stop-color="#FF9595"/>
</linearGradient>
<linearGradient id="paint21_linear_74_2150" x1="9.53738" y1="144.467" x2="9.53738" y2="134.203" gradientUnits="userSpaceOnUse">
<stop offset="0.016" stop-color="#FFC2A9"/>
<stop offset="1" stop-color="#FF9595"/>
</linearGradient>
<linearGradient id="paint22_linear_74_2150" x1="16.6477" y1="161.928" x2="16.6477" y2="157.45" gradientUnits="userSpaceOnUse">
<stop offset="0.016" stop-color="#FFC2A9"/>
<stop offset="1" stop-color="#FF9595"/>
</linearGradient>
<linearGradient id="paint23_linear_74_2150" x1="114.856" y1="37.1182" x2="114.856" y2="26.0036" gradientUnits="userSpaceOnUse">
<stop stop-color="#1C257B"/>
<stop offset="1" stop-color="#482C83"/>
</linearGradient>
<linearGradient id="paint24_linear_74_2150" x1="110.772" y1="45.6364" x2="110.772" y2="36.7559" gradientUnits="userSpaceOnUse">
<stop stop-color="#D0C7F8"/>
<stop offset="1" stop-color="white"/>
</linearGradient>
<linearGradient id="paint25_linear_74_2150" x1="93.5091" y1="43.2034" x2="93.5091" y2="34.3222" gradientUnits="userSpaceOnUse">
<stop stop-color="#D0C7F8"/>
<stop offset="1" stop-color="white"/>
</linearGradient>
<linearGradient id="paint26_linear_74_2150" x1="235.772" y1="71.1519" x2="221.441" y2="71.1519" gradientUnits="userSpaceOnUse">
<stop stop-color="#CF6074"/>
<stop offset="1" stop-color="#FF817F"/>
</linearGradient>
<radialGradient id="paint27_radial_74_2150" cx="0" cy="0" r="1" gradientUnits="userSpaceOnUse" gradientTransform="translate(111.764 42.4654) rotate(180) scale(3.49425)">
<stop stop-color="#CF95FF"/>
<stop offset="1" stop-color="#8161FF"/>
</radialGradient>
<linearGradient id="paint28_linear_74_2150" x1="111.878" y1="43.4902" x2="111.878" y2="38.5448" gradientUnits="userSpaceOnUse">
<stop stop-color="#8642A0"/>
<stop offset="1" stop-color="#4E37B7"/>
</linearGradient>
<radialGradient id="paint29_radial_74_2150" cx="0" cy="0" r="1" gradientUnits="userSpaceOnUse" gradientTransform="translate(94.2223 40.5296) rotate(180) scale(2.34309)">
<stop stop-color="#CF95FF"/>
<stop offset="1" stop-color="#8161FF"/>
</radialGradient>
<linearGradient id="paint30_linear_74_2150" x1="240.555" y1="59.5929" x2="228.567" y2="59.5929" gradientUnits="userSpaceOnUse">
<stop stop-color="#CF6074"/>
<stop offset="1" stop-color="#FF817F"/>
</linearGradient>
<linearGradient id="paint31_linear_74_2150" x1="94.7809" y1="41.5588" x2="94.7809" y2="36.6096" gradientUnits="userSpaceOnUse">
<stop stop-color="#8642A0"/>
<stop offset="1" stop-color="#4E37B7"/>
</linearGradient>
<linearGradient id="paint32_linear_74_2150" x1="93.7532" y1="30.2602" x2="93.7532" y2="22.6109" gradientUnits="userSpaceOnUse">
<stop stop-color="#1C257B"/>
<stop offset="1" stop-color="#482C83"/>
</linearGradient>
<linearGradient id="paint33_linear_74_2150" x1="98.2737" y1="53.8037" x2="96.1692" y2="47.3663" gradientUnits="userSpaceOnUse">
<stop stop-color="#FF8883"/>
<stop offset="1" stop-color="#E8868D"/>
</linearGradient>
<linearGradient id="paint34_linear_74_2150" x1="96.9766" y1="50.9496" x2="96.9766" y2="44.5531" gradientUnits="userSpaceOnUse">
<stop stop-color="#FF8883"/>
<stop offset="1" stop-color="#FFB1A4"/>
</linearGradient>
<linearGradient id="paint35_linear_74_2150" x1="243.652" y1="85.5981" x2="220.25" y2="42.0799" gradientUnits="userSpaceOnUse">
<stop stop-color="#1C257B"/>
<stop offset="1" stop-color="#482C83"/>
</linearGradient>
<linearGradient id="paint36_linear_74_2150" x1="239.922" y1="87.604" x2="216.52" y2="44.0859" gradientUnits="userSpaceOnUse">
<stop stop-color="#1C257B"/>
<stop offset="1" stop-color="#482C83"/>
</linearGradient>
<linearGradient id="paint37_linear_74_2150" x1="242.448" y1="87.8294" x2="241.421" y2="85.9198" gradientUnits="userSpaceOnUse">
<stop stop-color="#1C257B"/>
<stop offset="1" stop-color="#482C83"/>
</linearGradient>
<linearGradient id="paint38_linear_74_2150" x1="239.594" y1="82.5249" x2="230.794" y2="66.1604" gradientUnits="userSpaceOnUse">
<stop stop-color="#6A4FAC"/>
<stop offset="1" stop-color="#513689"/>
</linearGradient>
<linearGradient id="paint39_linear_74_2150" x1="223.693" y1="61.562" x2="223.693" y2="37.5724" gradientUnits="userSpaceOnUse">
<stop offset="0.016" stop-color="#FFA58B"/>
<stop offset="1" stop-color="#FF898E"/>
</linearGradient>
<linearGradient id="paint40_linear_74_2150" x1="42.7278" y1="189.884" x2="42.7278" y2="182.259" gradientUnits="userSpaceOnUse">
<stop stop-color="#1C257B"/>
<stop offset="1" stop-color="#482C83"/>
</linearGradient>
<linearGradient id="paint41_linear_74_2150" x1="129.499" y1="69.3677" x2="133.072" y2="50.208" gradientUnits="userSpaceOnUse">
<stop offset="0.016" stop-color="#FFAC8B"/>
<stop offset="1" stop-color="#FF9595"/>
</linearGradient>
<linearGradient id="paint42_linear_74_2150" x1="121.648" y1="80.0877" x2="97.23" y2="80.0877" gradientUnits="userSpaceOnUse">
<stop stop-color="#CF6074"/>
<stop offset="1" stop-color="#FF817F"/>
</linearGradient>
<linearGradient id="paint43_linear_74_2150" x1="219.324" y1="84.8974" x2="219.324" y2="65.9814" gradientUnits="userSpaceOnUse">
<stop offset="0.016" stop-color="#FF997C"/>
<stop offset="1" stop-color="#FF898E"/>
</linearGradient>
<linearGradient id="paint44_linear_74_2150" x1="212.94" y1="73.9199" x2="208.524" y2="73.9199" gradientUnits="userSpaceOnUse">
<stop stop-color="#CF6074"/>
<stop offset="1" stop-color="#FF817F"/>
</linearGradient>
<linearGradient id="paint45_linear_74_2150" x1="208.671" y1="98.8464" x2="208.671" y2="91.036" gradientUnits="userSpaceOnUse">
<stop stop-color="#CF6074"/>
<stop offset="1" stop-color="#FF817F"/>
</linearGradient>
<linearGradient id="paint46_linear_74_2150" x1="176.58" y1="162.709" x2="176.58" y2="121.122" gradientUnits="userSpaceOnUse">
<stop stop-color="#CF6074"/>
<stop offset="1" stop-color="#FF817F"/>
</linearGradient>
<linearGradient id="paint47_linear_74_2150" x1="110.576" y1="223.635" x2="110.576" y2="88.8099" gradientUnits="userSpaceOnUse">
<stop stop-color="#8B8BE0"/>
<stop offset="1" stop-color="#A177B7"/>
</linearGradient>
<linearGradient id="paint48_linear_74_2150" x1="117.818" y1="157.384" x2="117.818" y2="151.392" gradientUnits="userSpaceOnUse">
<stop stop-color="#8B8BE0"/>
<stop offset="1" stop-color="#A177B7"/>
</linearGradient>
<linearGradient id="paint49_linear_74_2150" x1="76.8308" y1="127.067" x2="76.8308" y2="91.5396" gradientUnits="userSpaceOnUse">
<stop stop-color="#8B8BE0"/>
<stop offset="1" stop-color="#A177B7"/>
</linearGradient>
<linearGradient id="paint50_linear_74_2150" x1="89.6509" y1="135.865" x2="89.6509" y2="102.891" gradientUnits="userSpaceOnUse">
<stop stop-color="#8B8BE0"/>
<stop offset="1" stop-color="#A177B7"/>
</linearGradient>
<linearGradient id="paint51_linear_74_2150" x1="100.254" y1="199.002" x2="100.254" y2="189.884" gradientUnits="userSpaceOnUse">
<stop stop-color="#8B8BE0"/>
<stop offset="1" stop-color="#A177B7"/>
</linearGradient>
<linearGradient id="paint52_linear_74_2150" x1="143.429" y1="146.044" x2="143.429" y2="128.493" gradientUnits="userSpaceOnUse">
<stop stop-color="#9D68C2"/>
<stop offset="1" stop-color="#90AEFF"/>
</linearGradient>
<linearGradient id="paint53_linear_74_2150" x1="90.7041" y1="256.178" x2="90.7041" y2="228.509" gradientUnits="userSpaceOnUse">
<stop stop-color="#8B8BE0"/>
<stop offset="1" stop-color="#A177B7"/>
</linearGradient>
<linearGradient id="paint54_linear_74_2150" x1="147.251" y1="422.135" x2="147.251" y2="240.671" gradientUnits="userSpaceOnUse">
<stop stop-color="#8B8BE0"/>
<stop offset="1" stop-color="#A177B7"/>
</linearGradient>
<linearGradient id="paint55_linear_74_2150" x1="80.7495" y1="417.519" x2="80.7495" y2="256.427" gradientUnits="userSpaceOnUse">
<stop stop-color="#8B8BE0"/>
<stop offset="1" stop-color="#A177B7"/>
</linearGradient>
<linearGradient id="paint56_linear_74_2150" x1="132.777" y1="325.211" x2="132.777" y2="315.146" gradientUnits="userSpaceOnUse">
<stop stop-color="#8B8BE0"/>
<stop offset="1" stop-color="#A177B7"/>
</linearGradient>
<linearGradient id="paint57_linear_74_2150" x1="77.3196" y1="320.006" x2="77.3196" y2="313.064" gradientUnits="userSpaceOnUse">
<stop stop-color="#8B8BE0"/>
<stop offset="1" stop-color="#A177B7"/>
</linearGradient>
<linearGradient id="paint58_linear_74_2150" x1="39.7197" y1="181.237" x2="39.7197" y2="116.64" gradientUnits="userSpaceOnUse">
<stop stop-color="#8642A0"/>
<stop offset="1" stop-color="#6456C0"/>
</linearGradient>
<linearGradient id="paint59_linear_74_2150" x1="21.2622" y1="152.038" x2="12.7324" y2="152.038" gradientUnits="userSpaceOnUse">
<stop stop-color="#CF6074"/>
<stop offset="1" stop-color="#FF817F"/>
</linearGradient>
<linearGradient id="paint60_linear_74_2150" x1="130.323" y1="95.1946" x2="130.323" y2="94.9864" gradientUnits="userSpaceOnUse">
<stop stop-color="#9D68C2"/>
<stop offset="1" stop-color="#CCEDFF"/>
</linearGradient>
<linearGradient id="paint61_linear_74_2150" x1="101.092" y1="207.339" x2="101.092" y2="193.474" gradientUnits="userSpaceOnUse">
<stop stop-color="#B9ACF4"/>
<stop offset="1" stop-color="#E1D1F5"/>
</linearGradient>
<linearGradient id="paint62_linear_74_2150" x1="91.0408" y1="215.71" x2="91.0408" y2="205.299" gradientUnits="userSpaceOnUse">
<stop stop-color="#B9ACF4"/>
<stop offset="1" stop-color="#E1D1F5"/>
</linearGradient>
<linearGradient id="paint63_linear_74_2150" x1="52.1038" y1="182.853" x2="52.1038" y2="144.836" gradientUnits="userSpaceOnUse">
<stop stop-color="#B9ACF4"/>
<stop offset="1" stop-color="#E1D1F5"/>
</linearGradient>
<linearGradient id="paint64_linear_74_2150" x1="133.975" y1="290.862" x2="133.975" y2="250.167" gradientUnits="userSpaceOnUse">
<stop stop-color="#8B8BE0"/>
<stop offset="1" stop-color="#A177B7"/>
</linearGradient>
<linearGradient id="paint65_linear_74_2150" x1="92.723" y1="292.728" x2="92.723" y2="243.769" gradientUnits="userSpaceOnUse">
<stop stop-color="#8B8BE0"/>
<stop offset="1" stop-color="#A177B7"/>
</linearGradient>
<linearGradient id="paint66_linear_74_2150" x1="96.1552" y1="104.175" x2="96.1552" y2="90.8905" gradientUnits="userSpaceOnUse">
<stop stop-color="#3D2CB0"/>
<stop offset="1" stop-color="#0355C7"/>
</linearGradient>
<linearGradient id="paint67_linear_74_2150" x1="130.627" y1="37.4105" x2="133.374" y2="20.0661" gradientUnits="userSpaceOnUse">
<stop stop-color="#5E3187"/>
<stop offset="0.3777" stop-color="#422271"/>
<stop offset="0.7555" stop-color="#2C1760"/>
<stop offset="1" stop-color="#24135A"/>
</linearGradient>
<linearGradient id="paint68_linear_74_2150" x1="104.099" y1="19.2894" x2="104.099" y2="3.63314" gradientUnits="userSpaceOnUse">
<stop stop-color="#8B8BE0"/>
<stop offset="1" stop-color="#A177B7"/>
</linearGradient>
<linearGradient id="paint69_linear_74_2150" x1="115.485" y1="19.2919" x2="115.485" y2="8.66328" gradientUnits="userSpaceOnUse">
<stop stop-color="#8B8BE0"/>
<stop offset="1" stop-color="#A177B7"/>
</linearGradient>
<linearGradient id="paint70_linear_74_2150" x1="93.904" y1="18.4383" x2="93.904" y2="11.5728" gradientUnits="userSpaceOnUse">
<stop stop-color="#8B8BE0"/>
<stop offset="1" stop-color="#A177B7"/>
</linearGradient>
<linearGradient id="paint71_linear_74_2150" x1="114.275" y1="52.1272" x2="114.275" y2="33.977" gradientUnits="userSpaceOnUse">
<stop stop-color="#F2C7CC"/>
<stop offset="1" stop-color="#A177B7"/>
</linearGradient>
<linearGradient id="paint72_linear_74_2150" x1="112.395" y1="50.265" x2="110.283" y2="32.6915" gradientUnits="userSpaceOnUse">
<stop stop-color="#1C257B"/>
<stop offset="1" stop-color="#482C83"/>
</linearGradient>
<linearGradient id="paint73_linear_74_2150" x1="112.069" y1="50.2311" x2="109.955" y2="32.6576" gradientUnits="userSpaceOnUse">
<stop stop-color="#1C257B"/>
<stop offset="1" stop-color="#65459C"/>
</linearGradient>
<linearGradient id="paint74_linear_74_2150" x1="92.9075" y1="46.7149" x2="91.1201" y2="31.8447" gradientUnits="userSpaceOnUse">
<stop stop-color="#1C257B"/>
<stop offset="1" stop-color="#482C83"/>
</linearGradient>
<linearGradient id="paint75_linear_74_2150" x1="92.5458" y1="46.7149" x2="90.7585" y2="31.8447" gradientUnits="userSpaceOnUse">
<stop stop-color="#1C257B"/>
<stop offset="1" stop-color="#65459C"/>
</linearGradient>
<linearGradient id="paint76_linear_74_2150" x1="99.4693" y1="35.6259" x2="99.1702" y2="33.1373" gradientUnits="userSpaceOnUse">
<stop stop-color="#1C257B"/>
<stop offset="1" stop-color="#65459C"/>
</linearGradient>
<linearGradient id="paint77_linear_74_2150" x1="127.989" y1="51.2534" x2="126.404" y2="38.0664" gradientUnits="userSpaceOnUse">
<stop stop-color="#1C257B"/>
<stop offset="1" stop-color="#65459C"/>
</linearGradient>
<linearGradient id="paint78_linear_74_2150" x1="125.88" y1="44.7353" x2="125.88" y2="41.0177" gradientUnits="userSpaceOnUse">
<stop stop-color="#8642A0"/>
<stop offset="1" stop-color="#6456C0"/>
</linearGradient>
<linearGradient id="paint79_linear_74_2150" x1="117.714" y1="45.5246" x2="117.714" y2="37.3362" gradientUnits="userSpaceOnUse">
<stop/>
<stop offset="1" stop-color="#E1D1F5"/>
</linearGradient>
<linearGradient id="paint80_linear_74_2150" x1="106.622" y1="80.4951" x2="106.622" y2="66.0112" gradientUnits="userSpaceOnUse">
<stop offset="0.016" stop-color="#FFA58B"/>
<stop offset="1" stop-color="#FF898E"/>
</linearGradient>
<radialGradient id="paint81_radial_74_2150" cx="0" cy="0" r="1" gradientUnits="userSpaceOnUse" gradientTransform="translate(59.4124 417.51) rotate(180) scale(23.2291 24.4788)">
<stop offset="0.00558659" stop-color="#E1E1EF"/>
<stop offset="1" stop-color="#CCC7E2"/>
</radialGradient>
<radialGradient id="paint82_radial_74_2150" cx="0" cy="0" r="1" gradientUnits="userSpaceOnUse" gradientTransform="translate(162.214 421.94) rotate(180) scale(17.1871 18.1118)">
<stop offset="0.00558659" stop-color="#E1E1EF"/>
<stop offset="1" stop-color="#CCC7E2"/>
</radialGradient>
</defs>
</svg>
