<svg width="27" height="27" viewBox="0 0 27 27" fill="none" xmlns="http://www.w3.org/2000/svg">
<path d="M13.5 24.75C14.9777 24.7519 16.4411 24.4618 17.8063 23.8963C19.1715 23.3308 20.4114 22.5011 21.4549 21.4549C22.5011 20.4114 23.3308 19.1715 23.8963 17.8063C24.4618 16.4411 24.7519 14.9777 24.75 13.5C24.7519 12.0224 24.4618 10.5589 23.8963 9.19375C23.3308 7.82859 22.5011 6.58863 21.4549 5.54513C20.4114 4.4989 19.1715 3.6692 17.8063 3.10371C16.4411 2.53822 14.9777 2.24809 13.5 2.25001C12.0224 2.24813 10.5589 2.53826 9.19375 3.10375C7.82859 3.66924 6.58863 4.49892 5.54513 5.54513C4.49892 6.58863 3.66924 7.82859 3.10375 9.19375C2.53826 10.5589 2.24813 12.0224 2.25001 13.5C2.24809 14.9777 2.53822 16.4411 3.10371 17.8063C3.6692 19.1715 4.4989 20.4114 5.54513 21.4549C6.58863 22.5011 7.82859 23.3308 9.19375 23.8963C10.5589 24.4618 12.0224 24.7519 13.5 24.75V24.75Z" stroke="white" stroke-width="2" stroke-linejoin="round"/>
<path fill-rule="evenodd" clip-rule="evenodd" d="M13.5 20.8125C13.873 20.8125 14.2306 20.6643 14.4944 20.4006C14.7581 20.1369 14.9062 19.7792 14.9062 19.4063C14.9062 19.0333 14.7581 18.6756 14.4944 18.4119C14.2306 18.1482 13.873 18 13.5 18C13.127 18 12.7694 18.1482 12.5056 18.4119C12.2419 18.6756 12.0938 19.0333 12.0938 19.4063C12.0938 19.7792 12.2419 20.1369 12.5056 20.4006C12.7694 20.6643 13.127 20.8125 13.5 20.8125V20.8125Z" fill="white"/>
<path d="M13.5 6.75V15.75" stroke="white" stroke-width="3" stroke-linecap="round" stroke-linejoin="round"/>
</svg>
