<svg width="1920" height="3243" viewBox="0 0 1920 3243" fill="none" xmlns="http://www.w3.org/2000/svg">
<path d="M43.9483 115.874L42.7578 117.358L54.1747 123.993L51.7937 115.094C49.0029 115.855 46.3683 116.109 43.9483 115.874Z" fill="white"/>
<path d="M89.1849 50.3015L98.1234 47.8425L86.6869 41.1875L85.9062 43.1977C87.3309 45.1493 88.4433 47.5303 89.1849 50.3015Z" fill="white"/>
<path d="M74.0632 65.6595C74.0242 65.3082 73.9852 64.9569 73.9071 64.6251C73.8681 64.4299 73.8095 64.2543 73.7509 64.0591C73.6729 63.7664 73.6144 63.4932 73.5363 63.2199C73.4777 63.0248 73.3996 62.8686 73.3216 62.6735C73.224 62.4198 73.146 62.1661 73.0289 61.9514C72.9508 61.7757 72.8532 61.6196 72.7557 61.4635C72.6386 61.2488 72.5409 61.0341 72.4043 60.839C72.3067 60.6828 72.1702 60.5462 72.0726 60.3901C71.936 60.2145 71.8189 60.0193 71.6628 59.8632C71.5457 59.7265 71.409 59.6095 71.2724 59.4728C71.1163 59.3167 70.9797 59.1606 70.8235 59.0435C70.6869 58.9264 70.5308 58.8288 70.3747 58.7312C68.0718 57.1309 64.9297 56.9553 61.3777 58.4385C61.4558 59.0825 61.5144 59.7656 61.5144 60.4877C61.5144 61.0341 61.4948 61.5611 61.4558 62.127C61.4363 62.3027 61.4168 62.4783 61.3973 62.654C61.3582 63.0053 61.3192 63.3565 61.2606 63.7078C61.2021 64.0982 61.124 64.4885 61.0655 64.8788C61.0069 65.152 60.9679 65.4253 60.9094 65.6985C60.8508 65.9522 60.7923 66.2059 60.7337 66.4596C60.6361 66.8109 60.558 67.1622 60.4605 67.5135C60.4019 67.7087 60.3434 67.9233 60.2653 68.1185C60.1482 68.5088 60.0116 68.9187 59.875 69.309C59.8165 69.4651 59.7579 69.6407 59.6994 69.7969C59.5042 70.3433 59.27 70.8898 59.0358 71.4167C59.0163 71.4753 58.9773 71.5338 58.9577 71.5924C58.7431 72.0803 58.5284 72.5487 58.2747 73.017C58.1966 73.1732 58.1185 73.3098 58.0405 73.4659C57.8063 73.9148 57.5721 74.3441 57.3184 74.793C57.2598 74.8906 57.2208 74.9686 57.1622 75.0662C56.8695 75.5736 56.5573 76.0811 56.2255 76.5885C56.1279 76.7251 56.0303 76.8812 55.9328 77.0178C55.6986 77.3691 55.4449 77.7204 55.1911 78.0717C55.0545 78.2669 54.9179 78.4425 54.7813 78.6377C54.5666 78.9304 54.3324 79.2037 54.1177 79.4964C53.9226 79.7306 53.7274 79.9648 53.5323 80.199C53.3566 80.4137 53.1614 80.6283 52.9663 80.843C52.6345 81.1943 52.3222 81.5456 51.9905 81.8969C51.7758 82.1115 51.5806 82.3262 51.3659 82.5214C51.2098 82.6775 51.0342 82.8337 50.8586 82.9898C50.5853 83.2435 50.3121 83.4777 50.0193 83.7119C49.8437 83.8485 49.6876 83.9851 49.5119 84.1217C49.1997 84.3559 48.8874 84.5901 48.5751 84.8243C48.419 84.9414 48.2824 85.039 48.1263 85.1561C47.6579 85.4683 47.1895 85.7806 46.7212 86.0538C46.2723 86.327 45.8234 86.5417 45.3745 86.7564C45.2574 86.8149 45.1403 86.8735 45.0232 86.9125C44.9256 86.9515 44.828 86.9906 44.7305 87.0296C45.1598 90.6206 46.7016 93.1772 48.9655 94.4848C49.2778 94.6604 49.59 94.797 49.9218 94.9336C49.9998 94.9532 50.0584 94.9922 50.1365 95.0117C50.156 95.0117 50.1755 95.0312 50.1755 95.0312C50.4292 95.1288 50.7024 95.2069 50.9951 95.2654C51.0732 95.2849 51.1318 95.3044 51.2098 95.324C51.2294 95.324 51.2294 95.324 51.2294 95.324C51.5807 95.3825 51.9515 95.4411 52.3223 95.4606C52.3808 95.4606 52.4394 95.4606 52.4979 95.4606C52.5174 95.4606 52.5565 95.4606 52.576 95.4606C52.8687 95.4606 53.181 95.4606 53.4737 95.4411C53.6103 95.4215 53.7469 95.4216 53.9031 95.402H53.9225C54.1763 95.363 54.43 95.324 54.6837 95.285C54.8789 95.2459 55.074 95.2069 55.2692 95.1678H55.2887C55.5034 95.1093 55.7181 95.0507 55.9328 94.9922C56.2645 94.8946 56.6158 94.7775 56.9671 94.6409C56.9671 94.6409 56.9671 94.6409 56.9866 94.6409C57.2208 94.5433 57.4745 94.4653 57.7087 94.3482C57.8258 94.2896 57.9429 94.2506 58.06 94.192C58.5089 93.9773 58.9578 93.7627 59.4066 93.4894C59.875 93.2162 60.3434 92.904 60.8118 92.5917C60.9679 92.4941 61.1045 92.377 61.2606 92.2599C61.4168 92.1624 61.5534 92.0453 61.69 91.9282C61.8461 91.8111 62.0218 91.694 62.1779 91.5574C62.3535 91.4208 62.5097 91.2841 62.6853 91.1475C62.8415 91.0109 62.9976 90.8743 63.1342 90.7377C63.2513 90.6206 63.3879 90.523 63.505 90.4059C63.6611 90.2498 63.8367 90.0937 63.9929 89.9375C64.2076 89.7424 64.4222 89.5277 64.6174 89.313C64.9492 88.9812 65.281 88.6299 65.5932 88.2591C65.7884 88.0445 65.9836 87.8298 66.1592 87.6151C66.3544 87.3809 66.5495 87.1467 66.7252 86.9125C66.9594 86.6393 67.174 86.3466 67.3887 86.0538C67.5253 85.8782 67.6619 85.683 67.7985 85.4878C68.0523 85.1366 68.2865 84.7853 68.5402 84.434C68.6377 84.2974 68.7353 84.1607 68.8134 84.0046C69.1256 83.4972 69.4379 83.0093 69.7502 82.4824C69.8087 82.3848 69.8477 82.3067 69.9063 82.2091C70.16 81.7798 70.3942 81.3309 70.6284 80.882C70.7065 80.7259 70.7845 80.5893 70.8626 80.4332C71.0968 79.9648 71.331 79.4769 71.5261 79.0085C71.5457 78.9499 71.5847 78.8719 71.6042 78.8133C71.8384 78.2669 72.0531 77.7399 72.2678 77.1935C72.3263 77.0374 72.3848 76.8617 72.4434 76.7056C72.58 76.3153 72.7166 75.9249 72.8337 75.5151C72.8922 75.3199 72.9703 75.1053 73.0289 74.9101C73.1264 74.5588 73.224 74.2075 73.3021 73.8562C73.3607 73.6025 73.4387 73.3488 73.4973 73.0951C73.5558 72.8219 73.5948 72.5486 73.6534 72.2949C73.7314 71.9046 73.79 71.5143 73.8486 71.124C73.9071 70.7727 73.9462 70.4214 73.9852 70.0506C74.0047 69.8749 74.0242 69.6993 74.0437 69.5432C74.0828 68.9967 74.1023 68.4503 74.1023 67.9038C74.1023 67.3183 74.0632 66.7524 74.0242 66.2254C74.1218 65.9912 74.0827 65.8351 74.0632 65.6595Z" fill="white"/>
<path d="M23.5954 104.145L20.746 104.945L19.4774 104.203L15.6133 114.098L28.3182 121.475L32.9631 109.59L23.5954 104.145Z" fill="white"/>
<path d="M65.3969 31.4088L74.9012 36.9318L82.9028 26.9396L70.1979 19.5625L63.4062 28.0325L64.6943 28.7936L65.3969 31.4088Z" fill="white"/>
<path d="M29.6828 102.508L23.6133 104.167L32.9615 109.612C31.5173 107.641 30.4049 105.26 29.6828 102.508Z" fill="white"/>
<path d="M67.0963 37.6943C68.9308 37.1869 70.6678 36.9332 72.3462 36.8747C72.4438 36.8747 72.5218 36.8552 72.6194 36.8552C72.9902 36.8552 73.361 36.8551 73.7123 36.8747C74.0051 36.8747 74.2783 36.8942 74.571 36.9137C74.6881 36.9137 74.7857 36.9137 74.9028 36.9332L65.3984 31.4102L67.0963 37.6943Z" fill="white"/>
<path d="M29.9743 83.1667C30.1499 82.4251 30.3255 81.703 30.5207 80.9614C30.6183 80.5906 30.7159 80.2198 30.8134 79.8685C31.3989 77.8583 32.0625 75.8482 32.8627 73.838L20.1576 66.4609C20.0796 66.6366 20.0211 66.8317 19.943 67.0269C19.8259 67.3392 19.7283 67.6514 19.6112 67.9442C19.416 68.4906 19.2209 69.0175 19.0257 69.564C18.9867 69.6811 18.9477 69.7982 18.9086 69.9153C18.8306 70.169 18.7525 70.4422 18.6744 70.6959C18.4792 71.3009 18.3036 71.9059 18.128 72.5109C18.0889 72.6866 18.0304 72.8427 17.9719 73.0184C17.9133 73.2135 17.8742 73.4087 17.8157 73.6234C17.6205 74.365 17.4449 75.1066 17.2692 75.8287C17.2107 76.0433 17.1522 76.258 17.1131 76.4922C17.0546 76.785 16.996 77.0582 16.9375 77.3509L29.6425 84.728C29.7206 84.1816 29.8572 83.6742 29.9743 83.1667Z" fill="white"/>
<path d="M43.7753 54.8863C44.8487 53.5397 45.9611 52.2712 47.093 51.0417C47.2101 50.905 47.3273 50.788 47.4444 50.6513C47.8542 50.2025 48.3031 49.7731 48.7324 49.3438C48.9081 49.1681 49.0837 48.9925 49.2594 48.8168C50.0205 48.0752 50.8011 47.3336 51.5818 46.6505L38.8768 39.2734C38.0961 39.976 37.3155 40.6981 36.5543 41.4397C36.4763 41.4983 36.4178 41.5763 36.3397 41.6349C35.9884 41.9862 35.6371 42.357 35.2858 42.7083C35.1102 42.9034 34.915 43.0791 34.7394 43.2742C34.1344 43.9183 33.5489 44.5623 32.9634 45.2258C32.9439 45.2454 32.9438 45.2454 32.9438 45.2649C32.2998 46.0065 31.6753 46.7481 31.0703 47.5288L43.7753 54.8863Z" fill="white"/>
<path d="M29.6239 84.6662L16.9189 77.2891L8 85.1736L20.705 92.5507L29.6239 84.6662Z" fill="white"/>
<path d="M20.705 92.5529L8 85.1758L8.03907 97.549L19.4755 104.204L20.744 104.946L20.705 92.5529Z" fill="white"/>
<path d="M53.9219 35.0177L41.217 27.6211L38.875 39.2527L51.58 46.6493L53.9219 35.0177Z" fill="white"/>
<path d="M64.6927 28.7951L63.4047 28.0339L51.9877 21.418L41.2148 27.6241L53.9198 35.0207L64.6927 28.7951Z" fill="white"/>
<path d="M28.162 67.3185L15.4766 59.9414L20.1604 66.4403L32.8654 73.8369L28.162 67.3185Z" fill="white"/>
<path d="M43.7731 54.8882L31.0876 47.5112L23.0664 46.7695L35.7714 54.1661L43.7731 54.8882Z" fill="white"/>
<path d="M35.7733 54.1661L23.0683 46.7695L15.4766 59.9429L28.162 67.32L35.7733 54.1661Z" fill="white"/>
<path d="M89.2438 68.1205L98.1822 60.2359L98.1431 47.8432L89.2047 50.3022C88.4631 47.531 87.3507 45.1695 85.926 43.2179L86.7067 41.2077L90.5514 31.313L82.901 26.9609L74.8994 36.9337C74.8018 36.9142 74.6847 36.9337 74.5676 36.9142C74.2944 36.8947 74.0017 36.8751 73.7089 36.8751C73.3381 36.8556 72.9868 36.8556 72.616 36.8556C72.5185 36.8556 72.4404 36.8751 72.3428 36.8751C70.6644 36.9337 68.9079 37.2069 67.0929 37.6948L65.4146 31.3911L64.712 28.7759L53.9391 35.0016L51.6167 46.6332C50.836 47.3358 50.0554 48.0579 49.2942 48.7995C49.1186 48.9751 48.943 49.1508 48.7673 49.3264C48.338 49.7558 47.9086 50.1851 47.4793 50.634C47.3622 50.7511 47.2451 50.8877 47.128 51.0243C45.9765 52.2538 44.8641 53.5419 43.8102 54.869L35.7891 54.1274L28.1973 67.2813L32.8812 73.7996C32.1005 75.8098 31.4175 77.82 30.832 79.8301C30.7344 80.2009 30.6368 80.5717 30.5393 80.923C30.3441 81.6647 30.1685 82.4063 29.9928 83.1284C29.8757 83.6358 29.7586 84.1432 29.661 84.6311L20.7227 92.4961L20.7617 104.889L23.6305 104.108L29.7001 102.449C30.4222 105.221 31.5346 107.582 32.9788 109.534L28.3339 121.419L35.9843 125.771L42.7759 117.301L43.9664 115.818C46.3864 116.052 49.0015 115.818 51.7923 115.037L54.1733 123.937L64.9462 117.711L67.2686 106.079C70.0399 103.659 72.6551 100.869 75.0556 97.8435L83.0767 98.5656L90.6685 85.4118L85.9846 78.9129C87.4288 75.3609 88.5217 71.7114 89.2438 68.1205ZM74.0993 70.0135C74.0602 70.3648 74.0212 70.7161 73.9627 71.0869C73.9041 71.4772 73.8455 71.8676 73.7675 72.2579C73.7089 72.5311 73.6699 72.8043 73.6114 73.058C73.5528 73.3118 73.4943 73.5655 73.4162 73.8192C73.3186 74.1705 73.2405 74.5218 73.1429 74.873C73.0844 75.0682 73.0258 75.2829 72.9478 75.478C72.8307 75.8684 72.6941 76.2587 72.5575 76.6685C72.4989 76.8247 72.4404 77.0003 72.3819 77.1564C72.1867 77.7029 71.9525 78.2493 71.7183 78.7763C71.6988 78.8348 71.6597 78.9129 71.6207 78.9714C71.406 79.4593 71.1913 79.9277 70.9572 80.3961C70.8791 80.5522 70.801 80.6888 70.723 80.845C70.4888 81.2938 70.2546 81.7232 70.0009 82.1721C69.9423 82.2697 69.9033 82.3477 69.8447 82.4453C69.552 82.9527 69.2398 83.4601 68.908 83.9676C68.8104 84.1042 68.7128 84.2408 68.6347 84.3969C68.4005 84.7482 68.1468 85.119 67.8931 85.4508C67.7565 85.6459 67.6199 85.8216 67.4833 86.0167C67.2686 86.3095 67.0344 86.5827 66.8197 86.8755C66.6246 87.1097 66.4489 87.3439 66.2538 87.578C66.0586 87.7927 65.883 88.0074 65.6878 88.2221C65.3756 88.5734 65.0438 88.9246 64.712 89.2759C64.4973 89.4906 64.3022 89.7053 64.0875 89.9005C63.9314 90.0566 63.7557 90.2127 63.5996 90.3689C63.4825 90.4859 63.3459 90.5835 63.2288 90.7006C62.7604 91.1105 62.2725 91.5203 61.7846 91.8911C61.648 92.0082 61.4919 92.1058 61.3552 92.2229C61.1991 92.3205 61.0625 92.4376 60.9064 92.5546C60.438 92.8669 59.9696 93.1792 59.5012 93.4524C58.9352 93.7842 58.3693 94.0574 57.8033 94.3111C57.5496 94.4282 57.3154 94.5063 57.0812 94.6038C56.7299 94.7405 56.3786 94.8575 56.0273 94.9551C55.8126 95.0137 55.5979 95.0918 55.3833 95.1308C55.1686 95.1893 54.9734 95.2284 54.7783 95.2674C54.5246 95.3259 54.2709 95.365 54.0172 95.3845C53.861 95.404 53.7244 95.4235 53.5683 95.4235C53.256 95.443 52.9633 95.443 52.6705 95.443C52.5925 95.443 52.4949 95.443 52.4168 95.443C52.046 95.4235 51.6752 95.3845 51.3239 95.3064C51.2459 95.2869 51.1678 95.2674 51.0702 95.2479C50.797 95.1893 50.5238 95.1113 50.2506 95.0137C50.153 94.9747 50.0749 94.9551 49.9773 94.9161C49.6455 94.7795 49.3333 94.6429 49.021 94.4672C46.7572 93.1792 45.2154 90.603 44.786 87.0121C44.708 86.3485 44.6494 85.685 44.6494 84.9629C44.6299 75.5951 51.2459 64.1587 59.3841 59.4358C60.0672 59.0455 60.7307 58.7332 61.3747 58.46C64.9267 56.9572 68.0883 57.1524 70.3717 58.7527C70.5278 58.8503 70.6839 58.9479 70.8205 59.065C70.9767 59.2016 71.1328 59.3577 71.2694 59.4943C71.406 59.6309 71.5427 59.7285 71.6598 59.8847C71.7964 60.0408 71.933 60.236 72.0696 60.4116C72.1867 60.5677 72.3037 60.7043 72.4013 60.8605C72.5379 61.0556 72.6356 61.2703 72.7527 61.485C72.8502 61.6606 72.9478 61.7972 73.0259 61.9729C73.143 62.2071 73.221 62.4608 73.3186 62.695C73.3967 62.8706 73.4747 63.0463 73.5333 63.2414C73.6114 63.5147 73.6894 63.8074 73.7479 64.0806C73.787 64.2758 73.8456 64.4514 73.9041 64.6466C73.9627 64.9784 74.0017 65.3297 74.0602 65.6809C74.0797 65.8566 74.1188 66.0127 74.1383 66.2079C74.1968 66.7543 74.2164 67.3008 74.2164 67.8863C74.2164 68.5693 74.1578 69.2914 74.0993 70.0135Z" fill="white"/>
<path opacity="0.2" d="M43.9483 115.874L42.7578 117.358L54.1747 123.993L51.7937 115.094C49.0029 115.855 46.3683 116.109 43.9483 115.874Z" fill="black"/>
<path opacity="0.2" d="M89.1849 50.3015L98.1234 47.8425L86.6869 41.1875L85.9062 43.1977C87.3309 45.1493 88.4433 47.5303 89.1849 50.3015Z" fill="black"/>
<path opacity="0.2" d="M74.0632 65.6595C74.0242 65.3082 73.9852 64.9569 73.9071 64.6251C73.8681 64.4299 73.8095 64.2543 73.7509 64.0591C73.6729 63.7664 73.6144 63.4932 73.5363 63.2199C73.4777 63.0248 73.3996 62.8686 73.3216 62.6735C73.224 62.4198 73.146 62.1661 73.0289 61.9514C72.9508 61.7757 72.8532 61.6196 72.7557 61.4635C72.6386 61.2488 72.5409 61.0341 72.4043 60.839C72.3067 60.6828 72.1702 60.5462 72.0726 60.3901C71.936 60.2145 71.8189 60.0193 71.6628 59.8632C71.5457 59.7265 71.409 59.6095 71.2724 59.4728C71.1163 59.3167 70.9797 59.1606 70.8235 59.0435C70.6869 58.9264 70.5308 58.8288 70.3747 58.7312C68.0718 57.1309 64.9297 56.9553 61.3777 58.4385C61.4558 59.0825 61.5144 59.7656 61.5144 60.4877C61.5144 61.0341 61.4948 61.5611 61.4558 62.127C61.4363 62.3027 61.4168 62.4783 61.3973 62.654C61.3582 63.0053 61.3192 63.3565 61.2606 63.7078C61.2021 64.0982 61.124 64.4885 61.0655 64.8788C61.0069 65.152 60.9679 65.4253 60.9094 65.6985C60.8508 65.9522 60.7923 66.2059 60.7337 66.4596C60.6361 66.8109 60.558 67.1622 60.4605 67.5135C60.4019 67.7087 60.3434 67.9233 60.2653 68.1185C60.1482 68.5088 60.0116 68.9187 59.875 69.309C59.8165 69.4651 59.7579 69.6407 59.6994 69.7969C59.5042 70.3433 59.27 70.8898 59.0358 71.4167C59.0163 71.4753 58.9773 71.5338 58.9577 71.5924C58.7431 72.0803 58.5284 72.5487 58.2747 73.017C58.1966 73.1732 58.1185 73.3098 58.0405 73.4659C57.8063 73.9148 57.5721 74.3441 57.3184 74.793C57.2598 74.8906 57.2208 74.9686 57.1622 75.0662C56.8695 75.5736 56.5573 76.0811 56.2255 76.5885C56.1279 76.7251 56.0303 76.8812 55.9328 77.0178C55.6986 77.3691 55.4449 77.7204 55.1911 78.0717C55.0545 78.2669 54.9179 78.4425 54.7813 78.6377C54.5666 78.9304 54.3324 79.2037 54.1177 79.4964C53.9226 79.7306 53.7274 79.9648 53.5323 80.199C53.3566 80.4137 53.1614 80.6283 52.9663 80.843C52.6345 81.1943 52.3222 81.5456 51.9905 81.8969C51.7758 82.1115 51.5806 82.3262 51.3659 82.5214C51.2098 82.6775 51.0342 82.8337 50.8586 82.9898C50.5853 83.2435 50.3121 83.4777 50.0193 83.7119C49.8437 83.8485 49.6876 83.9851 49.5119 84.1217C49.1997 84.3559 48.8874 84.5901 48.5751 84.8243C48.419 84.9414 48.2824 85.039 48.1263 85.1561C47.6579 85.4683 47.1895 85.7806 46.7212 86.0538C46.2723 86.327 45.8234 86.5417 45.3745 86.7564C45.2574 86.8149 45.1403 86.8735 45.0232 86.9125C44.9256 86.9515 44.828 86.9906 44.7305 87.0296C45.1598 90.6206 46.7016 93.1772 48.9655 94.4848C49.2778 94.6604 49.59 94.797 49.9218 94.9336C49.9998 94.9532 50.0584 94.9922 50.1365 95.0117C50.156 95.0117 50.1755 95.0312 50.1755 95.0312C50.4292 95.1288 50.7024 95.2069 50.9951 95.2654C51.0732 95.2849 51.1318 95.3044 51.2098 95.324C51.2294 95.324 51.2294 95.324 51.2294 95.324C51.5807 95.3825 51.9515 95.4411 52.3223 95.4606C52.3808 95.4606 52.4394 95.4606 52.4979 95.4606C52.5174 95.4606 52.5565 95.4606 52.576 95.4606C52.8687 95.4606 53.181 95.4606 53.4737 95.4411C53.6103 95.4215 53.7469 95.4216 53.9031 95.402H53.9225C54.1763 95.363 54.43 95.324 54.6837 95.285C54.8789 95.2459 55.074 95.2069 55.2692 95.1678H55.2887C55.5034 95.1093 55.7181 95.0507 55.9328 94.9922C56.2645 94.8946 56.6158 94.7775 56.9671 94.6409C56.9671 94.6409 56.9671 94.6409 56.9866 94.6409C57.2208 94.5433 57.4745 94.4653 57.7087 94.3482C57.8258 94.2896 57.9429 94.2506 58.06 94.192C58.5089 93.9773 58.9578 93.7627 59.4066 93.4894C59.875 93.2162 60.3434 92.904 60.8118 92.5917C60.9679 92.4941 61.1045 92.377 61.2606 92.2599C61.4168 92.1624 61.5534 92.0453 61.69 91.9282C61.8461 91.8111 62.0218 91.694 62.1779 91.5574C62.3535 91.4208 62.5097 91.2841 62.6853 91.1475C62.8415 91.0109 62.9976 90.8743 63.1342 90.7377C63.2513 90.6206 63.3879 90.523 63.505 90.4059C63.6611 90.2498 63.8367 90.0937 63.9929 89.9375C64.2076 89.7424 64.4222 89.5277 64.6174 89.313C64.9492 88.9812 65.281 88.6299 65.5932 88.2591C65.7884 88.0445 65.9836 87.8298 66.1592 87.6151C66.3544 87.3809 66.5495 87.1467 66.7252 86.9125C66.9594 86.6393 67.174 86.3466 67.3887 86.0538C67.5253 85.8782 67.6619 85.683 67.7985 85.4878C68.0523 85.1366 68.2865 84.7853 68.5402 84.434C68.6377 84.2974 68.7353 84.1607 68.8134 84.0046C69.1256 83.4972 69.4379 83.0093 69.7502 82.4824C69.8087 82.3848 69.8477 82.3067 69.9063 82.2091C70.16 81.7798 70.3942 81.3309 70.6284 80.882C70.7065 80.7259 70.7845 80.5893 70.8626 80.4332C71.0968 79.9648 71.331 79.4769 71.5261 79.0085C71.5457 78.9499 71.5847 78.8719 71.6042 78.8133C71.8384 78.2669 72.0531 77.7399 72.2678 77.1935C72.3263 77.0374 72.3848 76.8617 72.4434 76.7056C72.58 76.3153 72.7166 75.9249 72.8337 75.5151C72.8922 75.3199 72.9703 75.1053 73.0289 74.9101C73.1264 74.5588 73.224 74.2075 73.3021 73.8562C73.3607 73.6025 73.4387 73.3488 73.4973 73.0951C73.5558 72.8219 73.5948 72.5486 73.6534 72.2949C73.7314 71.9046 73.79 71.5143 73.8486 71.124C73.9071 70.7727 73.9462 70.4214 73.9852 70.0506C74.0047 69.8749 74.0242 69.6993 74.0437 69.5432C74.0828 68.9967 74.1023 68.4503 74.1023 67.9038C74.1023 67.3183 74.0632 66.7524 74.0242 66.2254C74.1218 65.9912 74.0827 65.8351 74.0632 65.6595Z" fill="black"/>
<path opacity="0.2" d="M23.5954 104.145L20.746 104.945L19.4774 104.203L15.6133 114.098L28.3182 121.475L32.9631 109.59L23.5954 104.145Z" fill="black"/>
<path opacity="0.2" d="M29.6828 102.508L23.6133 104.167L32.9615 109.612C31.5173 107.641 30.4049 105.26 29.6828 102.508Z" fill="black"/>
<path opacity="0.2" d="M67.0963 37.6943C68.9308 37.1869 70.6678 36.9332 72.3462 36.8747C72.4438 36.8747 72.5218 36.8552 72.6194 36.8552C72.9902 36.8552 73.361 36.8551 73.7123 36.8747C74.0051 36.8747 74.2783 36.8942 74.571 36.9137C74.6881 36.9137 74.7857 36.9137 74.9028 36.9332L65.3984 31.4102L67.0963 37.6943Z" fill="black"/>
<path opacity="0.2" d="M29.9743 83.1667C30.1499 82.4251 30.3255 81.703 30.5207 80.9614C30.6183 80.5906 30.7159 80.2198 30.8134 79.8685C31.3989 77.8583 32.0625 75.8482 32.8627 73.838L20.1576 66.4609C20.0796 66.6366 20.0211 66.8317 19.943 67.0269C19.8259 67.3392 19.7283 67.6514 19.6112 67.9442C19.416 68.4906 19.2209 69.0175 19.0257 69.564C18.9867 69.6811 18.9477 69.7982 18.9086 69.9153C18.8306 70.169 18.7525 70.4422 18.6744 70.6959C18.4792 71.3009 18.3036 71.9059 18.128 72.5109C18.0889 72.6866 18.0304 72.8427 17.9719 73.0184C17.9133 73.2135 17.8742 73.4087 17.8157 73.6234C17.6205 74.365 17.4449 75.1066 17.2692 75.8287C17.2107 76.0433 17.1522 76.258 17.1131 76.4922C17.0546 76.785 16.996 77.0582 16.9375 77.3509L29.6425 84.728C29.7206 84.1816 29.8572 83.6742 29.9743 83.1667Z" fill="black"/>
<path opacity="0.2" d="M20.705 92.5529L8 85.1758L8.03907 97.549L19.4755 104.204L20.744 104.946L20.705 92.5529Z" fill="black"/>
<path opacity="0.2" d="M53.9219 35.0177L41.217 27.6211L38.875 39.2527L51.58 46.6493L53.9219 35.0177Z" fill="black"/>
<path opacity="0.2" d="M28.162 67.3185L15.4766 59.9414L20.1604 66.4403L32.8654 73.8369L28.162 67.3185Z" fill="black"/>
<path opacity="0.2" d="M43.7731 54.8882L31.0876 47.5112L23.0664 46.7695L35.7714 54.1661L43.7731 54.8882Z" fill="black"/>
<path opacity="0.2" d="M65.3969 31.4088L74.9012 36.9318L82.9028 26.9396L70.1979 19.5625L63.4062 28.0325L64.6943 28.7936L65.3969 31.4088Z" fill="white"/>
<path opacity="0.2" d="M43.7753 54.8863C44.8487 53.5397 45.9611 52.2712 47.093 51.0417C47.2101 50.905 47.3273 50.788 47.4444 50.6513C47.8542 50.2025 48.3031 49.7731 48.7324 49.3438C48.9081 49.1681 49.0837 48.9925 49.2594 48.8168C50.0205 48.0752 50.8011 47.3336 51.5818 46.6505L38.8768 39.2734C38.0961 39.976 37.3155 40.6981 36.5543 41.4397C36.4763 41.4983 36.4178 41.5763 36.3397 41.6349C35.9884 41.9862 35.6371 42.357 35.2858 42.7083C35.1102 42.9034 34.915 43.0791 34.7394 43.2742C34.1344 43.9183 33.5489 44.5623 32.9634 45.2258C32.9439 45.2454 32.9438 45.2454 32.9438 45.2649C32.2998 46.0065 31.6753 46.7481 31.0703 47.5288L43.7753 54.8863Z" fill="white"/>
<path opacity="0.2" d="M29.6239 84.6662L16.9189 77.2891L8 85.1736L20.705 92.5507L29.6239 84.6662Z" fill="white"/>
<path opacity="0.2" d="M64.6927 28.7951L63.4047 28.0339L51.9877 21.418L41.2148 27.6241L53.9198 35.0207L64.6927 28.7951Z" fill="white"/>
<path opacity="0.2" d="M35.7733 54.1661L23.0683 46.7695L15.4766 59.9429L28.162 67.32L35.7733 54.1661Z" fill="white"/>
<path d="M133.351 72.9019L132.512 73.9558L140.591 78.6397L138.893 72.3359C136.922 72.9019 135.068 73.058 133.351 72.9019Z" fill="white"/>
<path d="M154.664 37.3824C154.625 37.1287 154.605 36.8945 154.547 36.6603C154.527 36.5237 154.468 36.3871 154.449 36.2505C154.39 36.0553 154.351 35.8407 154.293 35.6455C154.254 35.5089 154.195 35.3918 154.137 35.2552C154.078 35.0795 154 34.9039 153.942 34.7283C153.883 34.6112 153.805 34.4941 153.746 34.377C153.668 34.2208 153.59 34.0647 153.493 33.9281C153.415 33.811 153.337 33.7134 153.259 33.6158C153.161 33.4987 153.083 33.3621 152.966 33.245C152.888 33.1474 152.771 33.0694 152.693 32.9718C152.595 32.8742 152.478 32.7571 152.361 32.6595C152.263 32.5815 152.146 32.5229 152.049 32.4449C150.429 31.3129 148.184 31.1763 145.686 32.2497C145.745 32.7181 145.784 33.1865 145.784 33.6939C145.784 34.0647 145.764 34.455 145.745 34.8453C145.745 34.9624 145.725 35.0991 145.706 35.2162C145.686 35.4699 145.647 35.7236 145.608 35.9578C145.569 36.231 145.511 36.5042 145.472 36.797C145.433 36.9921 145.393 37.1873 145.354 37.3629C145.315 37.5386 145.276 37.7142 145.218 37.8899C145.159 38.1436 145.081 38.3973 145.023 38.6315C144.984 38.7681 144.945 38.9242 144.886 39.0608C144.788 39.3341 144.71 39.6268 144.613 39.9C144.574 40.0171 144.535 40.1342 144.496 40.2513C144.359 40.6416 144.203 41.0124 144.027 41.4028C144.008 41.4418 143.988 41.4808 143.969 41.5394C143.813 41.8712 143.657 42.2224 143.5 42.5542C143.442 42.6518 143.403 42.7689 143.344 42.8665C143.188 43.1787 143.013 43.491 142.837 43.8033C142.798 43.8618 142.759 43.9203 142.739 43.9984C142.525 44.3692 142.31 44.7205 142.076 45.0718C142.017 45.1694 141.939 45.267 141.881 45.3645C141.705 45.6182 141.529 45.872 141.354 46.1062C141.256 46.2428 141.159 46.3794 141.061 46.4965C140.905 46.6916 140.749 46.9063 140.593 47.1015C140.456 47.2771 140.319 47.4333 140.183 47.5894C140.046 47.7455 139.909 47.9016 139.792 48.0383C139.558 48.292 139.324 48.5457 139.09 48.7799C138.953 48.936 138.797 49.0726 138.641 49.2287C138.524 49.3458 138.407 49.4434 138.29 49.5605C138.094 49.7362 137.899 49.9118 137.704 50.0679C137.587 50.1655 137.47 50.2631 137.353 50.3607C137.138 50.5363 136.923 50.6924 136.689 50.8486C136.592 50.9266 136.475 51.0047 136.377 51.0828C136.045 51.317 135.714 51.5121 135.382 51.7073C135.05 51.9024 134.738 52.0586 134.425 52.1952C134.347 52.2342 134.269 52.2733 134.172 52.3123C134.094 52.3513 134.035 52.3708 133.957 52.3904C134.269 54.9274 135.343 56.7424 136.963 57.6597C137.177 57.7768 137.411 57.8744 137.626 57.972C137.685 57.9915 137.724 58.011 137.782 58.0305C137.802 58.0305 137.802 58.0305 137.821 58.05C138.016 58.1086 138.192 58.1671 138.387 58.2062C138.446 58.2257 138.485 58.2257 138.543 58.2452H138.563C138.817 58.2842 139.07 58.3232 139.324 58.3428C139.363 58.3428 139.402 58.3428 139.461 58.3428C139.48 58.3428 139.5 58.3428 139.519 58.3428C139.734 58.3428 139.948 58.3428 140.163 58.3233C140.261 58.3233 140.358 58.3037 140.456 58.2842H140.475C140.651 58.2647 140.846 58.2257 141.022 58.2062C141.158 58.1866 141.295 58.1476 141.432 58.1086C141.432 58.1086 141.432 58.1086 141.451 58.1086C141.607 58.0695 141.763 58.0305 141.9 57.972C142.134 57.8939 142.388 57.8158 142.642 57.7182C142.817 57.6597 142.973 57.5816 143.149 57.5036C143.227 57.4645 143.305 57.4255 143.383 57.3865C143.696 57.2303 144.008 57.0742 144.34 56.8986C144.671 56.7034 145.003 56.4887 145.335 56.2741C145.433 56.196 145.55 56.1179 145.647 56.0399C145.745 55.9618 145.862 55.8837 145.959 55.8057C146.077 55.7276 146.194 55.63 146.311 55.552C146.428 55.4544 146.545 55.3568 146.662 55.2592C146.779 55.1616 146.877 55.0641 146.994 54.9665C147.091 54.8884 147.169 54.8103 147.267 54.7323C147.384 54.6347 147.501 54.5176 147.618 54.4005C147.774 54.2639 147.911 54.1078 148.067 53.9516C148.301 53.7174 148.536 53.4637 148.77 53.21C148.906 53.0539 149.043 52.9173 149.18 52.7611C149.316 52.605 149.453 52.4294 149.589 52.2732C149.746 52.0781 149.902 51.8829 150.058 51.6683C150.155 51.5316 150.253 51.4145 150.351 51.2779C150.526 51.0242 150.702 50.79 150.878 50.5363C150.936 50.4387 151.014 50.3411 151.073 50.2436C151.307 49.8923 151.522 49.541 151.736 49.1702C151.775 49.1116 151.814 49.0531 151.834 48.975C152.009 48.6628 152.185 48.3505 152.341 48.0383C152.4 47.9407 152.439 47.8236 152.497 47.726C152.673 47.3942 152.829 47.0624 152.966 46.7112C152.985 46.6721 153.005 46.6136 153.024 46.5745C153.2 46.2037 153.337 45.8134 153.493 45.4231C153.532 45.306 153.571 45.1889 153.61 45.0718C153.707 44.7986 153.805 44.5058 153.883 44.2326C153.922 44.096 153.981 43.9399 154.02 43.8033C154.098 43.5495 154.156 43.3153 154.215 43.0616C154.254 42.886 154.312 42.7103 154.351 42.5347C154.39 42.3395 154.429 42.1444 154.469 41.9687C154.527 41.6955 154.566 41.4223 154.605 41.1295C154.644 40.8758 154.664 40.6221 154.703 40.3684C154.722 40.2513 154.722 40.1147 154.742 39.9976C154.761 39.6073 154.781 39.217 154.781 38.8462C154.781 38.4363 154.761 38.0265 154.722 37.6557C154.703 37.6166 154.664 37.4995 154.664 37.3824Z" fill="white"/>
<path d="M118.968 64.6055L116.939 65.1714L116.041 64.6445L113.309 71.6313L122.306 76.8616L125.584 68.4501L118.968 64.6055Z" fill="white"/>
<path d="M123.262 63.4336L118.969 64.6046L125.585 68.4492C124.57 67.0831 123.77 65.4047 123.262 63.4336Z" fill="white"/>
<path d="M123.454 49.776C123.571 49.249 123.707 48.7416 123.844 48.2147C123.922 47.961 123.981 47.6878 124.059 47.434C124.469 46.0094 124.957 44.5847 125.503 43.16L116.506 37.9297C116.447 38.0663 116.408 38.1834 116.35 38.32C116.272 38.5347 116.194 38.7494 116.116 38.964C115.979 39.3348 115.842 39.7252 115.706 40.096C115.686 40.174 115.647 40.2521 115.608 40.3497C115.55 40.5253 115.491 40.7205 115.433 40.8961C115.296 41.3255 115.159 41.7548 115.042 42.1647C115.003 42.2818 114.964 42.3989 114.925 42.516C114.886 42.6526 114.867 42.7892 114.828 42.9453C114.691 43.4723 114.554 43.9797 114.437 44.5066C114.398 44.6628 114.359 44.8189 114.32 44.975C114.281 45.1702 114.242 45.3848 114.203 45.58L123.2 50.8103C123.298 50.4786 123.376 50.1273 123.454 49.776Z" fill="white"/>
<path d="M133.235 29.7688C133.996 28.8125 134.777 27.9147 135.577 27.0365C135.655 26.9389 135.733 26.8609 135.831 26.7633C136.124 26.451 136.436 26.1388 136.729 25.846C136.846 25.7289 136.982 25.5923 137.099 25.4752C137.646 24.9483 138.192 24.4214 138.739 23.9334L129.742 18.7031C129.176 19.191 128.629 19.718 128.102 20.2449C128.063 20.2839 128.005 20.3425 127.946 20.3815C127.693 20.6352 127.458 20.8889 127.205 21.1426C127.068 21.2793 126.951 21.4159 126.814 21.533C126.385 21.9818 125.975 22.4502 125.565 22.9186L125.546 22.9381C125.097 23.4651 124.648 23.992 124.219 24.5384L133.235 29.7688Z" fill="white"/>
<path d="M123.223 50.828L114.245 45.6172L107.922 51.1793L116.899 56.4096L123.223 50.828Z" fill="white"/>
<path d="M116.899 56.41L107.922 51.1797L107.941 59.9424L116.041 64.6458L116.938 65.1727L116.899 56.41Z" fill="white"/>
<path d="M140.418 15.6991L131.421 10.4688L129.781 18.7046L138.759 23.9349L140.418 15.6991Z" fill="white"/>
<path d="M122.188 38.5506L113.211 33.3203L116.529 37.9261L125.506 43.1564L122.188 38.5506Z" fill="white"/>
<path d="M133.235 29.769L124.257 24.5386L118.578 24.0117L127.575 29.242L133.235 29.769Z" fill="white"/>
<path opacity="0.2" d="M133.351 72.9019L132.512 73.9558L140.591 78.6397L138.893 72.3359C136.922 72.9019 135.068 73.058 133.351 72.9019Z" fill="black"/>
<path opacity="0.2" d="M154.664 37.3824C154.625 37.1287 154.605 36.8945 154.547 36.6603C154.527 36.5237 154.468 36.3871 154.449 36.2505C154.39 36.0553 154.351 35.8407 154.293 35.6455C154.254 35.5089 154.195 35.3918 154.137 35.2552C154.078 35.0795 154 34.9039 153.942 34.7283C153.883 34.6112 153.805 34.4941 153.746 34.377C153.668 34.2208 153.59 34.0647 153.493 33.9281C153.415 33.811 153.337 33.7134 153.259 33.6158C153.161 33.4987 153.083 33.3621 152.966 33.245C152.888 33.1474 152.771 33.0694 152.693 32.9718C152.595 32.8742 152.478 32.7571 152.361 32.6595C152.263 32.5815 152.146 32.5229 152.049 32.4449C150.429 31.3129 148.184 31.1763 145.686 32.2497C145.745 32.7181 145.784 33.1865 145.784 33.6939C145.784 34.0647 145.764 34.455 145.745 34.8453C145.745 34.9624 145.725 35.0991 145.706 35.2162C145.686 35.4699 145.647 35.7236 145.608 35.9578C145.569 36.231 145.511 36.5042 145.472 36.797C145.433 36.9921 145.393 37.1873 145.354 37.3629C145.315 37.5386 145.276 37.7142 145.218 37.8899C145.159 38.1436 145.081 38.3973 145.023 38.6315C144.984 38.7681 144.945 38.9242 144.886 39.0608C144.788 39.3341 144.71 39.6268 144.613 39.9C144.574 40.0171 144.535 40.1342 144.496 40.2513C144.359 40.6416 144.203 41.0124 144.027 41.4028C144.008 41.4418 143.988 41.4808 143.969 41.5394C143.813 41.8712 143.657 42.2224 143.5 42.5542C143.442 42.6518 143.403 42.7689 143.344 42.8665C143.188 43.1787 143.013 43.491 142.837 43.8033C142.798 43.8618 142.759 43.9203 142.739 43.9984C142.525 44.3692 142.31 44.7205 142.076 45.0718C142.017 45.1694 141.939 45.267 141.881 45.3645C141.705 45.6182 141.529 45.872 141.354 46.1062C141.256 46.2428 141.159 46.3794 141.061 46.4965C140.905 46.6916 140.749 46.9063 140.593 47.1015C140.456 47.2771 140.319 47.4333 140.183 47.5894C140.046 47.7455 139.909 47.9016 139.792 48.0383C139.558 48.292 139.324 48.5457 139.09 48.7799C138.953 48.936 138.797 49.0726 138.641 49.2287C138.524 49.3458 138.407 49.4434 138.29 49.5605C138.094 49.7362 137.899 49.9118 137.704 50.0679C137.587 50.1655 137.47 50.2631 137.353 50.3607C137.138 50.5363 136.923 50.6924 136.689 50.8486C136.592 50.9266 136.475 51.0047 136.377 51.0828C136.045 51.317 135.714 51.5121 135.382 51.7073C135.05 51.9024 134.738 52.0586 134.425 52.1952C134.347 52.2342 134.269 52.2733 134.172 52.3123C134.094 52.3513 134.035 52.3708 133.957 52.3904C134.269 54.9274 135.343 56.7424 136.963 57.6597C137.177 57.7768 137.411 57.8744 137.626 57.972C137.685 57.9915 137.724 58.011 137.782 58.0305C137.802 58.0305 137.802 58.0305 137.821 58.05C138.016 58.1086 138.192 58.1671 138.387 58.2062C138.446 58.2257 138.485 58.2257 138.543 58.2452H138.563C138.817 58.2842 139.07 58.3232 139.324 58.3428C139.363 58.3428 139.402 58.3428 139.461 58.3428C139.48 58.3428 139.5 58.3428 139.519 58.3428C139.734 58.3428 139.948 58.3428 140.163 58.3233C140.261 58.3233 140.358 58.3037 140.456 58.2842H140.475C140.651 58.2647 140.846 58.2257 141.022 58.2062C141.158 58.1866 141.295 58.1476 141.432 58.1086C141.432 58.1086 141.432 58.1086 141.451 58.1086C141.607 58.0695 141.763 58.0305 141.9 57.972C142.134 57.8939 142.388 57.8158 142.642 57.7182C142.817 57.6597 142.973 57.5816 143.149 57.5036C143.227 57.4645 143.305 57.4255 143.383 57.3865C143.696 57.2303 144.008 57.0742 144.34 56.8986C144.671 56.7034 145.003 56.4887 145.335 56.2741C145.433 56.196 145.55 56.1179 145.647 56.0399C145.745 55.9618 145.862 55.8837 145.959 55.8057C146.077 55.7276 146.194 55.63 146.311 55.552C146.428 55.4544 146.545 55.3568 146.662 55.2592C146.779 55.1616 146.877 55.0641 146.994 54.9665C147.091 54.8884 147.169 54.8103 147.267 54.7323C147.384 54.6347 147.501 54.5176 147.618 54.4005C147.774 54.2639 147.911 54.1078 148.067 53.9516C148.301 53.7174 148.536 53.4637 148.77 53.21C148.906 53.0539 149.043 52.9173 149.18 52.7611C149.316 52.605 149.453 52.4294 149.589 52.2732C149.746 52.0781 149.902 51.8829 150.058 51.6683C150.155 51.5316 150.253 51.4145 150.351 51.2779C150.526 51.0242 150.702 50.79 150.878 50.5363C150.936 50.4387 151.014 50.3411 151.073 50.2436C151.307 49.8923 151.522 49.541 151.736 49.1702C151.775 49.1116 151.814 49.0531 151.834 48.975C152.009 48.6628 152.185 48.3505 152.341 48.0383C152.4 47.9407 152.439 47.8236 152.497 47.726C152.673 47.3942 152.829 47.0624 152.966 46.7112C152.985 46.6721 153.005 46.6136 153.024 46.5745C153.2 46.2037 153.337 45.8134 153.493 45.4231C153.532 45.306 153.571 45.1889 153.61 45.0718C153.707 44.7986 153.805 44.5058 153.883 44.2326C153.922 44.096 153.981 43.9399 154.02 43.8033C154.098 43.5495 154.156 43.3153 154.215 43.0616C154.254 42.886 154.312 42.7103 154.351 42.5347C154.39 42.3395 154.429 42.1444 154.469 41.9687C154.527 41.6955 154.566 41.4223 154.605 41.1295C154.644 40.8758 154.664 40.6221 154.703 40.3684C154.722 40.2513 154.722 40.1147 154.742 39.9976C154.761 39.6073 154.781 39.217 154.781 38.8462C154.781 38.4363 154.761 38.0265 154.722 37.6557C154.703 37.6166 154.664 37.4995 154.664 37.3824Z" fill="black"/>
<path opacity="0.2" d="M118.968 64.6055L116.939 65.1714L116.041 64.6445L113.309 71.6313L122.306 76.8616L125.584 68.4501L118.968 64.6055Z" fill="black"/>
<path opacity="0.2" d="M123.262 63.4336L118.969 64.6046L125.585 68.4492C124.57 67.0831 123.77 65.4047 123.262 63.4336Z" fill="black"/>
<path opacity="0.2" d="M123.454 49.776C123.571 49.249 123.707 48.7416 123.844 48.2147C123.922 47.961 123.981 47.6878 124.059 47.434C124.469 46.0094 124.957 44.5847 125.503 43.16L116.506 37.9297C116.447 38.0663 116.408 38.1834 116.35 38.32C116.272 38.5347 116.194 38.7494 116.116 38.964C115.979 39.3348 115.842 39.7252 115.706 40.096C115.686 40.174 115.647 40.2521 115.608 40.3497C115.55 40.5253 115.491 40.7205 115.433 40.8961C115.296 41.3255 115.159 41.7548 115.042 42.1647C115.003 42.2818 114.964 42.3989 114.925 42.516C114.886 42.6526 114.867 42.7892 114.828 42.9453C114.691 43.4723 114.554 43.9797 114.437 44.5066C114.398 44.6628 114.359 44.8189 114.32 44.975C114.281 45.1702 114.242 45.3848 114.203 45.58L123.2 50.8103C123.298 50.4786 123.376 50.1273 123.454 49.776Z" fill="black"/>
<path opacity="0.2" d="M116.899 56.41L107.922 51.1797L107.941 59.9424L116.041 64.6458L116.938 65.1727L116.899 56.41Z" fill="black"/>
<path opacity="0.2" d="M140.418 15.6991L131.421 10.4688L129.781 18.7046L138.759 23.9349L140.418 15.6991Z" fill="black"/>
<path opacity="0.2" d="M122.188 38.5506L113.211 33.3203L116.529 37.9261L125.506 43.1564L122.188 38.5506Z" fill="black"/>
<path opacity="0.2" d="M133.235 29.769L124.257 24.5386L118.578 24.0117L127.575 29.242L133.235 29.769Z" fill="black"/>
<path d="M127.575 29.242L118.578 24.0117L113.211 33.3209L122.188 38.5512L127.575 29.242Z" fill="white"/>
<path opacity="0.2" d="M133.235 29.7688C133.996 28.8125 134.777 27.9147 135.577 27.0365C135.655 26.9389 135.733 26.8609 135.831 26.7633C136.124 26.451 136.436 26.1388 136.729 25.846C136.846 25.7289 136.982 25.5923 137.099 25.4752C137.646 24.9483 138.192 24.4214 138.739 23.9334L129.742 18.7031C129.176 19.191 128.629 19.718 128.102 20.2449C128.063 20.2839 128.005 20.3425 127.946 20.3815C127.693 20.6352 127.458 20.8889 127.205 21.1426C127.068 21.2793 126.951 21.4159 126.814 21.533C126.385 21.9818 125.975 22.4502 125.565 22.9186L125.546 22.9381C125.097 23.4651 124.648 23.992 124.219 24.5384L133.235 29.7688Z" fill="white"/>
<path opacity="0.2" d="M123.223 50.828L114.245 45.6172L107.922 51.1793L116.899 56.4096L123.223 50.828Z" fill="white"/>
<path opacity="0.2" d="M127.575 29.242L118.578 24.0117L113.211 33.3209L122.188 38.5512L127.575 29.242Z" fill="white"/>
<path d="M165.396 39.1181L171.719 33.5364L171.7 24.7737L165.377 26.5106C164.85 24.559 164.069 22.8806 163.054 21.495L163.601 20.0703L166.333 13.0836L160.927 10L155.267 17.0648C155.189 17.0648 155.111 17.0648 155.033 17.0453C154.838 17.0258 154.623 17.0258 154.428 17.0258C154.174 17.0258 153.921 17.0063 153.647 17.0258C153.589 17.0258 153.511 17.0258 153.452 17.0453C152.262 17.0844 151.032 17.2795 149.725 17.6308L148.534 13.1811L148.046 11.3271L140.415 15.7377L138.776 23.9735C138.21 24.4614 137.664 24.9884 137.137 25.5153C137.02 25.6324 136.883 25.769 136.766 25.8861C136.454 26.1984 136.161 26.4911 135.868 26.8034C135.79 26.901 135.712 26.979 135.614 27.0766C134.814 27.9548 134.014 28.8526 133.272 29.8089L127.613 29.2819L122.246 38.5911L125.564 43.1969C124.998 44.6216 124.529 46.0463 124.119 47.471C124.041 47.7247 123.983 47.9979 123.905 48.2516C123.768 48.7785 123.632 49.286 123.514 49.8129C123.436 50.1642 123.339 50.5155 123.28 50.8863L116.957 56.4484L116.977 65.2111L119.006 64.6647L123.3 63.4937C123.807 65.4453 124.607 67.1237 125.622 68.5093L122.344 76.9208L127.749 80.0043L132.55 74.0129L133.39 72.959C135.107 73.1347 136.961 72.959 138.932 72.3931L140.63 78.6968L148.261 74.2861L149.9 66.0503C151.852 64.3329 153.725 62.3618 155.423 60.2345L161.103 60.7419L166.469 51.4327L163.152 46.8269C164.108 44.2508 164.889 41.6552 165.396 39.1181ZM154.682 40.4452C154.662 40.6989 154.623 40.9526 154.584 41.2063C154.545 41.4795 154.487 41.7527 154.447 42.0455C154.408 42.2406 154.369 42.4358 154.33 42.6115C154.291 42.7871 154.252 42.9627 154.194 43.1384C154.135 43.3921 154.077 43.6263 153.999 43.88C153.96 44.0166 153.921 44.1727 153.862 44.3094C153.764 44.5826 153.686 44.8753 153.589 45.1486C153.55 45.2657 153.511 45.3827 153.472 45.4998C153.335 45.8902 153.179 46.261 153.003 46.6513C152.984 46.6903 152.964 46.7489 152.945 46.7879C152.789 47.1197 152.632 47.471 152.476 47.8027C152.418 47.9003 152.379 48.0174 152.32 48.115C152.164 48.4273 151.988 48.7395 151.813 49.0518C151.774 49.1103 151.735 49.1689 151.715 49.2469C151.501 49.6177 151.286 49.969 151.052 50.3203C150.993 50.4179 150.915 50.5155 150.857 50.6131C150.681 50.8668 150.505 51.1205 150.33 51.3547C150.232 51.4913 150.134 51.6279 150.037 51.745C149.881 51.9597 149.725 52.1548 149.568 52.35C149.432 52.5256 149.295 52.6818 149.159 52.8379C149.022 52.994 148.885 53.1502 148.749 53.2868C148.515 53.5405 148.3 53.7942 148.046 54.0284C147.89 54.1845 147.753 54.3211 147.597 54.4773C147.48 54.5944 147.363 54.6919 147.246 54.809C147.148 54.8871 147.07 54.9652 146.973 55.0432C146.641 55.336 146.29 55.6287 145.938 55.8824C145.841 55.9605 145.724 56.0385 145.626 56.1166C145.529 56.1947 145.412 56.2727 145.314 56.3508C144.982 56.585 144.65 56.7802 144.319 56.9753C143.909 57.2095 143.518 57.4047 143.128 57.5803C142.953 57.6584 142.777 57.7169 142.621 57.795C142.367 57.8926 142.133 57.9706 141.879 58.0487C141.723 58.0877 141.567 58.1463 141.43 58.1853C141.294 58.2243 141.138 58.2439 141.001 58.2829C140.825 58.3219 140.63 58.3415 140.454 58.361C140.357 58.3805 140.24 58.3805 140.142 58.4C139.928 58.4195 139.713 58.4195 139.498 58.4195C139.44 58.4195 139.381 58.4195 139.322 58.4195C139.049 58.4 138.796 58.3805 138.561 58.3219C138.503 58.3024 138.444 58.3024 138.386 58.2829C138.191 58.2439 137.995 58.1853 137.82 58.1268C137.761 58.1073 137.703 58.0877 137.625 58.0682C137.39 57.9706 137.176 57.8731 136.961 57.756C135.361 56.8387 134.268 55.0237 133.956 52.4866C133.897 52.0182 133.858 51.5498 133.858 51.0424C133.838 44.4069 138.522 36.3273 144.28 32.99C144.768 32.7168 145.216 32.5021 145.685 32.3069C148.202 31.2531 150.427 31.3702 152.047 32.5021C152.145 32.5802 152.262 32.6387 152.359 32.7168C152.476 32.8144 152.574 32.9119 152.691 33.029C152.789 33.1266 152.886 33.2047 152.964 33.3022C153.062 33.4193 153.159 33.556 153.257 33.6731C153.335 33.7706 153.413 33.8682 153.491 33.9853C153.589 34.1219 153.667 34.2781 153.745 34.4342C153.803 34.5513 153.882 34.6684 153.94 34.7855C154.018 34.9416 154.077 35.1368 154.135 35.3124C154.174 35.449 154.233 35.5661 154.291 35.7027C154.35 35.8979 154.389 36.0931 154.447 36.3077C154.487 36.4443 154.526 36.5614 154.545 36.7176C154.584 36.9518 154.623 37.2055 154.662 37.4397C154.682 37.5568 154.701 37.6739 154.721 37.8105C154.76 38.2008 154.779 38.5911 154.779 39.001C154.76 39.4303 154.74 39.9377 154.682 40.4452Z" fill="white"/>
<path opacity="0.81" d="M1507.71 2927.09H1474.79C1473.33 2927.09 1472.13 2925.92 1472.1 2924.45L1471.48 2897.45C1471.45 2895.94 1472.67 2894.7 1474.18 2894.7H1508.45C1509.97 2894.7 1511.19 2895.95 1511.15 2897.46L1510.41 2924.46C1510.37 2925.93 1509.17 2927.09 1507.71 2927.09Z" fill="url(#paint0_linear_74_2282)"/>
<path d="M1507.71 2927.18H1474.79C1473.29 2927.18 1472.04 2925.96 1472.01 2924.46L1471.4 2897.46C1471.38 2896.7 1471.67 2895.99 1472.19 2895.45C1472.72 2894.92 1473.43 2894.62 1474.18 2894.62H1508.46C1509.21 2894.62 1509.92 2894.92 1510.45 2895.46C1510.98 2896 1511.26 2896.71 1511.24 2897.48L1510.5 2924.48C1510.45 2925.99 1509.23 2927.18 1507.71 2927.18ZM1474.18 2894.78C1473.47 2894.78 1472.8 2895.06 1472.31 2895.57C1471.81 2896.08 1471.55 2896.75 1471.56 2897.46L1472.18 2924.46C1472.21 2925.86 1473.38 2927.01 1474.79 2927.01H1507.71C1509.13 2927.01 1510.28 2925.89 1510.32 2924.47L1511.06 2897.47C1511.08 2896.76 1510.81 2896.08 1510.32 2895.58C1509.82 2895.06 1509.15 2894.79 1508.45 2894.79H1474.18V2894.78Z" fill="#473DA2"/>
<path d="M1497.67 2900.23H1480.35V2900.97H1497.67V2900.23Z" fill="white"/>
<path d="M1489.01 2902.03H1480.35V2902.77H1489.01V2902.03Z" fill="white"/>
<path d="M1489.01 2903.53H1480.35V2904.27H1489.01V2903.53Z" fill="white"/>
<path d="M1496.86 2903.53H1489.98V2904.27H1496.86V2903.53Z" fill="white"/>
<path d="M1494.31 2905.04H1480.35V2905.78H1494.31V2905.04Z" fill="white"/>
<path d="M1495.32 2906.54H1490.35V2907.28H1495.32V2906.54Z" fill="white"/>
<path d="M1494.93 2911.05H1486.34V2911.79H1494.93V2911.05Z" fill="white"/>
<path d="M1495.92 2908.05H1480.35V2908.79H1495.92V2908.05Z" fill="white"/>
<path d="M1492.33 2909.55H1480.35V2910.29H1492.33V2909.55Z" fill="white"/>
<path d="M1485.98 2911.05H1480.35V2911.79H1485.98V2911.05Z" fill="white"/>
<path d="M1489.01 2912.56H1480.35V2913.3H1489.01V2912.56Z" fill="white"/>
<path d="M1492.87 2914.07H1483.86V2914.81H1492.87V2914.07Z" fill="white"/>
<path d="M1494.93 2915.53H1486.34V2916.27H1494.93V2915.53Z" fill="white"/>
<path d="M1485.98 2915.53H1480.35V2916.27H1485.98V2915.53Z" fill="white"/>
<path d="M1489.01 2917.04H1480.35V2917.78H1489.01V2917.04Z" fill="white"/>
<path d="M1492.87 2918.54H1483.86V2919.28H1492.87V2918.54Z" fill="white"/>
<path opacity="0.73" d="M1499.72 2642.88H1484.66C1483.44 2642.88 1482.45 2641.92 1482.41 2640.7L1482.08 2630.79C1482.03 2629.52 1483.05 2628.47 1484.32 2628.47H1500.02C1501.29 2628.47 1502.31 2629.52 1502.27 2630.79L1501.97 2640.7C1501.93 2641.91 1500.93 2642.88 1499.72 2642.88Z" fill="url(#paint1_linear_74_2282)"/>
<path d="M1499.72 2642.96H1484.66C1483.4 2642.96 1482.38 2641.97 1482.34 2640.71L1482 2630.8C1481.98 2630.17 1482.21 2629.56 1482.66 2629.11C1483.1 2628.65 1483.69 2628.4 1484.33 2628.4H1500.03C1500.66 2628.4 1501.25 2628.65 1501.7 2629.11C1502.14 2629.56 1502.37 2630.16 1502.35 2630.79L1502.05 2640.7C1502.01 2641.96 1500.98 2642.96 1499.72 2642.96ZM1484.32 2628.55C1483.73 2628.55 1483.17 2628.79 1482.76 2629.21C1482.35 2629.64 1482.13 2630.2 1482.16 2630.79L1482.49 2640.7C1482.53 2641.88 1483.48 2642.8 1484.66 2642.8H1499.72C1500.9 2642.8 1501.86 2641.87 1501.89 2640.7L1502.2 2630.79C1502.21 2630.2 1502 2629.64 1501.58 2629.21C1501.17 2628.79 1500.62 2628.55 1500.02 2628.55H1484.32V2628.55Z" fill="#953DA2"/>
<path d="M1488.67 2632.04L1484.96 2636.34L1488.74 2639.55V2637.89L1486.55 2636L1488.59 2633.7L1488.67 2632.04Z" fill="white"/>
<path d="M1495.2 2632.23L1498.92 2636.53L1495.13 2639.74V2638.08L1497.32 2636.19L1494.89 2633.61L1495.2 2632.23Z" fill="white"/>
<path d="M1489.48 2639.55L1492.72 2632.42H1494.24L1490.58 2639.55H1489.48Z" fill="white"/>
<path fill-rule="evenodd" clip-rule="evenodd" d="M1728.41 2839.02L1725.92 2846.15C1727.29 2842.21 1729.27 2839.65 1728.41 2839.02ZM1725.92 2846.15L1723.42 2853.28C1724.05 2853.09 1724.54 2850.09 1725.92 2846.15ZM1728.41 2839.02L1725.92 2846.15C1727.29 2842.21 1729.27 2839.65 1728.41 2839.02ZM1725.92 2846.15L1723.42 2853.28C1724.05 2853.09 1724.54 2850.09 1725.92 2846.15ZM1733.11 2852.33L1735.53 2853.7L1738.15 2846.57L1735.35 2846.1C1735.4 2845.83 1735.45 2845.57 1735.48 2845.31C1735.68 2844.08 1735.75 2842.89 1735.72 2841.75L1738.64 2839.91L1737.31 2833.63L1734.5 2836.31C1734.11 2835.51 1733.63 2834.81 1733.06 2834.22C1732.91 2834.05 1732.74 2833.89 1732.58 2833.75L1734.29 2829.79L1729.73 2828.3L1728.63 2832.29C1727.61 2832.3 1726.57 2832.55 1725.54 2833.02L1725.03 2829.24L1720 2833.05L1721.16 2836.39C1720.26 2837.43 1719.43 2838.62 1718.71 2839.97L1716.29 2838.6L1713.67 2845.73L1716.47 2846.2C1716.17 2847.71 1716.06 2849.17 1716.1 2850.55L1713.17 2852.38L1714.51 2858.67L1717.31 2855.98C1717.81 2857.01 1718.46 2857.88 1719.24 2858.54L1717.52 2862.51L1722.01 2864.26L1722.71 2861.73L1723.18 2860C1724.2 2860 1725.25 2859.75 1726.28 2859.28L1726.78 2863.06L1731.8 2859.25L1730.64 2855.91C1731.35 2855.09 1732.02 2854.18 1732.62 2853.17C1732.8 2852.89 1732.96 2852.62 1733.11 2852.33ZM1725.92 2846.15C1724.54 2850.09 1725.92 2854.16 1723.42 2853.28C1720.92 2852.4 1720 2848.5 1721.39 2844.57C1722.77 2840.63 1725.91 2838.16 1728.41 2839.03C1730.91 2839.9 1727.29 2842.21 1725.92 2846.15ZM1728.41 2839.02L1725.92 2846.15C1727.29 2842.21 1729.27 2839.65 1728.41 2839.02ZM1725.92 2846.15L1723.42 2853.28C1724.05 2853.09 1724.54 2850.09 1725.92 2846.15Z" fill="url(#paint2_linear_74_2282)"/>
<path fill-rule="evenodd" clip-rule="evenodd" d="M1735.53 2853.71L1738.14 2846.57L1735.48 2845.31L1735.05 2845.11L1735.33 2841.18L1738.29 2839.73L1737.31 2833.63L1730.87 2831.53L1732.06 2834.37L1734.31 2829.79L1729.74 2828.3L1727.86 2827.69L1723.36 2825.93L1722.52 2829.01L1718.6 2827.14L1713.57 2830.95L1715.1 2835.06L1710.4 2848.1L1708.08 2856.56L1712.55 2857.05L1711.09 2860.41L1715.6 2862.17L1722.04 2864.26L1721.01 2862.19L1720.36 2860.95L1722.74 2861.73L1726.8 2863.06L1731.83 2859.25L1728.72 2855.59L1732.65 2853.17L1735.53 2853.71ZM1721.38 2844.57C1722.77 2840.63 1725.91 2838.15 1728.41 2839.03L1725.91 2846.16L1723.42 2853.28C1720.92 2852.4 1720 2848.5 1721.38 2844.57Z" fill="url(#paint3_linear_74_2282)"/>
<path fill-rule="evenodd" clip-rule="evenodd" d="M1729.09 2851.6L1731.7 2844.47L1728.9 2844C1729.19 2842.5 1729.31 2841.04 1729.27 2839.66L1732.2 2837.82L1730.86 2831.54L1728.06 2834.22C1727.56 2833.2 1726.91 2832.33 1726.14 2831.66L1727.85 2827.7L1723.36 2825.95L1722.19 2830.2C1721.17 2830.21 1720.12 2830.46 1719.1 2830.93L1718.6 2827.16L1713.57 2830.96L1714.72 2834.3C1713.82 2835.34 1712.99 2836.54 1712.27 2837.88L1709.85 2836.51L1707.24 2843.65L1710.04 2844.12C1709.75 2845.62 1709.62 2847.08 1709.67 2848.46L1706.74 2850.29L1708.07 2856.58L1710.88 2853.89C1711.38 2854.92 1712.03 2855.79 1712.8 2856.45L1711.08 2860.42L1715.58 2862.17L1716.75 2857.91C1717.77 2857.91 1718.81 2857.66 1719.84 2857.19L1720.34 2860.96L1725.37 2857.16L1724.21 2853.81C1725.12 2852.78 1725.94 2851.58 1726.67 2850.24L1729.09 2851.6ZM1716.97 2851.18C1714.47 2850.3 1713.56 2846.41 1714.94 2842.47C1716.32 2838.53 1719.46 2836.05 1721.97 2836.92C1724.47 2837.8 1725.38 2841.7 1724 2845.64C1722.62 2849.57 1719.47 2852.06 1716.97 2851.18Z" fill="url(#paint4_linear_74_2282)"/>
<path opacity="0.5" fill-rule="evenodd" clip-rule="evenodd" d="M1738.64 2839.91L1732.2 2837.82L1729.27 2839.66L1735.72 2841.76L1738.64 2839.91Z" fill="#601734"/>
<path fill-rule="evenodd" clip-rule="evenodd" d="M1731.81 2859.25L1725.37 2857.15L1724.21 2853.8L1730.65 2855.91L1731.81 2859.25Z" fill="#B3D9FF"/>
<path opacity="0.5" fill-rule="evenodd" clip-rule="evenodd" d="M1726.13 2831.66L1729.67 2832.68L1730.86 2831.54L1733.21 2832.3L1734.3 2829.79L1727.85 2827.69L1726.13 2831.66Z" fill="#601734"/>
<path opacity="0.5" fill-rule="evenodd" clip-rule="evenodd" d="M1716.75 2857.91L1720.13 2859.31L1719.84 2857.19C1719.84 2857.19 1718.03 2858.15 1716.75 2857.91Z" fill="#601734"/>
<path opacity="0.5" fill-rule="evenodd" clip-rule="evenodd" d="M1717.27 2838.59L1722.95 2841.59C1722.95 2841.59 1723.78 2840.49 1724.41 2840.05C1724.41 2840.05 1722.93 2833.78 1717.27 2838.59Z" fill="#601734"/>
<path d="M1681.11 2778.41C1682.83 2775.45 1682.39 2772.2 1682.39 2772.2L1681.43 2771.53L1678.84 2775.75C1677.24 2776.3 1675.88 2775.76 1675.88 2775.76L1675.88 2775.75C1675.88 2775.75 1674.92 2774.65 1674.9 2772.95L1678.03 2769.11L1677.07 2768.43C1677.07 2768.43 1673.86 2769.09 1671.64 2771.7C1671.64 2771.7 1670.96 2772.61 1670.92 2772.72C1670.7 2773.33 1670.74 2774.56 1671.91 2776.34L1663.4 2789.6C1662.19 2789.59 1661 2790.15 1660.25 2791.21C1659.03 2792.94 1659.44 2795.32 1661.16 2796.55C1662.89 2797.77 1665.27 2797.36 1666.5 2795.64C1667.25 2794.58 1667.38 2793.27 1666.96 2792.13L1676.64 2779.7C1678.66 2780.2 1679.84 2779.87 1680.39 2779.44C1680.5 2779.34 1681.11 2778.41 1681.11 2778.41ZM1663.17 2795.55L1661.43 2794.32L1661.62 2792.19L1663.57 2791.29L1665.31 2792.53L1665.12 2794.66L1663.17 2795.55Z" fill="url(#paint5_linear_74_2282)"/>
<path d="M1680.38 2779.44C1682.1 2776.48 1681.66 2773.23 1681.66 2773.23L1680.7 2772.55L1678.12 2776.77C1676.51 2777.32 1675.15 2776.78 1675.15 2776.78L1675.16 2776.77C1675.16 2776.77 1674.19 2775.67 1674.18 2773.97L1677.3 2770.13L1676.34 2769.45C1676.34 2769.45 1673.13 2770.11 1670.91 2772.72C1670.91 2772.72 1669.81 2775.26 1671.18 2777.37L1662.68 2790.63C1661.47 2790.62 1660.27 2791.18 1659.52 2792.24C1658.3 2793.96 1658.71 2796.35 1660.43 2797.57C1662.16 2798.79 1664.54 2798.39 1665.77 2796.66C1666.52 2795.6 1666.65 2794.29 1666.24 2793.15L1675.92 2780.72C1678.36 2781.33 1680.38 2779.44 1680.38 2779.44ZM1662.45 2796.58L1660.7 2795.35L1660.9 2793.22L1662.84 2792.32L1664.59 2793.56L1664.39 2795.69L1662.45 2796.58Z" fill="url(#paint6_linear_74_2282)"/>
<path d="M1677.08 2768.43L1676.35 2769.46L1677.31 2770.13L1678.03 2769.11L1677.08 2768.43Z" fill="white"/>
<path d="M1681.43 2771.53L1680.71 2772.55L1681.67 2773.23L1682.39 2772.21L1681.43 2771.53Z" fill="white"/>
<path d="M1661.44 2794.32L1660.71 2795.35L1662.46 2796.58L1663.18 2795.56L1661.44 2794.32Z" fill="white"/>
<path d="M1671.06 2779.24L1664.11 2789.99C1664.82 2791.38 1666.26 2791.52 1666.26 2791.52L1674.2 2781.46C1673.19 2779.54 1671.06 2779.24 1671.06 2779.24ZM1665.96 2791.16C1665.74 2791.09 1665.44 2790.96 1665.14 2790.75C1664.91 2790.58 1664.7 2790.39 1664.52 2790.16L1671.26 2779.52C1671.63 2779.64 1672.2 2779.88 1672.78 2780.29C1673.21 2780.59 1673.57 2780.95 1673.87 2781.35L1665.96 2791.16Z" fill="url(#paint7_linear_74_2282)"/>
<path d="M1665.96 2791.16L1666.26 2791.51C1666.26 2791.51 1664.89 2791.52 1664.11 2789.99L1664.53 2790.16C1664.52 2790.16 1665.02 2790.84 1665.96 2791.16Z" fill="white"/>
<path opacity="0.62" d="M1671.05 2779.24L1671.26 2779.51C1671.26 2779.51 1672.67 2779.87 1673.88 2781.34L1674.2 2781.46C1674.2 2781.46 1673.94 2780.74 1672.88 2779.99C1671.82 2779.24 1671.05 2779.24 1671.05 2779.24Z" fill="url(#paint8_linear_74_2282)"/>
<path opacity="0.62" d="M1671.18 2777.37C1671.18 2777.37 1673.02 2779.59 1675.91 2780.73L1674.68 2782.31C1674.68 2782.31 1674.99 2781.13 1673.37 2779.85C1671.47 2778.36 1669.97 2779.36 1669.97 2779.36L1671.18 2777.37Z" fill="url(#paint9_linear_74_2282)"/>
<path opacity="0.5" d="M1674.68 2782.32C1674.75 2781.65 1674.45 2781.1 1674.45 2781.1L1665.27 2792.91L1666.23 2793.15L1674.68 2782.32Z" fill="url(#paint10_linear_74_2282)"/>
<path d="M1674.68 2782.32C1674.68 2782.32 1672.78 2782.71 1672.87 2784.64L1674.68 2782.32Z" fill="white"/>
<path opacity="0.5" d="M1733.71 2911.31C1733.78 2910.72 1733.83 2910.13 1733.83 2909.5C1733.83 2908.87 1733.78 2908.28 1733.71 2907.69L1737.4 2904.63C1737.73 2904.36 1737.82 2903.86 1737.61 2903.45L1734.11 2897.05C1733.9 2896.64 1733.43 2896.49 1733.04 2896.64L1728.69 2898.49C1727.78 2897.75 1726.8 2897.14 1725.74 2896.68L1725.07 2891.78C1725.02 2891.33 1724.65 2891 1724.22 2891H1717.23C1716.79 2891 1716.42 2891.33 1716.37 2891.78L1715.71 2896.68C1714.64 2897.14 1713.66 2897.77 1712.75 2898.49L1708.4 2896.64C1708 2896.48 1707.55 2896.64 1707.34 2897.05L1703.84 2903.45C1703.61 2903.86 1703.72 2904.36 1704.05 2904.63L1707.74 2907.69C1707.67 2908.28 1707.61 2908.89 1707.61 2909.5C1707.61 2910.11 1707.67 2910.72 1707.74 2911.31L1704.05 2914.37C1703.72 2914.64 1703.63 2915.14 1703.84 2915.55L1707.34 2921.95C1707.55 2922.36 1708.02 2922.51 1708.4 2922.36L1712.75 2920.51C1713.66 2921.25 1714.64 2921.86 1715.71 2922.32L1716.37 2927.22C1716.42 2927.67 1716.79 2928 1717.23 2928H1724.22C1724.65 2928 1725.02 2927.67 1725.07 2927.22L1725.74 2922.32C1726.8 2921.86 1727.78 2921.23 1728.69 2920.51L1733.04 2922.36C1733.45 2922.52 1733.9 2922.36 1734.11 2921.95L1737.61 2915.55C1737.82 2915.14 1737.73 2914.64 1737.4 2914.37L1733.71 2911.31V2911.31ZM1720.72 2915.98C1717.35 2915.98 1714.61 2913.07 1714.61 2909.5C1714.61 2905.93 1717.35 2903.03 1720.72 2903.03C1724.1 2903.03 1726.84 2905.93 1726.84 2909.5C1726.84 2913.07 1724.1 2915.98 1720.72 2915.98Z" fill="url(#paint11_linear_74_2282)"/>
<path d="M1687.29 2936.94C1640.28 2917.02 1564.3 2917.02 1517.59 2936.94C1470.88 2956.85 1471.13 2989.14 1518.14 3009.06C1565.16 3028.98 1641.14 3028.98 1687.85 3009.06C1734.56 2989.14 1734.31 2956.85 1687.29 2936.94Z" fill="#F5F5F5"/>
<path opacity="0.73" d="M2065.01 1342.94L1915.2 1492.76C1903.14 1504.81 1883.69 1505.14 1871.24 1493.49L1769.36 1398.25C1756.29 1386.03 1755.94 1365.43 1768.58 1352.78L1924.76 1196.61C1937.38 1183.99 1957.93 1184.3 1970.15 1197.32L2065.7 1298.89C2077.42 1311.37 2077.12 1330.84 2065.01 1342.94Z" fill="url(#paint12_linear_74_2282)"/>
<path d="M2065.62 1343.55L1915.81 1493.36C1903.35 1505.82 1883.53 1506.15 1870.65 1494.12L1768.77 1398.88C1762.27 1392.8 1758.62 1384.58 1758.48 1375.68C1758.32 1366.81 1761.71 1358.43 1767.99 1352.14L1924.17 1195.97C1930.43 1189.7 1938.76 1186.31 1947.62 1186.45C1956.47 1186.6 1964.71 1190.22 1970.79 1196.67L2066.33 1298.25C2078.46 1311.17 2078.13 1331.04 2065.62 1343.55ZM1769.19 1353.43C1763.24 1359.39 1760.06 1367.28 1760.2 1375.71C1760.34 1384.14 1763.8 1391.93 1769.95 1397.65L1871.83 1492.89C1884.02 1504.29 1902.79 1503.98 1914.58 1492.18L2064.42 1342.34C2076.24 1330.53 2076.55 1311.71 2065.06 1299.52L1969.51 1197.94C1963.77 1191.82 1955.98 1188.41 1947.59 1188.27C1939.19 1188.15 1931.3 1191.33 1925.37 1197.26L1769.19 1353.43V1353.43Z" fill="#953DA2"/>
<path d="M1925.02 1233.98L1787.8 1371.2L1869.31 1452.71L2006.53 1315.49L1925.02 1233.98Z" fill="#D1D4FB"/>
<path d="M1784.89 162.191L1801.32 153.837L1804.13 159.689L1787.62 166.886L1784.89 162.191Z" fill="#FF1D9C"/>
<path d="M1775.03 191.889L1763.64 188.62L1764.85 184.926L1775.36 187.859L1775.03 191.889Z" fill="#4F31E0"/>
<path d="M1796.17 122.716L1771.04 161.159L1771.01 161.179L1739.2 209.866L1599.95 130.95L1648.18 37.0108C1648.18 37.0108 1650.27 33.3916 1654.63 34.5567L1712.47 67.5046L1795.03 114.51C1795.04 114.518 1799.05 117.73 1796.17 122.716Z" fill="url(#paint13_linear_74_2282)"/>
<path d="M1608.76 130.008L1734.92 202.849C1734.92 202.849 1775.09 149.528 1789.56 119.952C1789.56 119.952 1730.08 80.0726 1655.24 42.404C1655.23 42.3959 1630.67 80.8664 1608.76 130.008Z" fill="url(#paint14_linear_74_2282)"/>
<path d="M1581.02 131.191L1578.54 138.627C1578.54 138.627 1680.64 196.917 1742.76 234.601L1750.55 225.409L1581.02 131.191Z" fill="url(#paint15_linear_74_2282)"/>
<path d="M1599.94 130.942L1581.02 131.191L1750.55 225.43L1739.2 209.866L1599.94 130.942Z" fill="url(#paint16_linear_74_2282)"/>
<path d="M1605.87 134.316L1601.2 142.414L1728.05 212.928L1732.16 205.802L1605.87 134.316Z" fill="url(#paint17_linear_74_2282)"/>
<path d="M1796.17 122.717L1771.04 161.161L1771.01 161.181L1768.4 157.928C1781.96 137.797 1790.58 119.512 1790.58 119.512C1761.29 99.089 1712.35 71.812 1712.35 71.812L1712.47 67.5204L1795.02 114.525C1795.04 114.52 1799.04 117.732 1796.17 122.717Z" fill="url(#paint18_linear_74_2282)"/>
<path d="M1602.33 126.3L1621.99 88.0234L1624.4 95.1035C1624.4 95.1035 1613.25 116.042 1607.85 129.465L1602.34 126.286L1602.33 126.3Z" fill="url(#paint19_linear_74_2282)"/>
<path d="M1608.75 130.009L1607.43 130.149L1734.7 204.454L1734.92 202.85L1608.75 130.009Z" fill="url(#paint20_linear_74_2282)"/>
<path opacity="0.62" d="M1634.64 160.368L1641.06 159.529L1688.77 185.968L1691.75 192.215L1634.64 160.368Z" fill="url(#paint21_linear_74_2282)"/>
<path d="M1612.65 138.285C1612.65 138.285 1613.4 136.668 1614.82 135.989L1640.47 150.794C1640.47 150.794 1639.76 151.247 1638.49 153.204L1612.65 138.285Z" fill="url(#paint22_linear_74_2282)"/>
<path d="M1727.87 204.81C1727.87 204.81 1728.9 203.356 1728.78 201.782L1703.13 186.977C1703.13 186.977 1703.1 187.819 1702.03 189.89L1727.87 204.81Z" fill="url(#paint23_linear_74_2282)"/>
<path d="M1702.03 189.889L1701.78 188.671L1703.13 186.975C1703.13 186.975 1703.27 188.069 1702.03 189.889Z" fill="#140047"/>
<path d="M1638.48 153.195L1639.41 153.28L1640.47 150.78C1640.47 150.794 1639.87 150.809 1638.48 153.195Z" fill="#140047"/>
<path d="M1714.2 75.4688L1755.47 173.651L1787.2 121.653L1714.2 75.4688Z" fill="url(#paint24_linear_74_2282)"/>
<path d="M1624.36 97.3555L1673.97 167.663L1611.15 129.572L1624.36 97.3555Z" fill="url(#paint25_linear_74_2282)"/>
<path d="M1730.63 222.795C1731.4 223.235 1732.37 222.974 1732.81 222.212C1733.25 221.45 1732.99 220.475 1732.23 220.035C1731.47 219.595 1730.49 219.856 1730.05 220.618C1729.61 221.381 1729.87 222.355 1730.63 222.795Z" fill="#FF0C82"/>
<path d="M1727.16 218.949C1726.55 220.019 1725.17 220.388 1724.1 219.77C1723.03 219.153 1722.66 217.775 1723.28 216.705C1723.89 215.635 1725.27 215.266 1726.34 215.884C1727.41 216.502 1727.78 217.879 1727.16 218.949Z" fill="#6EFFE8"/>
<path d="M1663.57 28.2101L1678 26.9271L1680.93 31.8897L1663.42 35.8073L1663.57 28.2101Z" fill="#6877FF"/>
<path d="M1584.7 152.583L1601.51 162.065L1600.11 167.656L1584.91 158.096L1584.7 152.583Z" fill="#4F31E0"/>
<path d="M1709.96 182.696C1709.96 182.696 1711.36 176.216 1717.28 170.022L1738.98 182.551C1738.98 182.551 1739.3 189.928 1731.98 197.736L1730.58 194.147C1730.58 194.147 1719.63 189.665 1709.96 182.696Z" fill="url(#paint26_linear_74_2282)"/>
<path d="M1731.09 183.329L1718.09 175.824L1717.36 177.092L1730.36 184.596L1731.09 183.329Z" fill="white"/>
<path d="M1724.41 182.926L1716.6 178.414L1716 179.442L1723.82 183.954L1724.41 182.926Z" fill="white"/>
<path d="M1754.67 145.346L1752.84 148.515L1740.1 153.287L1735.78 162.265L1733.95 165.433L1725.47 154.791L1712.02 152.694L1713.85 149.525L1719.52 141.327L1717.36 127.895L1719.19 124.727L1754.67 145.346Z" fill="#981382"/>
<path d="M1743.2 138.909L1752.84 148.514L1740.1 153.286L1733.95 165.433L1725.47 154.79L1712.02 152.693L1719.52 141.327L1717.36 127.895L1730.48 131.509L1742.6 125.308L1743.2 138.909Z" fill="#981382"/>
<path d="M1745.03 135.741L1754.67 145.346L1741.93 150.118L1735.78 162.265L1727.3 151.622L1713.84 149.525L1721.34 138.159L1719.19 124.727L1732.31 128.341L1744.43 122.14L1745.03 135.741Z" fill="url(#paint27_linear_74_2282)"/>
<path d="M1724.97 127.787L1743.36 148.321L1753.36 144.761L1744.44 136.284L1743.66 123.387L1732.75 129.653L1724.97 127.787Z" fill="white"/>
<path d="M1719.11 143.721L1715.73 148.531L1722.03 149.404L1719.11 143.721Z" fill="white"/>
<path opacity="0.62" d="M1725.47 154.794L1727.3 151.625L1735.78 162.268L1733.95 165.436L1725.47 154.794Z" fill="url(#paint28_linear_74_2282)"/>
<path d="M1715.28 134.034L1714.43 135.513L1708.46 137.755L1706.42 141.968L1705.56 143.446L1701.59 138.465L1695.29 137.475L1696.15 135.982L1698.81 132.149L1697.79 125.852L1698.65 124.359L1715.28 134.034Z" fill="url(#paint29_linear_74_2282)"/>
<path d="M1709.9 131.022L1714.43 135.512L1708.46 137.754L1705.57 143.445L1701.59 138.464L1695.29 137.474L1698.81 132.149L1697.79 125.851L1703.95 127.547L1709.62 124.646L1709.9 131.022Z" fill="url(#paint30_linear_74_2282)"/>
<path d="M1710.76 129.53L1715.28 134.034L1709.31 136.276L1706.42 141.967L1702.45 136.972L1696.15 135.982L1699.67 130.671L1698.65 124.359L1704.8 126.069L1710.48 123.153L1710.76 129.53Z" fill="url(#paint31_linear_74_2282)"/>
<path opacity="0.62" d="M1701.59 138.461L1702.45 136.969L1706.42 141.964L1705.56 143.443L1701.59 138.461Z" fill="url(#paint32_linear_74_2282)"/>
<path d="M1697.07 123.522L1696.21 125.001L1690.24 127.243L1688.21 131.456L1687.35 132.934L1683.38 127.953L1677.08 126.963L1677.94 125.47L1680.6 121.638L1679.58 115.34L1680.44 113.848L1697.07 123.522Z" fill="url(#paint33_linear_74_2282)"/>
<path d="M1691.69 120.511L1696.22 125L1690.25 127.243L1687.36 132.934L1683.38 127.952L1677.08 126.962L1680.6 121.637L1679.58 115.34L1685.74 117.035L1691.41 114.134L1691.69 120.511Z" fill="url(#paint34_linear_74_2282)"/>
<path d="M1692.55 119.018L1697.07 123.522L1691.1 125.765L1688.21 131.456L1684.24 126.46L1677.94 125.47L1681.45 120.159L1680.44 113.848L1686.59 115.557L1692.27 112.642L1692.55 119.018Z" fill="url(#paint35_linear_74_2282)"/>
<path opacity="0.62" d="M1683.38 127.95L1684.24 126.457L1688.21 131.452L1687.35 132.931L1683.38 127.95Z" fill="url(#paint36_linear_74_2282)"/>
<path d="M1678.86 113.011L1678.01 114.489L1672.04 116.732L1670 120.944L1669.15 122.423L1665.17 117.441L1658.87 116.451L1659.73 114.958L1662.39 111.126L1661.37 104.829L1662.23 103.336L1678.86 113.011Z" fill="url(#paint37_linear_74_2282)"/>
<path d="M1673.49 109.999L1678.01 114.489L1672.04 116.731L1669.15 122.422L1665.17 117.441L1658.87 116.451L1662.4 111.125L1661.38 104.828L1667.53 106.523L1673.21 103.622L1673.49 109.999Z" fill="url(#paint38_linear_74_2282)"/>
<path d="M1674.35 108.507L1678.86 113.01L1672.89 115.253L1670 120.944L1666.03 115.948L1659.73 114.958L1663.25 109.647L1662.24 103.336L1668.38 105.045L1674.07 102.13L1674.35 108.507Z" fill="url(#paint39_linear_74_2282)"/>
<path opacity="0.62" d="M1665.17 117.438L1666.03 115.945L1670 120.941L1669.15 122.419L1665.17 117.438Z" fill="url(#paint40_linear_74_2282)"/>
<path d="M1660.65 102.499L1659.8 103.977L1653.83 106.22L1651.79 110.432L1650.94 111.911L1646.96 106.93L1640.66 105.939L1641.52 104.447L1644.19 100.614L1643.17 94.3169L1644.03 92.8242L1660.65 102.499Z" fill="url(#paint41_linear_74_2282)"/>
<path d="M1655.28 99.4872L1659.8 103.977L1653.83 106.219L1650.94 111.91L1646.96 106.929L1640.66 105.939L1644.19 100.614L1643.17 94.3163L1649.32 96.0117L1655 93.1104L1655.28 99.4872Z" fill="url(#paint42_linear_74_2282)"/>
<path d="M1656.14 97.995L1660.65 102.499L1654.68 104.741L1651.79 110.432L1647.82 105.437L1641.52 104.447L1645.04 99.1356L1644.03 92.8241L1650.18 94.5336L1655.86 91.6182L1656.14 97.995Z" fill="url(#paint43_linear_74_2282)"/>
<path opacity="0.62" d="M1646.96 106.926L1647.82 105.434L1651.79 110.429L1650.94 111.908L1646.96 106.926Z" fill="url(#paint44_linear_74_2282)"/>
<path d="M1729.44 116.279L1726.3 107.538L1730.21 105.645L1732.28 115.124L1729.44 116.279Z" fill="#6877FF"/>
<path d="M1748.31 124.79L1756.82 121.009L1760.05 124.656L1751.16 127.729L1748.31 124.79Z" fill="#4F31E0"/>
<path d="M1746.08 157.363L1752.76 157.406L1754.12 160.103L1746.07 160.567L1746.08 157.363Z" fill="#9A7DF8"/>
<path d="M1715.25 120.747L1714.1 116.794L1720.46 117.636L1719.82 120.773L1715.25 120.747Z" fill="#FF1D9C"/>
<path opacity="0.81" d="M133.576 816.103L17.9116 931.767C12.7673 936.912 4.44272 937.005 -0.813887 931.973L-97.8273 839.262C-103.252 834.062 -103.364 825.419 -98.0517 820.106L22.3639 699.691C27.6953 694.359 36.3752 694.472 41.557 699.953L133.819 797.415C138.832 802.69 138.701 810.977 133.576 816.103Z" fill="url(#paint45_linear_74_2282)"/>
<path d="M133.865 816.415L18.2011 932.079C12.9258 937.354 4.26453 937.448 -1.10432 932.303L-98.1177 839.593C-100.83 836.992 -102.345 833.494 -102.383 829.753C-102.42 826.011 -100.98 822.476 -98.3235 819.82L22.0921 699.404C24.7485 696.748 28.284 695.307 32.0441 695.363C35.8042 695.419 39.3023 696.935 41.9026 699.685L134.164 797.147C139.309 802.628 139.197 811.083 133.865 816.415ZM-97.7623 820.418C-100.25 822.906 -101.616 826.217 -101.56 829.753C-101.522 833.27 -100.101 836.562 -97.5565 838.994L-0.543129 931.705C4.5077 936.531 12.6452 936.438 17.5838 931.499L133.248 815.835C138.261 810.822 138.355 802.871 133.491 797.746L41.2291 700.283C38.8159 697.72 35.5049 696.28 31.988 696.243C28.4524 696.186 25.1413 697.552 22.6533 700.04L-97.7436 820.437L-97.7623 820.418Z" fill="#473DA2"/>
<path d="M36.7368 733.908L-24.0977 794.742L-21.4974 797.342L39.337 736.508L36.7368 733.908Z" fill="white"/>
<path d="M0.0187982 758.059L-30.3984 788.477L-27.7982 791.077L2.61907 760.66L0.0187982 758.059Z" fill="white"/>
<path d="M0.0187982 765.552L-30.3984 795.969L-27.7982 798.569L2.61901 768.152L0.0187982 765.552Z" fill="white"/>
<path d="M40.3285 768.664L16.1406 792.852L18.7408 795.452L42.9287 771.264L40.3285 768.664Z" fill="white"/>
<path d="M22.4836 763.727L-26.5469 812.758L-23.9466 815.358L25.0839 766.328L22.4836 763.727Z" fill="white"/>
<path d="M29.4787 803.053L-0.695312 833.227L1.9049 835.827L32.079 805.653L29.4787 803.053Z" fill="white"/>
<path d="M29.3236 775.848L-25.375 830.547L-22.7748 833.147L31.9239 778.448L29.3236 775.848Z" fill="white"/>
<path d="M14.0872 789.639L-27.9844 831.711L-25.3841 834.311L16.6875 792.24L14.0872 789.639Z" fill="white"/>
<path d="M0.0187982 810.415L-30.3984 840.832L-27.7982 843.432L2.61907 813.015L0.0187982 810.415Z" fill="white"/>
<path d="M18.9409 817.286L-12.7109 848.938L-10.1107 851.538L21.5412 819.886L18.9409 817.286Z" fill="white"/>
<path d="M29.4866 825.279L-0.6875 855.453L1.91271 858.053L32.0868 827.879L29.4866 825.279Z" fill="white"/>
<path d="M18.9409 839.481L-12.7109 871.133L-10.1107 873.733L21.5412 842.081L18.9409 839.481Z" fill="white"/>
<path d="M1506.06 2310.01L1472.73 2367.74L1541.43 2408.18L1577.11 2348.56L1506.06 2310.01Z" fill="url(#paint46_linear_74_2282)"/>
<path d="M1577.11 2348.56L1577.22 2358.75L1544.64 2409.99L1541.43 2408.18L1577.11 2348.56Z" fill="url(#paint47_linear_74_2282)"/>
<path d="M1507.12 2336.62L1518.85 2331.05L1536.63 2379.9L1527.25 2383.87L1507.12 2336.62Z" fill="white"/>
<path d="M1548.88 2360.73L1547.84 2347.78L1496.64 2356.81L1497.86 2366.9L1548.88 2360.73Z" fill="white"/>
<path fill-rule="evenodd" clip-rule="evenodd" d="M1413.7 1303.59L1409.02 1316.98C1411.6 1309.58 1415.32 1304.77 1413.7 1303.59ZM1409.02 1316.98L1404.33 1330.37C1405.51 1330.01 1406.43 1324.37 1409.02 1316.98ZM1413.7 1303.59L1409.02 1316.98C1411.6 1309.58 1415.32 1304.77 1413.7 1303.59ZM1409.02 1316.98L1404.33 1330.37C1405.51 1330.01 1406.43 1324.37 1409.02 1316.98ZM1422.53 1328.58L1427.08 1331.16L1431.99 1317.76L1426.73 1316.88C1426.82 1316.38 1426.92 1315.89 1426.98 1315.39C1427.36 1313.09 1427.49 1310.85 1427.42 1308.71L1432.92 1305.26L1430.41 1293.46L1425.14 1298.5C1424.41 1296.99 1423.5 1295.67 1422.44 1294.57C1422.15 1294.25 1421.84 1293.95 1421.53 1293.68L1424.75 1286.24L1416.17 1283.45L1414.11 1290.95C1412.19 1290.96 1410.24 1291.44 1408.3 1292.31L1407.35 1285.22L1397.91 1292.37L1400.09 1298.65C1398.39 1300.59 1396.83 1302.84 1395.48 1305.36L1390.93 1302.79L1386.02 1316.19L1391.28 1317.07C1390.72 1319.9 1390.5 1322.64 1390.58 1325.23L1385.08 1328.68L1387.59 1340.48L1392.86 1335.44C1393.8 1337.37 1395.01 1339 1396.47 1340.25L1393.24 1347.7L1401.68 1350.99L1402.99 1346.24L1403.88 1342.99C1405.8 1342.98 1407.76 1342.51 1409.7 1341.64L1410.63 1348.73L1420.07 1341.58L1417.89 1335.3C1419.23 1333.77 1420.48 1332.06 1421.61 1330.16C1421.95 1329.64 1422.24 1329.12 1422.53 1328.58ZM1409.02 1316.98C1406.43 1324.38 1409.02 1332.01 1404.33 1330.37C1399.63 1328.72 1397.91 1321.39 1400.51 1314.01C1403.11 1306.61 1409.01 1301.96 1413.7 1303.6C1418.4 1305.23 1411.6 1309.58 1409.02 1316.98ZM1413.7 1303.59L1409.02 1316.98C1411.6 1309.58 1415.32 1304.77 1413.7 1303.59ZM1409.02 1316.98L1404.33 1330.37C1405.51 1330.01 1406.43 1324.37 1409.02 1316.98Z" fill="url(#paint48_linear_74_2282)"/>
<path fill-rule="evenodd" clip-rule="evenodd" d="M1427.08 1331.16L1431.99 1317.76L1426.98 1315.39L1426.17 1315.01L1426.7 1307.63L1432.26 1304.92L1430.43 1293.46L1418.33 1289.52L1420.56 1294.84L1424.78 1286.24L1416.2 1283.45L1412.68 1282.3L1404.22 1279L1402.64 1284.77L1395.28 1281.27L1385.84 1288.42L1388.71 1296.15L1379.88 1320.63L1375.52 1336.53L1383.91 1337.45L1381.18 1343.75L1389.64 1347.05L1401.74 1350.99L1399.8 1347.1L1398.58 1344.77L1403.05 1346.23L1410.69 1348.72L1420.13 1341.57L1414.29 1334.69L1421.67 1330.15L1427.08 1331.16ZM1400.51 1314C1403.11 1306.6 1409.01 1301.95 1413.7 1303.59L1409.02 1316.98L1404.33 1330.37C1399.63 1328.71 1397.91 1321.39 1400.51 1314Z" fill="url(#paint49_linear_74_2282)"/>
<path fill-rule="evenodd" clip-rule="evenodd" d="M1414.98 1327.21L1419.88 1313.81L1414.62 1312.93C1415.17 1310.11 1415.4 1307.37 1415.32 1304.78L1420.82 1301.33L1418.31 1289.53L1413.04 1294.57C1412.1 1292.64 1410.89 1291.01 1409.43 1289.76L1412.66 1282.31L1404.21 1279.02L1402.02 1287.02C1400.1 1287.03 1398.14 1287.5 1396.21 1288.38L1395.27 1281.3L1385.83 1288.44L1388 1294.72C1386.3 1296.66 1384.75 1298.92 1383.39 1301.44L1378.84 1298.87L1373.94 1312.27L1379.2 1313.15C1378.65 1315.97 1378.42 1318.71 1378.5 1321.3L1373 1324.75L1375.51 1336.55L1380.78 1331.51C1381.72 1333.44 1382.93 1335.07 1384.39 1336.32L1381.16 1343.77L1389.61 1347.06L1391.8 1339.06C1393.72 1339.05 1395.68 1338.58 1397.61 1337.7L1398.55 1344.78L1407.99 1337.64L1405.82 1331.36C1407.52 1329.42 1409.07 1327.16 1410.43 1324.64L1414.98 1327.21ZM1392.22 1326.42C1387.52 1324.77 1385.81 1317.45 1388.4 1310.05C1390.99 1302.66 1396.9 1298 1401.6 1299.64C1406.3 1301.29 1408.01 1308.61 1405.42 1316.01C1402.83 1323.4 1396.92 1328.06 1392.22 1326.42Z" fill="url(#paint50_linear_74_2282)"/>
<path opacity="0.5" fill-rule="evenodd" clip-rule="evenodd" d="M1432.92 1305.26L1420.82 1301.33L1415.32 1304.78L1427.42 1308.72L1432.92 1305.26Z" fill="#601734"/>
<path fill-rule="evenodd" clip-rule="evenodd" d="M1420.1 1341.58L1407.99 1337.64L1405.82 1331.35L1417.92 1335.3L1420.1 1341.58Z" fill="#B3D9FF"/>
<path opacity="0.5" fill-rule="evenodd" clip-rule="evenodd" d="M1409.43 1289.75L1416.07 1291.67L1418.31 1289.52L1422.72 1290.96L1424.76 1286.25L1412.66 1282.3L1409.43 1289.75Z" fill="#601734"/>
<path opacity="0.5" fill-rule="evenodd" clip-rule="evenodd" d="M1391.8 1339.05L1398.14 1341.69L1397.61 1337.7C1397.61 1337.7 1394.2 1339.5 1391.8 1339.05Z" fill="#601734"/>
<path opacity="0.5" fill-rule="evenodd" clip-rule="evenodd" d="M1392.78 1302.77L1403.45 1308.41C1403.45 1308.41 1405 1306.34 1406.19 1305.5C1406.2 1305.5 1403.41 1293.73 1392.78 1302.77Z" fill="#601734"/>
<path d="M1888.18 3086.79C1899 3068.17 1896.22 3047.74 1896.22 3047.74L1890.19 3043.49L1873.92 3070.05C1863.81 3073.49 1855.27 3070.08 1855.27 3070.08L1855.3 3070.05C1855.3 3070.05 1849.24 3063.11 1849.14 3052.43L1868.8 3028.25L1862.77 3024C1862.77 3024 1842.57 3028.15 1828.61 3044.56C1828.61 3044.56 1824.32 3050.29 1824.06 3050.99C1822.68 3054.81 1822.98 3062.58 1830.32 3073.76L1776.8 3157.18C1769.2 3157.11 1761.7 3160.63 1756.98 3167.29C1749.31 3178.14 1751.86 3193.15 1762.71 3200.85C1773.56 3208.52 1788.56 3205.97 1796.26 3195.12C1800.98 3188.46 1801.82 3180.22 1799.21 3173.05L1860.09 3094.89C1872.78 3098.01 1880.21 3095.97 1883.63 3093.22C1884.33 3092.65 1888.18 3086.79 1888.18 3086.79ZM1775.36 3194.59L1764.38 3186.82L1765.62 3173.42L1777.84 3167.8L1788.83 3175.57L1787.59 3188.96L1775.36 3194.59Z" fill="url(#paint51_linear_74_2282)"/>
<path d="M1883.63 3093.22C1894.45 3074.6 1891.67 3054.17 1891.67 3054.17L1885.64 3049.92L1869.36 3076.48C1859.25 3079.92 1850.71 3076.51 1850.71 3076.51L1850.75 3076.48C1850.75 3076.48 1844.68 3069.54 1844.58 3058.86L1864.24 3034.68L1858.21 3030.43C1858.21 3030.43 1838.02 3034.58 1824.06 3050.99C1824.06 3050.99 1817.09 3066.93 1825.76 3080.19L1772.25 3163.61C1764.65 3163.54 1757.15 3167.06 1752.43 3173.72C1744.76 3184.57 1747.3 3199.58 1758.15 3207.28C1769 3214.95 1784 3212.4 1791.71 3201.55C1796.43 3194.89 1797.27 3186.65 1794.65 3179.48L1855.53 3101.32C1870.9 3105.11 1883.63 3093.22 1883.63 3093.22ZM1770.81 3201.05L1759.83 3193.28L1761.06 3179.89L1773.29 3174.26L1784.27 3182.03L1783.03 3195.42L1770.81 3201.05Z" fill="url(#paint52_linear_74_2282)"/>
<path d="M1862.83 3024.01L1858.27 3030.46L1864.28 3034.71L1868.85 3028.26L1862.83 3024.01Z" fill="white"/>
<path d="M1890.24 3043.51L1885.69 3049.94L1891.7 3054.19L1896.25 3047.77L1890.24 3043.51Z" fill="white"/>
<path d="M1764.45 3186.84L1759.88 3193.29L1770.87 3201.07L1775.44 3194.62L1764.45 3186.84Z" fill="white"/>
<path d="M1824.96 3091.98L1781.29 3159.63C1785.75 3168.33 1794.82 3169.2 1794.82 3169.2L1844.72 3105.98C1838.39 3093.89 1824.96 3091.98 1824.96 3091.98ZM1792.88 3166.99C1791.54 3166.52 1789.63 3165.69 1787.76 3164.38C1786.28 3163.34 1784.98 3162.1 1783.87 3160.7L1826.23 3093.72C1828.54 3094.53 1832.16 3096.03 1835.78 3098.58C1838.49 3100.49 1840.8 3102.73 1842.68 3105.24L1792.88 3166.99Z" fill="url(#paint53_linear_74_2282)"/>
<path d="M1792.88 3166.99L1794.82 3169.2C1794.82 3169.2 1786.15 3169.24 1781.29 3159.62L1783.9 3160.66C1783.87 3160.66 1787.02 3164.95 1792.88 3166.99Z" fill="white"/>
<path opacity="0.62" d="M1824.96 3091.98L1826.27 3093.69C1826.27 3093.69 1835.14 3095.93 1842.71 3105.21L1844.72 3105.94C1844.72 3105.94 1843.11 3101.42 1836.45 3096.7C1829.75 3092.01 1824.96 3091.98 1824.96 3091.98Z" fill="url(#paint54_linear_74_2282)"/>
<path opacity="0.62" d="M1825.74 3080.2C1825.74 3080.2 1837.36 3094.16 1855.51 3101.33L1847.74 3111.31C1847.74 3111.31 1849.75 3103.87 1839.54 3095.83C1827.58 3086.46 1818.14 3092.72 1818.14 3092.72L1825.74 3080.2Z" fill="url(#paint55_linear_74_2282)"/>
<path opacity="0.5" d="M1847.74 3111.34C1848.17 3107.15 1846.3 3103.7 1846.3 3103.7L1788.6 3177.95L1794.63 3179.49L1847.74 3111.34Z" fill="url(#paint56_linear_74_2282)"/>
<path d="M1847.73 3111.34C1847.73 3111.34 1835.78 3113.81 1836.35 3125.94L1847.73 3111.34Z" fill="white"/>
<path opacity="0.73" d="M127.627 2986.46L40.9622 3073.13C33.9775 3080.11 22.7652 3080.29 15.5355 3073.56L-43.4054 3018.47C-50.9722 3011.4 -51.156 2999.51 -43.8343 2992.19L46.507 2901.85C53.798 2894.56 65.6843 2894.74 72.7608 2902.25L128.026 2961C134.796 2968.2 134.612 2979.48 127.627 2986.46Z" fill="url(#paint57_linear_74_2282)"/>
<path d="M128.082 2986.92L41.4166 3073.59C34.1562 3080.85 22.6376 3081.03 15.1321 3074.01L-43.8088 3018.93C-47.5769 3015.41 -49.7213 3010.63 -49.7825 3005.42C-49.8745 3000.25 -47.8832 2995.38 -44.2377 2991.73L46.1037 2901.39C49.7492 2897.74 54.5894 2895.78 59.7667 2895.87C64.9439 2895.97 69.7229 2898.05 73.2459 2901.82L128.511 2960.57C135.526 2968.08 135.342 2979.66 128.082 2986.92ZM-43.3799 2992.65C-46.7804 2996.05 -48.6491 3000.61 -48.5571 3005.42C-48.4959 3010.26 -46.474 3014.74 -42.951 3018.01L15.9899 3073.1C22.9746 3079.65 33.7579 3079.47 40.5282 3072.7L127.193 2986.03C133.994 2979.23 134.147 2968.42 127.592 2961.43L72.3268 2902.68C69.0183 2899.18 64.5763 2897.19 59.736 2897.13C54.9264 2897.04 50.3925 2898.88 46.9614 2902.31L-43.3799 2992.65V2992.65Z" fill="#953DA2"/>
<path d="M1.68432 2987.66L5.08476 3033.76L45.308 3030.48L35.7806 3020.96L12.2839 3022.64L10.7828 2997.73L1.68432 2987.66Z" fill="white"/>
<path d="M40.3465 2951.2L86.4822 2954.57L83.1736 2994.83L73.6463 2985.3L75.3312 2961.8L46.504 2960.98L40.3465 2951.2Z" fill="white"/>
<path d="M49.5666 3026.23L27.1727 2966.58L35.9035 2957.85L55.8467 3019.95L49.5666 3026.23Z" fill="white"/>
<path d="M1257.47 38L1261.99 52.28L1257.26 53.59L1253 40.46L1257.47 38Z" fill="#FF1D9C"/>
<path d="M1853.43 319.14L1848.21 333.18L1843.68 331.303L1848.39 318.33L1853.43 319.14Z" fill="#FF1D9C"/>
<path d="M112.666 1291.82L97.7095 1291.02L98.1514 1286.13L111.94 1286.77L112.666 1291.82Z" fill="#FF1D9C"/>
<path d="M1804.38 1958.82L1819.33 1958.02L1818.89 1953.13L1805.1 1953.77L1804.38 1958.82Z" fill="#FF1D9C"/>
<path d="M1807.38 975.824L1822.33 975.018L1821.89 970.13L1808.1 970.773L1807.38 975.824Z" fill="#FF1D9C"/>
<path d="M47.3768 2251.82L62.3335 2251.02L61.8916 2246.13L48.1028 2246.77L47.3768 2251.82Z" fill="#FF1D9C"/>
<path d="M1439.29 2352.44L1442.54 2367.07L1447.29 2365.83L1444.39 2352.33L1439.29 2352.44Z" fill="#FF1D9C"/>
<path d="M950.041 184.531C949.031 186.931 946.271 188.051 943.881 187.041C941.481 186.031 940.361 183.271 941.371 180.881C942.381 178.481 945.141 177.361 947.531 178.371C949.921 179.371 951.051 182.131 950.041 184.531Z" fill="url(#paint58_linear_74_2282)"/>
<path d="M1520.9 245.598C1518.63 246.869 1515.76 246.054 1514.5 243.788C1513.23 241.516 1514.04 238.65 1516.31 237.387C1518.58 236.116 1521.45 236.93 1522.71 239.197C1523.98 241.455 1523.17 244.326 1520.9 245.598Z" fill="url(#paint59_linear_74_2282)"/>
<path d="M83.9423 952.478C82.0526 950.687 81.9777 947.709 83.7655 945.829C85.5568 943.939 88.5345 943.864 90.4149 945.652C92.3046 947.443 92.3796 950.421 90.5917 952.301C88.8133 954.185 85.8321 954.27 83.9423 952.478Z" fill="url(#paint60_linear_74_2282)"/>
<path d="M1833.1 1619.48C1834.99 1617.69 1835.07 1614.71 1833.28 1612.83C1831.49 1610.94 1828.51 1610.86 1826.63 1612.65C1824.74 1614.44 1824.66 1617.42 1826.45 1619.3C1828.23 1621.19 1831.21 1621.27 1833.1 1619.48Z" fill="url(#paint61_linear_74_2282)"/>
<path d="M1836.1 636.478C1837.99 634.687 1838.07 631.709 1836.28 629.829C1834.49 627.939 1831.51 627.864 1829.63 629.652C1827.74 631.443 1827.66 634.421 1829.45 636.301C1831.23 638.185 1834.21 638.27 1836.1 636.478Z" fill="url(#paint62_linear_74_2282)"/>
<path d="M76.1006 1912.48C77.9904 1910.69 78.0653 1907.71 76.2775 1905.83C74.4861 1903.94 71.5085 1903.86 69.6281 1905.65C67.7383 1907.44 67.6634 1910.42 69.4512 1912.3C71.2297 1914.19 74.2109 1914.27 76.1006 1912.48Z" fill="url(#paint63_linear_74_2282)"/>
<path d="M1778.75 2325.04C1780.83 2326.61 1783.78 2326.19 1785.34 2324.12C1786.91 2322.04 1786.49 2319.09 1784.42 2317.53C1782.34 2315.96 1779.39 2316.38 1777.83 2318.45C1776.27 2320.51 1776.67 2323.47 1778.75 2325.04Z" fill="url(#paint64_linear_74_2282)"/>
<path d="M1366 106.758L1381.35 100.912L1382.58 106.547L1369.96 109.809L1366 106.758Z" fill="#9A7DF8"/>
<path d="M1896.72 440.104L1912.41 444.932L1909.92 450.135L1897.96 444.943L1896.72 440.104Z" fill="#9A7DF8"/>
<path d="M10.0585 1369.15L10.1186 1385.57L4.41033 1384.73L5.80803 1371.77L10.0585 1369.15Z" fill="#9A7DF8"/>
<path d="M1906.98 2036.15L1906.92 2052.57L1912.63 2051.73L1911.23 2038.77L1906.98 2036.15Z" fill="#9A7DF8"/>
<path d="M1909.98 1053.15L1909.92 1069.57L1915.63 1068.73L1914.23 1055.77L1909.98 1053.15Z" fill="#9A7DF8"/>
<path d="M149.985 2329.15L149.924 2345.57L155.633 2344.73L154.235 2331.77L149.985 2329.15Z" fill="#9A7DF8"/>
<path d="M1379.88 2466.36L1363.67 2469L1365.43 2474.49L1377.99 2470.99L1379.88 2466.36Z" fill="#9A7DF8"/>
<path d="M1009.88 83.4901L1026.28 87.3859L1024.27 92.6578L1008.85 86.5699L1009.88 83.4901Z" fill="#6877FF"/>
<path d="M1630.22 202.725L1640.76 215.886L1635.94 218.809L1627.52 204.521L1630.22 202.725Z" fill="#6877FF"/>
<path d="M157.398 1044.09L147.969 1058.07L143.743 1054.33L154.879 1042.04L157.398 1044.09Z" fill="#6877FF"/>
<path d="M1759.64 1711.09L1769.07 1725.07L1773.3 1721.33L1762.16 1709.04L1759.64 1711.09Z" fill="#6877FF"/>
<path d="M1762.64 728.09L1772.07 742.067L1776.3 738.331L1765.16 726.042L1762.64 728.09Z" fill="#6877FF"/>
<path d="M2.64462 2004.09L12.0742 2018.07L16.3001 2014.33L5.16397 2002.04L2.64462 2004.09Z" fill="#6877FF"/>
<path d="M1676.31 2267.63L1664.08 2279.22L1668.46 2282.78L1678.75 2269.77L1676.31 2267.63Z" fill="#6877FF"/>
<path d="M1273.14 129.708C1272.57 131.068 1271 131.708 1269.64 131.138C1268.28 130.568 1267.64 128.998 1268.21 127.638C1268.78 126.278 1270.35 125.638 1271.71 126.208C1273.07 126.778 1273.71 128.348 1273.14 129.708Z" fill="url(#paint65_linear_74_2282)"/>
<path d="M1809.38 401.084C1808.09 401.806 1806.46 401.345 1805.74 400.059C1805.02 398.773 1805.48 397.142 1806.77 396.42C1808.05 395.698 1809.68 396.159 1810.41 397.445C1811.13 398.731 1810.67 400.362 1809.38 401.084Z" fill="url(#paint66_linear_74_2282)"/>
<path d="M21.3275 1274.15C20.2559 1273.14 20.2105 1271.45 21.2234 1270.37C22.2363 1269.3 23.9312 1269.26 25.0029 1270.27C26.0745 1271.28 26.1199 1272.98 25.107 1274.05C24.094 1275.12 22.3992 1275.17 21.3275 1274.15Z" fill="url(#paint67_linear_74_2282)"/>
<path d="M1895.72 1941.15C1896.79 1940.14 1896.84 1938.45 1895.82 1937.37C1894.81 1936.3 1893.12 1936.26 1892.04 1937.27C1890.97 1938.28 1890.93 1939.98 1891.94 1941.05C1892.95 1942.12 1894.65 1942.17 1895.72 1941.15Z" fill="url(#paint68_linear_74_2282)"/>
<path d="M1898.72 958.153C1899.79 957.14 1899.84 955.445 1898.82 954.374C1897.81 953.302 1896.12 953.257 1895.04 954.27C1893.97 955.283 1893.93 956.977 1894.94 958.049C1895.95 959.121 1897.65 959.166 1898.72 958.153Z" fill="url(#paint69_linear_74_2282)"/>
<path d="M138.719 2234.15C139.791 2233.14 139.836 2231.45 138.823 2230.37C137.811 2229.3 136.116 2229.26 135.044 2230.27C133.972 2231.28 133.927 2232.98 134.94 2234.05C135.953 2235.12 137.648 2235.17 138.719 2234.15Z" fill="url(#paint70_linear_74_2282)"/>
<path d="M1471.73 2439.64C1472.9 2440.54 1474.58 2440.3 1475.47 2439.13C1476.36 2437.95 1476.13 2436.27 1474.95 2435.38C1473.78 2434.49 1472.1 2434.72 1471.21 2435.9C1470.32 2437.07 1470.55 2438.75 1471.73 2439.64Z" fill="url(#paint71_linear_74_2282)"/>
<defs>
<linearGradient id="paint0_linear_74_2282" x1="1488.69" y1="2928.86" x2="1493.22" y2="2892.76" gradientUnits="userSpaceOnUse">
<stop stop-color="#067EFF"/>
<stop offset="1" stop-color="#3E37A0"/>
</linearGradient>
<linearGradient id="paint1_linear_74_2282" x1="1492.17" y1="2642.88" x2="1492.17" y2="2628.47" gradientUnits="userSpaceOnUse">
<stop stop-color="#D906E3"/>
<stop offset="1" stop-color="#FF6DF9"/>
</linearGradient>
<linearGradient id="paint2_linear_74_2282" x1="1723.21" y1="2864.44" x2="1728.58" y2="2828.13" gradientUnits="userSpaceOnUse">
<stop stop-color="#1852A0"/>
<stop offset="1" stop-color="#067ED3"/>
</linearGradient>
<linearGradient id="paint3_linear_74_2282" x1="1719.19" y1="2863.51" x2="1728.9" y2="2827.43" gradientUnits="userSpaceOnUse">
<stop stop-color="#1852A0"/>
<stop offset="1" stop-color="#067ED3"/>
</linearGradient>
<linearGradient id="paint4_linear_74_2282" x1="1714.63" y1="2862.02" x2="1720.37" y2="2825.47" gradientUnits="userSpaceOnUse">
<stop stop-color="#188DC1"/>
<stop offset="1" stop-color="#06BFE7"/>
</linearGradient>
<linearGradient id="paint5_linear_74_2282" x1="1665.04" y1="2798.27" x2="1677.45" y2="2768.59" gradientUnits="userSpaceOnUse">
<stop stop-color="#DBCCFF"/>
<stop offset="1" stop-color="#D1BBFF"/>
</linearGradient>
<linearGradient id="paint6_linear_74_2282" x1="1664.32" y1="2799.3" x2="1676.72" y2="2769.61" gradientUnits="userSpaceOnUse">
<stop stop-color="#B5A6E7"/>
<stop offset="1" stop-color="#7760BF"/>
</linearGradient>
<linearGradient id="paint7_linear_74_2282" x1="1666.63" y1="2791.77" x2="1671.78" y2="2779.43" gradientUnits="userSpaceOnUse">
<stop stop-color="#B5A6E7"/>
<stop offset="1" stop-color="#7760BF"/>
</linearGradient>
<linearGradient id="paint8_linear_74_2282" x1="1671.15" y1="2779.1" x2="1674.29" y2="2781.32" gradientUnits="userSpaceOnUse">
<stop stop-color="#8B8BE0"/>
<stop offset="1" stop-color="#A177B7"/>
</linearGradient>
<linearGradient id="paint9_linear_74_2282" x1="1672.2" y1="2780.94" x2="1673.55" y2="2779.04" gradientUnits="userSpaceOnUse">
<stop stop-color="white"/>
<stop offset="1" stop-color="#A177B7"/>
</linearGradient>
<linearGradient id="paint10_linear_74_2282" x1="1665.91" y1="2793.35" x2="1674.54" y2="2781.16" gradientUnits="userSpaceOnUse">
<stop/>
<stop offset="1" stop-color="white"/>
</linearGradient>
<linearGradient id="paint11_linear_74_2282" x1="1720.72" y1="2891" x2="1720.72" y2="2928" gradientUnits="userSpaceOnUse">
<stop stop-color="#3A3A3A"/>
<stop offset="1" stop-color="#616161"/>
</linearGradient>
<linearGradient id="paint12_linear_74_2282" x1="1989.95" y1="1418.01" x2="1846.68" y2="1274.74" gradientUnits="userSpaceOnUse">
<stop stop-color="#D906E3"/>
<stop offset="1" stop-color="#FF6DF9"/>
</linearGradient>
<linearGradient id="paint13_linear_74_2282" x1="1669.49" y1="171.102" x2="1725.38" y2="74.2962" gradientUnits="userSpaceOnUse">
<stop stop-color="#1C257B"/>
<stop offset="1" stop-color="#482C83"/>
</linearGradient>
<linearGradient id="paint14_linear_74_2282" x1="1672.85" y1="167.011" x2="1723.48" y2="79.331" gradientUnits="userSpaceOnUse">
<stop stop-color="#FDFDFF"/>
<stop offset="1" stop-color="#D1BBFF"/>
</linearGradient>
<linearGradient id="paint15_linear_74_2282" x1="1660.65" y1="187.208" x2="1666.58" y2="176.943" gradientUnits="userSpaceOnUse">
<stop stop-color="#1C257B"/>
<stop offset="1" stop-color="#482C83"/>
</linearGradient>
<linearGradient id="paint16_linear_74_2282" x1="1665" y1="179.68" x2="1670.48" y2="170.187" gradientUnits="userSpaceOnUse">
<stop stop-color="#744FD8"/>
<stop offset="1" stop-color="#3996F7"/>
</linearGradient>
<linearGradient id="paint17_linear_74_2282" x1="1603.85" y1="137.832" x2="1729.52" y2="210.387" gradientUnits="userSpaceOnUse">
<stop stop-color="#B9ACF4"/>
<stop offset="1" stop-color="#E1D1F5"/>
</linearGradient>
<linearGradient id="paint18_linear_74_2282" x1="1729.89" y1="137.433" x2="1756.1" y2="92.0331" gradientUnits="userSpaceOnUse">
<stop stop-color="#B9ACF4"/>
<stop offset="1" stop-color="#E1D1F5"/>
</linearGradient>
<linearGradient id="paint19_linear_74_2282" x1="1604.16" y1="127.351" x2="1625.65" y2="90.1343" gradientUnits="userSpaceOnUse">
<stop stop-color="#B9ACF4"/>
<stop offset="1" stop-color="#E1D1F5"/>
</linearGradient>
<linearGradient id="paint20_linear_74_2282" x1="1670.89" y1="167.607" x2="1671.64" y2="166.312" gradientUnits="userSpaceOnUse">
<stop stop-color="#744FD8"/>
<stop offset="1" stop-color="#3996F7"/>
</linearGradient>
<linearGradient id="paint21_linear_74_2282" x1="1635.86" y1="158.25" x2="1692.49" y2="190.943" gradientUnits="userSpaceOnUse">
<stop stop-color="#8B8BE0"/>
<stop offset="1" stop-color="#A177B7"/>
</linearGradient>
<linearGradient id="paint22_linear_74_2282" x1="1625.78" y1="145.865" x2="1627.32" y2="143.198" gradientUnits="userSpaceOnUse">
<stop stop-color="#1C257B"/>
<stop offset="1" stop-color="#58529B"/>
</linearGradient>
<linearGradient id="paint23_linear_74_2282" x1="1714.74" y1="197.229" x2="1716.28" y2="194.562" gradientUnits="userSpaceOnUse">
<stop stop-color="#1C257B"/>
<stop offset="1" stop-color="#58529B"/>
</linearGradient>
<linearGradient id="paint24_linear_74_2282" x1="1719.38" y1="152.81" x2="1751.58" y2="97.0409" gradientUnits="userSpaceOnUse">
<stop stop-color="#B9ACF4"/>
<stop offset="1" stop-color="#E1D1F5"/>
</linearGradient>
<linearGradient id="paint25_linear_74_2282" x1="1640.14" y1="148.129" x2="1658.18" y2="116.884" gradientUnits="userSpaceOnUse">
<stop stop-color="#B9ACF4"/>
<stop offset="1" stop-color="#E1D1F5"/>
</linearGradient>
<linearGradient id="paint26_linear_74_2282" x1="1720.42" y1="191.057" x2="1728.74" y2="176.632" gradientUnits="userSpaceOnUse">
<stop stop-color="#744FD8"/>
<stop offset="1" stop-color="#3996F7"/>
</linearGradient>
<linearGradient id="paint27_linear_74_2282" x1="1724.85" y1="155.957" x2="1744.39" y2="122.12" gradientUnits="userSpaceOnUse">
<stop stop-color="#B31A8F"/>
<stop offset="1" stop-color="#FE117E"/>
</linearGradient>
<linearGradient id="paint28_linear_74_2282" x1="1728.46" y1="162.27" x2="1732.78" y2="154.788" gradientUnits="userSpaceOnUse">
<stop stop-color="#8B8BE0"/>
<stop offset="1" stop-color="#A177B7"/>
</linearGradient>
<linearGradient id="paint29_linear_74_2282" x1="1700.45" y1="140.494" x2="1706.98" y2="129.178" gradientUnits="userSpaceOnUse">
<stop stop-color="#9552FF"/>
<stop offset="1" stop-color="#A157FF"/>
</linearGradient>
<linearGradient id="paint30_linear_74_2282" x1="1700.45" y1="140.494" x2="1709.61" y2="124.636" gradientUnits="userSpaceOnUse">
<stop stop-color="#7739DB"/>
<stop offset="1" stop-color="#A157FF"/>
</linearGradient>
<linearGradient id="paint31_linear_74_2282" x1="1701.31" y1="139.008" x2="1710.46" y2="123.15" gradientUnits="userSpaceOnUse">
<stop stop-color="#9552FF"/>
<stop offset="1" stop-color="#FF81FF"/>
</linearGradient>
<linearGradient id="paint32_linear_74_2282" x1="1703" y1="141.962" x2="1705.02" y2="138.456" gradientUnits="userSpaceOnUse">
<stop stop-color="#8B8BE0"/>
<stop offset="1" stop-color="#A177B7"/>
</linearGradient>
<linearGradient id="paint33_linear_74_2282" x1="1682.24" y1="129.982" x2="1688.77" y2="118.666" gradientUnits="userSpaceOnUse">
<stop stop-color="#9552FF"/>
<stop offset="1" stop-color="#A157FF"/>
</linearGradient>
<linearGradient id="paint34_linear_74_2282" x1="1682.24" y1="129.982" x2="1691.4" y2="114.124" gradientUnits="userSpaceOnUse">
<stop stop-color="#7739DB"/>
<stop offset="1" stop-color="#A157FF"/>
</linearGradient>
<linearGradient id="paint35_linear_74_2282" x1="1683.1" y1="128.496" x2="1692.25" y2="112.638" gradientUnits="userSpaceOnUse">
<stop stop-color="#9552FF"/>
<stop offset="1" stop-color="#FF81FF"/>
</linearGradient>
<linearGradient id="paint36_linear_74_2282" x1="1684.79" y1="131.45" x2="1686.81" y2="127.944" gradientUnits="userSpaceOnUse">
<stop stop-color="#8B8BE0"/>
<stop offset="1" stop-color="#A177B7"/>
</linearGradient>
<linearGradient id="paint37_linear_74_2282" x1="1664.03" y1="119.47" x2="1670.56" y2="108.154" gradientUnits="userSpaceOnUse">
<stop stop-color="#9552FF"/>
<stop offset="1" stop-color="#A157FF"/>
</linearGradient>
<linearGradient id="paint38_linear_74_2282" x1="1664.03" y1="119.47" x2="1673.19" y2="103.612" gradientUnits="userSpaceOnUse">
<stop stop-color="#7739DB"/>
<stop offset="1" stop-color="#A157FF"/>
</linearGradient>
<linearGradient id="paint39_linear_74_2282" x1="1664.89" y1="117.984" x2="1674.04" y2="102.127" gradientUnits="userSpaceOnUse">
<stop stop-color="#9552FF"/>
<stop offset="1" stop-color="#FF81FF"/>
</linearGradient>
<linearGradient id="paint40_linear_74_2282" x1="1666.58" y1="120.939" x2="1668.6" y2="117.432" gradientUnits="userSpaceOnUse">
<stop stop-color="#8B8BE0"/>
<stop offset="1" stop-color="#A177B7"/>
</linearGradient>
<linearGradient id="paint41_linear_74_2282" x1="1645.82" y1="108.958" x2="1652.36" y2="97.6421" gradientUnits="userSpaceOnUse">
<stop stop-color="#9552FF"/>
<stop offset="1" stop-color="#A157FF"/>
</linearGradient>
<linearGradient id="paint42_linear_74_2282" x1="1645.83" y1="108.958" x2="1654.98" y2="93.1" gradientUnits="userSpaceOnUse">
<stop stop-color="#7739DB"/>
<stop offset="1" stop-color="#A157FF"/>
</linearGradient>
<linearGradient id="paint43_linear_74_2282" x1="1646.68" y1="107.473" x2="1655.84" y2="91.6145" gradientUnits="userSpaceOnUse">
<stop stop-color="#9552FF"/>
<stop offset="1" stop-color="#FF81FF"/>
</linearGradient>
<linearGradient id="paint44_linear_74_2282" x1="1648.37" y1="110.427" x2="1650.4" y2="106.92" gradientUnits="userSpaceOnUse">
<stop stop-color="#8B8BE0"/>
<stop offset="1" stop-color="#A177B7"/>
</linearGradient>
<linearGradient id="paint45_linear_74_2282" x1="72.9504" y1="889.147" x2="-37.9345" y2="746.408" gradientUnits="userSpaceOnUse">
<stop stop-color="#067EFF"/>
<stop offset="1" stop-color="#3E37A0"/>
</linearGradient>
<linearGradient id="paint46_linear_74_2282" x1="1507.37" y1="2388.53" x2="1542.11" y2="2328.36" gradientUnits="userSpaceOnUse">
<stop stop-color="#D93DE3"/>
<stop offset="1" stop-color="#FF6DBA"/>
</linearGradient>
<linearGradient id="paint47_linear_74_2282" x1="1544.15" y1="2409.76" x2="1578.89" y2="2349.59" gradientUnits="userSpaceOnUse">
<stop stop-color="#A242EA"/>
<stop offset="1" stop-color="#FE117E"/>
</linearGradient>
<linearGradient id="paint48_linear_74_2282" x1="1403.92" y1="1351.33" x2="1414.02" y2="1283.13" gradientUnits="userSpaceOnUse">
<stop stop-color="#1852A0"/>
<stop offset="1" stop-color="#067ED3"/>
</linearGradient>
<linearGradient id="paint49_linear_74_2282" x1="1396.39" y1="1349.57" x2="1414.63" y2="1281.82" gradientUnits="userSpaceOnUse">
<stop stop-color="#1852A0"/>
<stop offset="1" stop-color="#067ED3"/>
</linearGradient>
<linearGradient id="paint50_linear_74_2282" x1="1387.82" y1="1346.77" x2="1398.59" y2="1278.13" gradientUnits="userSpaceOnUse">
<stop stop-color="#188DC1"/>
<stop offset="1" stop-color="#06BFE7"/>
</linearGradient>
<linearGradient id="paint51_linear_74_2282" x1="1787.13" y1="3211.7" x2="1865.15" y2="3025" gradientUnits="userSpaceOnUse">
<stop stop-color="#DBCCFF"/>
<stop offset="1" stop-color="#D1BBFF"/>
</linearGradient>
<linearGradient id="paint52_linear_74_2282" x1="1782.57" y1="3218.13" x2="1860.59" y2="3031.44" gradientUnits="userSpaceOnUse">
<stop stop-color="#B5A6E7"/>
<stop offset="1" stop-color="#7760BF"/>
</linearGradient>
<linearGradient id="paint53_linear_74_2282" x1="1797.11" y1="3170.77" x2="1829.53" y2="3093.18" gradientUnits="userSpaceOnUse">
<stop stop-color="#B5A6E7"/>
<stop offset="1" stop-color="#7760BF"/>
</linearGradient>
<linearGradient id="paint54_linear_74_2282" x1="1825.55" y1="3091.12" x2="1845.29" y2="3105.09" gradientUnits="userSpaceOnUse">
<stop stop-color="#8B8BE0"/>
<stop offset="1" stop-color="#A177B7"/>
</linearGradient>
<linearGradient id="paint55_linear_74_2282" x1="1832.19" y1="3102.69" x2="1840.65" y2="3090.74" gradientUnits="userSpaceOnUse">
<stop stop-color="white"/>
<stop offset="1" stop-color="#A177B7"/>
</linearGradient>
<linearGradient id="paint56_linear_74_2282" x1="1792.59" y1="3180.76" x2="1846.87" y2="3104.08" gradientUnits="userSpaceOnUse">
<stop/>
<stop offset="1" stop-color="white"/>
</linearGradient>
<linearGradient id="paint57_linear_74_2282" x1="84.2035" y1="3029.89" x2="1.33634" y2="2947.02" gradientUnits="userSpaceOnUse">
<stop stop-color="#D906E3"/>
<stop offset="1" stop-color="#FF6DF9"/>
</linearGradient>
<linearGradient id="paint58_linear_74_2282" x1="943.882" y1="187.04" x2="947.531" y2="178.367" gradientUnits="userSpaceOnUse">
<stop stop-color="#459FFF"/>
<stop offset="1" stop-color="#A96DFF"/>
</linearGradient>
<linearGradient id="paint59_linear_74_2282" x1="1514.5" y1="243.787" x2="1522.71" y2="239.192" gradientUnits="userSpaceOnUse">
<stop stop-color="#459FFF"/>
<stop offset="1" stop-color="#A96DFF"/>
</linearGradient>
<linearGradient id="paint60_linear_74_2282" x1="83.7665" y1="945.83" x2="90.5964" y2="952.302" gradientUnits="userSpaceOnUse">
<stop stop-color="#459FFF"/>
<stop offset="1" stop-color="#A96DFF"/>
</linearGradient>
<linearGradient id="paint61_linear_74_2282" x1="1833.28" y1="1612.83" x2="1826.45" y2="1619.3" gradientUnits="userSpaceOnUse">
<stop stop-color="#459FFF"/>
<stop offset="1" stop-color="#A96DFF"/>
</linearGradient>
<linearGradient id="paint62_linear_74_2282" x1="1836.28" y1="629.83" x2="1829.45" y2="636.302" gradientUnits="userSpaceOnUse">
<stop stop-color="#459FFF"/>
<stop offset="1" stop-color="#A96DFF"/>
</linearGradient>
<linearGradient id="paint63_linear_74_2282" x1="76.2765" y1="1905.83" x2="69.4466" y2="1912.3" gradientUnits="userSpaceOnUse">
<stop stop-color="#459FFF"/>
<stop offset="1" stop-color="#A96DFF"/>
</linearGradient>
<linearGradient id="paint64_linear_74_2282" x1="1785.34" y1="2324.12" x2="1777.83" y2="2318.44" gradientUnits="userSpaceOnUse">
<stop stop-color="#459FFF"/>
<stop offset="1" stop-color="#A96DFF"/>
</linearGradient>
<linearGradient id="paint65_linear_74_2282" x1="1269.64" y1="131.132" x2="1271.71" y2="126.205" gradientUnits="userSpaceOnUse">
<stop stop-color="#B31A8F"/>
<stop offset="1" stop-color="#FE117E"/>
</linearGradient>
<linearGradient id="paint66_linear_74_2282" x1="1805.74" y1="400.054" x2="1810.41" y2="397.444" gradientUnits="userSpaceOnUse">
<stop stop-color="#B31A8F"/>
<stop offset="1" stop-color="#FE117E"/>
</linearGradient>
<linearGradient id="paint67_linear_74_2282" x1="21.2289" y1="1270.38" x2="25.1092" y2="1274.05" gradientUnits="userSpaceOnUse">
<stop stop-color="#B31A8F"/>
<stop offset="1" stop-color="#FE117E"/>
</linearGradient>
<linearGradient id="paint68_linear_74_2282" x1="1895.82" y1="1937.38" x2="1891.94" y2="1941.05" gradientUnits="userSpaceOnUse">
<stop stop-color="#B31A8F"/>
<stop offset="1" stop-color="#FE117E"/>
</linearGradient>
<linearGradient id="paint69_linear_74_2282" x1="1898.82" y1="954.376" x2="1894.94" y2="958.053" gradientUnits="userSpaceOnUse">
<stop stop-color="#B31A8F"/>
<stop offset="1" stop-color="#FE117E"/>
</linearGradient>
<linearGradient id="paint70_linear_74_2282" x1="138.818" y1="2230.38" x2="134.938" y2="2234.05" gradientUnits="userSpaceOnUse">
<stop stop-color="#B31A8F"/>
<stop offset="1" stop-color="#FE117E"/>
</linearGradient>
<linearGradient id="paint71_linear_74_2282" x1="1475.47" y1="2439.12" x2="1471.2" y2="2435.9" gradientUnits="userSpaceOnUse">
<stop stop-color="#B31A8F"/>
<stop offset="1" stop-color="#FE117E"/>
</linearGradient>
</defs>
</svg>
