<svg width="1920" height="1097" viewBox="0 0 1920 1097" fill="none" xmlns="http://www.w3.org/2000/svg">
<g clip-path="url(#clip0_70_5195)">
<path d="M0 0.105154H102.053C169.088 0.105154 168.588 -0.131181 273.142 0.104763C377.697 0.340706 378.09 0.107284 525.273 0.106832C672.457 0.106381 587.306 0.107008 895.466 0.106996C1203.63 0.106984 1108.69 0.105502 1203.63 0.105249L1251.94 0.10516C1271.71 0.105206 1291.48 0.105491 1522.29 0.106025L1921 0.106996V961.001C1921 1055.01 1701.42 1090.44 1410.73 1096.15C1330.56 1097.72 1244.98 1097.04 1157.1 1094.7C621.203 1080.42 0 1004.6 0 1004.6V0.105154Z" fill="#13103B"/>
<path d="M0 0.105154H102.053C169.088 0.105154 168.588 -0.131181 273.142 0.104763C377.697 0.340706 378.09 0.107284 525.273 0.106832C672.457 0.106381 587.306 0.107008 895.466 0.106996C1203.63 0.106984 1108.69 0.105502 1203.63 0.105249L1251.94 0.10516C1271.71 0.105206 1291.48 0.105491 1522.29 0.106025L1921 0.106996V961.001C1921 1055.01 1701.42 1090.44 1410.73 1096.15C1330.56 1097.72 1244.98 1097.04 1157.1 1094.7C621.203 1080.42 0 1004.6 0 1004.6V0.105154Z" fill="url(#paint0_linear_70_5195)" fill-opacity="0.5"/>
<path opacity="0.3" d="M84.3729 152.008C17.7459 151.508 0 175.325 0 175.325V741.5C0 741.5 1952 1022 1920 685V424.235C1920 424.235 1836.7 360.349 1597.6 509.926C1358.5 659.502 1310 332.498 1262.5 290.999C1215 249.499 1167.59 215.673 895.511 339.382C623.428 463.09 688.999 272.007 562.486 196.893C435.973 121.78 387.5 208.007 292.905 221.959C198.309 235.911 151 152.508 84.3729 152.008Z" fill="url(#paint1_linear_70_5195)"/>
<path opacity="0.3" d="M84.3729 272.008C17.7459 271.508 0 295.325 0 295.325V861.5C0 861.5 1952 1142 1920 805V544.235C1920 544.235 1836.7 480.349 1597.6 629.926C1358.5 779.502 1310 452.498 1262.5 410.999C1215 369.499 1167.59 335.673 895.511 459.382C623.428 583.09 688.999 392.007 562.486 316.893C435.973 241.78 387.5 328.007 292.905 341.959C198.309 355.911 151 272.508 84.3729 272.008Z" fill="url(#paint2_linear_70_5195)"/>
<path opacity="0.3" d="M84.373 383.008C17.746 382.508 0.00012207 406.325 0.00012207 406.325L0 970.5C0 970.5 1900 1256 1920 921.5V655.235C1920 655.235 1836.7 591.349 1597.6 740.926C1358.5 890.502 1310 563.498 1262.5 521.999C1215 480.499 1167.59 446.673 895.511 570.382C623.428 694.09 688.999 503.007 562.486 427.893C435.973 352.78 387.5 439.007 292.905 452.959C198.309 466.911 151 383.508 84.373 383.008Z" fill="url(#paint3_linear_70_5195)"/>
<g filter="url(#filter0_f_70_5195)">
<rect x="1496" y="16" width="590" height="590" rx="295" fill="#8C008E"/>
</g>
<path opacity="0.5" d="M913.209 774.987C913.38 776.386 913.508 777.785 913.508 779.272C913.508 780.758 913.38 782.157 913.209 783.556L922.211 790.769C923.022 791.425 923.235 792.605 922.723 793.567L914.19 808.693C913.678 809.655 912.526 810.004 911.588 809.655L900.964 805.283C898.746 807.032 896.357 808.474 893.754 809.567L892.133 821.152C892.005 822.201 891.109 822.988 890.042 822.988H872.977C871.91 822.988 871.014 822.201 870.886 821.152L869.265 809.567C866.662 808.474 864.273 806.988 862.055 805.283L851.431 809.655C850.45 810.048 849.341 809.655 848.829 808.693L840.296 793.567C839.741 792.605 839.997 791.425 840.808 790.769L849.81 783.556C849.639 782.157 849.511 780.714 849.511 779.272C849.511 777.829 849.639 776.386 849.81 774.987L840.808 767.774C839.997 767.118 839.784 765.938 840.296 764.976L848.829 749.85C849.341 748.889 850.493 748.539 851.431 748.889L862.055 753.26C864.273 751.512 866.662 750.069 869.265 748.976L870.886 737.391C871.014 736.342 871.91 735.555 872.977 735.555H890.042C891.109 735.555 892.005 736.342 892.133 737.391L893.754 748.976C896.357 750.069 898.746 751.555 900.964 753.26L911.588 748.889C912.569 748.495 913.678 748.889 914.19 749.85L922.723 764.976C923.235 765.938 923.022 767.118 922.211 767.774L913.209 774.987V774.987ZM881.509 763.971C873.275 763.971 866.577 770.834 866.577 779.272C866.577 787.709 873.275 794.572 881.509 794.572C889.744 794.572 896.442 787.709 896.442 779.272C896.442 770.834 889.744 763.971 881.509 763.971Z" fill="url(#paint4_linear_70_5195)"/>
<path opacity="0.5" d="M680.332 643.26C680.466 644.35 680.566 645.44 680.566 646.598C680.566 647.756 680.466 648.846 680.332 649.936L687.382 655.555C688.017 656.066 688.184 656.986 687.783 657.735L681.101 669.519C680.7 670.268 679.798 670.541 679.063 670.268L670.743 666.863C669.006 668.225 667.135 669.349 665.097 670.2L663.827 679.226C663.727 680.043 663.025 680.656 662.19 680.656H648.825C647.99 680.656 647.288 680.043 647.188 679.226L645.918 670.2C643.88 669.349 642.009 668.191 640.272 666.863L631.952 670.268C631.184 670.575 630.315 670.268 629.914 669.519L623.232 657.735C622.797 656.986 622.998 656.066 623.633 655.555L630.682 649.936C630.549 648.846 630.449 647.722 630.449 646.598C630.449 645.474 630.549 644.35 630.682 643.26L623.633 637.641C622.998 637.13 622.831 636.21 623.232 635.461L629.914 623.677C630.315 622.927 631.217 622.655 631.952 622.927L640.272 626.333C642.009 624.971 643.88 623.847 645.918 622.995L647.188 613.97C647.288 613.153 647.99 612.54 648.825 612.54H662.19C663.025 612.54 663.727 613.153 663.827 613.97L665.097 622.995C667.135 623.847 669.006 625.005 670.743 626.333L679.063 622.927C679.831 622.621 680.7 622.927 681.101 623.677L687.783 635.461C688.184 636.21 688.017 637.13 687.382 637.641L680.332 643.26V643.26ZM655.507 634.677C649.059 634.677 643.813 640.025 643.813 646.598C643.813 653.171 649.059 658.518 655.507 658.518C661.956 658.518 667.201 653.171 667.201 646.598C667.201 640.025 661.956 634.677 655.507 634.677Z" fill="url(#paint5_linear_70_5195)"/>
<path opacity="0.5" d="M1747.33 840.495C1747.47 841.584 1747.57 842.674 1747.57 843.832C1747.57 844.99 1747.47 846.08 1747.33 847.17L1754.38 852.79C1755.02 853.301 1755.18 854.22 1754.78 854.969L1748.1 866.754C1747.7 867.503 1746.8 867.775 1746.06 867.503L1737.74 864.097C1736.01 865.459 1734.13 866.583 1732.1 867.435L1730.83 876.46C1730.73 877.278 1730.03 877.891 1729.19 877.891H1715.83C1714.99 877.891 1714.29 877.278 1714.19 876.46L1712.92 867.435C1710.88 866.583 1709.01 865.425 1707.27 864.097L1698.95 867.503C1698.18 867.809 1697.31 867.503 1696.91 866.754L1690.23 854.969C1689.8 854.22 1690 853.301 1690.63 852.79L1697.68 847.17C1697.55 846.08 1697.45 844.956 1697.45 843.832C1697.45 842.708 1697.55 841.584 1697.68 840.495L1690.63 834.875C1690 834.364 1689.83 833.444 1690.23 832.695L1696.91 820.911C1697.31 820.162 1698.22 819.889 1698.95 820.162L1707.27 823.568C1709.01 822.205 1710.88 821.081 1712.92 820.23L1714.19 811.204C1714.29 810.387 1714.99 809.774 1715.83 809.774H1729.19C1730.03 809.774 1730.73 810.387 1730.83 811.204L1732.1 820.23C1734.13 821.081 1736.01 822.239 1737.74 823.568L1746.06 820.162C1746.83 819.855 1747.7 820.162 1748.1 820.911L1754.78 832.695C1755.18 833.444 1755.02 834.364 1754.38 834.875L1747.33 840.495V840.495ZM1722.51 831.912C1716.06 831.912 1710.81 837.259 1710.81 843.832C1710.81 850.406 1716.06 855.753 1722.51 855.753C1728.96 855.753 1734.2 850.406 1734.2 843.832C1734.2 837.259 1728.96 831.912 1722.51 831.912Z" fill="url(#paint6_linear_70_5195)"/>
<path opacity="0.5" d="M127.548 642.038L159.894 582.5L101.332 549.616L68.9867 609.153L127.548 642.038ZM122.928 650.543L64.366 617.659C59.7647 615.075 58.0793 609.134 60.6207 604.456L92.966 544.918C95.5074 540.24 101.351 538.526 105.953 541.11L164.514 573.994C169.116 576.578 170.801 582.52 168.26 587.198L135.914 646.735C133.373 651.413 127.529 653.127 122.928 650.543ZM123.068 601.449L119.461 577.944L104.525 583.932L100.894 560.47L151.09 588.656L123.068 601.449Z" fill="url(#paint7_linear_70_5195)"/>
<path opacity="0.5" d="M778.668 324.396C778.534 323.306 778.434 322.216 778.434 321.058C778.434 319.9 778.534 318.81 778.668 317.721L771.618 312.101C770.983 311.59 770.816 310.671 771.217 309.921L777.899 298.137C778.3 297.388 779.202 297.115 779.937 297.388L788.257 300.794C789.994 299.431 791.865 298.307 793.903 297.456L795.173 288.43C795.273 287.613 795.975 287 796.81 287H810.175C811.01 287 811.712 287.613 811.812 288.43L813.082 297.456C815.12 298.307 816.991 299.465 818.728 300.794L827.048 297.388C827.816 297.081 828.685 297.388 829.086 298.137L835.768 309.921C836.203 310.671 836.002 311.59 835.367 312.101L828.318 317.721C828.451 318.81 828.551 319.934 828.551 321.058C828.551 322.182 828.451 323.306 828.318 324.396L835.367 330.016C836.002 330.527 836.169 331.446 835.768 332.195L829.086 343.98C828.685 344.729 827.783 345.001 827.048 344.729L818.728 341.323C816.991 342.685 815.12 343.809 813.082 344.661L811.812 353.686C811.712 354.504 811.01 355.117 810.175 355.117H796.81C795.975 355.117 795.273 354.504 795.173 353.686L793.903 344.661C791.865 343.809 789.994 342.651 788.257 341.323L779.937 344.729C779.169 345.035 778.3 344.729 777.899 343.98L771.217 332.195C770.816 331.446 770.983 330.527 771.618 330.016L778.668 324.396V324.396ZM803.493 332.979C809.941 332.979 815.187 327.632 815.187 321.058C815.187 314.485 809.941 309.138 803.493 309.138C797.044 309.138 791.799 314.485 791.799 321.058C791.799 327.632 797.044 332.979 803.493 332.979Z" fill="url(#paint8_linear_70_5195)"/>
<path opacity="0.81" d="M643.201 896.988H581.371C578.621 896.988 576.371 894.788 576.311 892.038L575.161 841.328C575.101 838.488 577.381 836.148 580.221 836.148H644.591C647.441 836.148 649.731 838.498 649.651 841.348L648.261 892.058C648.191 894.808 645.941 896.988 643.201 896.988Z" fill="url(#paint9_linear_70_5195)"/>
<path d="M643.201 897.15H581.371C578.551 897.15 576.211 894.86 576.151 892.05L575.001 841.34C574.971 839.92 575.501 838.58 576.491 837.57C577.481 836.56 578.811 836 580.231 836H644.601C646.021 836 647.351 836.56 648.341 837.58C649.331 838.6 649.861 839.94 649.821 841.37L648.431 892.08C648.341 894.92 646.051 897.15 643.201 897.15ZM580.221 836.31C578.891 836.31 577.641 836.83 576.711 837.79C575.781 838.74 575.281 840 575.311 841.33L576.461 892.04C576.521 894.68 578.721 896.83 581.361 896.83H643.191C645.871 896.83 648.021 894.73 648.091 892.06L649.481 841.35C649.521 840.02 649.021 838.75 648.091 837.8C647.161 836.84 645.911 836.32 644.581 836.32H580.221V836.31Z" fill="#473DA2"/>
<path d="M624.34 846.531H591.82V847.921H624.34V846.531Z" fill="white"/>
<path d="M608.08 849.914H591.82V851.304H608.08V849.914Z" fill="white"/>
<path d="M608.08 852.742H591.82V854.132H608.08V852.742Z" fill="white"/>
<path d="M622.828 852.742H609.898V854.132H622.828V852.742Z" fill="white"/>
<path d="M618.03 855.57H591.82V856.96H618.03V855.57Z" fill="white"/>
<path d="M601.15 858.391H591.82V859.781H601.15V858.391Z" fill="white"/>
<path d="M619.2 866.871H603.07V868.261H619.2V866.871Z" fill="white"/>
<path d="M621.06 861.223H591.82V862.613H621.06V861.223Z" fill="white"/>
<path d="M614.31 864.051H591.82V865.441H614.31V864.051Z" fill="white"/>
<path d="M602.4 866.871H591.82V868.261H602.4V866.871Z" fill="white"/>
<path d="M608.08 869.703H591.82V871.093H608.08V869.703Z" fill="white"/>
<path d="M615.33 872.531H598.41V873.921H615.33V872.531Z" fill="white"/>
<path d="M619.2 875.273H603.07V876.663H619.2V875.273Z" fill="white"/>
<path d="M602.4 875.273H591.82V876.663H602.4V875.273Z" fill="white"/>
<path d="M608.08 878.102H591.82V879.492H608.08V878.102Z" fill="white"/>
<path d="M615.33 880.922H598.41V882.312H615.33V880.922Z" fill="white"/>
<path opacity="0.73" d="M397.283 279.191H368.993C366.713 279.191 364.853 277.391 364.773 275.111L364.143 256.501C364.063 254.111 365.973 252.141 368.363 252.141H397.853C400.233 252.141 402.143 254.111 402.073 256.491L401.503 275.101C401.433 277.381 399.563 279.191 397.283 279.191Z" fill="url(#paint10_linear_70_5195)"/>
<path d="M397.283 279.34H368.993C366.623 279.34 364.713 277.49 364.633 275.12L364.003 256.51C363.963 255.32 364.393 254.19 365.233 253.33C366.063 252.47 367.183 252 368.373 252H397.863C399.053 252 400.163 252.47 400.993 253.33C401.823 254.19 402.263 255.31 402.223 256.5L401.653 275.11C401.573 277.48 399.653 279.34 397.283 279.34ZM368.363 252.29C367.253 252.29 366.203 252.73 365.433 253.53C364.653 254.33 364.253 255.39 364.293 256.5L364.923 275.11C364.993 277.32 366.783 279.05 368.993 279.05H397.283C399.503 279.05 401.293 277.31 401.363 275.1L401.933 256.49C401.963 255.38 401.563 254.33 400.783 253.53C400.013 252.73 398.973 252.29 397.853 252.29H368.363V252.29Z" fill="#953DA2"/>
<path d="M376.533 258.828L369.562 266.908L376.662 272.938V269.828L372.553 266.268L376.373 261.958L376.533 258.828Z" fill="white"/>
<path d="M388.793 259.191L395.773 267.271L388.663 273.301V270.191L392.773 266.631L388.203 261.791L388.793 259.191Z" fill="white"/>
<path d="M378.055 272.941L384.135 259.551H386.985L380.105 272.941H378.055Z" fill="white"/>
<path fill-rule="evenodd" clip-rule="evenodd" d="M1057.7 811.589L1053.02 824.979C1055.6 817.579 1059.32 812.769 1057.7 811.589ZM1053.02 824.979L1048.33 838.369C1049.51 838.009 1050.43 832.369 1053.02 824.979ZM1057.7 811.589L1053.02 824.979C1055.6 817.579 1059.32 812.769 1057.7 811.589ZM1053.02 824.979L1048.33 838.369C1049.51 838.009 1050.43 832.369 1053.02 824.979ZM1066.53 836.579L1071.08 839.159L1075.99 825.759L1070.73 824.879C1070.82 824.379 1070.92 823.889 1070.98 823.389C1071.36 821.089 1071.49 818.849 1071.42 816.709L1076.92 813.259L1074.41 801.459L1069.14 806.499C1068.41 804.989 1067.5 803.669 1066.44 802.569C1066.15 802.249 1065.84 801.949 1065.53 801.679L1068.75 794.239L1060.17 791.449L1058.11 798.949C1056.19 798.959 1054.24 799.439 1052.3 800.309L1051.35 793.219L1041.91 800.369L1044.09 806.649C1042.39 808.589 1040.83 810.839 1039.48 813.359L1034.93 810.789L1030.02 824.189L1035.28 825.069C1034.72 827.899 1034.5 830.639 1034.58 833.229L1029.08 836.679L1031.59 848.479L1036.86 843.439C1037.8 845.369 1039.01 846.999 1040.47 848.249L1037.24 855.699L1045.68 858.989L1046.99 854.239L1047.88 850.989C1049.8 850.979 1051.76 850.509 1053.7 849.639L1054.63 856.729L1064.07 849.579L1061.89 843.299C1063.23 841.769 1064.48 840.059 1065.61 838.159C1065.95 837.639 1066.24 837.119 1066.53 836.579ZM1053.02 824.979C1050.43 832.379 1053.02 840.009 1048.33 838.369C1043.63 836.719 1041.91 829.389 1044.51 822.009C1047.11 814.609 1053.01 809.959 1057.7 811.599C1062.4 813.229 1055.6 817.579 1053.02 824.979ZM1057.7 811.589L1053.02 824.979C1055.6 817.579 1059.32 812.769 1057.7 811.589ZM1053.02 824.979L1048.33 838.369C1049.51 838.009 1050.43 832.369 1053.02 824.979Z" fill="url(#paint11_linear_70_5195)"/>
<path fill-rule="evenodd" clip-rule="evenodd" d="M1071.08 839.16L1075.99 825.76L1070.98 823.39L1070.17 823.01L1070.7 815.63L1076.26 812.92L1074.43 801.46L1062.33 797.52L1064.56 802.84L1068.78 794.24L1060.2 791.45L1056.68 790.3L1048.22 787L1046.64 792.77L1039.28 789.27L1029.84 796.42L1032.71 804.15L1023.88 828.63L1019.52 844.53L1027.91 845.45L1025.18 851.75L1033.64 855.05L1045.74 858.99L1043.8 855.1L1042.58 852.77L1047.05 854.23L1054.69 856.72L1064.13 849.57L1058.29 842.69L1065.67 838.15L1071.08 839.16ZM1044.51 822C1047.11 814.6 1053.01 809.95 1057.7 811.59L1053.02 824.98L1048.33 838.37C1043.63 836.71 1041.91 829.39 1044.51 822Z" fill="url(#paint12_linear_70_5195)"/>
<path fill-rule="evenodd" clip-rule="evenodd" d="M1058.98 835.21L1063.88 821.81L1058.62 820.93C1059.17 818.11 1059.4 815.37 1059.32 812.78L1064.82 809.33L1062.31 797.53L1057.04 802.57C1056.1 800.64 1054.89 799.01 1053.43 797.76L1056.66 790.31L1048.21 787.02L1046.02 795.02C1044.1 795.03 1042.14 795.5 1040.21 796.38L1039.27 789.3L1029.83 796.44L1032 802.72C1030.3 804.66 1028.75 806.92 1027.39 809.44L1022.84 806.87L1017.94 820.27L1023.2 821.15C1022.65 823.97 1022.42 826.71 1022.5 829.3L1017 832.75L1019.51 844.55L1024.78 839.51C1025.72 841.44 1026.93 843.07 1028.39 844.32L1025.16 851.77L1033.61 855.06L1035.8 847.06C1037.72 847.05 1039.68 846.58 1041.61 845.7L1042.55 852.78L1051.99 845.64L1049.82 839.36C1051.52 837.42 1053.07 835.16 1054.43 832.64L1058.98 835.21ZM1036.22 834.42C1031.52 832.77 1029.81 825.45 1032.4 818.05C1034.99 810.66 1040.9 806 1045.6 807.64C1050.3 809.29 1052.01 816.61 1049.42 824.01C1046.83 831.4 1040.92 836.06 1036.22 834.42Z" fill="url(#paint13_linear_70_5195)"/>
<path opacity="0.5" fill-rule="evenodd" clip-rule="evenodd" d="M1076.92 813.258L1064.82 809.328L1059.32 812.778L1071.42 816.718L1076.92 813.258Z" fill="#601734"/>
<path fill-rule="evenodd" clip-rule="evenodd" d="M1064.1 849.582L1051.99 845.642L1049.82 839.352L1061.92 843.302L1064.1 849.582Z" fill="#B3D9FF"/>
<path opacity="0.5" fill-rule="evenodd" clip-rule="evenodd" d="M1053.43 797.751L1060.07 799.671L1062.31 797.521L1066.72 798.961L1068.76 794.251L1056.66 790.301L1053.43 797.751Z" fill="#601734"/>
<path opacity="0.5" fill-rule="evenodd" clip-rule="evenodd" d="M1035.8 847.049L1042.14 849.689L1041.61 845.699C1041.61 845.699 1038.2 847.499 1035.8 847.049Z" fill="#601734"/>
<path opacity="0.5" fill-rule="evenodd" clip-rule="evenodd" d="M1036.78 810.77L1047.45 816.41C1047.45 816.41 1049 814.34 1050.19 813.5C1050.2 813.5 1047.41 801.73 1036.78 810.77Z" fill="#601734"/>
<path d="M968.861 617.75C972.091 612.19 971.261 606.09 971.261 606.09L969.461 604.82L964.601 612.75C961.581 613.78 959.031 612.76 959.031 612.76L959.041 612.75C959.041 612.75 957.231 610.68 957.201 607.49L963.071 600.27L961.271 599C961.271 599 955.241 600.24 951.071 605.14C951.071 605.14 949.791 606.85 949.711 607.06C949.301 608.2 949.391 610.52 951.581 613.86L935.601 638.77C933.331 638.75 931.091 639.8 929.681 641.79C927.391 645.03 928.151 649.51 931.391 651.81C934.631 654.1 939.111 653.34 941.411 650.1C942.821 648.11 943.071 645.65 942.291 643.51L960.471 620.17C964.261 621.1 966.481 620.49 967.501 619.67C967.711 619.5 968.861 617.75 968.861 617.75ZM935.171 649.94L931.891 647.62L932.261 643.62L935.911 641.94L939.191 644.26L938.821 648.26L935.171 649.94Z" fill="url(#paint14_linear_70_5195)"/>
<path d="M967.501 619.672C970.731 614.112 969.901 608.012 969.901 608.012L968.101 606.742L963.241 614.672C960.221 615.702 957.671 614.682 957.671 614.682L957.681 614.672C957.681 614.672 955.871 612.602 955.841 609.412L961.711 602.192L959.911 600.922C959.911 600.922 953.881 602.162 949.711 607.062C949.711 607.062 947.631 611.822 950.221 615.782L934.241 640.692C931.971 640.672 929.731 641.722 928.321 643.712C926.031 646.952 926.791 651.432 930.031 653.732C933.271 656.022 937.751 655.262 940.051 652.022C941.461 650.032 941.711 647.572 940.931 645.432L959.111 622.092C963.701 623.222 967.501 619.672 967.501 619.672ZM933.811 651.872L930.531 649.552L930.901 645.552L934.551 643.872L937.831 646.192L937.461 650.192L933.811 651.872Z" fill="url(#paint15_linear_70_5195)"/>
<path d="M961.289 599.003L959.926 600.93L961.721 602.201L963.085 600.275L961.289 599.003Z" fill="white"/>
<path d="M969.475 604.828L968.117 606.746L969.913 608.017L971.271 606.099L969.475 604.828Z" fill="white"/>
<path d="M931.91 647.628L930.547 649.555L933.828 651.877L935.192 649.951L931.91 647.628Z" fill="white"/>
<path d="M949.981 619.301L936.941 639.501C938.271 642.101 940.981 642.361 940.981 642.361L955.881 623.481C953.991 619.871 949.981 619.301 949.981 619.301ZM940.401 641.701C940.001 641.561 939.431 641.311 938.871 640.921C938.431 640.611 938.041 640.241 937.711 639.821L950.361 619.821C951.051 620.061 952.131 620.511 953.211 621.271C954.021 621.841 954.711 622.511 955.271 623.261L940.401 641.701Z" fill="url(#paint16_linear_70_5195)"/>
<path d="M940.401 641.7L940.981 642.36C940.981 642.36 938.391 642.37 936.941 639.5L937.721 639.81C937.711 639.81 938.651 641.09 940.401 641.7Z" fill="white"/>
<path opacity="0.62" d="M949.98 619.301L950.37 619.811C950.37 619.811 953.02 620.481 955.28 623.251L955.88 623.471C955.88 623.471 955.4 622.121 953.41 620.711C951.41 619.311 949.98 619.301 949.98 619.301Z" fill="url(#paint17_linear_70_5195)"/>
<path opacity="0.62" d="M950.211 615.781C950.211 615.781 953.681 619.951 959.101 622.091L956.781 625.071C956.781 625.071 957.381 622.851 954.331 620.451C950.761 617.651 947.941 619.521 947.941 619.521L950.211 615.781Z" fill="url(#paint18_linear_70_5195)"/>
<path opacity="0.5" d="M956.781 625.081C956.911 623.831 956.351 622.801 956.351 622.801L939.121 644.971L940.921 645.431L956.781 625.081Z" fill="url(#paint19_linear_70_5195)"/>
<path d="M956.781 625.078C956.781 625.078 953.211 625.818 953.381 629.438L956.781 625.078Z" fill="white"/>
</g>
<defs>
<filter id="filter0_f_70_5195" x="862" y="-618" width="1858" height="1858" filterUnits="userSpaceOnUse" color-interpolation-filters="sRGB">
<feFlood flood-opacity="0" result="BackgroundImageFix"/>
<feBlend mode="normal" in="SourceGraphic" in2="BackgroundImageFix" result="shape"/>
<feGaussianBlur stdDeviation="317" result="effect1_foregroundBlur_70_5195"/>
</filter>
<linearGradient id="paint0_linear_70_5195" x1="656.842" y1="480.445" x2="655.295" y2="0.000182375" gradientUnits="userSpaceOnUse">
<stop/>
<stop offset="1" stop-opacity="0"/>
</linearGradient>
<linearGradient id="paint1_linear_70_5195" x1="959.999" y1="152" x2="959.999" y2="883.002" gradientUnits="userSpaceOnUse">
<stop stop-color="#0C0E2E" stop-opacity="0"/>
<stop offset="1" stop-color="#131641"/>
</linearGradient>
<linearGradient id="paint2_linear_70_5195" x1="959.999" y1="272" x2="959.999" y2="1003" gradientUnits="userSpaceOnUse">
<stop stop-color="#0C0E2E" stop-opacity="0"/>
<stop offset="1" stop-color="#131641"/>
</linearGradient>
<linearGradient id="paint3_linear_70_5195" x1="959.999" y1="383" x2="959.999" y2="1114" gradientUnits="userSpaceOnUse">
<stop stop-color="#0C0E2E" stop-opacity="0"/>
<stop offset="1" stop-color="#131641"/>
</linearGradient>
<linearGradient id="paint4_linear_70_5195" x1="881.5" y1="822.988" x2="881.5" y2="735.555" gradientUnits="userSpaceOnUse">
<stop stop-color="#3A3A3A"/>
<stop offset="1" stop-color="#616161"/>
</linearGradient>
<linearGradient id="paint5_linear_70_5195" x1="655.5" y1="680.656" x2="655.5" y2="612.54" gradientUnits="userSpaceOnUse">
<stop stop-color="#3A3A3A"/>
<stop offset="1" stop-color="#616161"/>
</linearGradient>
<linearGradient id="paint6_linear_70_5195" x1="1722.5" y1="877.891" x2="1722.5" y2="809.774" gradientUnits="userSpaceOnUse">
<stop stop-color="#3A3A3A"/>
<stop offset="1" stop-color="#616161"/>
</linearGradient>
<linearGradient id="paint7_linear_70_5195" x1="93.6468" y1="634.101" x2="136.296" y2="558.149" gradientUnits="userSpaceOnUse">
<stop stop-color="#3A3A3A"/>
<stop offset="1" stop-color="#616161"/>
</linearGradient>
<linearGradient id="paint8_linear_70_5195" x1="803.5" y1="287" x2="803.5" y2="355.117" gradientUnits="userSpaceOnUse">
<stop stop-color="#3A3A3A"/>
<stop offset="1" stop-color="#616161"/>
</linearGradient>
<linearGradient id="paint9_linear_70_5195" x1="607.474" y1="900.308" x2="615.988" y2="832.518" gradientUnits="userSpaceOnUse">
<stop stop-color="#067EFF"/>
<stop offset="1" stop-color="#3E37A0"/>
</linearGradient>
<linearGradient id="paint10_linear_70_5195" x1="383.107" y1="279.192" x2="383.107" y2="252.141" gradientUnits="userSpaceOnUse">
<stop stop-color="#D906E3"/>
<stop offset="1" stop-color="#FF6DF9"/>
</linearGradient>
<linearGradient id="paint11_linear_70_5195" x1="1047.92" y1="859.326" x2="1058.02" y2="791.133" gradientUnits="userSpaceOnUse">
<stop stop-color="#1852A0"/>
<stop offset="1" stop-color="#067ED3"/>
</linearGradient>
<linearGradient id="paint12_linear_70_5195" x1="1040.39" y1="857.566" x2="1058.63" y2="789.816" gradientUnits="userSpaceOnUse">
<stop stop-color="#1852A0"/>
<stop offset="1" stop-color="#067ED3"/>
</linearGradient>
<linearGradient id="paint13_linear_70_5195" x1="1031.82" y1="854.771" x2="1042.59" y2="786.128" gradientUnits="userSpaceOnUse">
<stop stop-color="#188DC1"/>
<stop offset="1" stop-color="#06BFE7"/>
</linearGradient>
<linearGradient id="paint14_linear_70_5195" x1="938.684" y1="655.049" x2="961.982" y2="599.3" gradientUnits="userSpaceOnUse">
<stop stop-color="#DBCCFF"/>
<stop offset="1" stop-color="#D1BBFF"/>
</linearGradient>
<linearGradient id="paint15_linear_70_5195" x1="937.324" y1="656.973" x2="960.622" y2="601.224" gradientUnits="userSpaceOnUse">
<stop stop-color="#B5A6E7"/>
<stop offset="1" stop-color="#7760BF"/>
</linearGradient>
<linearGradient id="paint16_linear_70_5195" x1="941.663" y1="642.83" x2="951.347" y2="619.659" gradientUnits="userSpaceOnUse">
<stop stop-color="#B5A6E7"/>
<stop offset="1" stop-color="#7760BF"/>
</linearGradient>
<linearGradient id="paint17_linear_70_5195" x1="950.158" y1="619.043" x2="956.052" y2="623.216" gradientUnits="userSpaceOnUse">
<stop stop-color="#8B8BE0"/>
<stop offset="1" stop-color="#A177B7"/>
</linearGradient>
<linearGradient id="paint18_linear_70_5195" x1="952.137" y1="622.499" x2="954.663" y2="618.931" gradientUnits="userSpaceOnUse">
<stop stop-color="white"/>
<stop offset="1" stop-color="#A177B7"/>
</linearGradient>
<linearGradient id="paint19_linear_70_5195" x1="940.314" y1="645.81" x2="956.522" y2="622.914" gradientUnits="userSpaceOnUse">
<stop/>
<stop offset="1" stop-color="white"/>
</linearGradient>
<clipPath id="clip0_70_5195">
<rect width="1920" height="1097" fill="white" transform="matrix(1 0 0 -1 0 1097)"/>
</clipPath>
</defs>
</svg>
