<svg width="13" height="13" viewBox="0 0 13 13" fill="none" xmlns="http://www.w3.org/2000/svg">
<path d="M6.50261 11.9154C7.21407 11.9163 7.9187 11.7766 8.576 11.5043C9.2333 11.2321 9.83032 10.8326 10.3327 10.3288C10.8365 9.82641 11.236 9.2294 11.5082 8.5721C11.7805 7.91479 11.9202 7.21016 11.9193 6.4987C11.9202 5.78724 11.7805 5.08262 11.5082 4.42532C11.2359 3.76802 10.8365 3.171 10.3327 2.66858C9.83032 2.16483 9.2333 1.76535 8.576 1.49308C7.9187 1.2208 7.21407 1.08111 6.50261 1.08204C5.79115 1.08113 5.08652 1.22082 4.42922 1.4931C3.77192 1.76537 3.17491 2.16485 2.67248 2.66858C2.16875 3.171 1.76927 3.76802 1.497 4.42532C1.22473 5.08262 1.08504 5.78724 1.08594 6.4987C1.08502 7.21016 1.22471 7.91479 1.49698 8.5721C1.76925 9.2294 2.16874 9.82641 2.67248 10.3288C3.17491 10.8326 3.77192 11.232 4.42922 11.5043C5.08652 11.7766 5.79115 11.9163 6.50261 11.9154V11.9154Z" stroke="#13103B" stroke-linejoin="round"/>
<path d="M6.50261 11.9154C7.21407 11.9163 7.9187 11.7766 8.576 11.5043C9.2333 11.2321 9.83032 10.8326 10.3327 10.3288C10.8365 9.82641 11.236 9.2294 11.5082 8.5721C11.7805 7.91479 11.9202 7.21016 11.9193 6.4987C11.9202 5.78724 11.7805 5.08262 11.5082 4.42532C11.2359 3.76802 10.8365 3.171 10.3327 2.66858C9.83032 2.16483 9.2333 1.76535 8.576 1.49308C7.9187 1.2208 7.21407 1.08111 6.50261 1.08204C5.79115 1.08113 5.08652 1.22082 4.42922 1.4931C3.77192 1.76537 3.17491 2.16485 2.67248 2.66858C2.16875 3.171 1.76927 3.76802 1.497 4.42532C1.22473 5.08262 1.08504 5.78724 1.08594 6.4987C1.08502 7.21016 1.22471 7.91479 1.49698 8.5721C1.76925 9.2294 2.16874 9.82641 2.67248 10.3288C3.17491 10.8326 3.77192 11.232 4.42922 11.5043C5.08652 11.7766 5.79115 11.9163 6.50261 11.9154V11.9154Z" stroke="url(#paint0_linear_115_17624)" stroke-opacity="0.5" stroke-linejoin="round"/>
<path fill-rule="evenodd" clip-rule="evenodd" d="M6.50521 10.0182C6.68478 10.0182 6.857 9.9469 6.98398 9.81992C7.11096 9.69294 7.18229 9.52072 7.18229 9.34115C7.18229 9.16157 7.11096 8.98935 6.98398 8.86238C6.857 8.7354 6.68478 8.66406 6.50521 8.66406C6.32563 8.66406 6.15342 8.7354 6.02644 8.86238C5.89946 8.98935 5.82812 9.16157 5.82812 9.34115C5.82812 9.52072 5.89946 9.69294 6.02644 9.81992C6.15342 9.9469 6.32563 10.0182 6.50521 10.0182Z" fill="#13103B"/>
<path fill-rule="evenodd" clip-rule="evenodd" d="M6.50521 10.0182C6.68478 10.0182 6.857 9.9469 6.98398 9.81992C7.11096 9.69294 7.18229 9.52072 7.18229 9.34115C7.18229 9.16157 7.11096 8.98935 6.98398 8.86238C6.857 8.7354 6.68478 8.66406 6.50521 8.66406C6.32563 8.66406 6.15342 8.7354 6.02644 8.86238C5.89946 8.98935 5.82812 9.16157 5.82812 9.34115C5.82812 9.52072 5.89946 9.69294 6.02644 9.81992C6.15342 9.9469 6.32563 10.0182 6.50521 10.0182Z" fill="url(#paint1_linear_115_17624)" fill-opacity="0.5"/>
<path d="M6.5 3.25V7.58333" stroke="#13103B" stroke-linecap="round" stroke-linejoin="round"/>
<path d="M6.5 3.25V7.58333" stroke="url(#paint2_linear_115_17624)" stroke-opacity="0.5" stroke-linecap="round" stroke-linejoin="round"/>
<defs>
<linearGradient id="paint0_linear_115_17624" x1="4.79015" y1="5.82663" x2="4.7634" y2="1.08213" gradientUnits="userSpaceOnUse">
<stop/>
<stop offset="1" stop-opacity="0"/>
</linearGradient>
<linearGradient id="paint1_linear_115_17624" x1="6.29115" y1="9.25714" x2="6.28781" y2="8.66408" gradientUnits="userSpaceOnUse">
<stop/>
<stop offset="1" stop-opacity="0"/>
</linearGradient>
<linearGradient id="paint2_linear_115_17624" x1="6.84193" y1="5.14784" x2="6.79559" y2="3.25111" gradientUnits="userSpaceOnUse">
<stop/>
<stop offset="1" stop-opacity="0"/>
</linearGradient>
</defs>
</svg>
