<svg width="13" height="14" viewBox="0 0 13 14" fill="none" xmlns="http://www.w3.org/2000/svg">
<path d="M11.4665 7.637C11.4932 7.429 11.5132 7.221 11.5132 7C11.5132 6.779 11.4932 6.571 11.4665 6.363L12.8764 5.2905C13.0034 5.193 13.0368 5.0175 12.9566 4.8745L11.6202 2.6255C11.54 2.4825 11.3595 2.4305 11.2125 2.4825L9.54863 3.1325C9.20114 2.8725 8.82693 2.658 8.41931 2.4955L8.16538 0.773C8.14533 0.617 8.005 0.5 7.83795 0.5H5.16501C4.99795 0.5 4.85762 0.617 4.83757 0.773L4.58364 2.4955C4.17602 2.658 3.80181 2.879 3.45433 3.1325L1.79042 2.4825C1.63673 2.424 1.46299 2.4825 1.3828 2.6255L0.0463297 4.8745C-0.0405407 5.0175 -0.000446583 5.193 0.126518 5.2905L1.53649 6.363C1.50976 6.571 1.48972 6.7855 1.48972 7C1.48972 7.2145 1.50976 7.429 1.53649 7.637L0.126518 8.7095C-0.000446583 8.807 -0.0338584 8.9825 0.0463297 9.1255L1.3828 11.3745C1.46299 11.5175 1.64341 11.5695 1.79042 11.5175L3.45433 10.8675C3.80181 11.1275 4.17602 11.342 4.58364 11.5045L4.83757 13.227C4.85762 13.383 4.99795 13.5 5.16501 13.5H7.83795C8.005 13.5 8.14533 13.383 8.16538 13.227L8.41931 11.5045C8.82693 11.342 9.20114 11.121 9.54863 10.8675L11.2125 11.5175C11.3662 11.576 11.54 11.5175 11.6202 11.3745L12.9566 9.1255C13.0368 8.9825 13.0034 8.807 12.8764 8.7095L11.4665 7.637ZM6.50148 9.275C5.21178 9.275 4.16265 8.2545 4.16265 7C4.16265 5.7455 5.21178 4.725 6.50148 4.725C7.79117 4.725 8.8403 5.7455 8.8403 7C8.8403 8.2545 7.79117 9.275 6.50148 9.275Z" fill="#13103B"/>
<path d="M11.4665 7.637C11.4932 7.429 11.5132 7.221 11.5132 7C11.5132 6.779 11.4932 6.571 11.4665 6.363L12.8764 5.2905C13.0034 5.193 13.0368 5.0175 12.9566 4.8745L11.6202 2.6255C11.54 2.4825 11.3595 2.4305 11.2125 2.4825L9.54863 3.1325C9.20114 2.8725 8.82693 2.658 8.41931 2.4955L8.16538 0.773C8.14533 0.617 8.005 0.5 7.83795 0.5H5.16501C4.99795 0.5 4.85762 0.617 4.83757 0.773L4.58364 2.4955C4.17602 2.658 3.80181 2.879 3.45433 3.1325L1.79042 2.4825C1.63673 2.424 1.46299 2.4825 1.3828 2.6255L0.0463297 4.8745C-0.0405407 5.0175 -0.000446583 5.193 0.126518 5.2905L1.53649 6.363C1.50976 6.571 1.48972 6.7855 1.48972 7C1.48972 7.2145 1.50976 7.429 1.53649 7.637L0.126518 8.7095C-0.000446583 8.807 -0.0338584 8.9825 0.0463297 9.1255L1.3828 11.3745C1.46299 11.5175 1.64341 11.5695 1.79042 11.5175L3.45433 10.8675C3.80181 11.1275 4.17602 11.342 4.58364 11.5045L4.83757 13.227C4.85762 13.383 4.99795 13.5 5.16501 13.5H7.83795C8.005 13.5 8.14533 13.383 8.16538 13.227L8.41931 11.5045C8.82693 11.342 9.20114 11.121 9.54863 10.8675L11.2125 11.5175C11.3662 11.576 11.54 11.5175 11.6202 11.3745L12.9566 9.1255C13.0368 8.9825 13.0034 8.807 12.8764 8.7095L11.4665 7.637ZM6.50148 9.275C5.21178 9.275 4.16265 8.2545 4.16265 7C4.16265 5.7455 5.21178 4.725 6.50148 4.725C7.79117 4.725 8.8403 5.7455 8.8403 7C8.8403 8.2545 7.79117 9.275 6.50148 9.275Z" fill="url(#paint0_linear_115_17631)" fill-opacity="0.5"/>
<defs>
<linearGradient id="paint0_linear_115_17631" x1="4.44505" y1="6.19352" x2="4.41295" y2="0.500124" gradientUnits="userSpaceOnUse">
<stop/>
<stop offset="1" stop-opacity="0"/>
</linearGradient>
</defs>
</svg>
