<svg width="219" height="434" viewBox="0 0 219 434" fill="none" xmlns="http://www.w3.org/2000/svg">
<path d="M246.234 129.05C187.808 113.209 128.081 147.692 112.826 206.073C97.5748 264.462 132.573 324.627 190.999 340.479C249.433 356.325 309.16 321.842 324.411 263.453C339.662 205.065 304.659 144.892 246.234 129.05Z" fill="#F5F5F5"/>
<path d="M134.784 328.063L155.025 357.693C155.025 357.693 151.603 368.479 146.04 371.69C146.04 371.69 136.917 359.89 134.784 328.063Z" fill="#4B81EE"/>
<path d="M126.936 105.077C111.706 117.869 112.376 138.14 116.845 146.739C121.314 155.339 145.537 183.862 152.464 191.29C159.39 198.718 179.038 199.324 184.904 197.769C190.77 196.214 195.119 192.031 198.055 187.414C200.991 182.797 205.504 167.456 202.721 157.796C199.948 148.13 177.903 108.522 169.534 100.313C161.175 92.0991 139.43 94.5789 126.936 105.077Z" fill="url(#paint0_linear_115_16577)"/>
<path d="M173.191 198.311L195.11 234.286C195.11 234.286 213.109 256.822 225.186 250.94C240.317 243.585 225.455 213.975 225.455 213.975L201.688 178.079C201.688 178.079 197.908 191.005 190.204 195.438C182.497 199.888 173.191 198.311 173.191 198.311Z" fill="url(#paint1_linear_115_16577)"/>
<path d="M119.175 145.382C119.175 145.382 113.064 126.972 132.178 114.236C151.292 101.5 163.281 104.376 168.933 108.106C174.586 111.835 183.08 118.925 183.08 118.925L167.674 94.3675L151.41 95.0784C151.41 95.0784 123.642 107.548 117.116 118.251C110.616 128.953 113.844 136.713 119.175 145.382Z" fill="url(#paint2_linear_115_16577)"/>
<path d="M187.737 127.625C187.737 127.625 188.332 123.341 192.652 120.76C192.652 120.76 196.906 121.705 198.902 129.232C200.656 135.866 201.063 145.619 201.389 147.902C201.722 150.196 200.257 151.55 200.257 151.55C200.257 151.55 192.303 135.397 187.737 127.625Z" fill="url(#paint3_linear_115_16577)"/>
<path d="M131.469 166.662C131.469 166.662 126.939 165.715 125.24 170.258C125.24 170.258 128.821 174.921 135.084 180.115C141.347 185.309 145.268 189.093 148.67 187.07L131.469 166.662Z" fill="url(#paint4_linear_115_16577)"/>
<path d="M191.937 134.888C191.937 134.888 193.243 127.809 195.078 126.125C196.912 124.441 199.269 132.006 199.991 136.241C200.713 140.477 200.755 140.889 200.755 140.889C200.755 140.889 198.459 130.918 196.574 129.463C194.679 128.013 193.825 129.61 194.223 130.413C194.621 131.215 198.447 134.516 198.803 139.747C199.16 144.979 199.533 146.145 197.753 144.352C195.974 142.559 195.686 138.102 194.576 136.067C193.435 134.022 191.937 134.888 191.937 134.888Z" fill="url(#paint5_linear_115_16577)"/>
<path d="M135.942 171.973C135.942 171.973 130.892 171.05 130.04 172.56C129.171 174.064 134.857 180.202 141.064 184.237C141.064 184.237 133.525 178.122 133.516 175.641C133.507 173.16 137.756 175.025 136.731 175.805C133.614 178.187 138.478 182.517 142.379 183.099C146.28 183.682 141.001 181.685 138.556 178.604C136.112 175.524 137.989 174.614 137.989 174.614L135.942 171.973Z" fill="url(#paint6_linear_115_16577)"/>
<path d="M116.882 113.528C116.882 113.528 112.853 91.9395 125.454 80.7682C125.454 80.7682 121.274 85.6964 119.101 95.4119C118.363 98.746 118.521 109.311 118.521 109.311C118.521 109.311 123.232 82.9813 133.697 78.175C144.163 73.3686 153.741 89.3254 159.833 89.3842C165.926 89.443 170.393 94.3074 170.393 94.3074C170.393 94.3074 177.453 97.3985 180.469 103.188C183.485 108.977 189.905 131.337 189.905 131.337C189.905 131.337 180.684 112.426 172.02 107.688C172.02 107.688 164.746 98.5269 156.029 98.1956C156.029 98.1956 148.005 104.223 133.634 110.18C119.263 116.137 116.926 122.153 116.926 122.153C116.926 122.153 112.907 134.257 118.239 143.289C118.239 143.289 119.034 151.858 132.744 168.118C132.744 168.118 114.59 153.885 110.332 146.24C106.085 138.588 108.774 127.121 108.774 127.121C108.774 127.121 104.988 133.93 104.338 140.425C104.338 140.425 94.2809 133.613 114.52 118.846C115.597 118.064 116.747 115.918 116.882 113.528Z" fill="url(#paint7_linear_115_16577)"/>
<path d="M187.324 221.526C187.324 221.526 184.422 241.286 179.394 252.185C174.366 263.084 169.784 269.713 169.784 269.713C169.784 269.713 210.979 345.498 242.43 379.414L330.812 328.387C330.812 328.387 284.425 230.899 265.84 209.428C265.84 209.428 236.029 211.622 218.085 202.908L226.007 215.635C226.007 215.635 234.047 238.425 222.548 246.417C211.925 253.8 193.247 231.263 193.247 231.263L187.324 221.526Z" fill="url(#paint8_linear_115_16577)"/>
<path d="M184.628 217.075L179.793 218.471C179.793 218.471 180.398 234.084 175.803 248.876C172.319 260.075 164.947 262.165 157.818 276.617C157.818 276.617 192.39 307.118 210.87 341.254C210.87 341.254 225.5 361.912 240.463 380.546L334.773 325.267C334.773 325.267 325.793 295.532 311.718 270.294C311.718 270.294 289.204 219.879 289.041 196.03C271.33 196.631 261.551 202.829 246.588 203.487C231.625 204.144 215.199 193.697 215.199 193.697L213.577 196.247L218.093 202.915C218.093 202.915 231.656 208.27 240.299 215.753C250.853 224.896 304.281 343.716 304.281 343.716L267.923 363.878C267.923 363.878 194.052 257.777 189.263 246.498C184.485 235.213 187.313 221.543 187.313 221.543L184.628 217.075Z" fill="url(#paint9_linear_115_16577)"/>
<path d="M157.822 276.619L165.2 289.398L166.287 332.194C166.287 332.194 154.184 320.864 152.506 318.388C150.828 315.911 148.389 311.257 148.389 311.257L144.179 310.388L147.321 314.767C147.321 314.767 164.912 341.798 145.092 370.047C145.092 370.047 135.642 349.247 134.786 328.066L133.224 326.22C133.224 326.22 132.521 347.008 144.653 374.444L155.512 373.96C155.512 373.96 179.339 395.938 199.081 404.849L211.369 397.929C211.369 397.929 219.358 369.474 211.643 337.046C211.637 337.035 196.199 300.866 157.822 276.619Z" fill="url(#paint10_linear_115_16577)"/>
<path d="M118.653 215.267C118.653 215.267 118.444 236.322 120.053 243.112C121.656 249.892 129.224 259.857 129.165 263.191C129.165 263.191 124.972 277.911 125.53 281.456C126.082 284.99 135.866 299.359 135.866 299.359C136.685 309.484 129.144 317.139 129.144 317.139C129.144 317.139 113.467 291.909 112.825 291.452C112.192 290.988 104.712 290.291 104.712 290.291C101.353 287.549 98.0916 284.388 95.1021 281.2C91.5432 277.41 88.376 273.598 85.8783 270.403L85.872 270.392C82.2865 265.833 80.0714 262.561 80.0714 262.561L73.4223 252.764C70.9002 245.41 74.965 244.444 74.965 244.444C79.0841 250.425 83.704 255.012 83.704 255.012L84.023 254.276C80.0879 249.744 75.3029 242.316 75.3029 242.316C73.8195 235.743 78.9643 234.794 78.9643 234.794C83.9087 240.938 89.2044 246.967 89.2044 246.967C82.9806 238.901 75.9085 224.797 75.9085 224.797C79.8626 227.937 84.8633 225.878 84.8633 225.878C86.6713 231.158 93.3805 240.63 93.3805 240.63L93.9982 239.416C91.5523 234.388 89.2182 228.83 87.1241 223.439C82.4275 211.278 78.9863 199.89 78.4094 196.923C77.582 192.618 82.4434 193.62 82.4434 193.62C87.6964 199.688 91.2825 204.407 92.6932 208.433C92.6932 208.433 92.6967 208.417 92.6932 208.433C94.8524 214.616 93.0231 218.594 93.0231 218.594C93.0231 218.594 98.3101 232.885 99.7488 234.947C101.188 237.01 110.497 250.781 110.497 250.781C113.811 244.739 112.696 239.597 112.696 239.597C107.424 230.24 108.117 223.094 111.506 218.244C114.896 213.395 118.653 215.267 118.653 215.267Z" fill="url(#paint11_linear_115_16577)"/>
<path d="M135.81 163.094L136.222 164.644C136.222 164.644 144.83 162.48 148.519 154.055L135.81 163.094Z" fill="#FEB1C8"/>
<path d="M125.11 310.677C125.11 310.677 123.972 317.323 125.544 321.199C125.544 321.199 131.812 326.492 134.788 328.074L152.211 355.9C152.211 355.9 160.159 335.741 147.313 314.78C147.313 314.78 138.033 300.991 136.719 296.386L134.018 296.593L135.866 299.364C135.866 299.364 134.686 311.749 129.15 317.154L125.11 310.677Z" fill="url(#paint12_linear_115_16577)"/>
<path d="M149.585 123.955C149.585 123.955 147.001 117.873 148.312 115.328L149.585 123.955Z" fill="url(#paint13_linear_115_16577)"/>
<path d="M165.415 140.957C165.415 140.957 173.785 138.537 178.632 130.854L176.91 130.133C176.91 130.133 175.88 135.089 165.415 140.957Z" fill="#FEB1C8"/>
<path d="M124.171 149.083C121.66 156.449 137.014 170.22 137.014 170.22C137.014 170.22 151.017 166.046 152.704 153.34L146.466 142.535C146.466 142.535 146.418 137.997 153.604 134.183C153.604 134.183 162.139 143.153 166.613 146.764C166.613 146.764 181.347 143.04 182.672 129.889C182.672 129.889 177.265 119.258 171.316 116.078C165.361 112.887 149.592 123.954 149.592 123.954C149.592 123.954 147.725 129.698 137.032 134.767C137.038 134.778 125.803 144.288 124.171 149.083Z" fill="url(#paint14_linear_115_16577)"/>
<path d="M147.659 152.561C147.659 152.561 141.527 145.809 136.122 148.523C130.706 151.242 134.575 160.115 134.575 160.115L147.659 152.561Z" fill="url(#paint15_linear_115_16577)"/>
<path d="M163.412 139.639C163.412 139.639 158.094 130.745 162.57 126.082C167.052 121.43 173.464 127.221 173.464 127.221L163.412 139.639Z" fill="url(#paint16_linear_115_16577)"/>
<path d="M177.284 131.644C177.076 132.346 176.058 133.457 174.68 134.689C172.764 136.391 170.146 138.324 168.007 139.617C166.172 140.735 164.683 141.391 164.303 141.072C162.851 139.846 160.997 132.79 165.507 128.66C170.013 124.546 178.065 129.129 177.284 131.644Z" fill="#FFE4EC"/>
<path d="M148.58 153.617C148.694 153.972 148.268 154.727 147.493 155.669C145.949 157.563 143.041 160.216 140.384 161.924C139.299 162.624 138.256 163.168 137.365 163.435C134.376 164.318 132.593 156.842 136.628 152.681C137.157 152.128 137.752 151.712 138.385 151.405C138.401 151.41 138.411 151.405 138.414 151.388C140.05 150.603 141.927 150.552 143.614 150.872C143.639 150.872 143.672 150.882 143.694 150.898C146.202 151.398 148.297 152.719 148.58 153.617Z" fill="#FFE4EC"/>
<path d="M162.919 165.875C162.919 165.875 159.364 168.291 157.354 167.387C155.344 166.483 156.883 164.65 158.425 160.241C159.967 155.833 163.599 154.841 167.242 154.526C170.896 154.204 173.33 153.061 174.327 154.041C175.324 155.021 172.193 158.689 171.094 159.251C169.995 159.813 169.366 159.696 168.714 161.032C168.062 162.368 166.117 164.043 164.817 164.46C163.51 164.865 162.919 165.875 162.919 165.875Z" fill="#FEB1C8"/>
<path d="M168.71 161.033C168.71 161.033 168.518 159.298 169.899 158.704C171.289 158.105 172.86 157.59 172.86 157.59C172.86 157.59 171.478 160.263 168.71 161.033Z" fill="#D1A1C8"/>
<path d="M164.535 164.565C164.535 164.565 163.192 163.596 161.806 164.294C160.42 164.993 160.633 167.08 160.633 167.08C160.633 167.08 162.479 166.523 162.906 165.883C163.344 165.238 164.535 164.565 164.535 164.565Z" fill="#D1A1C8"/>
<path d="M165.757 150.602C165.757 150.602 170.52 147.068 174.319 154.033C174.325 154.044 171.159 148.967 165.757 150.602Z" fill="url(#paint17_linear_115_16577)"/>
<path d="M173.797 131.129C174.452 132.263 174.74 133.507 174.679 134.691C172.763 136.393 170.144 138.326 168.005 139.619C166.515 139.186 165.144 138.146 164.269 136.63C162.575 133.697 163.338 130.088 165.972 128.567C168.597 127.052 172.104 128.196 173.797 131.129Z" fill="#7F6186"/>
<path d="M146.727 153.641C147.105 154.295 147.356 154.978 147.494 155.669C145.95 157.564 143.042 160.217 140.385 161.925C139.106 161.428 137.966 160.472 137.198 159.142C135.618 156.405 136.176 153.074 138.386 151.406C138.402 151.411 138.412 151.405 138.415 151.389C138.575 151.282 138.726 151.18 138.892 151.084C140.351 150.242 142.085 150.215 143.614 150.873C143.64 150.872 143.673 150.883 143.695 150.899C144.903 151.408 145.984 152.354 146.727 153.641Z" fill="#7F6186"/>
<path d="M163.412 139.641C163.412 139.641 161.23 132.265 166.11 128.663C170.738 125.235 175.68 128.91 175.68 128.91C175.68 128.91 171.311 124.352 166.698 126.652C162.079 128.941 161.767 134.892 163.412 139.641Z" fill="#6C2A51"/>
<path d="M147.259 152.283C147.259 152.283 141.035 149.101 137.013 153.037C132.992 156.972 135.022 162.139 135.022 162.139C135.022 162.139 132.262 156.318 135.931 152.135C139.963 147.539 147.259 152.283 147.259 152.283Z" fill="#6C2A51"/>
<path d="M161.399 179.054C161.399 179.054 165.458 178.644 173.695 172.624C181.938 166.614 182.607 156.488 182.607 156.488C182.607 156.488 181.842 170.202 176.872 173.988C171.902 177.773 168.717 177.344 165.551 178.081C162.392 178.829 161.399 179.054 161.399 179.054Z" fill="#BF7988"/>
<path d="M170.293 175.446C170.293 175.446 174.318 176.131 176.795 173.524C179.272 170.916 179.596 166.818 179.596 166.818C179.596 166.818 176.226 171.904 170.293 175.446Z" fill="#FFE4EC"/>
<path d="M179.976 157.088C179.976 157.088 183.493 154.607 187.865 157.68C187.865 157.68 185.336 151.784 179.976 157.088Z" fill="url(#paint18_linear_115_16577)"/>
<path d="M174.829 178.48C174.829 178.48 180.062 176.665 182.446 171.771C182.446 171.771 184.086 177.438 181.383 179.406C178.696 181.379 174.829 178.48 174.829 178.48Z" fill="url(#paint19_linear_115_16577)"/>
<path d="M171.436 132.287C172.323 133.825 171.924 135.712 170.544 136.51C169.163 137.307 167.329 136.708 166.441 135.171C165.554 133.634 165.952 131.746 167.333 130.949C168.714 130.152 170.548 130.75 171.436 132.287Z" fill="url(#paint20_linear_115_16577)"/>
<path d="M144.217 154.545C145.104 156.083 144.706 157.97 143.325 158.767C141.944 159.565 140.11 158.966 139.222 157.429C138.335 155.891 138.734 154.004 140.114 153.207C141.495 152.409 143.336 153.019 144.217 154.545Z" fill="url(#paint21_linear_115_16577)"/>
<path d="M170.669 131.963C170.669 131.963 172.222 129.496 174.748 130.568L170.669 131.963Z" fill="white"/>
<path d="M142.943 154.529C142.943 154.529 144.425 152.278 146.776 152.709L142.943 154.529Z" fill="white"/>
<path d="M150.098 188.679C157.835 194.911 167.762 198.716 177.765 196.75C183.819 195.566 194.997 186.612 198.839 179.742C205.974 166.973 201.419 154.222 201.419 154.222C201.419 154.222 206.039 160.64 201.679 178.102L211.245 193.79C211.245 193.79 204.754 209.459 200.819 214.856C196.894 220.248 180.631 210.535 180.631 210.535L173.192 198.329C173.196 198.312 159.604 198.63 150.098 188.679Z" fill="#E392AD"/>
<path d="M149.681 123.886C149.681 123.886 147.699 115.886 152.929 112.663L150.189 122.211C150.189 122.211 152.91 114.214 158.709 112.248C158.709 112.248 164.835 111.008 171.313 116.077C171.319 116.088 160.126 116.852 149.681 123.886Z" fill="url(#paint22_linear_115_16577)"/>
<path d="M137.035 134.779C137.035 134.779 133.729 130.117 129.693 130.136L135.528 133.934C135.528 133.934 131.359 132.343 129.479 132.818C127.582 133.288 122.819 139.512 124.174 149.096C124.168 149.085 129.905 140.771 137.035 134.779Z" fill="url(#paint23_linear_115_16577)"/>
<path d="M123.674 115.393C127.648 112.009 127.028 89.5858 135.548 82.835C144.068 76.0842 156.675 91.9937 156.38 95.4639C156.076 98.9397 145.735 104.459 145.735 104.459C145.735 104.459 132.99 110.858 128.816 112.381C124.642 113.904 123.674 115.393 123.674 115.393Z" fill="#E392AD"/>
<path d="M158.859 98.6289C158.859 98.6289 167.71 97.7204 174.08 100.454C180.441 103.193 183.46 110.797 183.46 110.797L185.593 117.227C185.599 117.238 177.336 98.3125 158.859 98.6289Z" fill="url(#paint24_linear_115_16577)"/>
<path d="M116.401 123.983C116.401 123.983 105.853 140.86 118.393 155.703L123.336 160.263C123.327 160.269 109.557 143.882 116.401 123.983Z" fill="url(#paint25_linear_115_16577)"/>
<path d="M116.89 122.163C116.89 122.163 108.323 129.668 108.504 141.266C108.51 141.277 106.271 129.122 116.89 122.163Z" fill="url(#paint26_linear_115_16577)"/>
<path d="M124.55 114.218C124.55 114.218 126.766 101.003 138.724 96.0471C150.693 91.0852 158.366 98.925 158.366 98.925C158.366 98.925 149.361 86.1552 137.459 90.1919C125.551 94.2177 124.55 114.218 124.55 114.218Z" fill="url(#paint27_linear_115_16577)"/>
<path d="M160.352 89.9297C160.352 89.9297 172.267 87.6586 178.209 96.9777C178.209 96.9777 174.856 84.7686 160.352 89.9297Z" fill="url(#paint28_linear_115_16577)"/>
<path d="M156.4 158.027C156.416 160.271 159.674 155.759 163.079 154.171C166.494 152.577 166.474 153.199 166.125 152.368C165.766 151.543 161.305 149.583 158.722 151.758C156.145 153.943 156.393 156.839 156.4 158.027Z" fill="#E7ECFF"/>
<path d="M164.819 164.464C164.819 164.464 161.657 164.822 158.292 161.618L157.092 163.677C157.092 163.677 160.33 166.053 164.819 164.464Z" fill="url(#paint29_linear_115_16577)"/>
<path d="M144.32 141.678C141.566 139.939 128.935 145.924 126.388 158.021C125.331 163.066 135.785 174.344 142.182 175.245C148.571 176.136 155.752 169.373 154.367 160.505C152.991 151.632 147.074 143.418 144.32 141.678ZM146.295 172.871C139.62 176.259 128.458 166.741 128.343 159.509C128.195 150.363 139.741 141.211 143.82 144.86C160.775 160.047 151.544 170.203 146.295 172.871Z" fill="#FFB8CB"/>
<path d="M154.861 132.118C154.231 128.789 164.258 116.167 176.495 117.258C181.592 117.717 188.772 132.776 187.012 140.131C185.417 146.823 176.649 152.103 168.845 148.017C161.041 143.931 155.49 135.448 154.861 132.118ZM183.305 143.594C188.879 137.846 183.885 122.005 177.175 119.701C168.686 116.78 156.069 127.336 158.013 132.581C166.108 154.381 178.928 148.113 183.305 143.594Z" fill="#FFB8CB"/>
<path d="M144.061 141.22C141.395 139.634 128.802 145.683 125.965 157.28C124.788 162.117 134.771 172.577 141.035 173.25C147.299 173.922 154.555 167.29 153.434 158.88C152.323 150.464 146.727 142.807 144.061 141.22ZM145.154 170.886C138.492 174.296 127.764 165.53 127.851 158.647C127.954 149.938 139.57 140.905 143.485 144.271C159.754 158.27 150.391 168.196 145.154 170.886Z" fill="url(#paint30_linear_115_16577)"/>
<path d="M154.689 131.825C154.16 128.67 164.376 116.376 176.393 117.084C181.395 117.38 188.052 131.534 186.122 138.595C184.371 145.014 175.596 150.284 168.025 146.601C160.454 142.918 155.218 134.98 154.689 131.825ZM182.372 141.981C188.015 136.354 183.531 121.395 176.99 119.385C168.709 116.825 156.01 127.239 157.779 132.178C165.155 152.735 177.938 146.402 182.372 141.981Z" fill="url(#paint31_linear_115_16577)"/>
<path d="M146.893 144.436C146.893 144.436 151.689 137.815 158.332 137.018L156.219 134.196C156.219 134.196 149.464 134.957 145.35 142.26L146.893 144.436Z" fill="url(#paint32_linear_115_16577)"/>
<path d="M183.231 121.307L188.146 125.477L189.914 123.089L181.228 115.326L183.231 121.307Z" fill="url(#paint33_linear_115_16577)"/>
<path d="M126.669 160.854L124.721 163.157L127.284 165.878L129.43 165.366L126.669 160.854Z" fill="#5143A1"/>
<path d="M184.434 120.339L182.228 122.238L178.073 117.644L181.238 115.323L184.434 120.339Z" fill="#5143A1"/>
<path d="M161.005 137.05C161.005 137.05 164.876 145.791 174.068 145.79C174.068 145.79 179.012 144.651 182.728 140.209L171.606 130.173L161.005 137.05Z" fill="#5CF1FF"/>
<path d="M130.013 161.628C130.013 161.628 134.051 170.273 141.989 170.996C141.989 170.996 146.169 170.298 149.033 166.348L138.636 155.893L130.013 161.628Z" fill="#5CF1FF"/>
<path d="M149.988 148.657C149.988 148.657 152.02 141.48 159.835 140.835L157.892 138.918C157.892 138.918 150.996 138.96 148.313 146.005L149.988 148.657Z" fill="#FEB1C8"/>
<path d="M197.87 146.762C197.87 146.762 199.852 146.214 201.06 147.29C202.279 148.36 200.255 151.549 200.255 151.549L197.87 146.762Z" fill="#FEB1C8"/>
<path d="M145.338 183.25C145.338 183.25 144.788 186.752 145.546 187.477C146.314 188.197 148.667 187.071 148.667 187.071L145.338 183.25Z" fill="#FEB1C8"/>
<path d="M124.556 114.22C124.556 114.22 129.345 108.198 139.191 105.712C149.037 103.226 147.518 111.27 147.518 111.27C147.518 111.27 138.644 101.914 124.556 114.22Z" fill="url(#paint34_linear_115_16577)"/>
<path d="M131.335 79.531C131.335 79.531 134.742 79.4392 135.22 83.1173C135.22 83.1173 137.24 80.7589 141.236 81.2575C141.236 81.2575 139.039 80.0981 137.288 80.4116C135.543 80.7359 133.842 78.0836 133.842 78.0836C133.842 78.0836 132.37 78.4531 131.335 79.531Z" fill="white"/>
<path d="M137.897 90.0428C139.355 90.4656 139.159 95.8705 139.159 95.8705L144.041 94.5785C144.041 94.5785 141.611 93.8299 140.93 92.3333C140.255 90.8476 141.487 89.4091 141.487 89.4091L137.897 90.0428Z" fill="white"/>
<path d="M186.507 230.076C186.507 230.076 207.16 261.461 225.649 252.458C246.276 242.41 231.501 214.377 222.669 204.779C235.922 219.254 244.701 241.967 226.529 253.055C207.883 264.431 186.507 230.076 186.507 230.076Z" fill="#E392AD"/>
<path d="M187.325 221.52C187.325 221.52 204.562 252.666 220.734 242.545C236.3 232.801 222.504 209.99 222.504 209.99L226.001 215.618C226.001 215.618 235.074 241.985 221.425 247.045C207.799 252.12 191.63 230.243 187.325 221.52Z" fill="#E392AD"/>
<path d="M174.836 198.395C174.836 198.395 208.142 234.235 211.57 235.265C215.008 236.289 184.902 197.759 184.902 197.759L174.836 198.395Z" fill="url(#paint35_linear_115_16577)"/>
<path d="M213.583 196.214L214.108 194.297C214.108 194.297 231.901 205.438 240.332 213.189C248.764 220.94 306.47 342.422 306.47 342.422L295.921 348.032C295.921 348.032 267.512 273.225 253.91 245.097C240.308 216.969 218.099 202.882 218.099 202.882L213.583 196.214Z" fill="#E392AD"/>
<path d="M276.004 359.708C276.004 359.708 199.301 260.824 192.237 246.44C185.166 232.044 187.339 221.515 187.339 221.515L184.632 217.074L179.797 218.47C179.797 218.47 184.007 239.038 188.383 248.766C192.76 258.495 265.01 366.041 265.01 366.041L275.998 359.697L276.004 359.708Z" fill="#E392AD"/>
<path d="M176.655 244.939C176.655 244.939 174.034 262.066 171.068 274.071C171.068 274.071 175.94 278.236 186.955 274.45L184.71 289.513C184.71 289.513 225.961 341.715 256.867 371.25L265.006 366.057C265.006 366.057 195.328 262.536 188.379 248.782C181.431 235.029 179.793 218.486 179.793 218.486C179.793 218.486 178.973 231.36 176.655 244.939Z" fill="url(#paint36_linear_115_16577)"/>
<path d="M215.203 193.684C215.203 193.684 236.43 206.07 250.588 203.158L274.443 214.013C274.443 214.013 277.937 220.268 265.48 231.69L281.451 238.432C281.451 238.432 305.729 294.211 313.135 337.953L306.468 342.442C306.468 342.442 254.887 229.738 241.796 214.98C228.709 200.206 215.203 193.684 215.203 193.684Z" fill="url(#paint37_linear_115_16577)"/>
<path d="M190.517 236.933C190.517 236.933 211.304 274.157 241.848 287.008L190.517 236.933Z" fill="url(#paint38_linear_115_16577)"/>
<path d="M234.93 216.126C234.93 216.126 254.325 240.763 240.43 270.883C240.43 270.883 245.542 243.101 234.93 216.126Z" fill="url(#paint39_linear_115_16577)"/>
<path d="M135.241 337.995L151.044 359.124C151.044 359.124 161.635 340.288 147.309 314.774C147.309 314.774 155.003 333.098 148.075 347.943L134.785 328.067L133.209 327.102L135.241 337.995Z" fill="#E392AD"/>
<path d="M129.136 317.134L125.959 320.204C125.959 320.204 124.954 316.743 125.783 311.758L129.136 317.134Z" fill="#E392AD"/>
<path d="M91.8653 208.907C94.0244 215.089 93.0177 218.593 93.0177 218.593C93.0177 218.593 98.3047 232.884 99.7435 234.946C92.123 241.875 84.0974 255.973 83.7146 261.326C83.371 266.249 93.283 278.917 94.8778 280.933L85.8729 270.402L85.8666 270.391C82.2812 265.832 80.066 262.56 80.066 262.56L73.417 252.763C70.8948 245.409 74.9596 244.443 74.9596 244.443C79.0787 250.424 83.6987 255.011 83.6987 255.011L84.0177 254.275C80.0825 249.743 75.2975 242.315 75.2975 242.315C73.8141 235.742 78.9589 234.793 78.9589 234.793C83.9034 240.937 89.199 246.965 89.199 246.965C82.9752 238.899 75.9031 224.796 75.9031 224.796C79.8572 227.935 84.8579 225.877 84.8579 225.877C86.666 231.157 93.3751 240.629 93.3751 240.629L93.9928 239.415C91.5469 234.387 89.2129 228.829 87.1188 223.438C92.9786 218.005 91.9345 209.434 91.8653 208.907Z" fill="url(#paint40_linear_115_16577)"/>
<path d="M75.9057 224.793L87.6297 204.097C87.6297 204.097 100.989 213.35 84.8605 225.874C84.8542 225.863 80.1898 230.359 75.9057 224.793Z" fill="url(#paint41_linear_115_16577)"/>
<path d="M75.2017 237.618L82.0984 221.294C82.0984 221.294 87.4229 224.093 87.3164 229.563C87.2316 234.278 82.2699 241.606 76.0444 243.398C76.057 243.419 73.9292 241.362 75.2017 237.618Z" fill="url(#paint42_linear_115_16577)"/>
<path d="M74.5015 244.433L84.7877 237.258C84.7877 237.258 88.9858 243.557 83.8633 247.576C78.3708 251.881 73.3471 251.932 73.3471 251.932C73.3471 251.932 70.096 247.5 74.5015 244.433Z" fill="url(#paint43_linear_115_16577)"/>
<path d="M83.4763 211.425C81.8422 214.317 85.5825 211.59 86.9332 209.429C86.9332 209.429 86.4612 206.373 87.6294 204.099L83.4763 211.425Z" fill="white"/>
<path d="M82.1065 221.305C82.1065 221.305 80.0436 225.942 80.9144 228.739C80.9144 228.739 77.7686 234.146 77.989 231.678C78.2032 229.2 82.1065 221.305 82.1065 221.305Z" fill="white"/>
<path d="M84.7742 237.249C84.7742 237.249 82.3267 238.212 82.2636 242.173C82.2636 242.173 78.2065 244.894 78.0981 242.965C77.9897 241.036 84.7742 237.249 84.7742 237.249Z" fill="white"/>
<path d="M129.161 263.188C129.161 263.188 121.513 278.798 120.804 284.717C120.095 290.636 120.196 292.235 120.196 292.235L125.51 281.447C125.52 281.442 126.485 274.837 129.161 263.188Z" fill="url(#paint44_linear_115_16577)"/>
<path d="M110.494 250.778C110.494 250.778 100.79 259.186 108.281 273.586C108.281 273.586 96.6897 253.645 109.805 249.765L110.494 250.778Z" fill="url(#paint45_linear_115_16577)"/>
<path opacity="0.5" d="M112.693 239.593C114.921 241.665 118.876 230.717 118.876 230.717C118.876 230.717 118.111 243.211 123.77 251.792C123.77 251.792 118.889 247.181 114.221 249.048C109.543 250.919 106.947 255.922 106.947 255.922C106.947 255.922 108.349 252.99 110.5 250.789C110.493 250.778 113.528 244.839 112.693 239.593Z" fill="url(#paint46_linear_115_16577)"/>
<path d="M127.204 314.079C127.204 314.079 134.087 308.724 135.86 299.356C135.86 299.356 135.358 310.2 129.144 317.146L127.204 314.079Z" fill="#FEB1C8"/>
<path opacity="0.8" d="M165.192 289.385C165.192 289.385 187.249 306.307 204.03 329.402C204.03 329.402 184.518 291.355 157.82 276.617L165.192 289.385Z" fill="url(#paint47_linear_115_16577)"/>
<path opacity="0.8" d="M166.283 332.194C166.283 332.194 187.705 341.865 199.651 360.86C199.651 360.86 186.309 329.18 166.246 330.66L166.283 332.194Z" fill="url(#paint48_linear_115_16577)"/>
<path opacity="0.8" d="M144.65 374.428C144.65 374.428 159.428 362.596 158.155 337.977C158.155 337.977 168.445 361.228 155.493 373.939L144.65 374.428Z" fill="url(#paint49_linear_115_16577)"/>
<path opacity="0.8" d="M152.508 318.391C152.508 318.391 171.693 342.845 185.868 361.381C200.033 379.923 200.475 383.244 200.475 383.244C200.475 383.244 195.388 371.469 181.894 352.35C168.398 333.248 152.508 318.391 152.508 318.391Z" fill="url(#paint50_linear_115_16577)"/>
<path d="M210.865 341.247L199.031 322.492C199.031 322.492 231.692 366.511 250.32 374.757L252.268 370.42C252.268 370.42 231.77 346.201 213.263 324.074L256.874 371.25L240.467 380.533C240.457 380.539 219.597 353.476 210.865 341.247Z" fill="#E392AD"/>
<path d="M186.961 274.435C186.961 274.435 190.313 262.396 194.228 258.639C194.218 258.644 189.841 266.216 186.961 274.435Z" fill="#E392AD"/>
<path opacity="0.5" d="M238.137 266.904L231.181 386.481L277.551 359.709L278.964 243.332C278.964 243.332 253.58 255.182 238.137 266.904Z" fill="white"/>
<path d="M171.068 274.059C171.068 274.059 174.408 281.653 186.373 278.336L187.458 272.752C187.454 272.768 180.524 275.578 171.068 274.059Z" fill="#E392AD"/>
<path opacity="0.5" d="M179.432 223.027C179.432 223.027 182.21 237.88 185.271 249.604C188.332 261.328 177.004 269.525 177.004 269.525C177.004 269.525 176.687 238.874 179.432 223.027Z" fill="url(#paint51_linear_115_16577)"/>
<path d="M103.594 289.359L115.136 289.833L112.817 291.448L104.705 290.288L103.594 289.359Z" fill="#FEB1C8"/>
<path opacity="0.5" d="M92.5528 265.775C91.3526 259.49 99.5098 246.276 102.861 245.838C106.203 245.407 109.312 252.625 109.312 252.625C109.312 252.625 102.58 257.587 107.182 271.46C107.182 271.46 106.069 277.38 102.433 276.557C98.8108 275.755 92.5528 265.775 92.5528 265.775Z" fill="url(#paint52_linear_115_16577)"/>
<path opacity="0.2" d="M157.819 276.62C157.819 276.62 163.504 280.112 167.57 283.376C167.57 283.376 169.642 274.257 170.799 268.254C171.962 262.261 171.278 257.684 171.278 257.684C166.851 263.089 159.138 271.758 157.819 276.62Z" fill="white"/>
<path d="M152.634 121.938C152.634 121.938 154.514 114.994 161.687 112.176C161.681 112.165 157.153 115.201 152.634 121.938Z" fill="url(#paint53_linear_115_16577)"/>
<path d="M154.676 120.754C154.676 120.754 160.719 113.602 166.716 113.382C166.716 113.382 160.048 114.905 154.676 120.754Z" fill="url(#paint54_linear_115_16577)"/>
<path d="M136.626 135.129C136.626 135.129 130.112 132.711 126.843 135.282L136.626 135.129Z" fill="url(#paint55_linear_115_16577)"/>
<path d="M135.597 136.035C135.597 136.035 127.256 134.614 124.509 140.779C124.515 140.79 127.372 136.218 135.597 136.035Z" fill="url(#paint56_linear_115_16577)"/>
<path d="M85.9912 224.945C85.9912 224.945 84.7588 222.517 82.0938 221.293C82.0938 221.293 84.4776 221.283 86.7718 224.262L85.9912 224.945Z" fill="url(#paint57_linear_115_16577)"/>
<path d="M83.8307 237.778L76.0466 243.406C76.0529 243.417 78.0193 240.581 83.8307 237.778Z" fill="url(#paint58_linear_115_16577)"/>
<defs>
<linearGradient id="paint0_linear_115_16577" x1="187.002" y1="197.316" x2="131.772" y2="101.655" gradientUnits="userSpaceOnUse">
<stop stop-color="#FFB595"/>
<stop offset="0.984" stop-color="#FFC2A9"/>
</linearGradient>
<linearGradient id="paint1_linear_115_16577" x1="225.196" y1="250.975" x2="187.758" y2="186.129" gradientUnits="userSpaceOnUse">
<stop offset="0.016" stop-color="#FFA67F"/>
<stop offset="1" stop-color="#FF8B7C"/>
</linearGradient>
<linearGradient id="paint2_linear_115_16577" x1="153.38" y1="136.08" x2="134.742" y2="103.799" gradientUnits="userSpaceOnUse">
<stop offset="0.016" stop-color="white"/>
<stop offset="0.9916" stop-color="#F29DC8"/>
</linearGradient>
<linearGradient id="paint3_linear_115_16577" x1="204.877" y1="148.879" x2="189.644" y2="122.496" gradientUnits="userSpaceOnUse">
<stop offset="0.016" stop-color="#FFA67F"/>
<stop offset="1" stop-color="#FF8B7C"/>
</linearGradient>
<linearGradient id="paint4_linear_115_16577" x1="143.522" y1="190.04" x2="129.698" y2="166.096" gradientUnits="userSpaceOnUse">
<stop offset="0.016" stop-color="#FFA67F"/>
<stop offset="1" stop-color="#FF8B7C"/>
</linearGradient>
<linearGradient id="paint5_linear_115_16577" x1="201.694" y1="143.493" x2="192.504" y2="127.575" gradientUnits="userSpaceOnUse">
<stop offset="0.016" stop-color="white"/>
<stop offset="0.9916" stop-color="#F29DC8"/>
</linearGradient>
<linearGradient id="paint6_linear_115_16577" x1="140.698" y1="184.906" x2="132.612" y2="170.902" gradientUnits="userSpaceOnUse">
<stop offset="0.016" stop-color="white"/>
<stop offset="0.9916" stop-color="#F29DC8"/>
</linearGradient>
<linearGradient id="paint7_linear_115_16577" x1="165.757" y1="151.592" x2="114.226" y2="90.1813" gradientUnits="userSpaceOnUse">
<stop stop-color="#3E2987"/>
<stop offset="0.5684" stop-color="#2C2F90"/>
<stop offset="1" stop-color="#243294"/>
</linearGradient>
<linearGradient id="paint8_linear_115_16577" x1="285.203" y1="354.71" x2="202.688" y2="211.79" gradientUnits="userSpaceOnUse">
<stop stop-color="#FF6686"/>
<stop offset="1" stop-color="#FF7C89"/>
</linearGradient>
<linearGradient id="paint9_linear_115_16577" x1="290.141" y1="351.855" x2="202.911" y2="200.77" gradientUnits="userSpaceOnUse">
<stop stop-color="#2B2583"/>
<stop offset="1" stop-color="#482C97"/>
</linearGradient>
<linearGradient id="paint10_linear_115_16577" x1="204.909" y1="401.642" x2="139" y2="287.484" gradientUnits="userSpaceOnUse">
<stop stop-color="#26258A"/>
<stop offset="1" stop-color="#3C2C95"/>
</linearGradient>
<linearGradient id="paint11_linear_115_16577" x1="140.306" y1="310.691" x2="74.5239" y2="196.752" gradientUnits="userSpaceOnUse">
<stop offset="0.016" stop-color="#FFC2A0"/>
<stop offset="1" stop-color="#FFA195"/>
</linearGradient>
<linearGradient id="paint12_linear_115_16577" x1="156.797" y1="353.241" x2="126.566" y2="300.878" gradientUnits="userSpaceOnUse">
<stop stop-color="#FF6686"/>
<stop offset="1" stop-color="#FF7C89"/>
</linearGradient>
<linearGradient id="paint13_linear_115_16577" x1="147.564" y1="120.446" x2="150.347" y2="118.84" gradientUnits="userSpaceOnUse">
<stop stop-color="#8453B8"/>
<stop offset="0.2307" stop-color="#7755BA"/>
<stop offset="0.6978" stop-color="#6157BC"/>
<stop offset="1" stop-color="#5958BD"/>
</linearGradient>
<linearGradient id="paint14_linear_115_16577" x1="161.85" y1="156.514" x2="144.572" y2="126.588" gradientUnits="userSpaceOnUse">
<stop offset="0.016" stop-color="white"/>
<stop offset="0.9916" stop-color="#F29DC8"/>
</linearGradient>
<linearGradient id="paint15_linear_115_16577" x1="132.261" y1="156.099" x2="145.346" y2="148.545" gradientUnits="userSpaceOnUse">
<stop offset="0.016" stop-color="white"/>
<stop offset="0.9916" stop-color="#EA9DC8"/>
</linearGradient>
<linearGradient id="paint16_linear_115_16577" x1="160.311" y1="134.266" x2="173.232" y2="126.806" gradientUnits="userSpaceOnUse">
<stop offset="0.016" stop-color="white"/>
<stop offset="0.9916" stop-color="#EA9DC8"/>
</linearGradient>
<linearGradient id="paint17_linear_115_16577" x1="167.571" y1="153.74" x2="172.509" y2="150.889" gradientUnits="userSpaceOnUse">
<stop offset="0.016" stop-color="white"/>
<stop offset="0.9916" stop-color="#EA9DC8"/>
</linearGradient>
<linearGradient id="paint18_linear_115_16577" x1="181.003" y1="158.857" x2="186.681" y2="155.578" gradientUnits="userSpaceOnUse">
<stop offset="0.016" stop-color="white"/>
<stop offset="0.9916" stop-color="#F29DC8"/>
</linearGradient>
<linearGradient id="paint19_linear_115_16577" x1="181.191" y1="179.545" x2="178.14" y2="174.259" gradientUnits="userSpaceOnUse">
<stop offset="0.016" stop-color="white"/>
<stop offset="0.9916" stop-color="#F29DC8"/>
</linearGradient>
<linearGradient id="paint20_linear_115_16577" x1="170.546" y1="136.502" x2="167.338" y2="130.946" gradientUnits="userSpaceOnUse">
<stop offset="0.016" stop-color="#E0B3D1"/>
<stop offset="0.9916" stop-color="#C2798B"/>
</linearGradient>
<linearGradient id="paint21_linear_115_16577" x1="143.33" y1="158.765" x2="140.122" y2="153.209" gradientUnits="userSpaceOnUse">
<stop offset="0.016" stop-color="#E0B3D1"/>
<stop offset="0.9916" stop-color="#C2798B"/>
</linearGradient>
<linearGradient id="paint22_linear_115_16577" x1="161.512" y1="121.744" x2="155.436" y2="111.219" gradientUnits="userSpaceOnUse">
<stop stop-color="#B877B8"/>
<stop offset="0.2337" stop-color="#9A6DBA"/>
<stop offset="0.5605" stop-color="#7762BB"/>
<stop offset="0.8276" stop-color="#615BBD"/>
<stop offset="1" stop-color="#5958BD"/>
</linearGradient>
<linearGradient id="paint23_linear_115_16577" x1="132.092" y1="144.516" x2="125.264" y2="132.688" gradientUnits="userSpaceOnUse">
<stop stop-color="#B877B8"/>
<stop offset="0.2337" stop-color="#9A6DBA"/>
<stop offset="0.5605" stop-color="#7762BB"/>
<stop offset="0.8276" stop-color="#615BBD"/>
<stop offset="1" stop-color="#5958BD"/>
</linearGradient>
<linearGradient id="paint24_linear_115_16577" x1="166.236" y1="111.395" x2="179.549" y2="103.709" gradientUnits="userSpaceOnUse">
<stop offset="0.016" stop-color="white"/>
<stop offset="0.9916" stop-color="#C2798B"/>
</linearGradient>
<linearGradient id="paint25_linear_115_16577" x1="112.493" y1="146.376" x2="125.119" y2="139.086" gradientUnits="userSpaceOnUse">
<stop offset="0.00837989" stop-color="#C2798B"/>
<stop offset="0.984" stop-color="white"/>
</linearGradient>
<linearGradient id="paint26_linear_115_16577" x1="105.417" y1="135.927" x2="119.982" y2="127.517" gradientUnits="userSpaceOnUse">
<stop offset="0.00837989" stop-color="#C2798B"/>
<stop offset="0.984" stop-color="white"/>
</linearGradient>
<linearGradient id="paint27_linear_115_16577" x1="144.551" y1="110.508" x2="131.045" y2="94.4124" gradientUnits="userSpaceOnUse">
<stop stop-color="#3E2987"/>
<stop offset="0.5684" stop-color="#2C2F90"/>
<stop offset="1" stop-color="#243294"/>
</linearGradient>
<linearGradient id="paint28_linear_115_16577" x1="172.538" y1="99.7382" x2="166.33" y2="87.0114" gradientUnits="userSpaceOnUse">
<stop stop-color="#3E2987"/>
<stop offset="0.5684" stop-color="#2C2F90"/>
<stop offset="1" stop-color="#243294"/>
</linearGradient>
<linearGradient id="paint29_linear_115_16577" x1="157.932" y1="165.134" x2="163.388" y2="161.984" gradientUnits="userSpaceOnUse">
<stop offset="0.016" stop-color="white"/>
<stop offset="0.9916" stop-color="#D172A6"/>
</linearGradient>
<linearGradient id="paint30_linear_115_16577" x1="147.816" y1="171.396" x2="132.839" y2="145.454" gradientUnits="userSpaceOnUse">
<stop stop-color="#26258A"/>
<stop offset="1" stop-color="#3C2C95"/>
</linearGradient>
<linearGradient id="paint31_linear_115_16577" x1="182.188" y1="144.469" x2="161.862" y2="122.051" gradientUnits="userSpaceOnUse">
<stop stop-color="#26258A"/>
<stop offset="1" stop-color="#3C2C95"/>
</linearGradient>
<linearGradient id="paint32_linear_115_16577" x1="152.682" y1="141.094" x2="150.152" y2="136.71" gradientUnits="userSpaceOnUse">
<stop stop-color="#26258A"/>
<stop offset="1" stop-color="#3C2C95"/>
</linearGradient>
<linearGradient id="paint33_linear_115_16577" x1="188.388" y1="125.344" x2="182.257" y2="114.725" gradientUnits="userSpaceOnUse">
<stop stop-color="#26258A"/>
<stop offset="1" stop-color="#3C2C95"/>
</linearGradient>
<linearGradient id="paint34_linear_115_16577" x1="140.663" y1="117.021" x2="132.462" y2="107.247" gradientUnits="userSpaceOnUse">
<stop stop-color="#3E2987"/>
<stop offset="0.5684" stop-color="#2C2F90"/>
<stop offset="1" stop-color="#243294"/>
</linearGradient>
<linearGradient id="paint35_linear_115_16577" x1="206.063" y1="238.57" x2="180.862" y2="194.921" gradientUnits="userSpaceOnUse">
<stop offset="0.016" stop-color="white"/>
<stop offset="0.9916" stop-color="#F29DC8"/>
</linearGradient>
<linearGradient id="paint36_linear_115_16577" x1="249.916" y1="375.263" x2="164.495" y2="227.311" gradientUnits="userSpaceOnUse">
<stop stop-color="#38328A"/>
<stop offset="1" stop-color="#5C43A2"/>
</linearGradient>
<linearGradient id="paint37_linear_115_16577" x1="320.247" y1="334.477" x2="233.017" y2="183.392" gradientUnits="userSpaceOnUse">
<stop stop-color="#38328A"/>
<stop offset="1" stop-color="#5C43A2"/>
</linearGradient>
<linearGradient id="paint38_linear_115_16577" x1="233.432" y1="291.858" x2="198.919" y2="232.079" gradientUnits="userSpaceOnUse">
<stop offset="0.016" stop-color="white"/>
<stop offset="0.9916" stop-color="#EA8CC1"/>
</linearGradient>
<linearGradient id="paint39_linear_115_16577" x1="250.338" y1="265.157" x2="225.254" y2="221.71" gradientUnits="userSpaceOnUse">
<stop offset="0.016" stop-color="white"/>
<stop offset="0.9916" stop-color="#EA8CC1"/>
</linearGradient>
<linearGradient id="paint40_linear_115_16577" x1="107.392" y1="273.704" x2="75.4509" y2="218.381" gradientUnits="userSpaceOnUse">
<stop offset="0.00837989" stop-color="#EA9DC8"/>
<stop offset="0.984" stop-color="#FFDBD6"/>
</linearGradient>
<linearGradient id="paint41_linear_115_16577" x1="88.0587" y1="224.189" x2="79.2483" y2="208.929" gradientUnits="userSpaceOnUse">
<stop stop-color="#FFB595"/>
<stop offset="0.984" stop-color="#FFC290"/>
</linearGradient>
<linearGradient id="paint42_linear_115_16577" x1="83.9119" y1="239.284" x2="75.6734" y2="225.015" gradientUnits="userSpaceOnUse">
<stop stop-color="#FFB595"/>
<stop offset="0.984" stop-color="#FFC290"/>
</linearGradient>
<linearGradient id="paint43_linear_115_16577" x1="81.6586" y1="249.1" x2="77.3095" y2="241.567" gradientUnits="userSpaceOnUse">
<stop stop-color="#FFB595"/>
<stop offset="0.984" stop-color="#FFC290"/>
</linearGradient>
<linearGradient id="paint44_linear_115_16577" x1="129.851" y1="286.659" x2="119.516" y2="268.759" gradientUnits="userSpaceOnUse">
<stop offset="0.016" stop-color="white"/>
<stop offset="0.9916" stop-color="#EA9DC8"/>
</linearGradient>
<linearGradient id="paint45_linear_115_16577" x1="114.052" y1="270.255" x2="103.965" y2="252.783" gradientUnits="userSpaceOnUse">
<stop offset="0.016" stop-color="white"/>
<stop offset="0.9916" stop-color="#EA9DC8"/>
</linearGradient>
<linearGradient id="paint46_linear_115_16577" x1="119.293" y1="254.372" x2="108.942" y2="236.444" gradientUnits="userSpaceOnUse">
<stop offset="0.00837989" stop-color="#EA9DC8"/>
<stop offset="0.984" stop-color="white"/>
</linearGradient>
<linearGradient id="paint47_linear_115_16577" x1="175.028" y1="306.414" x2="186.908" y2="299.555" gradientUnits="userSpaceOnUse">
<stop offset="0.00837989" stop-color="#C2798B"/>
<stop offset="0.984" stop-color="white"/>
</linearGradient>
<linearGradient id="paint48_linear_115_16577" x1="193.534" y1="364.386" x2="172.104" y2="327.269" gradientUnits="userSpaceOnUse">
<stop offset="0.016" stop-color="white"/>
<stop offset="0.9916" stop-color="#C2798B"/>
</linearGradient>
<linearGradient id="paint49_linear_115_16577" x1="139.697" y1="365.858" x2="165.612" y2="350.895" gradientUnits="userSpaceOnUse">
<stop offset="0.00837989" stop-color="#C2798B"/>
<stop offset="0.984" stop-color="white"/>
</linearGradient>
<linearGradient id="paint50_linear_115_16577" x1="196.74" y1="385.404" x2="156.664" y2="315.99" gradientUnits="userSpaceOnUse">
<stop offset="0.016" stop-color="white"/>
<stop offset="0.9916" stop-color="#C2798B"/>
</linearGradient>
<linearGradient id="paint51_linear_115_16577" x1="187.988" y1="263.192" x2="168.458" y2="229.365" gradientUnits="userSpaceOnUse">
<stop offset="0.016" stop-color="white"/>
<stop offset="0.9916" stop-color="#C2798B"/>
</linearGradient>
<linearGradient id="paint52_linear_115_16577" x1="109.263" y1="273.5" x2="95.6113" y2="249.855" gradientUnits="userSpaceOnUse">
<stop offset="0.016" stop-color="white"/>
<stop offset="0.9916" stop-color="#F29DC8"/>
</linearGradient>
<linearGradient id="paint53_linear_115_16577" x1="151.609" y1="120.161" x2="162.63" y2="113.798" gradientUnits="userSpaceOnUse">
<stop offset="0.00837989" stop-color="#F29DC8"/>
<stop offset="0.984" stop-color="white"/>
</linearGradient>
<linearGradient id="paint54_linear_115_16577" x1="154.292" y1="120.094" x2="166.516" y2="113.037" gradientUnits="userSpaceOnUse">
<stop offset="0.00837989" stop-color="#F29DC8"/>
<stop offset="0.984" stop-color="white"/>
</linearGradient>
<linearGradient id="paint55_linear_115_16577" x1="128.014" y1="137.321" x2="135.422" y2="133.044" gradientUnits="userSpaceOnUse">
<stop offset="0.016" stop-color="white"/>
<stop offset="0.9916" stop-color="#F29DC8"/>
</linearGradient>
<linearGradient id="paint56_linear_115_16577" x1="124.502" y1="140.776" x2="134.874" y2="134.788" gradientUnits="userSpaceOnUse">
<stop offset="0.016" stop-color="white"/>
<stop offset="0.9916" stop-color="#F29DC8"/>
</linearGradient>
<linearGradient id="paint57_linear_115_16577" x1="85.7611" y1="225.084" x2="83.2079" y2="220.661" gradientUnits="userSpaceOnUse">
<stop offset="0.00837989" stop-color="#EA9DC8"/>
<stop offset="0.984" stop-color="#FFDBD6"/>
</linearGradient>
<linearGradient id="paint58_linear_115_16577" x1="80.187" y1="241.024" x2="79.6453" y2="240.086" gradientUnits="userSpaceOnUse">
<stop offset="0.00837989" stop-color="#EA9DC8"/>
<stop offset="0.984" stop-color="#FFDBD6"/>
</linearGradient>
</defs>
</svg>
