<svg width="572" height="670" viewBox="0 0 572 670" fill="none" xmlns="http://www.w3.org/2000/svg">
<path d="M33.4627 460.805L39.231 536.152C39.231 536.152 21.4696 552.218 7.81814 552.218C7.81814 552.218 3.56407 521.093 33.4627 460.805Z" fill="#4B81EE"/>
<path d="M571.083 668.815C571.083 668.815 537.555 672.394 504.748 664.865C471.965 657.335 446.344 642.17 446.344 642.17L441.754 610.515C441.754 610.515 475.21 568.441 514.65 587.741C554.09 606.989 571.083 668.815 571.083 668.815Z" fill="#4B81EE"/>
<path d="M255.993 45.8931C214.366 53.184 194.057 90.8575 193.143 111.245C192.23 131.633 206.507 209.154 211.361 229.993C216.216 250.831 251.739 272.624 264.189 275.964C276.639 279.305 289.088 276.256 299.399 270.927C309.71 265.598 334.321 242.374 339.464 221.827C344.632 201.28 346.146 105.837 339.464 82.0556C332.807 58.2743 290.146 39.9014 255.993 45.8931Z" fill="url(#paint0_linear_60_4084)"/>
<path d="M242.055 264.616L244.17 353.298C244.17 353.298 253.351 413.348 281.831 415.337C317.498 417.855 321.608 348.208 321.608 348.208L316.008 257.723C316.008 257.723 295.315 277.315 276.424 277.289C257.509 277.289 242.055 264.616 242.055 264.616Z" fill="url(#paint1_linear_60_4084)"/>
<path d="M198.864 111.218C198.864 111.218 207.18 71.2113 255.898 68.1094C304.615 65.0075 323.626 82.8766 330.068 95.6288C336.509 108.381 344.608 130.254 344.608 130.254L342.349 69.2494L311.657 53.4217C311.657 53.4217 247.293 46.9263 223.908 59.5725C200.571 72.2452 198.263 89.7962 198.864 111.218Z" fill="url(#paint2_linear_60_4084)"/>
<path d="M343.934 151.016C343.934 151.016 349.582 143.831 360.277 143.672C360.277 143.672 367.103 149.876 362.777 165.703C358.956 179.649 349.342 197.862 347.515 202.369C345.689 206.903 341.555 207.831 341.555 207.831C341.555 207.831 344.078 169.998 343.934 151.016Z" fill="url(#paint3_linear_60_4084)"/>
<path d="M198.883 162.969C198.883 162.969 191.553 156.473 183.598 162.969C183.598 162.969 185.232 175.244 191.241 191.31C197.249 207.377 200.446 218.406 208.858 218.299L198.883 162.969Z" fill="url(#paint4_linear_60_4084)"/>
<path d="M343.953 168.694C343.953 168.694 353.879 157.162 359.047 156.022C364.214 154.882 360.513 171.16 357.34 179.644C354.168 188.128 353.807 188.923 353.807 188.923C353.807 188.923 360.176 168.323 358.254 163.684C356.307 159.044 353.038 161.059 352.918 162.941C352.798 164.824 356.331 174.872 351.428 184.787C346.525 194.703 345.972 197.221 344.602 192.078C343.232 186.935 347.438 178.504 347.558 173.626C347.63 168.694 343.953 168.694 343.953 168.694Z" fill="url(#paint5_linear_60_4084)"/>
<path d="M201.482 177.367C201.482 177.367 193.166 170.367 189.994 172.223C186.797 174.053 190.739 191.232 197.877 205.125C197.877 205.125 190.498 186.036 193.118 181.503C195.738 176.969 201.578 184.843 198.862 185.188C190.594 186.248 194.945 199.266 201.506 204.435C208.067 209.605 200.473 200.406 199.247 192.213C198.021 184.021 202.443 184.339 202.443 184.339L201.482 177.367Z" fill="url(#paint6_linear_60_4084)"/>
<path d="M228.499 50.7175C228.499 50.7175 244.025 7.10522 279.092 0C279.092 0 266.161 4.58659 251.837 20.0166C246.934 25.319 235.998 44.7523 235.998 44.7523C235.998 44.7523 272.65 1.69678 297.021 3.9503C321.392 6.20382 322.065 45.3886 333.217 51.9105C344.369 58.4325 347.421 72.0066 347.421 72.0066C347.421 72.0066 357.131 85.0771 356.53 98.8103C355.929 112.543 343.984 160.08 343.984 160.08C343.984 160.08 347.109 115.884 336.197 98.121C336.197 98.121 332.544 73.7564 316.849 63.9735C316.849 63.9735 295.675 66.5187 262.892 62.2502C230.11 57.9818 219.414 66.4921 219.414 66.4921C219.414 66.4921 199.153 84.3347 199.37 106.419C199.37 106.419 191.727 122.883 199.682 166.973C199.682 166.973 181.392 121.902 181.68 103.476C181.993 85.0505 199.129 66.9694 199.129 66.9694C199.129 66.9694 184.925 75.4002 176.826 86.5617C176.826 86.5617 165.553 63.5493 218.501 57.9288C221.313 57.6371 225.711 54.9329 228.499 50.7175Z" fill="url(#paint7_linear_60_4084)"/>
<path d="M243.396 321.83C243.396 321.83 217.054 354.811 196.216 369.392C175.378 383.974 159.9 391.238 159.9 391.238C159.9 391.238 155.19 572.819 177.037 667.785H393.946C393.946 667.785 412.164 441.16 400.772 382.436C400.772 382.436 343.571 355.049 319.801 320.266L320.858 351.815C320.858 351.815 311.437 401.843 281.778 404.309C254.379 406.589 243.948 345.823 243.948 345.823L243.396 321.83Z" fill="url(#paint8_linear_60_4084)"/>
<path d="M243.16 310.879L232.777 308.334C232.777 308.334 217.299 337.444 193.12 359.582C174.806 376.337 159.016 372.387 130.535 391.237C130.535 391.237 161.756 483.26 159.497 564.97C159.497 564.97 164.472 618.047 172.211 667.784L404.55 666.273C404.55 666.273 419.62 602.591 420.533 541.746C420.533 541.746 432.67 426.1 457.714 382.435C424.475 364.884 399.888 365.892 371.647 351.337C343.407 336.782 324.276 300.434 324.276 300.434L318.58 303.376L319.805 320.291C319.805 320.291 339.081 344.337 347.036 367.085C356.746 394.869 328.818 667.811 328.818 667.811L240.468 666.299C240.468 666.299 217.251 395.028 220.423 369.418C223.62 343.807 243.352 321.855 243.352 321.855L243.16 310.879Z" fill="url(#paint9_linear_60_4084)"/>
<path d="M130.535 391.238V422.31L87.0569 501.502C87.0569 501.502 76.8183 468.097 76.3616 461.813C75.905 455.53 76.3616 444.474 76.3616 444.474L69.5359 438.456L70.6655 449.75C70.6655 449.75 74.3187 517.568 7.81576 548.216C7.81576 548.216 12.5265 500.335 33.4604 460.806L32.5471 455.795C32.5471 455.795 9.16168 492.965 2.33594 555.772L22.8372 566.324C22.8372 566.324 43.3385 631.49 70.2088 668.527L100.18 668.846C100.18 668.846 145.124 625.366 165.385 558.105C165.385 558.078 175.407 475.865 130.535 391.238Z" fill="url(#paint10_linear_60_4084)"/>
<path d="M123.635 238.109C123.635 238.109 100.874 276.286 96.6204 290.364C92.3663 304.415 95.7071 330.556 92.0539 336.574C92.0539 336.574 68.6925 359.003 65.9526 366.056C63.2127 373.081 65.9526 409.588 65.9526 409.588C56.6994 428.916 34.684 434.934 34.684 434.934C34.684 434.934 32.6411 372.418 31.9441 370.907C31.2711 369.396 18.2445 360.249 18.2445 360.249C14.9759 351.713 12.3321 342.513 10.2171 333.552C7.69347 322.894 5.91493 312.607 4.71322 304.15V304.124C2.95871 292.034 2.35786 283.736 2.35786 283.736L0.53125 258.868C3.70378 242.801 12.2119 245.32 12.2119 245.32C13.4377 260.564 17.0668 273.794 17.0668 273.794L18.4368 272.786C16.0093 260.379 15.096 241.794 15.096 241.794C19.3501 228.246 29.8291 231.931 29.8291 231.931C32.4007 248.342 35.7415 264.912 35.7415 264.912C32.8574 243.65 34.8282 210.483 34.8282 210.483C38.7698 220.372 50.1621 221.883 50.1621 221.883C47.8788 233.416 50.1621 257.754 50.1621 257.754L52.5895 256.19C53.4307 244.445 55.0411 231.852 56.9157 219.815C61.1938 192.694 66.9621 168.302 69.0531 162.284C72.1054 153.562 79.9887 160.508 79.9887 160.508C83.2093 177.104 84.7955 189.486 83.1131 198.314C83.1131 198.314 83.1372 198.288 83.1131 198.314C80.5174 211.862 72.9226 217.191 72.9226 217.191C72.9226 217.191 67.4668 248.819 67.9234 254.095C68.3801 259.371 70.8797 294.288 70.8797 294.288C83.4015 286.758 86.8144 276.206 86.8144 276.206C87.0548 253.592 95.9234 241.29 107.316 236.014C118.708 230.738 123.635 238.109 123.635 238.109Z" fill="url(#paint11_linear_60_4084)"/>
<path d="M210.663 161.035L209.773 164.296C209.773 164.296 227.919 169.413 243.662 157.934L210.663 161.035Z" fill="#FEB1C8"/>
<path d="M34.1328 418.914C34.1328 418.914 24.9757 429.837 23.75 438.56C23.75 438.56 29.6624 454.812 33.4599 460.83L35.9594 529.92C35.9594 529.92 72.0109 501.526 70.6409 449.774C70.6409 449.774 68.2135 414.858 70.689 405.075L65.4976 402.609L65.9543 409.609C65.9543 409.609 50.6204 430.951 34.6856 434.981L34.1328 418.914Z" fill="url(#paint12_linear_60_4084)"/>
<path d="M457.736 382.41V410.062C457.736 410.062 538.731 550.205 564.328 637.297L571.082 668.819C571.082 668.819 523.758 592.412 486.889 596.442C449.997 600.445 446.344 624.571 446.344 624.571L449.083 637.138L446.344 642.148L438.604 603.971H431.779V597.953L419.185 570.248C419.185 570.248 413.561 442.99 457.736 382.41Z" fill="url(#paint13_linear_60_4084)"/>
<path d="M277.621 104.164C277.621 104.164 279.328 90.3508 284.447 87.0898L277.621 104.164Z" fill="url(#paint14_linear_60_4084)"/>
<path d="M288.68 151.831C288.68 151.831 306.657 156.232 323.746 147.324L321.342 144.195C321.342 144.195 314.18 152.149 288.68 151.831Z" fill="#FEB1C8"/>
<path d="M204.126 123.225C191.677 134.016 205.304 175.295 205.304 175.295C205.304 175.295 235.515 182.426 252.123 161.031V134.758C252.123 134.758 256.858 126.433 274.138 127.043C274.138 127.043 280.315 152.388 284.713 163.682C284.713 163.682 315.79 172.405 332.205 149.817C332.205 149.817 333.551 124.736 325.98 112.673C318.41 100.584 277.623 104.163 277.623 104.163C277.623 104.163 268.082 112.673 243.014 110.658C243.014 110.685 212.226 116.199 204.126 123.225Z" fill="url(#paint15_linear_60_4084)"/>
<path d="M243.665 154.302C243.665 154.302 239.555 135.532 226.72 134.789C213.862 134.047 211.555 154.302 211.555 154.302H243.665Z" fill="url(#paint16_linear_60_4084)"/>
<path d="M286.395 147.326C286.395 147.326 286.059 125.507 299.254 121.715C312.449 117.951 318.097 135.263 318.097 135.263L286.395 147.326Z" fill="url(#paint17_linear_60_4084)"/>
<path d="M320.43 147.353C319.301 148.414 316.248 149.368 312.403 150.163C307.067 151.25 300.193 152.019 294.882 152.125C290.315 152.231 286.878 151.86 286.518 150.879C285.148 147.115 289.234 132.294 301.924 129.511C314.59 126.753 324.54 143.588 320.43 147.353Z" fill="#FFE4EC"/>
<path d="M244.24 157.192C244.072 157.961 242.486 158.889 240.058 159.791C235.203 161.62 227.032 163.396 220.326 163.714C217.586 163.847 215.087 163.741 213.164 163.29C206.723 161.752 211.385 146.243 223.234 142.902C224.797 142.452 226.335 142.319 227.825 142.425C227.849 142.452 227.873 142.452 227.897 142.425C231.742 142.717 235.251 144.599 238.015 146.959C238.063 146.985 238.112 147.038 238.136 147.091C242.221 150.644 244.673 155.257 244.24 157.192Z" fill="#FFE4EC"/>
<path d="M257.606 194.649C257.606 194.649 248.497 195.312 245.757 191.548C243.017 187.783 247.8 186.06 255.322 179.644C262.845 173.228 270.584 175.243 277.626 178.504C284.692 181.765 290.388 182.242 291.182 185.079C291.975 187.915 282.313 191.309 279.693 191.176C277.073 191.044 276.04 190.169 273.42 191.919C270.801 193.669 265.441 194.676 262.605 194.066C259.769 193.43 257.606 194.649 257.606 194.649Z" fill="#FEB1C8"/>
<path d="M273.418 191.919C273.418 191.919 274.908 188.552 278.081 188.923C281.277 189.294 284.714 190.01 284.714 190.01C284.714 190.01 279.33 193.43 273.418 191.919Z" fill="#D1A1C8"/>
<path d="M261.979 193.963C261.979 193.963 260.537 190.782 257.244 190.596C253.952 190.41 252.125 194.44 252.125 194.44C252.125 194.44 256.115 195.368 257.581 194.652C259.071 193.937 261.979 193.963 261.979 193.963Z" fill="#D1A1C8"/>
<path d="M279.062 169.781C279.062 169.781 291.584 168.349 291.176 185.052C291.176 185.078 290.743 172.485 279.062 169.781Z" fill="url(#paint18_linear_60_4084)"/>
<path d="M314.565 142.74C314.565 145.497 313.772 148.068 312.402 150.163C307.066 151.25 300.193 152.019 294.881 152.125C292.598 149.765 291.18 146.425 291.18 142.74C291.18 135.608 296.419 129.828 302.884 129.828C309.326 129.828 314.565 135.608 314.565 142.74Z" fill="#7F6186"/>
<path d="M240.799 155.282C240.799 156.873 240.535 158.384 240.054 159.789C235.199 161.619 227.028 163.395 220.322 163.713C218.496 161.46 217.414 158.517 217.414 155.282C217.414 148.628 221.981 143.14 227.821 142.424C227.845 142.451 227.869 142.451 227.893 142.424C228.302 142.398 228.686 142.371 229.095 142.371C232.676 142.371 235.896 144.147 238.011 146.958C238.06 146.984 238.108 147.037 238.132 147.09C239.814 149.291 240.799 152.154 240.799 155.282Z" fill="#7F6186"/>
<path d="M286.395 147.327C286.395 147.327 290.216 131.579 303.026 130.147C315.188 128.769 320.379 140.673 320.379 140.673C320.379 140.673 317.183 127.761 306.247 127.099C295.311 126.409 288.413 136.934 286.395 147.327Z" fill="#6C2A51"/>
<path d="M243.226 153.374C243.226 153.374 235.15 141.02 223.566 143.963C211.981 146.906 210.227 158.465 210.227 158.465C210.227 158.465 211.332 144.944 222.532 141.179C234.838 137.043 243.226 153.374 243.226 153.374Z" fill="#6C2A51"/>
<path d="M240.805 217.081C240.805 217.081 248.712 220.607 270.271 218.301C291.83 216.021 303.823 198.258 303.823 198.258C303.823 198.258 287.84 222.463 274.669 224.134C261.498 225.804 256.091 221.668 249.481 219.68C242.872 217.718 240.805 217.081 240.805 217.081Z" fill="#BF7988"/>
<path d="M261.016 219.864C261.016 219.864 267.697 225.352 275.028 223.205C282.358 221.058 287.309 213.926 287.309 213.926C287.309 213.926 275.701 219.652 261.016 219.864Z" fill="#FFE4EC"/>
<path d="M298.344 196.587C298.344 196.587 307.453 195.765 312.236 205.972C312.236 205.972 313.846 192.557 298.344 196.587Z" fill="url(#paint19_linear_60_4084)"/>
<path d="M266.133 230.176C266.133 230.176 277.693 232.377 287.283 225.961C287.283 225.961 284.279 238.024 277.213 238.766C270.171 239.535 266.133 230.176 266.133 230.176Z" fill="url(#paint20_linear_60_4084)"/>
<path d="M308.984 142.37C308.984 146.108 306.244 149.13 302.855 149.13C299.466 149.13 296.727 146.108 296.727 142.37C296.727 138.632 299.466 135.609 302.855 135.609C306.244 135.609 308.984 138.632 308.984 142.37Z" fill="url(#paint21_linear_60_4084)"/>
<path d="M235.226 154.3C235.226 158.038 232.486 161.06 229.098 161.06C225.709 161.06 222.969 158.038 222.969 154.3C222.969 150.561 225.709 147.539 229.098 147.539C232.486 147.539 235.226 150.588 235.226 154.3Z" fill="url(#paint22_linear_60_4084)"/>
<path d="M307.906 140.964C307.906 140.964 313.386 138.101 316.895 142.714L307.906 140.964Z" fill="white"/>
<path d="M232.895 152.922C232.895 152.922 238.014 150.377 241.883 153.638L232.895 152.922Z" fill="white"/>
<path d="M209.773 222.728C217.392 242.241 231.621 259.632 252.122 266.579C264.524 270.794 294.615 266.234 308.987 257.75C335.689 241.975 340.857 213.926 340.857 213.926C340.857 213.926 342.539 230.496 315.957 257.75L316.894 296.431C316.894 296.431 288.294 318.171 275.315 323.871C262.36 329.571 242.748 294.734 242.748 294.734L242.027 264.643C242.052 264.617 216.695 250.884 209.773 222.728Z" fill="#E392AD"/>
<path d="M277.863 104.137C277.863 104.137 282.718 87.461 295.769 87.0898L280.579 101.618C280.579 101.618 294.086 89.9001 306.849 92.4187C306.849 92.4187 319.443 96.6076 325.98 112.674C325.98 112.7 304.565 102.308 277.863 104.137Z" fill="url(#paint23_linear_60_4084)"/>
<path d="M243.012 110.687C243.012 110.687 241.883 98.7037 234.432 94.4883L241.138 107.559C241.138 107.559 235.153 100.268 231.188 99.1544C227.198 98.0144 211.816 104.351 204.125 123.254C204.125 123.227 223.521 114.107 243.012 110.687Z" fill="url(#paint24_linear_60_4084)"/>
<path d="M239.023 61.2718C249.935 59.2834 272.623 17.7391 295.48 14.3986C318.337 11.0581 324.634 53.3447 320.404 59.3629C316.15 65.3812 291.25 64.5593 291.25 64.5593C291.25 64.5593 260.991 62.8095 251.69 61.1923C242.388 59.575 239.023 61.2718 239.023 61.2718Z" fill="#E392AD"/>
<path d="M321.602 67.7383C321.602 67.7383 338.858 75.4003 347.679 87.0921C356.475 98.7839 353.952 115.831 353.952 115.831L351.044 129.803C351.044 129.829 355.947 86.6148 321.602 67.7383Z" fill="url(#paint25_linear_60_4084)"/>
<path d="M216.502 69.2734C216.502 69.2734 179.153 88.9454 186.459 129.217L190.713 142.738C190.689 142.738 182.758 98.3571 216.502 69.2734Z" fill="url(#paint26_linear_60_4084)"/>
<path d="M219.337 66.4688C219.337 66.4688 195.591 71.1349 183.598 92.477C183.598 92.5035 192.394 67.9799 219.337 66.4688Z" fill="url(#paint27_linear_60_4084)"/>
<path d="M241.883 60.049C241.883 60.049 260.005 38.2826 287.284 41.8352C314.587 45.3878 320.379 67.7639 320.379 67.7639C320.379 67.7639 317.375 34.9951 291.177 29.8252C264.98 24.6289 241.883 60.049 241.883 60.049Z" fill="url(#paint28_linear_60_4084)"/>
<path d="M333.594 53.4492C333.594 53.4492 357.94 61.8535 358.974 85.1046C358.974 85.1046 365.776 59.3084 333.594 53.4492Z" fill="url(#paint29_linear_60_4084)"/>
<path d="M253.946 173.47C251.591 177.58 262.382 172.781 270.338 173.47C278.317 174.16 277.62 175.273 277.86 173.391C278.077 171.508 271.948 163.237 264.882 164.483C257.816 165.755 255.196 171.296 253.946 173.47Z" fill="#E7ECFF"/>
<path d="M262.598 194.071C262.598 194.071 256.397 191.393 253.609 182.008L249.211 184.5C249.211 184.5 252.648 192.241 262.598 194.071Z" fill="url(#paint30_linear_60_4084)"/>
<path d="M249.095 130.941C245.874 124.87 216.264 122.484 198.719 141.864C191.413 149.95 198.671 181.526 209.486 189.904C220.302 198.255 240.707 193.483 247.581 175.853C254.479 158.222 252.316 137.012 249.095 130.941ZM219.581 189.904C203.694 189.056 193.263 159.945 200.738 146.636C210.183 129.801 241.164 125.268 244.793 136.217C259.862 181.765 232.079 190.567 219.581 189.904Z" fill="#FFB8CB"/>
<path d="M278.651 124.606C281.03 117.872 312.9 105.411 334.266 120.284C343.159 126.488 340.371 161.51 329.315 173.07C319.269 183.595 297.518 183.993 287.496 168.324C277.473 152.655 276.272 131.34 278.651 124.606ZM318.812 175.482C335.18 170.869 342.823 136.722 332.92 125.454C320.399 111.191 285.957 117.156 283.963 128.768C275.695 177.046 305.954 179.114 318.812 175.482Z" fill="#FFB8CB"/>
<path d="M249.095 129.828C245.874 124.128 216.264 121.901 198.719 140.062C191.413 147.644 198.671 177.232 209.486 185.053C220.302 192.874 240.707 188.42 247.581 171.903C254.479 155.386 252.316 135.528 249.095 129.828ZM219.581 185.079C203.694 184.284 193.263 157.003 200.738 144.542C210.183 128.768 241.164 124.526 244.793 134.786C259.862 177.444 232.079 185.689 219.581 185.079Z" fill="url(#paint31_linear_60_4084)"/>
<path d="M278.651 123.887C281.03 117.577 312.9 105.912 334.266 119.857C343.159 125.663 340.371 158.485 329.315 169.328C319.269 179.191 297.518 179.562 287.496 164.874C277.473 150.187 276.272 130.197 278.651 123.887ZM318.812 171.555C335.18 167.234 342.823 135.234 332.92 124.682C320.399 111.294 285.957 116.914 283.963 127.784C275.695 173.04 305.954 174.949 318.812 171.555Z" fill="url(#paint32_linear_60_4084)"/>
<path d="M250.9 138.68C250.9 138.68 266.762 131.655 279.837 137.196L278.948 129.825C278.948 129.825 265.705 124.099 250.371 133.086L250.9 138.68Z" fill="url(#paint33_linear_60_4084)"/>
<path d="M342.367 134.76L346.982 147.538L352.774 145.046L345.035 121.742L342.367 134.76Z" fill="url(#paint34_linear_60_4084)"/>
<path d="M196.22 147.328L190.188 149.476L192.014 157.138L196.509 158.463L196.22 147.328Z" fill="#5143A1"/>
<path d="M345.595 134.256L339.514 135.396L336.75 122.644L345.042 121.742L345.595 134.256Z" fill="#5143A1"/>
<path d="M284.715 140.062C284.715 140.062 282.552 160.079 299.472 169.756C299.472 169.756 309.782 172.884 321.343 168.695L311.537 138.684L284.715 140.062Z" fill="#5CF1FF"/>
<path d="M201.556 152.261C201.556 152.261 199.802 172.278 213.645 181.955C213.645 181.955 222.081 185.083 231.551 180.894L223.523 150.883L201.556 152.261Z" fill="#5CF1FF"/>
<path d="M252.1 149.631C252.1 149.631 263.469 138.682 278.538 145.734L277 140.193C277 140.193 264.262 133.008 251.836 143.03L252.1 149.631Z" fill="#FEB1C8"/>
<path d="M342.252 196.59C342.252 196.59 346.482 197.677 347.563 200.911C348.669 204.146 341.555 207.831 341.555 207.831L342.252 196.59Z" fill="#FEB1C8"/>
<path d="M206.792 207.824C206.792 207.824 202.057 213.63 202.682 215.751C203.331 217.872 208.859 218.296 208.859 218.296L206.792 207.824Z" fill="#FEB1C8"/>
<path d="M241.883 60.05C241.883 60.05 257.097 54.1113 277.862 59.944C298.628 65.7766 287.284 78.8471 287.284 78.8471C287.284 78.8471 280.89 52.4411 241.883 60.05Z" fill="url(#paint35_linear_60_4084)"/>
<path d="M291.227 3.924C291.227 3.924 297.596 7.34403 294.567 14.5553C294.567 14.5553 300.792 12.3813 307.618 17.4981C307.618 17.4981 304.806 13.0706 301.249 11.7981C297.692 10.552 297.379 3.924 297.379 3.924C297.379 3.924 294.279 3.0491 291.227 3.924Z" fill="white"/>
<path d="M292.135 30.0117C294.37 32.3183 288.266 41.9686 288.266 41.9686L298.624 44.7524C298.624 44.7524 294.947 40.8286 295.284 37.3821C295.62 33.962 299.418 32.6364 299.418 32.6364L292.135 30.0117Z" fill="white"/>
<path d="M232.801 336.567C232.801 336.567 237.463 415.547 281.062 418.596C329.707 421.989 332.303 355.311 326.246 328.508C335.259 368.859 327.28 419.524 282.047 420.611C235.637 421.724 232.801 336.567 232.801 336.567Z" fill="#E392AD"/>
<path d="M243.398 321.828C243.398 321.828 242.028 396.778 282.55 395.346C321.558 393.967 320.404 337.841 320.404 337.841L320.861 351.787C320.861 351.787 309.541 409.424 279.041 404.28C248.566 399.19 242.052 342.269 243.398 321.828Z" fill="#E392AD"/>
<path d="M244.984 266.5C244.984 266.5 268.202 366.927 273.417 372.415C278.656 377.903 264.188 275.938 264.188 275.938L244.984 266.5Z" fill="url(#paint36_linear_60_4084)"/>
<path d="M318.626 303.326L321.63 300.383C321.63 300.383 342.54 339.435 349.822 362.447C357.105 385.46 334.224 667.76 334.224 667.76L308.844 666.885C308.844 666.885 336.051 500.549 340.906 434.931C345.76 369.314 319.851 320.24 319.851 320.24L318.626 303.326Z" fill="#E392AD"/>
<path d="M259.767 667.199C259.767 667.199 223.667 406.108 225.95 372.438C228.234 338.741 243.423 321.827 243.423 321.827L243.159 310.877L232.776 308.332C232.776 308.332 218.668 350.274 216.385 372.624C214.101 394.973 232.8 667.172 232.8 667.172H259.767V667.199Z" fill="#E392AD"/>
<path d="M198.86 353.297C198.86 353.297 175.835 381.771 157.617 400.542C157.617 400.542 162.16 413.267 186.458 417.96L166.318 443.067C166.318 443.067 186.771 581.698 212.271 668.101L232.772 667.2C232.772 667.2 214.53 405.049 216.357 372.651C218.184 340.253 232.748 308.359 232.748 308.359C232.748 308.359 217.559 330.974 198.86 353.297Z" fill="url(#paint37_linear_60_4084)"/>
<path d="M324.297 300.41C324.297 300.41 350.206 345.348 379.359 354.945L411.734 399.857C411.734 399.857 411.517 414.942 376.451 422.657L398.683 451.767C398.683 451.767 384.094 579.051 351.239 666.621L334.199 667.787C334.199 667.787 359.026 407.943 350.614 367.247C342.226 326.525 324.297 300.41 324.297 300.41Z" fill="url(#paint38_linear_60_4084)"/>
<path d="M232.895 353.297C232.895 353.297 231.597 443.067 274.162 498.662L232.895 353.297Z" fill="url(#paint39_linear_60_4084)"/>
<path d="M336.748 362.105C336.748 362.105 346.266 427.458 288.68 467.756C288.68 467.756 327.615 422.473 336.748 362.105Z" fill="url(#paint40_linear_60_4084)"/>
<path d="M23.75 479.39L30.3835 534.562C30.3835 534.562 69.8959 511.364 70.6409 449.75C70.6409 449.75 65.3294 491.268 36.8006 511.046L33.4599 460.805L31.5852 457.385L23.75 479.39Z" fill="#E392AD"/>
<path d="M34.6871 434.925L25.5781 437.179C25.5781 437.179 27.4047 429.809 34.2305 421.59L34.6871 434.925Z" fill="#E392AD"/>
<path d="M81.0942 198.312C78.4985 211.86 72.9226 217.189 72.9226 217.189C72.9226 217.189 67.4668 248.818 67.9234 254.094C46.5329 258.707 16.7784 275.966 10.3853 285.325C4.52095 293.941 9.30377 327.479 10.0969 332.834L4.71322 304.148V304.122C2.95871 292.032 2.35786 283.734 2.35786 283.734L0.53125 258.866C3.70378 242.8 12.2119 245.318 12.2119 245.318C13.4377 260.563 17.0668 273.792 17.0668 273.792L18.4368 272.785C16.0093 260.377 15.096 241.792 15.096 241.792C19.3501 228.245 29.8291 231.93 29.8291 231.93C32.4007 248.341 35.7415 264.911 35.7415 264.911C32.8574 243.648 34.8282 210.482 34.8282 210.482C38.7698 220.37 50.1621 221.882 50.1621 221.882C47.8788 233.414 50.1621 257.752 50.1621 257.752L52.5895 256.188C53.4307 244.443 55.0411 231.85 56.9157 219.814C73.4754 216.076 80.6616 199.346 81.0942 198.312Z" fill="url(#paint41_linear_60_4084)"/>
<path d="M34.8281 210.477L78.4023 185.078C78.4023 185.078 93.1594 216.018 50.162 221.877C50.162 221.85 36.7989 225.138 34.8281 210.477Z" fill="url(#paint42_linear_60_4084)"/>
<path d="M19.9048 233.122L49.9477 210.613C49.9477 210.613 56.7735 221.324 50.7649 231.187C45.5975 239.697 28.6774 247.836 15.3143 244.549C15.3143 244.602 13.5838 238.61 19.9048 233.122Z" fill="url(#paint43_linear_60_4084)"/>
<path d="M11.3715 244.812L37.9294 242.559C37.9294 242.559 38.9629 258.466 25.2633 260.401C10.5783 262.469 1.27707 257.273 1.27707 257.273C1.27707 257.273 0.00325201 245.767 11.3715 244.812Z" fill="url(#paint44_linear_60_4084)"/>
<path d="M62.972 194.066C56.8913 197.618 66.6733 196.584 71.4561 194.066C71.4561 194.066 73.8355 187.994 78.402 185.078L62.972 194.066Z" fill="white"/>
<path d="M49.9451 210.641C49.9451 210.641 41.2207 216.924 39.8507 222.942C39.8507 222.942 28.3143 229.491 31.3426 225.222C34.3709 220.927 49.9451 210.641 49.9451 210.641Z" fill="white"/>
<path d="M37.9274 242.533C37.9274 242.533 32.3995 241.711 28.0733 248.869C28.0733 248.869 17.7145 249.558 19.5652 245.926C21.4158 242.294 37.9274 242.533 37.9274 242.533Z" fill="white"/>
<path d="M92.0591 336.57C92.0591 336.57 61.3913 356.985 53.7965 367.033C46.2017 377.081 44.6875 380.103 44.6875 380.103L65.9338 366.025C65.9579 366.025 74.7544 354.996 92.0591 336.57Z" fill="url(#paint45_linear_60_4084)"/>
<path d="M70.8827 294.287C70.8827 294.287 44.0845 299.403 42.5703 333.551C42.5703 333.551 42.4261 284.981 70.6905 291.715L70.8827 294.287Z" fill="url(#paint46_linear_60_4084)"/>
<path opacity="0.5" d="M86.8146 276.204C88.7133 282.329 107.628 266.527 107.628 266.527C107.628 266.527 92.9433 288.506 94.2412 310.113C94.2412 310.113 90.1554 296.565 79.5803 295.054C68.9811 293.543 58.8867 299.932 58.8867 299.932C58.8867 299.932 64.5828 296.062 70.8798 294.312C70.8798 294.285 82.7768 286.65 86.8146 276.204Z" fill="url(#paint47_linear_60_4084)"/>
<path d="M34.3711 427.322C34.3711 427.322 52.7333 424.804 65.9522 409.586C65.9522 409.586 53.5024 428.834 34.6835 434.958L34.3711 427.322Z" fill="#FEB1C8"/>
<path opacity="0.8" d="M130.535 422.284C130.535 422.284 153.151 476.368 159.497 536.153C159.497 536.153 164.015 446.224 130.535 391.238V422.284Z" fill="url(#paint48_linear_60_4084)"/>
<path opacity="0.8" d="M87.0508 501.501C87.0508 501.501 116.204 541.693 118.007 588.911C118.007 588.911 127.116 517.09 88.613 498.664L87.0508 501.501Z" fill="url(#paint49_linear_60_4084)"/>
<path opacity="0.8" d="M2.35547 555.743C2.35547 555.743 42.1322 549.725 65.9502 503.488C65.9502 503.488 60.182 556.724 22.8327 566.269L2.35547 555.743Z" fill="url(#paint50_linear_60_4084)"/>
<path opacity="0.8" d="M76.3633 461.816C76.3633 461.816 85.6886 526.612 92.0817 575.341C98.4508 624.07 95.7349 630.592 95.7349 630.592C95.7349 630.592 98.8834 603.762 94.365 554.688C89.8225 505.641 76.3633 461.816 76.3633 461.816Z" fill="url(#paint51_linear_60_4084)"/>
<path d="M159.495 564.946L157.645 518.285C157.645 518.285 170.984 632.95 196.508 667.601L204.704 661.742C204.704 661.742 192.711 595.992 182.16 536.154L212.299 668.105L172.233 667.76C172.209 667.76 162.572 596.443 159.495 564.946Z" fill="#E392AD"/>
<path opacity="0.8" d="M457.737 382.41C457.737 382.41 427.357 429.84 423.199 487.769C423.199 487.769 434.495 436.177 457.737 410.062V382.41Z" fill="url(#paint52_linear_60_4084)"/>
<path opacity="0.8" d="M443.63 461.816C443.63 461.816 448.172 552.726 438.63 603.974H431.805C431.781 603.974 450.455 535.652 443.63 461.816Z" fill="url(#paint53_linear_60_4084)"/>
<path opacity="0.8" d="M419.185 570.244L423.199 511.043C423.199 511.043 408.538 628.836 385.777 666.377L404.548 666.244C404.548 666.271 417.31 613.83 419.185 570.244Z" fill="url(#paint54_linear_60_4084)"/>
<path opacity="0.8" d="M440.481 613.169C440.481 613.169 452.426 585.649 473.072 580.824C493.717 575.999 534.239 588.725 534.239 588.725C534.239 588.725 523.472 558.607 491.89 562.637C460.309 566.667 455.454 583.899 449.23 594.292C443.005 604.685 439.039 606.196 439.039 606.196L440.481 613.169Z" fill="url(#paint55_linear_60_4084)"/>
<path opacity="0.8" d="M456.219 593.763C456.219 593.763 471.865 580.533 499.336 584.881C526.808 589.229 533.032 595.433 533.032 595.433C533.032 595.433 490.972 578.359 456.219 593.763Z" fill="url(#paint56_linear_60_4084)"/>
<path d="M428.027 589.708C428.027 589.708 444.635 517.568 434.324 451.766C434.324 451.766 418.413 468.203 419.158 570.248L428.027 589.708Z" fill="url(#paint57_linear_60_4084)"/>
<path d="M360.276 666.378C360.276 666.378 389.213 558.554 388.853 467.75C388.853 467.75 379.527 581.566 351.215 666.617L360.276 666.378Z" fill="#E392AD"/>
<path d="M464.109 603.971L467.306 630.351C467.306 630.351 497.95 635.229 498.334 634.539C498.719 633.85 498.334 599.438 498.334 599.438L464.109 603.971Z" fill="url(#paint58_linear_60_4084)"/>
<path d="M498.569 591.086C455.764 583.716 440.887 615.212 440.887 615.212L446.343 642.175C497.271 676.932 571.081 668.846 571.081 668.846C571.081 668.846 541.374 598.457 498.569 591.086ZM449.082 637.138L447.256 620.568C447.256 620.568 451.942 592.624 494.627 596.654C528.035 599.809 562.26 661.979 562.26 661.979C495.997 674.148 449.082 637.138 449.082 637.138Z" fill="url(#paint59_linear_60_4084)"/>
<path d="M450.815 634.539C450.815 634.539 424.113 648.166 418.946 653.204C418.946 653.204 417.504 659.248 418.946 663.384C420.388 667.52 430.626 667.52 436.779 665.266C442.932 663.013 452.041 644.428 452.041 644.428L450.815 634.539Z" fill="url(#paint60_linear_60_4084)"/>
<path d="M435.961 669.136C435.961 669.136 443.916 629.368 469.729 616.987C495.542 604.606 529.575 641.325 531.089 669.799L435.961 669.136Z" fill="url(#paint61_linear_60_4084)"/>
<path d="M439.543 656.785H469.273C469.273 656.785 473.696 628.921 481.723 615.029C481.723 615.029 454.276 613.306 439.543 656.785Z" fill="#E392AD"/>
<path d="M451.824 632.604C451.824 632.604 464.442 627.142 481.314 631.596C498.186 636.077 522.605 663.57 524.72 664.763C526.811 665.929 530.537 666.619 530.537 666.619C530.537 666.619 523.783 627.169 496.023 616.776C468.24 606.383 451.824 632.604 451.824 632.604Z" fill="#BFA1BC"/>
<path d="M477.344 656.784C477.344 656.784 479.315 628.337 484.314 616.777C484.314 616.777 499.551 619.216 507.218 625.606L505.536 657.553L477.344 656.784Z" fill="#E392AD"/>
<path d="M535.464 639.812C535.584 646.678 532.003 655.719 530.513 659.245L530.489 659.298C530.152 660.04 529.912 660.571 529.864 660.703L529.84 660.73C520.586 662.241 518.88 654.844 518.88 654.844L521.139 649.568C521.115 649.595 521.091 649.621 521.067 649.621C520.514 650.019 517.005 652.219 512.847 649.568C508.281 646.678 504.724 637.638 504.724 637.638L506.382 630.479C506.238 630.718 505.397 632.044 504.411 633.237C503.786 633.979 503.113 634.642 502.513 634.96C500.854 635.782 487.491 631.938 486.121 628.836C485.544 627.563 485.544 623.719 485.713 619.609L485.737 619.556C486.001 613.75 486.65 607.494 486.65 607.494L481.579 606.486C481.579 606.486 477.445 616.296 474.176 619.928L474.152 619.981C473.888 620.272 473.623 620.511 473.383 620.723C470.042 623.401 457.737 628.836 457.737 628.836C450.166 625.787 449.469 619.822 449.95 615.924C450.214 613.697 450.863 612.133 450.863 612.133C456.944 602.748 457.448 589.465 467.182 589.73C476.94 589.969 480.81 596.465 480.81 596.465C483.838 597.711 486.65 597.605 486.65 597.605C486.65 597.605 494.173 595.272 501.047 597.87C507.92 600.468 512.078 610.33 512.078 610.33C512.078 610.33 523.158 617.038 525.129 620.219C527.1 623.401 526.499 632.6 526.499 632.6C531.065 633.608 535.464 639.812 535.464 639.812Z" fill="url(#paint62_linear_60_4084)"/>
<path d="M376.451 422.654L352.297 406.27C352.297 406.296 365.299 411.227 376.451 422.654Z" fill="#E392AD"/>
<path d="M186.484 417.938C186.484 417.938 205.447 399.512 216.647 396.781C216.623 396.781 200.52 405.981 186.484 417.938Z" fill="#E392AD"/>
<path d="M148.801 668.814C148.801 668.814 124.406 555.263 117.34 470C117.34 470 295.795 441.951 429.377 457.911C429.377 457.911 423.609 571.17 408.66 668.814H148.801Z" fill="url(#paint63_linear_60_4084)"/>
<path opacity="0.5" d="M288.68 458.071L148.801 668.815H262.603L388.879 458.071C388.879 458.071 329.563 452.954 288.68 458.071Z" fill="white"/>
<path d="M117.34 470.003L122.724 461.174C122.724 461.174 274.164 436.756 420.821 452.16L429.401 457.913C429.377 457.887 256.498 449.217 117.34 470.003Z" fill="url(#paint64_linear_60_4084)"/>
<path d="M241.453 579.284C241.453 579.284 261.498 542.247 294.737 538.031C294.737 538.005 291.541 562.475 241.453 579.284Z" fill="white"/>
<path d="M376.459 448.635V456.588L324.305 456.164V447.07C324.305 447.07 363.024 447.813 376.459 448.635Z" fill="white"/>
<path d="M138.992 458.842V466.955L177.303 462.898L179.033 454.176C179.033 454.176 149.471 457.384 138.992 458.842Z" fill="white"/>
<path d="M145.121 650.922C145.121 650.922 166.151 664.469 274.161 666.643C382.171 668.817 410.46 656.728 410.46 656.728L408.657 668.817H148.798L145.121 650.922Z" fill="#EBC2D4"/>
<path d="M474.176 619.93L474.152 619.983C473.888 620.275 473.623 620.513 473.383 620.726C470.042 623.403 457.737 628.838 457.737 628.838C450.166 625.789 449.469 619.824 449.95 615.927C453.627 618.048 471.845 613.488 473.671 614.495C475.498 615.529 474.176 619.93 474.176 619.93Z" fill="#E392AD"/>
<path d="M506.404 626.693C506.404 628.602 505.395 631.174 504.409 633.242C503.784 633.984 503.111 634.647 502.511 634.965C500.852 635.787 487.489 631.943 486.119 628.841C485.542 627.568 485.542 623.724 485.711 619.615L485.735 619.562C485.735 619.562 492.921 614.339 498.473 616.778C504.025 619.217 506.404 622.929 506.404 626.693Z" fill="#E392AD"/>
<path d="M523.425 642.913C523.425 642.913 523.209 647.288 521.142 649.568C521.118 649.594 521.094 649.621 521.07 649.621C520.517 650.018 517.008 652.219 512.85 649.568C508.284 646.678 504.727 637.637 504.727 637.637C505.496 634.297 509.437 632.733 514.316 635.119C519.219 637.505 523.425 642.913 523.425 642.913Z" fill="#E392AD"/>
<path d="M530.512 659.249L530.487 659.302C530.439 659.885 530.223 660.389 529.863 660.707L529.839 660.734C520.585 662.245 518.879 654.848 518.879 654.848C519.984 652.25 525.008 651.958 527.748 653.841C529.742 655.219 530.68 657.579 530.512 659.249Z" fill="#E392AD"/>
<path d="M418.945 663.384C418.945 663.384 424.714 667.758 433.029 664.126C441.345 660.494 435.168 643.394 435.168 643.394L450.046 635.148C450.046 635.148 439.158 653.574 436.779 665.266C436.779 665.266 422.19 669.8 418.945 663.384Z" fill="#E392AD"/>
<path d="M452.039 612.932C452.039 612.932 459.922 609.22 469.272 610.997C469.272 610.997 466.748 603.175 460.667 603.971C454.563 604.766 452.039 612.932 452.039 612.932Z" fill="white"/>
<path d="M493.93 614.335C493.93 614.335 503.712 613.884 507.028 619.664C507.028 619.664 504.072 609.987 499.962 610.358C495.876 610.756 493.93 614.335 493.93 614.335Z" fill="white"/>
<path d="M514.07 631.964C514.07 631.964 521.473 634.35 523.42 639.759C523.42 639.759 523.42 629.711 520.007 628.836C516.594 627.961 514.07 631.964 514.07 631.964Z" fill="white"/>
<path d="M524.695 650.654C524.695 650.654 529.31 651.768 530.512 653.941C530.512 653.941 532.41 647.022 529.43 646.147C526.498 645.272 524.695 650.654 524.695 650.654Z" fill="white"/>
<path d="M512.079 610.332C512.079 610.332 509.651 623.323 506.383 630.481C506.383 630.481 513.497 622.872 514.074 611.578L512.079 610.332Z" fill="url(#paint65_linear_60_4084)"/>
<path d="M526.496 632.602L522.555 647.024C522.555 647.024 530.895 642.703 529.525 633.98L526.496 632.602Z" fill="url(#paint66_linear_60_4084)"/>
<path d="M476.82 616.113L480.81 596.441L482.516 596.998L481.579 606.463L486.65 607.47L486.001 615C486.001 615.026 479.031 614.417 476.82 616.113Z" fill="#E392AD"/>
<path d="M376.453 422.656C376.453 422.656 401.257 414.251 411.736 399.855C411.736 399.855 407.073 424.432 380.371 427.799L376.453 422.656Z" fill="#E392AD"/>
<path d="M157.642 400.52C157.642 400.52 155.72 417.885 181.268 424.433L189.199 415.393C189.175 415.419 173.433 413.245 157.642 400.52Z" fill="#E392AD"/>
<path opacity="0.5" d="M343.953 327.684C343.953 327.684 358.013 363.024 368.036 374.583C378.058 386.143 405.529 391.233 405.529 391.233L379.356 354.938C379.356 354.938 360.465 349.927 343.953 327.684Z" fill="url(#paint67_linear_60_4084)"/>
<path opacity="0.5" d="M227.272 316.266C227.272 316.266 216.6 346.277 209.775 370.88C202.949 395.484 173.387 398.506 173.387 398.506C173.387 398.506 205.376 342.274 227.272 316.266Z" fill="url(#paint68_linear_60_4084)"/>
<path d="M17.1875 357.383L37.9291 370.4L31.9446 370.904L18.245 360.246L17.1875 357.383Z" fill="#FEB1C8"/>
<path opacity="0.5" d="M21.9219 302.742C26.3923 290.017 55.4497 274.507 62.0832 277.238C68.6926 279.969 66.7459 296.406 66.7459 296.406C66.7459 296.406 49.0806 298.368 42.8077 328.512C42.8077 328.512 34.4678 338.136 28.6515 332.807C22.8352 327.531 21.9219 302.742 21.9219 302.742Z" fill="url(#paint69_linear_60_4084)"/>
<path opacity="0.2" d="M457.734 410.059C457.734 410.059 464.921 447.891 483.523 498.635C502.126 549.379 548.728 593.177 548.728 593.177C548.728 593.177 495.925 472.335 457.734 410.059Z" fill="white"/>
<path opacity="0.2" d="M388.879 359.449C388.879 359.449 396.786 372.917 406.809 381.269C416.831 389.646 447.186 399.827 447.186 399.827L457.737 382.382C457.737 382.382 438.149 372.705 418.946 367.403C399.766 362.127 388.879 359.449 388.879 359.449Z" fill="white"/>
<path opacity="0.2" d="M130.535 391.24C130.535 391.24 137.289 403.595 141.303 413.828C141.303 413.828 154.81 399.379 163.318 389.649C171.826 379.946 175.431 370.879 175.431 370.879C161.539 376.075 138.13 383.764 130.535 391.24Z" fill="white"/>
<path d="M285.363 103.689C285.363 103.689 296.203 93.0046 312.402 95.4172C312.402 95.3907 300.841 96.1595 285.363 103.689Z" fill="url(#paint70_linear_60_4084)"/>
<path d="M290.387 103.688C290.387 103.688 309.109 97.0065 320.382 102.919C320.382 102.919 306.49 98.6767 290.387 103.688Z" fill="url(#paint71_linear_60_4084)"/>
<path d="M241.889 110.899C241.889 110.899 232.467 99.6314 223.719 100.877L241.889 110.899Z" fill="url(#paint72_linear_60_4084)"/>
<path d="M239.023 111.46C239.023 111.46 225.179 100.087 213.57 108.438C213.57 108.464 223.689 103.135 239.023 111.46Z" fill="url(#paint73_linear_60_4084)"/>
<path d="M53.238 221.377C53.238 221.377 53.5505 215.651 49.9453 210.613C49.9453 210.613 54.3436 213.105 55.4011 220.953L53.238 221.377Z" fill="url(#paint74_linear_60_4084)"/>
<path d="M35.6254 242.506L15.3164 244.574C15.3164 244.6 21.9499 241.499 35.6254 242.506Z" fill="url(#paint75_linear_60_4084)"/>
<defs>
<linearGradient id="paint0_linear_60_4084" x1="268.531" y1="277.348" x2="268.531" y2="44.7433" gradientUnits="userSpaceOnUse">
<stop stop-color="#FFB595"/>
<stop offset="0.984" stop-color="#FFC2A9"/>
</linearGradient>
<linearGradient id="paint1_linear_60_4084" x1="281.813" y1="415.411" x2="281.813" y2="257.736" gradientUnits="userSpaceOnUse">
<stop offset="0.016" stop-color="#FFA67F"/>
<stop offset="1" stop-color="#FF8B7C"/>
</linearGradient>
<linearGradient id="paint2_linear_60_4084" x1="271.709" y1="130.268" x2="271.709" y2="51.7756" gradientUnits="userSpaceOnUse">
<stop offset="0.016" stop-color="white"/>
<stop offset="0.9916" stop-color="#F29DC8"/>
</linearGradient>
<linearGradient id="paint3_linear_60_4084" x1="352.895" y1="207.824" x2="352.895" y2="143.67" gradientUnits="userSpaceOnUse">
<stop offset="0.016" stop-color="#FFA67F"/>
<stop offset="1" stop-color="#FF8B7C"/>
</linearGradient>
<linearGradient id="paint4_linear_60_4084" x1="196.226" y1="218.293" x2="196.226" y2="160.073" gradientUnits="userSpaceOnUse">
<stop offset="0.016" stop-color="#FFA67F"/>
<stop offset="1" stop-color="#FF8B7C"/>
</linearGradient>
<linearGradient id="paint5_linear_60_4084" x1="352.769" y1="194.662" x2="352.769" y2="155.957" gradientUnits="userSpaceOnUse">
<stop offset="0.016" stop-color="white"/>
<stop offset="0.9916" stop-color="#F29DC8"/>
</linearGradient>
<linearGradient id="paint6_linear_60_4084" x1="196.491" y1="205.96" x2="196.491" y2="171.908" gradientUnits="userSpaceOnUse">
<stop offset="0.016" stop-color="white"/>
<stop offset="0.9916" stop-color="#F29DC8"/>
</linearGradient>
<linearGradient id="paint7_linear_60_4084" x1="278.011" y1="171.593" x2="248.949" y2="5.25199" gradientUnits="userSpaceOnUse">
<stop stop-color="#3E2987"/>
<stop offset="0.5684" stop-color="#2C2F90"/>
<stop offset="1" stop-color="#243294"/>
</linearGradient>
<linearGradient id="paint8_linear_60_4084" x1="282.022" y1="667.768" x2="282.022" y2="320.252" gradientUnits="userSpaceOnUse">
<stop stop-color="#FF6686"/>
<stop offset="1" stop-color="#FF7C89"/>
</linearGradient>
<linearGradient id="paint9_linear_60_4084" x1="294.141" y1="667.767" x2="294.141" y2="300.394" gradientUnits="userSpaceOnUse">
<stop stop-color="#2B2583"/>
<stop offset="1" stop-color="#482C97"/>
</linearGradient>
<linearGradient id="paint10_linear_60_4084" x1="84.3431" y1="668.816" x2="84.3431" y2="391.234" gradientUnits="userSpaceOnUse">
<stop stop-color="#26258A"/>
<stop offset="1" stop-color="#3C2C95"/>
</linearGradient>
<linearGradient id="paint11_linear_60_4084" x1="62.0833" y1="434.928" x2="62.0833" y2="157.881" gradientUnits="userSpaceOnUse">
<stop offset="0.016" stop-color="#FFC2A0"/>
<stop offset="1" stop-color="#FFA195"/>
</linearGradient>
<linearGradient id="paint12_linear_60_4084" x1="47.2255" y1="529.9" x2="47.2255" y2="402.577" gradientUnits="userSpaceOnUse">
<stop stop-color="#FF6686"/>
<stop offset="1" stop-color="#FF7C89"/>
</linearGradient>
<linearGradient id="paint13_linear_60_4084" x1="495.018" y1="668.816" x2="495.018" y2="382.41" gradientUnits="userSpaceOnUse">
<stop stop-color="#26258A"/>
<stop offset="1" stop-color="#3C2C95"/>
</linearGradient>
<linearGradient id="paint14_linear_60_4084" x1="277.629" y1="95.636" x2="284.46" y2="95.636" gradientUnits="userSpaceOnUse">
<stop stop-color="#8453B8"/>
<stop offset="0.2307" stop-color="#7755BA"/>
<stop offset="0.6978" stop-color="#6157BC"/>
<stop offset="1" stop-color="#5958BD"/>
</linearGradient>
<linearGradient id="paint15_linear_60_4084" x1="265.584" y1="176.449" x2="265.584" y2="103.681" gradientUnits="userSpaceOnUse">
<stop offset="0.016" stop-color="white"/>
<stop offset="0.9916" stop-color="#F29DC8"/>
</linearGradient>
<linearGradient id="paint16_linear_60_4084" x1="211.562" y1="144.541" x2="243.675" y2="144.541" gradientUnits="userSpaceOnUse">
<stop offset="0.016" stop-color="white"/>
<stop offset="0.9916" stop-color="#EA9DC8"/>
</linearGradient>
<linearGradient id="paint17_linear_60_4084" x1="286.397" y1="134.262" x2="318.111" y2="134.262" gradientUnits="userSpaceOnUse">
<stop offset="0.016" stop-color="white"/>
<stop offset="0.9916" stop-color="#EA9DC8"/>
</linearGradient>
<linearGradient id="paint18_linear_60_4084" x1="279.067" y1="177.413" x2="291.186" y2="177.413" gradientUnits="userSpaceOnUse">
<stop offset="0.016" stop-color="white"/>
<stop offset="0.9916" stop-color="#EA9DC8"/>
</linearGradient>
<linearGradient id="paint19_linear_60_4084" x1="298.354" y1="200.894" x2="312.29" y2="200.894" gradientUnits="userSpaceOnUse">
<stop offset="0.016" stop-color="white"/>
<stop offset="0.9916" stop-color="#F29DC8"/>
</linearGradient>
<linearGradient id="paint20_linear_60_4084" x1="276.712" y1="238.818" x2="276.712" y2="225.965" gradientUnits="userSpaceOnUse">
<stop offset="0.016" stop-color="white"/>
<stop offset="0.9916" stop-color="#F29DC8"/>
</linearGradient>
<linearGradient id="paint21_linear_60_4084" x1="302.868" y1="149.118" x2="302.868" y2="135.61" gradientUnits="userSpaceOnUse">
<stop offset="0.016" stop-color="#E0B3D1"/>
<stop offset="0.9916" stop-color="#C2798B"/>
</linearGradient>
<linearGradient id="paint22_linear_60_4084" x1="229.11" y1="161.06" x2="229.11" y2="147.552" gradientUnits="userSpaceOnUse">
<stop offset="0.016" stop-color="#E0B3D1"/>
<stop offset="0.9916" stop-color="#C2798B"/>
</linearGradient>
<linearGradient id="paint23_linear_60_4084" x1="301.918" y1="112.688" x2="301.918" y2="87.0965" gradientUnits="userSpaceOnUse">
<stop stop-color="#B877B8"/>
<stop offset="0.2337" stop-color="#9A6DBA"/>
<stop offset="0.5605" stop-color="#7762BB"/>
<stop offset="0.8276" stop-color="#615BBD"/>
<stop offset="1" stop-color="#5958BD"/>
</linearGradient>
<linearGradient id="paint24_linear_60_4084" x1="223.567" y1="123.238" x2="223.567" y2="94.4795" gradientUnits="userSpaceOnUse">
<stop stop-color="#B877B8"/>
<stop offset="0.2337" stop-color="#9A6DBA"/>
<stop offset="0.5605" stop-color="#7762BB"/>
<stop offset="0.8276" stop-color="#615BBD"/>
<stop offset="1" stop-color="#5958BD"/>
</linearGradient>
<linearGradient id="paint25_linear_60_4084" x1="321.612" y1="98.7862" x2="354.285" y2="98.7862" gradientUnits="userSpaceOnUse">
<stop offset="0.016" stop-color="white"/>
<stop offset="0.9916" stop-color="#C2798B"/>
</linearGradient>
<linearGradient id="paint26_linear_60_4084" x1="185.511" y1="105.996" x2="216.5" y2="105.996" gradientUnits="userSpaceOnUse">
<stop offset="0.00837989" stop-color="#C2798B"/>
<stop offset="0.984" stop-color="white"/>
</linearGradient>
<linearGradient id="paint27_linear_60_4084" x1="183.59" y1="79.4885" x2="219.338" y2="79.4885" gradientUnits="userSpaceOnUse">
<stop offset="0.00837989" stop-color="#C2798B"/>
<stop offset="0.984" stop-color="white"/>
</linearGradient>
<linearGradient id="paint28_linear_60_4084" x1="282.642" y1="74.3413" x2="275.025" y2="30.7445" gradientUnits="userSpaceOnUse">
<stop stop-color="#3E2987"/>
<stop offset="0.5684" stop-color="#2C2F90"/>
<stop offset="1" stop-color="#243294"/>
</linearGradient>
<linearGradient id="paint29_linear_60_4084" x1="345.601" y1="84.1675" x2="347.661" y2="54.4193" gradientUnits="userSpaceOnUse">
<stop stop-color="#3E2987"/>
<stop offset="0.5684" stop-color="#2C2F90"/>
<stop offset="1" stop-color="#243294"/>
</linearGradient>
<linearGradient id="paint30_linear_60_4084" x1="249.21" y1="188.042" x2="262.6" y2="188.042" gradientUnits="userSpaceOnUse">
<stop offset="0.016" stop-color="white"/>
<stop offset="0.9916" stop-color="#D172A6"/>
</linearGradient>
<linearGradient id="paint31_linear_60_4084" x1="223.939" y1="188.812" x2="223.939" y2="125.733" gradientUnits="userSpaceOnUse">
<stop stop-color="#26258A"/>
<stop offset="1" stop-color="#3C2C95"/>
</linearGradient>
<linearGradient id="paint32_linear_60_4084" x1="315.831" y1="175.898" x2="302.481" y2="113.564" gradientUnits="userSpaceOnUse">
<stop stop-color="#26258A"/>
<stop offset="1" stop-color="#3C2C95"/>
</linearGradient>
<linearGradient id="paint33_linear_60_4084" x1="265.108" y1="138.679" x2="265.108" y2="128.021" gradientUnits="userSpaceOnUse">
<stop stop-color="#26258A"/>
<stop offset="1" stop-color="#3C2C95"/>
</linearGradient>
<linearGradient id="paint34_linear_60_4084" x1="347.568" y1="147.551" x2="347.568" y2="121.731" gradientUnits="userSpaceOnUse">
<stop stop-color="#26258A"/>
<stop offset="1" stop-color="#3C2C95"/>
</linearGradient>
<linearGradient id="paint35_linear_60_4084" x1="268.553" y1="82.1168" x2="263.928" y2="55.6439" gradientUnits="userSpaceOnUse">
<stop stop-color="#3E2987"/>
<stop offset="0.5684" stop-color="#2C2F90"/>
<stop offset="1" stop-color="#243294"/>
</linearGradient>
<linearGradient id="paint36_linear_60_4084" x1="259.768" y1="372.646" x2="259.768" y2="266.511" gradientUnits="userSpaceOnUse">
<stop offset="0.016" stop-color="white"/>
<stop offset="0.9916" stop-color="#F29DC8"/>
</linearGradient>
<linearGradient id="paint37_linear_60_4084" x1="195.213" y1="668.101" x2="195.213" y2="308.347" gradientUnits="userSpaceOnUse">
<stop stop-color="#38328A"/>
<stop offset="1" stop-color="#5C43A2"/>
</linearGradient>
<linearGradient id="paint38_linear_60_4084" x1="368.024" y1="667.77" x2="368.024" y2="300.397" gradientUnits="userSpaceOnUse">
<stop stop-color="#38328A"/>
<stop offset="1" stop-color="#5C43A2"/>
</linearGradient>
<linearGradient id="paint39_linear_60_4084" x1="253.517" y1="498.647" x2="253.517" y2="353.292" gradientUnits="userSpaceOnUse">
<stop offset="0.016" stop-color="white"/>
<stop offset="0.9916" stop-color="#EA8CC1"/>
</linearGradient>
<linearGradient id="paint40_linear_60_4084" x1="313.004" y1="467.746" x2="313.004" y2="362.102" gradientUnits="userSpaceOnUse">
<stop offset="0.016" stop-color="white"/>
<stop offset="0.9916" stop-color="#EA8CC1"/>
</linearGradient>
<linearGradient id="paint41_linear_60_4084" x1="40.813" y1="332.829" x2="40.813" y2="198.307" gradientUnits="userSpaceOnUse">
<stop offset="0.00837989" stop-color="#EA9DC8"/>
<stop offset="0.984" stop-color="#FFDBD6"/>
</linearGradient>
<linearGradient id="paint42_linear_60_4084" x1="57.8393" y1="222.172" x2="57.8393" y2="185.066" gradientUnits="userSpaceOnUse">
<stop stop-color="#FFB595"/>
<stop offset="0.984" stop-color="#FFC290"/>
</linearGradient>
<linearGradient id="paint43_linear_60_4084" x1="34.167" y1="245.331" x2="34.167" y2="210.634" gradientUnits="userSpaceOnUse">
<stop stop-color="#FFB595"/>
<stop offset="0.984" stop-color="#FFC290"/>
</linearGradient>
<linearGradient id="paint44_linear_60_4084" x1="19.5854" y1="260.859" x2="19.5854" y2="242.543" gradientUnits="userSpaceOnUse">
<stop stop-color="#FFB595"/>
<stop offset="0.984" stop-color="#FFC290"/>
</linearGradient>
<linearGradient id="paint45_linear_60_4084" x1="68.3856" y1="380.098" x2="68.3856" y2="336.575" gradientUnits="userSpaceOnUse">
<stop offset="0.016" stop-color="white"/>
<stop offset="0.9916" stop-color="#EA9DC8"/>
</linearGradient>
<linearGradient id="paint46_linear_60_4084" x1="56.733" y1="333.552" x2="56.733" y2="291.068" gradientUnits="userSpaceOnUse">
<stop offset="0.016" stop-color="white"/>
<stop offset="0.9916" stop-color="#EA9DC8"/>
</linearGradient>
<linearGradient id="paint47_linear_60_4084" x1="83.2573" y1="310.105" x2="83.2573" y2="266.512" gradientUnits="userSpaceOnUse">
<stop offset="0.00837989" stop-color="#EA9DC8"/>
<stop offset="0.984" stop-color="white"/>
</linearGradient>
<linearGradient id="paint48_linear_60_4084" x1="130.543" y1="463.695" x2="159.699" y2="463.695" gradientUnits="userSpaceOnUse">
<stop offset="0.00837989" stop-color="#C2798B"/>
<stop offset="0.984" stop-color="white"/>
</linearGradient>
<linearGradient id="paint49_linear_60_4084" x1="103" y1="588.901" x2="103" y2="498.648" gradientUnits="userSpaceOnUse">
<stop offset="0.016" stop-color="white"/>
<stop offset="0.9916" stop-color="#C2798B"/>
</linearGradient>
<linearGradient id="paint50_linear_60_4084" x1="2.34682" y1="534.899" x2="65.9493" y2="534.899" gradientUnits="userSpaceOnUse">
<stop offset="0.00837989" stop-color="#C2798B"/>
<stop offset="0.984" stop-color="white"/>
</linearGradient>
<linearGradient id="paint51_linear_60_4084" x1="86.5637" y1="630.599" x2="86.5637" y2="461.815" gradientUnits="userSpaceOnUse">
<stop offset="0.016" stop-color="white"/>
<stop offset="0.9916" stop-color="#C2798B"/>
</linearGradient>
<linearGradient id="paint52_linear_60_4084" x1="423.21" y1="435.092" x2="457.737" y2="435.092" gradientUnits="userSpaceOnUse">
<stop offset="0.016" stop-color="white"/>
<stop offset="0.9916" stop-color="#C2798B"/>
</linearGradient>
<linearGradient id="paint53_linear_60_4084" x1="431.781" y1="532.895" x2="445.124" y2="532.895" gradientUnits="userSpaceOnUse">
<stop offset="0.00837989" stop-color="#C2798B"/>
<stop offset="0.984" stop-color="white"/>
</linearGradient>
<linearGradient id="paint54_linear_60_4084" x1="385.786" y1="588.709" x2="423.21" y2="588.709" gradientUnits="userSpaceOnUse">
<stop offset="0.00837989" stop-color="#C2798B"/>
<stop offset="0.984" stop-color="white"/>
</linearGradient>
<linearGradient id="paint55_linear_60_4084" x1="439.054" y1="587.7" x2="534.239" y2="587.7" gradientUnits="userSpaceOnUse">
<stop offset="0.00837989" stop-color="#C2798B"/>
<stop offset="0.984" stop-color="white"/>
</linearGradient>
<linearGradient id="paint56_linear_60_4084" x1="456.215" y1="589.717" x2="533.024" y2="589.717" gradientUnits="userSpaceOnUse">
<stop offset="0.00837989" stop-color="#C2798B"/>
<stop offset="0.984" stop-color="white"/>
</linearGradient>
<linearGradient id="paint57_linear_60_4084" x1="428.435" y1="589.718" x2="428.435" y2="451.765" gradientUnits="userSpaceOnUse">
<stop offset="0.00837989" stop-color="#C2798B"/>
<stop offset="0.984" stop-color="white"/>
</linearGradient>
<linearGradient id="paint58_linear_60_4084" x1="481.313" y1="634.611" x2="481.313" y2="599.451" gradientUnits="userSpaceOnUse">
<stop offset="0.016" stop-color="#FFA67F"/>
<stop offset="1" stop-color="#FF8B7C"/>
</linearGradient>
<linearGradient id="paint59_linear_60_4084" x1="505.982" y1="669.633" x2="505.982" y2="589.962" gradientUnits="userSpaceOnUse">
<stop stop-color="#2B2583"/>
<stop offset="1" stop-color="#231868"/>
</linearGradient>
<linearGradient id="paint60_linear_60_4084" x1="435.18" y1="666.77" x2="435.18" y2="634.545" gradientUnits="userSpaceOnUse">
<stop offset="0.016" stop-color="#FFC2A0"/>
<stop offset="1" stop-color="#FFA195"/>
</linearGradient>
<linearGradient id="paint61_linear_60_4084" x1="483.527" y1="669.776" x2="483.527" y2="614.498" gradientUnits="userSpaceOnUse">
<stop stop-color="#C50B79"/>
<stop offset="1" stop-color="#E51160"/>
</linearGradient>
<linearGradient id="paint62_linear_60_4084" x1="492.649" y1="660.927" x2="492.649" y2="589.721" gradientUnits="userSpaceOnUse">
<stop offset="0.016" stop-color="#FFC2A0"/>
<stop offset="1" stop-color="#FFA195"/>
</linearGradient>
<linearGradient id="paint63_linear_60_4084" x1="273.355" y1="668.811" x2="273.355" y2="452.994" gradientUnits="userSpaceOnUse">
<stop stop-color="#C9B6E9"/>
<stop offset="1" stop-color="#BBABD1"/>
</linearGradient>
<linearGradient id="paint64_linear_60_4084" x1="273.355" y1="469.999" x2="273.355" y2="447.046" gradientUnits="userSpaceOnUse">
<stop stop-color="#D8CAEF"/>
<stop offset="1" stop-color="#EADEF4"/>
</linearGradient>
<linearGradient id="paint65_linear_60_4084" x1="510.229" y1="630.475" x2="510.229" y2="610.326" gradientUnits="userSpaceOnUse">
<stop offset="0.016" stop-color="white"/>
<stop offset="0.9916" stop-color="#EA9DC8"/>
</linearGradient>
<linearGradient id="paint66_linear_60_4084" x1="526.127" y1="647.01" x2="526.127" y2="632.596" gradientUnits="userSpaceOnUse">
<stop offset="0.016" stop-color="white"/>
<stop offset="0.9916" stop-color="#EA9DC8"/>
</linearGradient>
<linearGradient id="paint67_linear_60_4084" x1="374.731" y1="391.228" x2="374.731" y2="327.68" gradientUnits="userSpaceOnUse">
<stop offset="0.016" stop-color="white"/>
<stop offset="0.9916" stop-color="#C2798B"/>
</linearGradient>
<linearGradient id="paint68_linear_60_4084" x1="200.334" y1="398.521" x2="200.334" y2="316.27" gradientUnits="userSpaceOnUse">
<stop offset="0.016" stop-color="white"/>
<stop offset="0.9916" stop-color="#C2798B"/>
</linearGradient>
<linearGradient id="paint69_linear_60_4084" x1="44.4706" y1="334.425" x2="44.4706" y2="276.929" gradientUnits="userSpaceOnUse">
<stop offset="0.016" stop-color="white"/>
<stop offset="0.9916" stop-color="#F29DC8"/>
</linearGradient>
<linearGradient id="paint70_linear_60_4084" x1="285.366" y1="99.3678" x2="312.412" y2="99.3678" gradientUnits="userSpaceOnUse">
<stop offset="0.00837989" stop-color="#F29DC8"/>
<stop offset="0.984" stop-color="white"/>
</linearGradient>
<linearGradient id="paint71_linear_60_4084" x1="290.381" y1="102.079" x2="320.38" y2="102.079" gradientUnits="userSpaceOnUse">
<stop offset="0.00837989" stop-color="#F29DC8"/>
<stop offset="0.984" stop-color="white"/>
</linearGradient>
<linearGradient id="paint72_linear_60_4084" x1="223.706" y1="105.83" x2="241.888" y2="105.83" gradientUnits="userSpaceOnUse">
<stop offset="0.016" stop-color="white"/>
<stop offset="0.9916" stop-color="#F29DC8"/>
</linearGradient>
<linearGradient id="paint73_linear_60_4084" x1="213.561" y1="108.425" x2="239.016" y2="108.425" gradientUnits="userSpaceOnUse">
<stop offset="0.016" stop-color="white"/>
<stop offset="0.9916" stop-color="#F29DC8"/>
</linearGradient>
<linearGradient id="paint74_linear_60_4084" x1="52.6674" y1="221.387" x2="52.6674" y2="210.634" gradientUnits="userSpaceOnUse">
<stop offset="0.00837989" stop-color="#EA9DC8"/>
<stop offset="0.984" stop-color="#FFDBD6"/>
</linearGradient>
<linearGradient id="paint75_linear_60_4084" x1="25.4685" y1="244.59" x2="25.4685" y2="242.309" gradientUnits="userSpaceOnUse">
<stop offset="0.00837989" stop-color="#EA9DC8"/>
<stop offset="0.984" stop-color="#FFDBD6"/>
</linearGradient>
</defs>
</svg>
