<svg width="1600" height="600" viewBox="0 0 1600 600" fill="none" xmlns="http://www.w3.org/2000/svg">
<g clip-path="url(#clip0_70_4252)">
<path d="M451.61 547.549C450.544 549.584 447.608 550.541 445.064 549.688C442.52 548.835 441.323 546.486 442.39 544.451C443.456 542.416 446.392 541.459 448.936 542.312C451.48 543.165 452.677 545.514 451.61 547.549Z" fill="url(#paint0_linear_70_4252)"/>
<path d="M1551.44 472.785L1581.55 478.31L1577.87 485.786L1549.55 477.153L1551.44 472.785Z" fill="#6877FF"/>
<path d="M857.404 156.732L885.576 148.443L887.845 156.433L864.668 161.059L857.404 156.732Z" fill="#9A7DF8"/>
<path d="M258.489 206.939C257.094 209.489 253.281 210.678 249.98 209.605C246.665 208.532 245.118 205.6 246.513 203.061C247.908 200.511 251.721 199.322 255.022 200.395C258.323 201.457 259.884 204.389 258.489 206.939Z" fill="url(#paint1_linear_70_4252)"/>
<path d="M657.956 59L666 79.1514L657.582 81L650 62.4714L657.956 59Z" fill="#FF1D9C"/>
<path d="M65.9981 151.552L63.8125 153.656L84.7736 163.065L80.4022 150.445C75.2784 151.525 70.4412 151.884 65.9981 151.552Z" fill="white"/>
<path d="M149.059 58.5688L165.469 55.0817L144.472 45.6445L143.039 48.4951C145.655 51.2626 147.697 54.6389 149.059 58.5688Z" fill="white"/>
<path d="M121.292 80.3454C121.22 79.8473 121.148 79.3491 121.005 78.8786C120.933 78.6019 120.826 78.3528 120.718 78.0761C120.575 77.6609 120.468 77.2735 120.324 76.886C120.217 76.6093 120.073 76.3879 119.93 76.1111C119.751 75.7514 119.608 75.3916 119.393 75.0872C119.249 74.8381 119.07 74.6167 118.891 74.3953C118.676 74.0909 118.497 73.7864 118.246 73.5097C118.067 73.2883 117.816 73.0946 117.637 72.8732C117.386 72.6241 117.171 72.3473 116.884 72.1259C116.669 71.9322 116.419 71.7662 116.168 71.5724C115.881 71.351 115.63 71.1296 115.344 70.9636C115.093 70.7975 114.806 70.6592 114.52 70.5208C110.292 68.2515 104.523 68.0024 98.0014 70.1057C98.1447 71.019 98.2523 71.9876 98.2523 73.0115C98.2523 73.7864 98.2164 74.5337 98.1448 75.3362C98.1089 75.5853 98.0731 75.8344 98.0373 76.0835C97.9656 76.5816 97.8939 77.0798 97.7864 77.5779C97.679 78.1314 97.5356 78.6849 97.4281 79.2384C97.3206 79.6259 97.249 80.0133 97.1415 80.4008C97.034 80.7605 96.9265 81.1203 96.819 81.4801C96.6399 81.9782 96.4965 82.4764 96.3174 82.9745C96.2099 83.2513 96.1024 83.5557 95.959 83.8325C95.744 84.386 95.4933 84.9671 95.2425 85.5206C95.135 85.742 95.0275 85.9911 94.92 86.2125C94.5617 86.9874 94.1317 87.7623 93.7018 88.5095C93.6659 88.5926 93.5942 88.6756 93.5584 88.7586C93.1643 89.4505 92.7701 90.1147 92.3043 90.7789C92.161 91.0003 92.0177 91.194 91.8743 91.4154C91.4444 92.0519 91.0144 92.6608 90.5486 93.2973C90.4411 93.4357 90.3694 93.5464 90.2619 93.6847C89.7244 94.4043 89.1512 95.1238 88.5421 95.8434C88.3629 96.0371 88.1838 96.2585 88.0046 96.4522C87.5747 96.9504 87.1088 97.4485 86.643 97.9467C86.3922 98.2234 86.1413 98.4725 85.8905 98.7493C85.4964 99.1644 85.0664 99.5518 84.6723 99.967C84.3139 100.299 83.9557 100.631 83.5974 100.963C83.2749 101.268 82.9165 101.572 82.5582 101.877C81.9491 102.375 81.3758 102.873 80.7667 103.371C80.3725 103.675 80.0142 103.98 79.6201 104.257C79.3334 104.478 79.011 104.699 78.6885 104.921C78.1869 105.281 77.6852 105.613 77.1477 105.945C76.8252 106.138 76.5386 106.332 76.2162 106.526C75.6429 106.858 75.0695 107.19 74.4962 107.522C74.2096 107.688 73.9588 107.827 73.6722 107.993C72.8122 108.436 71.9523 108.878 71.0923 109.266C70.2682 109.653 69.4441 109.958 68.62 110.262C68.405 110.345 68.1899 110.428 67.9749 110.483C67.7958 110.539 67.6167 110.594 67.4375 110.649C68.2258 115.742 71.0565 119.367 75.2129 121.221C75.7862 121.47 76.3595 121.664 76.9686 121.858C77.1119 121.886 77.2195 121.941 77.3628 121.969C77.3986 121.969 77.4344 121.996 77.4344 121.996C77.9002 122.135 78.4018 122.245 78.9393 122.328C79.0826 122.356 79.1901 122.384 79.3335 122.411C79.3693 122.411 79.3693 122.411 79.3693 122.411C80.0143 122.494 80.6951 122.577 81.3759 122.605C81.4833 122.605 81.5908 122.605 81.6983 122.605C81.7341 122.605 81.8058 122.605 81.8417 122.605C82.3791 122.605 82.9524 122.605 83.4899 122.577C83.7407 122.55 83.9915 122.55 84.2782 122.522H84.3139C84.7797 122.467 85.2456 122.411 85.7114 122.356C86.0697 122.301 86.428 122.245 86.7863 122.19H86.8221C87.2163 122.107 87.6105 122.024 88.0046 121.941C88.6138 121.802 89.2587 121.636 89.9037 121.443C89.9037 121.443 89.9036 121.443 89.9394 121.443C90.3694 121.304 90.8352 121.194 91.2652 121.028C91.4801 120.945 91.6952 120.889 91.9102 120.806C92.7343 120.502 93.5584 120.197 94.3826 119.81C95.2425 119.422 96.1025 118.98 96.9624 118.537C97.2491 118.398 97.4998 118.232 97.7864 118.066C98.0731 117.928 98.3239 117.762 98.5747 117.596C98.8614 117.43 99.1839 117.264 99.4705 117.07C99.793 116.876 100.08 116.683 100.402 116.489C100.689 116.295 100.975 116.101 101.226 115.908C101.441 115.742 101.692 115.603 101.907 115.437C102.194 115.216 102.516 114.994 102.803 114.773C103.197 114.496 103.591 114.192 103.949 113.887C104.559 113.417 105.168 112.919 105.741 112.393C106.099 112.089 106.458 111.784 106.78 111.48C107.138 111.148 107.497 110.816 107.819 110.483C108.249 110.096 108.643 109.681 109.037 109.266C109.288 109.017 109.539 108.74 109.79 108.463C110.256 107.965 110.686 107.467 111.151 106.969C111.331 106.775 111.51 106.581 111.653 106.36C112.226 105.64 112.8 104.948 113.373 104.201C113.48 104.063 113.552 103.952 113.66 103.814C114.125 103.205 114.555 102.568 114.985 101.932C115.129 101.71 115.272 101.517 115.415 101.295C115.845 100.631 116.275 99.9393 116.634 99.2751C116.669 99.1921 116.741 99.0814 116.777 98.9983C117.207 98.2234 117.601 97.4762 117.995 96.7013C118.103 96.4799 118.21 96.2308 118.318 96.0094C118.569 95.4559 118.819 94.9024 119.034 94.3213C119.142 94.0445 119.285 93.7401 119.393 93.4634C119.572 92.9652 119.751 92.4671 119.894 91.9689C120.002 91.6091 120.145 91.2494 120.253 90.8896C120.36 90.5021 120.432 90.1147 120.539 89.7549C120.683 89.2014 120.79 88.6479 120.898 88.0944C121.005 87.5963 121.077 87.0981 121.148 86.5723C121.184 86.3232 121.22 86.0741 121.256 85.8527C121.328 85.0778 121.363 84.3029 121.363 83.528C121.363 82.6978 121.292 81.8952 121.22 81.148C121.399 80.8159 121.327 80.5945 121.292 80.3454Z" fill="white"/>
<path d="M28.6315 134.922L23.4001 136.057L21.0711 135.005L13.9766 149.036L37.3025 159.497L45.8304 142.643L28.6315 134.922Z" fill="white"/>
<path d="M105.381 31.7753L122.831 39.6073L137.522 25.4377L114.196 14.9766L101.727 26.9875L104.091 28.0668L105.381 31.7753Z" fill="white"/>
<path d="M39.8076 132.594L28.6641 134.946L45.8272 142.667C43.1757 139.872 41.1333 136.496 39.8076 132.594Z" fill="white"/>
<path d="M108.5 40.6887C111.868 39.9691 115.057 39.6093 118.139 39.5263C118.318 39.5263 118.461 39.4987 118.64 39.4987C119.321 39.4987 120.002 39.4986 120.647 39.5263C121.184 39.5263 121.686 39.554 122.223 39.5817C122.438 39.5817 122.618 39.5817 122.833 39.6093L105.383 31.7773L108.5 40.6887Z" fill="white"/>
<path d="M40.3414 105.174C40.6639 104.122 40.9864 103.099 41.3447 102.047C41.5238 101.521 41.703 100.995 41.8821 100.497C42.957 97.6465 44.1754 94.796 45.6444 91.9455L22.3184 81.4844C22.175 81.7334 22.0676 82.0102 21.9243 82.287C21.7093 82.7298 21.5301 83.1725 21.3151 83.5877C20.9568 84.3626 20.5985 85.1098 20.2402 85.8847C20.1685 86.0507 20.0969 86.2168 20.0252 86.3828C19.8819 86.7426 19.7385 87.1301 19.5952 87.4898C19.2369 88.3478 18.9144 89.2057 18.5919 90.0636C18.5202 90.3127 18.4128 90.5341 18.3053 90.7832C18.1978 91.0599 18.1261 91.3367 18.0186 91.6411C17.6603 92.6927 17.3378 93.7444 17.0153 94.7683C16.9078 95.0728 16.8004 95.3772 16.7287 95.7093C16.6212 96.1244 16.5137 96.5119 16.4062 96.927L39.7323 107.388C39.8757 106.613 40.1264 105.894 40.3414 105.174Z" fill="white"/>
<path d="M65.6776 65.0697C67.6484 63.1601 69.6907 61.3612 71.7689 59.6177C71.9839 59.424 72.1989 59.2579 72.4139 59.0642C73.1664 58.4277 73.9905 57.8188 74.7788 57.21C75.1013 56.9609 75.4237 56.7118 75.7462 56.4627C77.1436 55.4111 78.5768 54.3594 80.0101 53.3908L56.684 42.9297C55.2508 43.926 53.8175 44.95 52.4201 46.0016C52.2768 46.0846 52.1693 46.1953 52.026 46.2784C51.381 46.7765 50.7361 47.3023 50.0911 47.8005C49.7686 48.0772 49.4103 48.3263 49.0878 48.603C47.9771 49.5163 46.9021 50.4296 45.8272 51.3705C45.7914 51.3982 45.7913 51.3982 45.7913 51.4259C44.6089 52.4775 43.4623 53.5292 42.3516 54.6362L65.6776 65.0697Z" fill="white"/>
<path d="M39.7009 107.305L16.3748 96.8438L0 108.024L23.3261 118.486L39.7009 107.305Z" fill="white"/>
<path d="M23.3261 118.481L0 108.02L0.0717322 125.565L21.0687 135.003L23.3977 136.054L23.3261 118.481Z" fill="white"/>
<path d="M84.3133 36.8912L60.9873 26.4023L56.6875 42.8966L80.0136 53.3854L84.3133 36.8912Z" fill="white"/>
<path d="M104.089 28.0705L101.724 26.9912L80.7631 17.6094L60.9844 26.41L84.3103 36.8988L104.089 28.0705Z" fill="white"/>
<path d="M37.0129 82.6955L13.7227 72.2344L22.3221 81.4501L45.6482 91.939L37.0129 82.6955Z" fill="white"/>
<path d="M65.6809 65.0714L42.3907 54.6103L27.6641 53.5586L50.9901 64.0474L65.6809 65.0714Z" fill="white"/>
<path d="M50.987 64.0474L27.6609 53.5586L13.7227 72.2392L37.0129 82.7003L50.987 64.0474Z" fill="white"/>
<path d="M149.162 83.8274L165.573 72.6468L165.501 55.0732L149.091 58.5602C147.729 54.6304 145.687 51.2817 143.071 48.5142L144.504 45.6637L151.563 31.6325L137.517 25.4609L122.826 39.6028C122.647 39.5752 122.432 39.6029 122.217 39.5752C121.716 39.5475 121.178 39.5198 120.641 39.5198C119.96 39.4921 119.315 39.4922 118.634 39.4922C118.455 39.4922 118.312 39.5198 118.133 39.5198C115.051 39.6028 111.826 39.9903 108.494 40.6822L105.413 31.7432L104.123 28.0347L84.3439 36.863L80.08 53.3573C78.6467 54.3536 77.2135 55.3776 75.8161 56.4292C75.4936 56.6783 75.1711 56.9274 74.8487 57.1765C74.0604 57.7853 73.2721 58.3942 72.4838 59.0307C72.2688 59.1967 72.0538 59.3904 71.8389 59.5842C69.7248 61.3277 67.6824 63.1542 65.7475 65.0361L51.021 63.9845L37.0826 82.6374L45.6821 91.8808C44.2488 94.7314 42.9948 97.5819 41.9199 100.432C41.7407 100.958 41.5616 101.484 41.3824 101.982C41.0241 103.034 40.7016 104.086 40.3791 105.109C40.1642 105.829 39.9491 106.549 39.77 107.24L23.3594 118.393L23.431 135.967L28.6982 134.86L39.8417 132.508C41.1675 136.438 43.2098 139.786 45.8613 142.554L37.3335 159.408L51.3793 165.579L63.8485 153.568L66.0342 151.465C70.4773 151.797 75.2786 151.465 80.4024 150.358L84.7738 162.978L104.553 154.149L108.817 137.655C113.905 134.224 118.706 130.266 123.113 125.976L137.84 127L151.778 108.347L143.179 99.1317C145.83 94.0948 147.837 88.9196 149.162 83.8274ZM121.357 86.5119C121.286 87.0101 121.214 87.5082 121.107 88.034C120.999 88.5875 120.892 89.141 120.748 89.6945C120.641 90.082 120.569 90.4694 120.462 90.8292C120.354 91.189 120.247 91.5487 120.103 91.9085C119.924 92.4067 119.781 92.9048 119.602 93.403C119.494 93.6797 119.387 93.9841 119.243 94.2609C119.028 94.8144 118.778 95.3679 118.527 95.9491C118.419 96.1705 118.312 96.4195 118.204 96.6409C117.846 97.4158 117.416 98.1907 116.986 98.938C116.95 99.021 116.879 99.1317 116.807 99.2147C116.413 99.9066 116.019 100.571 115.589 101.235C115.445 101.456 115.302 101.65 115.159 101.872C114.729 102.508 114.299 103.117 113.833 103.753C113.725 103.892 113.654 104.002 113.546 104.141C113.009 104.86 112.436 105.58 111.826 106.3C111.647 106.493 111.468 106.687 111.325 106.908C110.895 107.406 110.429 107.932 109.963 108.403C109.712 108.68 109.461 108.929 109.211 109.205C108.817 109.62 108.387 110.008 107.992 110.423C107.634 110.755 107.312 111.087 106.953 111.419C106.595 111.724 106.273 112.028 105.914 112.333C105.341 112.831 104.732 113.329 104.123 113.827C103.729 114.132 103.37 114.436 102.976 114.713C102.689 114.934 102.367 115.155 102.08 115.377C101.865 115.543 101.615 115.681 101.4 115.847C100.54 116.429 99.6438 117.01 98.748 117.536C98.4972 117.702 98.2106 117.84 97.9598 118.006C97.6731 118.144 97.4223 118.31 97.1356 118.476C96.2757 118.919 95.4157 119.362 94.5558 119.75C93.5167 120.22 92.4776 120.607 91.4385 120.967C90.9727 121.133 90.5427 121.244 90.1127 121.382C89.4678 121.576 88.8228 121.742 88.1778 121.88C87.7837 121.964 87.3895 122.074 86.9953 122.13C86.6012 122.213 86.2429 122.268 85.8846 122.323C85.4188 122.406 84.953 122.462 84.4872 122.489C84.2006 122.517 83.9497 122.545 83.6631 122.545C83.0898 122.572 82.5523 122.572 82.0149 122.572C81.8715 122.572 81.6924 122.572 81.5491 122.572C80.8683 122.545 80.1875 122.489 79.5425 122.379C79.3992 122.351 79.2559 122.323 79.0767 122.296C78.5751 122.213 78.0735 122.102 77.5719 121.964C77.3927 121.908 77.2493 121.881 77.0702 121.825C76.461 121.631 75.8878 121.438 75.3145 121.189C71.1581 119.362 68.3274 115.709 67.5391 110.617C67.3958 109.676 67.2882 108.735 67.2882 107.711C67.2524 94.4269 79.3992 78.2094 94.3408 71.5121C95.5949 70.9586 96.8131 70.5158 97.9955 70.1283C104.517 67.9974 110.321 68.2741 114.514 70.5434C114.8 70.6818 115.087 70.8202 115.338 70.9863C115.624 71.18 115.911 71.4014 116.162 71.5951C116.413 71.7888 116.664 71.9272 116.879 72.1486C117.129 72.37 117.38 72.6468 117.631 72.8958C117.846 73.1172 118.061 73.3109 118.24 73.5323C118.491 73.8091 118.67 74.1135 118.885 74.4179C119.064 74.667 119.243 74.8607 119.387 75.1098C119.602 75.4419 119.745 75.8017 119.924 76.1338C120.067 76.3829 120.211 76.6319 120.318 76.9087C120.462 77.2961 120.605 77.7113 120.712 78.0987C120.784 78.3755 120.892 78.6245 120.999 78.9013C121.107 79.3718 121.178 79.8699 121.286 80.3681C121.322 80.6171 121.393 80.8385 121.429 81.1153C121.537 81.8902 121.572 82.6651 121.572 83.4953C121.572 84.464 121.465 85.4879 121.357 86.5119Z" fill="white"/>
<path opacity="0.2" d="M65.9981 151.552L63.8125 153.656L84.7736 163.065L80.4022 150.445C75.2784 151.525 70.4412 151.884 65.9981 151.552Z" fill="black"/>
<path opacity="0.2" d="M149.059 58.5688L165.469 55.0817L144.472 45.6445L143.039 48.4951C145.655 51.2626 147.697 54.6389 149.059 58.5688Z" fill="black"/>
<path opacity="0.2" d="M121.292 80.3454C121.22 79.8473 121.148 79.3491 121.005 78.8786C120.933 78.6019 120.826 78.3528 120.718 78.0761C120.575 77.6609 120.468 77.2735 120.324 76.886C120.217 76.6093 120.073 76.3879 119.93 76.1111C119.751 75.7514 119.608 75.3916 119.393 75.0872C119.249 74.8381 119.07 74.6167 118.891 74.3953C118.676 74.0909 118.497 73.7864 118.246 73.5097C118.067 73.2883 117.816 73.0946 117.637 72.8732C117.386 72.6241 117.171 72.3473 116.884 72.1259C116.669 71.9322 116.419 71.7662 116.168 71.5724C115.881 71.351 115.63 71.1296 115.344 70.9636C115.093 70.7975 114.806 70.6592 114.52 70.5208C110.292 68.2515 104.523 68.0024 98.0014 70.1057C98.1447 71.019 98.2523 71.9876 98.2523 73.0115C98.2523 73.7864 98.2164 74.5337 98.1448 75.3362C98.1089 75.5853 98.0731 75.8344 98.0373 76.0835C97.9656 76.5816 97.8939 77.0798 97.7864 77.5779C97.679 78.1314 97.5356 78.6849 97.4281 79.2384C97.3206 79.6259 97.249 80.0133 97.1415 80.4008C97.034 80.7605 96.9265 81.1203 96.819 81.4801C96.6399 81.9782 96.4965 82.4764 96.3174 82.9745C96.2099 83.2513 96.1024 83.5557 95.959 83.8325C95.744 84.386 95.4933 84.9671 95.2425 85.5206C95.135 85.742 95.0275 85.9911 94.92 86.2125C94.5617 86.9874 94.1317 87.7623 93.7018 88.5095C93.6659 88.5926 93.5942 88.6756 93.5584 88.7586C93.1643 89.4505 92.7701 90.1147 92.3043 90.7789C92.161 91.0003 92.0177 91.194 91.8743 91.4154C91.4444 92.0519 91.0144 92.6608 90.5486 93.2973C90.4411 93.4357 90.3694 93.5464 90.2619 93.6847C89.7244 94.4043 89.1512 95.1238 88.5421 95.8434C88.3629 96.0371 88.1838 96.2585 88.0046 96.4522C87.5747 96.9504 87.1088 97.4485 86.643 97.9467C86.3922 98.2234 86.1413 98.4725 85.8905 98.7493C85.4964 99.1644 85.0664 99.5518 84.6723 99.967C84.3139 100.299 83.9557 100.631 83.5974 100.963C83.2749 101.268 82.9165 101.572 82.5582 101.877C81.9491 102.375 81.3758 102.873 80.7667 103.371C80.3725 103.675 80.0142 103.98 79.6201 104.257C79.3334 104.478 79.011 104.699 78.6885 104.921C78.1869 105.281 77.6852 105.613 77.1477 105.945C76.8252 106.138 76.5386 106.332 76.2162 106.526C75.6429 106.858 75.0695 107.19 74.4962 107.522C74.2096 107.688 73.9588 107.827 73.6722 107.993C72.8122 108.436 71.9523 108.878 71.0923 109.266C70.2682 109.653 69.4441 109.958 68.62 110.262C68.405 110.345 68.1899 110.428 67.9749 110.483C67.7958 110.539 67.6167 110.594 67.4375 110.649C68.2258 115.742 71.0565 119.367 75.2129 121.221C75.7862 121.47 76.3595 121.664 76.9686 121.858C77.1119 121.886 77.2195 121.941 77.3628 121.969C77.3986 121.969 77.4344 121.996 77.4344 121.996C77.9002 122.135 78.4018 122.245 78.9393 122.328C79.0826 122.356 79.1901 122.384 79.3335 122.411C79.3693 122.411 79.3693 122.411 79.3693 122.411C80.0143 122.494 80.6951 122.577 81.3759 122.605C81.4833 122.605 81.5908 122.605 81.6983 122.605C81.7341 122.605 81.8058 122.605 81.8417 122.605C82.3791 122.605 82.9524 122.605 83.4899 122.577C83.7407 122.55 83.9915 122.55 84.2782 122.522H84.3139C84.7797 122.467 85.2456 122.411 85.7114 122.356C86.0697 122.301 86.428 122.245 86.7863 122.19H86.8221C87.2163 122.107 87.6105 122.024 88.0046 121.941C88.6138 121.802 89.2587 121.636 89.9037 121.443C89.9037 121.443 89.9036 121.443 89.9394 121.443C90.3694 121.304 90.8352 121.194 91.2652 121.028C91.4801 120.945 91.6952 120.889 91.9102 120.806C92.7343 120.502 93.5584 120.197 94.3826 119.81C95.2425 119.422 96.1025 118.98 96.9624 118.537C97.2491 118.398 97.4998 118.232 97.7864 118.066C98.0731 117.928 98.3239 117.762 98.5747 117.596C98.8614 117.43 99.1839 117.264 99.4705 117.07C99.793 116.876 100.08 116.683 100.402 116.489C100.689 116.295 100.975 116.101 101.226 115.908C101.441 115.742 101.692 115.603 101.907 115.437C102.194 115.216 102.516 114.994 102.803 114.773C103.197 114.496 103.591 114.192 103.949 113.887C104.559 113.417 105.168 112.919 105.741 112.393C106.099 112.089 106.458 111.784 106.78 111.48C107.138 111.148 107.497 110.816 107.819 110.483C108.249 110.096 108.643 109.681 109.037 109.266C109.288 109.017 109.539 108.74 109.79 108.463C110.256 107.965 110.686 107.467 111.151 106.969C111.331 106.775 111.51 106.581 111.653 106.36C112.226 105.64 112.8 104.948 113.373 104.201C113.48 104.063 113.552 103.952 113.66 103.814C114.125 103.205 114.555 102.568 114.985 101.932C115.129 101.71 115.272 101.517 115.415 101.295C115.845 100.631 116.275 99.9393 116.634 99.2751C116.669 99.1921 116.741 99.0814 116.777 98.9983C117.207 98.2234 117.601 97.4762 117.995 96.7013C118.103 96.4799 118.21 96.2308 118.318 96.0094C118.569 95.4559 118.819 94.9024 119.034 94.3213C119.142 94.0445 119.285 93.7401 119.393 93.4634C119.572 92.9652 119.751 92.4671 119.894 91.9689C120.002 91.6091 120.145 91.2494 120.253 90.8896C120.36 90.5021 120.432 90.1147 120.539 89.7549C120.683 89.2014 120.79 88.6479 120.898 88.0944C121.005 87.5963 121.077 87.0981 121.148 86.5723C121.184 86.3232 121.22 86.0741 121.256 85.8527C121.328 85.0778 121.363 84.3029 121.363 83.528C121.363 82.6978 121.292 81.8952 121.22 81.148C121.399 80.8159 121.327 80.5945 121.292 80.3454Z" fill="black"/>
<path opacity="0.2" d="M28.6315 134.922L23.4001 136.057L21.0711 135.005L13.9766 149.036L37.3025 159.497L45.8304 142.643L28.6315 134.922Z" fill="black"/>
<path opacity="0.2" d="M39.8076 132.594L28.6641 134.946L45.8272 142.667C43.1757 139.872 41.1333 136.496 39.8076 132.594Z" fill="black"/>
<path opacity="0.2" d="M108.5 40.6887C111.868 39.9691 115.057 39.6093 118.139 39.5263C118.318 39.5263 118.461 39.4987 118.64 39.4987C119.321 39.4987 120.002 39.4986 120.647 39.5263C121.184 39.5263 121.686 39.554 122.223 39.5817C122.438 39.5817 122.618 39.5817 122.833 39.6093L105.383 31.7773L108.5 40.6887Z" fill="black"/>
<path opacity="0.2" d="M40.3414 105.174C40.6639 104.122 40.9864 103.099 41.3447 102.047C41.5238 101.521 41.703 100.995 41.8821 100.497C42.957 97.6465 44.1754 94.796 45.6444 91.9455L22.3184 81.4844C22.175 81.7334 22.0676 82.0102 21.9243 82.287C21.7093 82.7298 21.5301 83.1725 21.3151 83.5877C20.9568 84.3626 20.5985 85.1098 20.2402 85.8847C20.1685 86.0507 20.0969 86.2168 20.0252 86.3828C19.8819 86.7426 19.7385 87.1301 19.5952 87.4898C19.2369 88.3478 18.9144 89.2057 18.5919 90.0636C18.5202 90.3127 18.4128 90.5341 18.3053 90.7832C18.1978 91.0599 18.1261 91.3367 18.0186 91.6411C17.6603 92.6927 17.3378 93.7444 17.0153 94.7683C16.9078 95.0728 16.8004 95.3772 16.7287 95.7093C16.6212 96.1244 16.5137 96.5119 16.4062 96.927L39.7323 107.388C39.8757 106.613 40.1264 105.894 40.3414 105.174Z" fill="black"/>
<path opacity="0.2" d="M23.3261 118.481L0 108.02L0.0717322 125.565L21.0687 135.003L23.3977 136.054L23.3261 118.481Z" fill="black"/>
<path opacity="0.2" d="M84.3133 36.8912L60.9873 26.4023L56.6875 42.8966L80.0136 53.3854L84.3133 36.8912Z" fill="black"/>
<path opacity="0.2" d="M37.0129 82.6955L13.7227 72.2344L22.3221 81.4501L45.6482 91.939L37.0129 82.6955Z" fill="black"/>
<path opacity="0.2" d="M65.6809 65.0714L42.3907 54.6103L27.6641 53.5586L50.9901 64.0474L65.6809 65.0714Z" fill="black"/>
<path opacity="0.2" d="M105.381 31.7753L122.831 39.6073L137.522 25.4377L114.196 14.9766L101.727 26.9875L104.091 28.0668L105.381 31.7753Z" fill="white"/>
<path opacity="0.2" d="M65.6776 65.0697C67.6484 63.1601 69.6907 61.3612 71.7689 59.6177C71.9839 59.424 72.1989 59.2579 72.4139 59.0642C73.1664 58.4277 73.9905 57.8188 74.7788 57.21C75.1013 56.9609 75.4237 56.7118 75.7462 56.4627C77.1436 55.4111 78.5768 54.3594 80.0101 53.3908L56.684 42.9297C55.2508 43.926 53.8175 44.95 52.4201 46.0016C52.2768 46.0846 52.1693 46.1953 52.026 46.2784C51.381 46.7765 50.7361 47.3023 50.0911 47.8005C49.7686 48.0772 49.4103 48.3263 49.0878 48.603C47.9771 49.5163 46.9021 50.4296 45.8272 51.3705C45.7914 51.3982 45.7913 51.3982 45.7913 51.4259C44.6089 52.4775 43.4623 53.5292 42.3516 54.6362L65.6776 65.0697Z" fill="white"/>
<path opacity="0.2" d="M39.7009 107.305L16.3748 96.8438L0 108.024L23.3261 118.486L39.7009 107.305Z" fill="white"/>
<path opacity="0.2" d="M104.089 28.0705L101.724 26.9912L80.7631 17.6094L60.9844 26.41L84.3103 36.8988L104.089 28.0705Z" fill="white"/>
<path opacity="0.2" d="M50.987 64.0474L27.6609 53.5586L13.7227 72.2392L37.0129 82.7003L50.987 64.0474Z" fill="white"/>
<path d="M230.142 90.6151L228.602 92.1095L243.436 98.7515L240.318 89.8125C236.699 90.6151 233.295 90.8365 230.142 90.6151Z" fill="white"/>
<path d="M288.905 24.832L300.514 22.3689L285.644 15.6992L284.641 17.7195C286.504 19.6844 287.937 22.0645 288.905 24.832Z" fill="white"/>
<path d="M269.271 40.2453C269.199 39.8855 269.163 39.5534 269.056 39.2213C269.02 39.0276 268.912 38.8338 268.877 38.6401C268.769 38.3634 268.697 38.0589 268.59 37.7822C268.518 37.5885 268.411 37.4224 268.303 37.2287C268.196 36.9796 268.052 36.7305 267.945 36.4815C267.837 36.3154 267.694 36.1494 267.587 35.9833C267.443 35.7619 267.3 35.5405 267.121 35.3468C266.978 35.1808 266.834 35.0424 266.691 34.904C266.512 34.7379 266.368 34.5442 266.153 34.3782C266.01 34.2398 265.795 34.1291 265.652 33.9907C265.473 33.8523 265.258 33.6863 265.043 33.5479C264.863 33.4372 264.649 33.3542 264.469 33.2435C261.495 31.6384 257.375 31.4446 252.788 32.9668C252.896 33.631 252.968 34.2951 252.968 35.0147C252.968 35.5405 252.932 36.094 252.896 36.6475C252.896 36.8136 252.86 37.0073 252.824 37.1733C252.788 37.5331 252.717 37.8929 252.645 38.225C252.573 38.6124 252.466 38.9999 252.394 39.415C252.323 39.6918 252.251 39.9685 252.179 40.2176C252.108 40.4667 252.036 40.7157 251.929 40.9648C251.821 41.3246 251.678 41.6844 251.57 42.0165C251.499 42.2102 251.427 42.4316 251.319 42.6253C251.14 43.0128 250.997 43.4279 250.818 43.8153C250.746 43.9814 250.674 44.1474 250.603 44.3135C250.352 44.867 250.065 45.3928 249.743 45.9463C249.707 46.0016 249.671 46.057 249.635 46.14C249.349 46.6105 249.062 47.1087 248.775 47.5791C248.668 47.7175 248.596 47.8835 248.489 48.0219C248.202 48.4647 247.88 48.9075 247.557 49.3503C247.485 49.4333 247.414 49.5164 247.378 49.6271C246.984 50.1529 246.59 50.651 246.16 51.1492C246.052 51.2876 245.909 51.4259 245.801 51.5643C245.479 51.9241 245.156 52.2839 244.834 52.616C244.655 52.8097 244.476 53.0034 244.296 53.1695C244.01 53.4462 243.723 53.7506 243.436 54.0274C243.186 54.2765 242.935 54.4979 242.684 54.7193C242.433 54.9407 242.182 55.1621 241.967 55.3558C241.537 55.7156 241.107 56.0753 240.678 56.4074C240.427 56.6288 240.14 56.8226 239.853 57.044C239.638 57.21 239.423 57.3484 239.208 57.5144C238.85 57.7635 238.492 58.0126 238.134 58.234C237.919 58.3724 237.703 58.5107 237.488 58.6491C237.094 58.8982 236.7 59.1196 236.27 59.341C236.091 59.4517 235.876 59.5624 235.697 59.6731C235.088 60.0052 234.479 60.2819 233.87 60.5587C233.26 60.8354 232.687 61.0568 232.114 61.2505C231.97 61.3059 231.827 61.3613 231.648 61.4166C231.505 61.472 231.397 61.4996 231.254 61.5273C231.827 65.125 233.798 67.6988 236.772 68.9995C237.166 69.1656 237.596 69.304 237.99 69.4423C238.098 69.47 238.169 69.4977 238.277 69.5254C238.313 69.5254 238.313 69.5254 238.349 69.553C238.707 69.6361 239.029 69.7191 239.388 69.7744C239.495 69.8021 239.567 69.8021 239.674 69.8298H239.71C240.176 69.8851 240.642 69.9405 241.107 69.9682C241.179 69.9682 241.251 69.9682 241.358 69.9682C241.394 69.9682 241.43 69.9682 241.466 69.9682C241.86 69.9682 242.254 69.9682 242.648 69.9405C242.827 69.9405 243.007 69.9128 243.186 69.8851H243.221C243.544 69.8575 243.902 69.8021 244.225 69.7744C244.476 69.7468 244.726 69.6914 244.977 69.6361C244.977 69.6361 244.977 69.6361 245.013 69.6361C245.3 69.5807 245.586 69.5254 245.837 69.4423C246.267 69.3316 246.733 69.2209 247.199 69.0826C247.521 68.9995 247.808 68.8888 248.13 68.7781C248.274 68.7228 248.417 68.6674 248.56 68.6121C249.134 68.3907 249.707 68.1693 250.316 67.9202C250.925 67.6435 251.534 67.339 252.144 67.0346C252.323 66.9239 252.538 66.8132 252.717 66.7025C252.896 66.5918 253.111 66.4811 253.29 66.3704C253.505 66.2597 253.72 66.1213 253.935 66.0106C254.15 65.8723 254.365 65.7339 254.58 65.5955C254.795 65.4571 254.974 65.3188 255.189 65.1804C255.368 65.0697 255.512 64.959 255.691 64.8483C255.906 64.7099 256.121 64.5439 256.336 64.3778C256.622 64.1841 256.873 63.9627 257.16 63.7413C257.59 63.4092 258.02 63.0494 258.45 62.6896C258.701 62.4682 258.951 62.2745 259.202 62.0531C259.453 61.8317 259.704 61.5826 259.955 61.3612C260.241 61.0845 260.528 60.8077 260.815 60.5033C260.994 60.3096 261.173 60.1436 261.352 59.9498C261.674 59.5901 261.997 59.2579 262.32 58.8982C262.427 58.7598 262.57 58.6214 262.678 58.483C263.108 57.9849 263.502 57.4868 263.896 56.9609C263.968 56.8779 264.039 56.7949 264.075 56.6842C264.398 56.2414 264.72 55.7986 265.007 55.3558C265.114 55.2174 265.186 55.0514 265.293 54.913C265.616 54.4425 265.903 53.972 266.153 53.4739C266.189 53.4185 266.225 53.3355 266.261 53.2802C266.583 52.7543 266.834 52.2008 267.121 51.6473C267.193 51.4813 267.264 51.3152 267.336 51.1492C267.515 50.7617 267.694 50.3466 267.837 49.9592C267.909 49.7654 268.017 49.544 268.088 49.3503C268.232 48.9905 268.339 48.6584 268.447 48.2987C268.518 48.0496 268.626 47.8005 268.697 47.5514C268.769 47.2747 268.841 46.9979 268.912 46.7489C269.02 46.3614 269.092 45.974 269.163 45.5588C269.235 45.1991 269.271 44.8393 269.342 44.4795C269.378 44.3135 269.378 44.1197 269.414 43.9537C269.45 43.4002 269.486 42.8467 269.486 42.3209C269.486 41.7397 269.45 41.1585 269.378 40.6327C269.342 40.5774 269.271 40.4113 269.271 40.2453Z" fill="white"/>
<path d="M203.735 78.8516L200.008 79.6541L198.36 78.9069L193.344 88.8146L209.862 96.2315L215.881 84.3035L203.735 78.8516Z" fill="white"/>
<path d="M258.022 5.87256L270.348 11.4076L280.739 1.41689L264.221 -6L255.406 2.49621L257.09 3.24343L258.022 5.87256Z" fill="white"/>
<path d="M211.617 77.1875L203.734 78.848L215.881 84.3C214.018 82.3627 212.549 79.9827 211.617 77.1875Z" fill="white"/>
<path d="M260.201 12.1813C262.566 11.6832 264.859 11.4064 267.045 11.3511C267.153 11.3511 267.296 11.3511 267.403 11.3234C267.869 11.3234 268.371 11.3234 268.837 11.3234C269.195 11.3234 269.589 11.3511 269.947 11.3511C270.091 11.3511 270.234 11.3511 270.377 11.3787L258.016 5.84375L260.201 12.1813Z" fill="white"/>
<path d="M211.972 57.8143C212.187 57.0671 212.438 56.3476 212.689 55.6003C212.832 55.2406 212.94 54.8531 213.083 54.4933C213.835 52.4731 214.731 50.4528 215.735 48.4325L199.216 41.0156C199.109 41.2093 199.037 41.3754 198.93 41.5691C198.786 41.8736 198.643 42.178 198.5 42.4824C198.249 43.0082 197.998 43.5617 197.747 44.0875C197.711 44.1982 197.64 44.3089 197.568 44.4473C197.461 44.6964 197.353 44.9732 197.246 45.2222C196.995 45.8311 196.744 46.4399 196.529 47.0211C196.457 47.1871 196.386 47.3532 196.314 47.5192C196.242 47.713 196.207 47.9067 196.135 48.1281C195.884 48.8753 195.633 49.5949 195.418 50.3421C195.347 50.5635 195.275 50.7849 195.203 51.0063C195.132 51.283 195.06 51.5875 194.988 51.8642L211.506 59.2811C211.686 58.8106 211.829 58.3125 211.972 57.8143Z" fill="white"/>
<path d="M229.925 29.4495C231.322 28.0934 232.756 26.8204 234.225 25.575C234.368 25.4366 234.511 25.3259 234.691 25.1876C235.228 24.7448 235.801 24.302 236.339 23.8868C236.554 23.7208 236.805 23.5271 237.02 23.361C238.023 22.6138 239.026 21.8666 240.029 21.1747L223.511 13.7578C222.472 14.4497 221.469 15.1969 220.501 15.9441C220.43 15.9995 220.322 16.0825 220.215 16.1379C219.749 16.4976 219.319 16.8574 218.853 17.2172C218.602 17.4109 218.387 17.6046 218.137 17.7707C217.348 18.4072 216.596 19.0714 215.843 19.7356L215.808 19.7633C214.983 20.5105 214.159 21.2577 213.371 22.0326L229.925 29.4495Z" fill="white"/>
<path d="M211.545 59.315L195.062 51.9258L183.453 59.8131L199.935 67.23L211.545 59.315Z" fill="white"/>
<path d="M199.935 67.2294L183.453 59.8125L183.489 72.2385L198.359 78.9082L200.007 79.6554L199.935 67.2294Z" fill="white"/>
<path d="M243.114 9.49892L226.596 2.08203L223.586 13.7609L240.068 21.1778L243.114 9.49892Z" fill="white"/>
<path d="M257.086 3.24468L255.402 2.49746L240.604 -4.14453L226.594 2.08233L243.112 9.49922L257.086 3.24468Z" fill="white"/>
<path d="M209.646 41.9052L193.164 34.4883L199.255 41.0196L215.738 48.4365L209.646 41.9052Z" fill="white"/>
<path d="M229.925 29.4493L213.442 22.0324L203.016 21.2852L219.534 28.702L229.925 29.4493Z" fill="white"/>
<path opacity="0.2" d="M230.142 90.6151L228.602 92.1095L243.436 98.7515L240.318 89.8125C236.699 90.6151 233.295 90.8365 230.142 90.6151Z" fill="black"/>
<path opacity="0.2" d="M288.905 24.832L300.514 22.3689L285.644 15.6992L284.641 17.7195C286.504 19.6844 287.937 22.0645 288.905 24.832Z" fill="black"/>
<path opacity="0.2" d="M269.271 40.2453C269.199 39.8855 269.163 39.5534 269.056 39.2213C269.02 39.0276 268.912 38.8338 268.877 38.6401C268.769 38.3634 268.697 38.0589 268.59 37.7822C268.518 37.5885 268.411 37.4224 268.303 37.2287C268.196 36.9796 268.052 36.7305 267.945 36.4815C267.837 36.3154 267.694 36.1494 267.587 35.9833C267.443 35.7619 267.3 35.5405 267.121 35.3468C266.978 35.1808 266.834 35.0424 266.691 34.904C266.512 34.7379 266.368 34.5442 266.153 34.3782C266.01 34.2398 265.795 34.1291 265.652 33.9907C265.473 33.8523 265.258 33.6863 265.043 33.5479C264.863 33.4372 264.649 33.3542 264.469 33.2435C261.495 31.6384 257.375 31.4446 252.788 32.9668C252.896 33.631 252.968 34.2951 252.968 35.0147C252.968 35.5405 252.932 36.094 252.896 36.6475C252.896 36.8136 252.86 37.0073 252.824 37.1733C252.788 37.5331 252.717 37.8929 252.645 38.225C252.573 38.6124 252.466 38.9999 252.394 39.415C252.323 39.6918 252.251 39.9685 252.179 40.2176C252.108 40.4667 252.036 40.7157 251.929 40.9648C251.821 41.3246 251.678 41.6844 251.57 42.0165C251.499 42.2102 251.427 42.4316 251.319 42.6253C251.14 43.0128 250.997 43.4279 250.818 43.8153C250.746 43.9814 250.674 44.1474 250.603 44.3135C250.352 44.867 250.065 45.3928 249.743 45.9463C249.707 46.0016 249.671 46.057 249.635 46.14C249.349 46.6105 249.062 47.1087 248.775 47.5791C248.668 47.7175 248.596 47.8835 248.489 48.0219C248.202 48.4647 247.88 48.9075 247.557 49.3503C247.485 49.4333 247.414 49.5164 247.378 49.6271C246.984 50.1529 246.59 50.651 246.16 51.1492C246.052 51.2876 245.909 51.4259 245.801 51.5643C245.479 51.9241 245.156 52.2839 244.834 52.616C244.655 52.8097 244.476 53.0034 244.296 53.1695C244.01 53.4462 243.723 53.7506 243.436 54.0274C243.186 54.2765 242.935 54.4979 242.684 54.7193C242.433 54.9407 242.182 55.1621 241.967 55.3558C241.537 55.7156 241.107 56.0753 240.678 56.4074C240.427 56.6288 240.14 56.8226 239.853 57.044C239.638 57.21 239.423 57.3484 239.208 57.5144C238.85 57.7635 238.492 58.0126 238.134 58.234C237.919 58.3724 237.703 58.5107 237.488 58.6491C237.094 58.8982 236.7 59.1196 236.27 59.341C236.091 59.4517 235.876 59.5624 235.697 59.6731C235.088 60.0052 234.479 60.2819 233.87 60.5587C233.26 60.8354 232.687 61.0568 232.114 61.2505C231.97 61.3059 231.827 61.3613 231.648 61.4166C231.505 61.472 231.397 61.4996 231.254 61.5273C231.827 65.125 233.798 67.6988 236.772 68.9995C237.166 69.1656 237.596 69.304 237.99 69.4423C238.098 69.47 238.169 69.4977 238.277 69.5254C238.313 69.5254 238.313 69.5254 238.349 69.553C238.707 69.6361 239.029 69.7191 239.388 69.7744C239.495 69.8021 239.567 69.8021 239.674 69.8298H239.71C240.176 69.8851 240.642 69.9405 241.107 69.9682C241.179 69.9682 241.251 69.9682 241.358 69.9682C241.394 69.9682 241.43 69.9682 241.466 69.9682C241.86 69.9682 242.254 69.9682 242.648 69.9405C242.827 69.9405 243.007 69.9128 243.186 69.8851H243.221C243.544 69.8575 243.902 69.8021 244.225 69.7744C244.476 69.7468 244.726 69.6914 244.977 69.6361C244.977 69.6361 244.977 69.6361 245.013 69.6361C245.3 69.5807 245.586 69.5254 245.837 69.4423C246.267 69.3316 246.733 69.2209 247.199 69.0826C247.521 68.9995 247.808 68.8888 248.13 68.7781C248.274 68.7228 248.417 68.6674 248.56 68.6121C249.134 68.3907 249.707 68.1693 250.316 67.9202C250.925 67.6435 251.534 67.339 252.144 67.0346C252.323 66.9239 252.538 66.8132 252.717 66.7025C252.896 66.5918 253.111 66.4811 253.29 66.3704C253.505 66.2597 253.72 66.1213 253.935 66.0106C254.15 65.8723 254.365 65.7339 254.58 65.5955C254.795 65.4571 254.974 65.3188 255.189 65.1804C255.368 65.0697 255.512 64.959 255.691 64.8483C255.906 64.7099 256.121 64.5439 256.336 64.3778C256.622 64.1841 256.873 63.9627 257.16 63.7413C257.59 63.4092 258.02 63.0494 258.45 62.6896C258.701 62.4682 258.951 62.2745 259.202 62.0531C259.453 61.8317 259.704 61.5826 259.955 61.3612C260.241 61.0845 260.528 60.8077 260.815 60.5033C260.994 60.3096 261.173 60.1436 261.352 59.9498C261.674 59.5901 261.997 59.2579 262.32 58.8982C262.427 58.7598 262.57 58.6214 262.678 58.483C263.108 57.9849 263.502 57.4868 263.896 56.9609C263.968 56.8779 264.039 56.7949 264.075 56.6842C264.398 56.2414 264.72 55.7986 265.007 55.3558C265.114 55.2174 265.186 55.0514 265.293 54.913C265.616 54.4425 265.903 53.972 266.153 53.4739C266.189 53.4185 266.225 53.3355 266.261 53.2802C266.583 52.7543 266.834 52.2008 267.121 51.6473C267.193 51.4813 267.264 51.3152 267.336 51.1492C267.515 50.7617 267.694 50.3466 267.837 49.9592C267.909 49.7654 268.017 49.544 268.088 49.3503C268.232 48.9905 268.339 48.6584 268.447 48.2987C268.518 48.0496 268.626 47.8005 268.697 47.5514C268.769 47.2747 268.841 46.9979 268.912 46.7489C269.02 46.3614 269.092 45.974 269.163 45.5588C269.235 45.1991 269.271 44.8393 269.342 44.4795C269.378 44.3135 269.378 44.1197 269.414 43.9537C269.45 43.4002 269.486 42.8467 269.486 42.3209C269.486 41.7397 269.45 41.1585 269.378 40.6327C269.342 40.5774 269.271 40.4113 269.271 40.2453Z" fill="black"/>
<path opacity="0.2" d="M203.735 78.8516L200.008 79.6541L198.36 78.9069L193.344 88.8146L209.862 96.2315L215.881 84.3035L203.735 78.8516Z" fill="black"/>
<path opacity="0.2" d="M211.617 77.1875L203.734 78.848L215.881 84.3C214.018 82.3627 212.549 79.9827 211.617 77.1875Z" fill="black"/>
<path opacity="0.2" d="M260.201 12.1813C262.566 11.6832 264.859 11.4064 267.045 11.3511C267.153 11.3511 267.296 11.3511 267.403 11.3234C267.869 11.3234 268.371 11.3234 268.837 11.3234C269.195 11.3234 269.589 11.3511 269.947 11.3511C270.091 11.3511 270.234 11.3511 270.377 11.3787L258.016 5.84375L260.201 12.1813Z" fill="black"/>
<path opacity="0.2" d="M211.972 57.8143C212.187 57.0671 212.438 56.3476 212.689 55.6003C212.832 55.2406 212.94 54.8531 213.083 54.4933C213.835 52.4731 214.731 50.4528 215.735 48.4325L199.216 41.0156C199.109 41.2093 199.037 41.3754 198.93 41.5691C198.786 41.8736 198.643 42.178 198.5 42.4824C198.249 43.0082 197.998 43.5617 197.747 44.0875C197.711 44.1982 197.64 44.3089 197.568 44.4473C197.461 44.6964 197.353 44.9732 197.246 45.2222C196.995 45.8311 196.744 46.4399 196.529 47.0211C196.457 47.1871 196.386 47.3532 196.314 47.5192C196.242 47.713 196.207 47.9067 196.135 48.1281C195.884 48.8753 195.633 49.5949 195.418 50.3421C195.347 50.5635 195.275 50.7849 195.203 51.0063C195.132 51.283 195.06 51.5875 194.988 51.8642L211.506 59.2811C211.686 58.8106 211.829 58.3125 211.972 57.8143Z" fill="black"/>
<path opacity="0.2" d="M199.935 67.2294L183.453 59.8125L183.489 72.2385L198.359 78.9082L200.007 79.6554L199.935 67.2294Z" fill="black"/>
<path opacity="0.2" d="M243.114 9.49892L226.596 2.08203L223.586 13.7609L240.068 21.1778L243.114 9.49892Z" fill="black"/>
<path opacity="0.2" d="M209.646 41.9052L193.164 34.4883L199.255 41.0196L215.738 48.4365L209.646 41.9052Z" fill="black"/>
<path opacity="0.2" d="M229.925 29.4493L213.442 22.0324L203.016 21.2852L219.534 28.702L229.925 29.4493Z" fill="black"/>
<path d="M219.536 28.702L203.018 21.2852L193.164 34.4861L209.646 41.903L219.536 28.702Z" fill="white"/>
<path opacity="0.2" d="M258.022 5.87256L270.348 11.4076L280.739 1.41689L264.221 -6L255.406 2.49621L257.09 3.24343L258.022 5.87256Z" fill="white"/>
<path opacity="0.2" d="M229.925 29.4495C231.322 28.0934 232.756 26.8204 234.225 25.575C234.368 25.4366 234.511 25.3259 234.691 25.1876C235.228 24.7448 235.801 24.302 236.339 23.8868C236.554 23.7208 236.805 23.5271 237.02 23.361C238.023 22.6138 239.026 21.8666 240.029 21.1747L223.511 13.7578C222.472 14.4497 221.469 15.1969 220.501 15.9441C220.43 15.9995 220.322 16.0825 220.215 16.1379C219.749 16.4976 219.319 16.8574 218.853 17.2172C218.602 17.4109 218.387 17.6046 218.137 17.7707C217.348 18.4072 216.596 19.0714 215.843 19.7356L215.808 19.7633C214.983 20.5105 214.159 21.2577 213.371 22.0326L229.925 29.4495Z" fill="white"/>
<path opacity="0.2" d="M211.545 59.315L195.062 51.9258L183.453 59.8131L199.935 67.23L211.545 59.315Z" fill="white"/>
<path opacity="0.2" d="M257.086 3.24468L255.402 2.49746L240.604 -4.14453L226.594 2.08233L243.112 9.49922L257.086 3.24468Z" fill="white"/>
<path opacity="0.2" d="M219.536 28.702L203.018 21.2852L193.164 34.4861L209.646 41.903L219.536 28.702Z" fill="white"/>
<path d="M288.972 42.709L300.581 34.794L300.545 22.3679L288.936 24.831C287.969 22.0635 286.535 19.6834 284.672 17.7185L285.675 15.6982L290.692 5.79062L280.767 1.41797L270.376 11.4363C270.232 11.4363 270.089 11.4363 269.946 11.4086C269.587 11.381 269.193 11.3809 268.835 11.3809C268.369 11.3809 267.903 11.3533 267.401 11.3809C267.294 11.3809 267.151 11.381 267.043 11.4086C264.857 11.464 262.6 11.7407 260.2 12.2389L258.014 5.92898L257.118 3.29987L243.108 9.55439L240.098 21.2332C239.059 21.9251 238.056 22.6723 237.088 23.4196C236.873 23.5856 236.623 23.7793 236.408 23.9454C235.834 24.3882 235.297 24.8033 234.759 25.2461C234.616 25.3845 234.473 25.4952 234.294 25.6336C232.825 26.8789 231.355 28.152 229.994 29.5081L219.603 28.7608L209.749 41.9618L215.841 48.4931C214.801 50.5134 213.941 52.5336 213.189 54.5539C213.046 54.9137 212.938 55.3011 212.795 55.6609C212.544 56.4081 212.293 57.1277 212.078 57.8749C211.935 58.373 211.756 58.8712 211.648 59.397L200.039 67.2844L200.075 79.7104L203.801 78.9355L211.684 77.275C212.616 80.0425 214.085 82.4226 215.948 84.3875L209.928 96.3154L219.854 100.688L228.668 92.1918L230.209 90.6974C233.362 90.9465 236.766 90.6974 240.385 89.8948L243.502 98.8338L257.512 92.5793L260.522 80.9005C264.105 78.4651 267.545 75.6699 270.662 72.6533L281.089 73.3729L290.943 60.1719L284.851 53.6406C286.607 49.9875 288.04 46.3067 288.972 42.709ZM269.301 44.5909C269.265 44.9507 269.193 45.3104 269.121 45.6702C269.05 46.0577 268.942 46.4451 268.871 46.8602C268.799 47.137 268.727 47.4137 268.656 47.6628C268.584 47.9119 268.512 48.161 268.405 48.41C268.297 48.7698 268.19 49.1019 268.047 49.4617C267.975 49.6554 267.903 49.8768 267.796 50.0706C267.617 50.458 267.473 50.8731 267.294 51.2606C267.222 51.4266 267.151 51.5927 267.079 51.7587C266.828 52.3122 266.542 52.838 266.219 53.3915C266.183 53.4469 266.147 53.5299 266.112 53.5853C265.825 54.0557 265.538 54.5539 265.252 55.0244C265.144 55.1627 265.072 55.3288 264.965 55.4672C264.678 55.91 264.356 56.3528 264.033 56.7956C263.962 56.8786 263.89 56.9616 263.854 57.0723C263.46 57.5981 263.066 58.0963 262.636 58.5944C262.529 58.7328 262.385 58.8712 262.278 59.0096C261.955 59.3693 261.633 59.7291 261.31 60.0612C261.131 60.2549 260.952 60.4487 260.773 60.6147C260.486 60.9191 260.199 61.1959 259.913 61.4726C259.662 61.7217 259.411 61.9431 259.16 62.1645C258.91 62.3859 258.659 62.6073 258.408 62.801C257.978 63.1608 257.584 63.5206 257.118 63.8527C256.831 64.0741 256.58 64.2678 256.294 64.4892C256.079 64.6553 255.864 64.7936 255.649 64.9597C255.47 65.0704 255.326 65.1811 255.147 65.2918C254.538 65.7069 253.893 66.122 253.248 66.4818C253.069 66.5925 252.854 66.7032 252.675 66.8139C252.496 66.9246 252.281 67.0353 252.102 67.146C251.493 67.4781 250.883 67.7548 250.274 68.0316C249.522 68.3637 248.805 68.6404 248.089 68.8895C247.766 69.0002 247.444 69.0832 247.157 69.1939C246.691 69.3323 246.261 69.443 245.795 69.5537C245.509 69.6091 245.222 69.6921 244.971 69.7474C244.72 69.8028 244.434 69.8305 244.183 69.8858C243.861 69.9412 243.502 69.9688 243.18 69.9965C243.001 70.0242 242.786 70.0242 242.606 70.0519C242.212 70.0795 241.818 70.0795 241.424 70.0795C241.316 70.0795 241.209 70.0795 241.101 70.0795C240.6 70.0519 240.134 70.0242 239.704 69.9412C239.597 69.9135 239.489 69.9135 239.382 69.8858C239.023 69.8305 238.665 69.7474 238.343 69.6644C238.235 69.6367 238.128 69.6091 237.984 69.5814C237.554 69.443 237.16 69.3046 236.766 69.1386C233.828 67.8379 231.821 65.2641 231.248 61.6663C231.14 61.0021 231.069 60.338 231.069 59.6184C231.033 50.2089 239.632 38.7515 250.203 34.0191C251.098 33.6316 251.923 33.3272 252.782 33.0504C257.405 31.556 261.489 31.722 264.463 33.3272C264.643 33.4379 264.857 33.5209 265.037 33.6316C265.252 33.77 265.431 33.9084 265.646 34.0744C265.825 34.2128 266.004 34.3235 266.147 34.4619C266.327 34.6279 266.506 34.8216 266.685 34.9877C266.828 35.1261 266.972 35.2644 267.115 35.4305C267.294 35.6242 267.437 35.8456 267.581 36.067C267.688 36.2331 267.831 36.3991 267.939 36.5652C268.082 36.7866 268.19 37.0633 268.297 37.3124C268.369 37.5061 268.476 37.6722 268.584 37.8659C268.691 38.1426 268.763 38.4194 268.871 38.7238C268.942 38.9175 269.014 39.0836 269.05 39.305C269.121 39.6371 269.193 39.9969 269.265 40.329C269.301 40.495 269.336 40.6611 269.372 40.8548C269.444 41.4083 269.48 41.9618 269.48 42.543C269.444 43.1518 269.408 43.8714 269.301 44.5909Z" fill="white"/>
<path fill-rule="evenodd" clip-rule="evenodd" d="M1590.87 0.979968L1572.6 53.2455C1582.67 24.3609 1597.19 5.58588 1590.87 0.979968ZM1572.6 53.2455L1554.3 105.511C1558.9 104.106 1562.49 82.091 1572.6 53.2455ZM1590.87 0.979968L1572.6 53.2455C1582.67 24.3609 1597.19 5.58588 1590.87 0.979968ZM1572.6 53.2455L1554.3 105.511C1558.9 104.106 1562.49 82.091 1572.6 53.2455ZM1625.34 98.524L1643.1 108.594L1662.26 56.29L1641.73 52.8551C1642.08 50.9034 1642.47 48.9909 1642.71 47.0392C1644.19 38.0616 1644.7 29.3182 1644.42 20.9651L1665.89 7.49856L1656.09 -38.5606L1635.52 -18.8879C1632.67 -24.7819 1629.12 -29.9343 1624.98 -34.2279C1623.85 -35.477 1622.64 -36.6479 1621.43 -37.7018L1634 -66.7425L1600.51 -77.6328L1592.47 -48.3579C1584.98 -48.3189 1577.36 -46.4454 1569.79 -43.0495L1566.08 -70.724L1529.24 -42.8152L1537.75 -18.3023C1531.11 -10.7299 1525.02 -1.94745 1519.75 7.88892L1501.99 -2.14264L1482.83 50.1618L1503.36 53.5967C1501.17 64.6431 1500.31 75.3383 1500.62 85.4478L1479.16 98.9143L1488.95 144.973L1509.52 125.301C1513.19 132.834 1517.92 139.197 1523.62 144.076L1511.01 173.155L1543.95 185.997L1549.06 167.457L1552.54 154.771C1560.03 154.732 1567.68 152.897 1575.26 149.501L1578.89 177.176L1615.73 149.267L1607.22 124.754C1612.45 118.782 1617.33 112.107 1621.74 104.691C1623.07 102.661 1624.2 100.632 1625.34 98.524ZM1572.6 53.2455C1562.49 82.13 1572.6 111.912 1554.3 105.511C1535.95 99.0705 1529.24 70.4591 1539.38 41.6526C1549.53 12.768 1572.56 -5.3824 1590.87 1.01904C1609.21 7.38145 1582.67 24.3609 1572.6 53.2455ZM1590.87 0.979968L1572.6 53.2455C1582.67 24.3609 1597.19 5.58588 1590.87 0.979968ZM1572.6 53.2455L1554.3 105.511C1558.9 104.106 1562.49 82.091 1572.6 53.2455Z" fill="url(#paint2_linear_70_4252)"/>
<path fill-rule="evenodd" clip-rule="evenodd" d="M1643.09 108.597L1662.26 56.2927L1642.7 47.0418L1639.54 45.5586L1641.61 16.752L1663.31 6.17408L1656.17 -38.5579L1608.94 -53.937L1617.64 -33.1714L1634.11 -66.7399L1600.62 -77.6302L1586.88 -82.119L1553.86 -95L1547.69 -72.4778L1518.97 -86.1394L1482.12 -58.2307L1493.32 -28.058L1458.85 67.4952L1441.84 129.558L1474.58 133.149L1463.93 157.74L1496.95 170.621L1544.18 186L1536.61 170.816L1531.85 161.721L1549.29 167.42L1579.12 177.139L1615.96 149.231L1593.17 122.376L1621.97 104.655L1643.09 108.597ZM1539.38 41.6162C1549.53 12.7316 1572.56 -5.41885 1590.86 0.982597L1572.6 53.2481L1554.29 105.514C1535.94 99.0341 1529.23 70.4617 1539.38 41.6162Z" fill="url(#paint3_linear_70_4252)"/>
<path fill-rule="evenodd" clip-rule="evenodd" d="M1595.86 93.1791L1614.99 40.8745L1594.46 37.4397C1596.6 26.4323 1597.5 15.7371 1597.19 5.62754L1618.66 -7.83884L1608.86 -53.8981L1588.29 -34.2253C1584.62 -41.7587 1579.9 -48.1211 1574.2 -53.0003L1586.81 -82.08L1553.82 -94.9219L1545.27 -63.6953C1537.78 -63.6563 1530.13 -61.8218 1522.6 -58.3869L1518.93 -86.0223L1482.08 -58.1527L1490.55 -33.6398C1483.91 -26.0674 1477.86 -17.2459 1472.56 -7.40953L1454.8 -17.441L1435.67 34.8635L1456.2 38.2984C1454.05 49.3058 1453.16 60.0008 1453.47 70.1104L1432 83.5768L1441.8 129.636L1462.37 109.963C1466.04 117.497 1470.76 123.859 1476.46 128.738L1463.85 157.818L1496.83 170.66L1505.38 139.433C1512.88 139.394 1520.53 137.56 1528.06 134.125L1531.73 161.76L1568.58 133.891L1560.11 109.378C1566.74 101.805 1572.79 92.9839 1578.1 83.1475L1595.86 93.1791ZM1507.02 90.0954C1488.68 83.6549 1482 55.0827 1492.11 26.1981C1502.22 -2.64742 1525.29 -20.8369 1543.63 -14.4355C1561.98 -7.99498 1568.66 20.5773 1558.55 49.4619C1548.44 78.3074 1525.37 96.4969 1507.02 90.0954Z" fill="url(#paint4_linear_70_4252)"/>
<path opacity="0.5" fill-rule="evenodd" clip-rule="evenodd" d="M1665.89 7.49236L1618.66 -7.84766L1597.19 5.61872L1644.42 20.9978L1665.89 7.49236Z" fill="#601734"/>
<path fill-rule="evenodd" clip-rule="evenodd" d="M1615.85 149.275L1568.58 133.896L1560.11 109.344L1607.34 124.762L1615.85 149.275Z" fill="#B3D9FF"/>
<path opacity="0.5" fill-rule="evenodd" clip-rule="evenodd" d="M1505.38 139.395L1530.13 149.699L1528.06 134.125C1528.06 134.125 1514.75 141.151 1505.38 139.395Z" fill="#601734"/>
<path opacity="0.5" fill-rule="evenodd" clip-rule="evenodd" d="M1509.2 -2.21894L1550.85 19.7957C1550.85 19.7957 1556.9 11.7158 1561.55 8.43704C1561.59 8.43704 1550.7 -37.5049 1509.2 -2.21894Z" fill="#601734"/>
</g>
<rect x="2.5" y="2.5" width="1595" height="595" rx="47.5" stroke="url(#paint5_linear_70_4252)" stroke-width="5"/>
<defs>
<linearGradient id="paint0_linear_70_4252" x1="445.064" y1="549.68" x2="447.688" y2="541.884" gradientUnits="userSpaceOnUse">
<stop stop-color="#B31A8F"/>
<stop offset="1" stop-color="#FE117E"/>
</linearGradient>
<linearGradient id="paint1_linear_70_4252" x1="249.981" y1="209.604" x2="253.157" y2="199.787" gradientUnits="userSpaceOnUse">
<stop stop-color="#459FFF"/>
<stop offset="1" stop-color="#A96DFF"/>
</linearGradient>
<linearGradient id="paint2_linear_70_4252" x1="1552.72" y1="187.311" x2="1592.14" y2="-78.866" gradientUnits="userSpaceOnUse">
<stop stop-color="#1852A0"/>
<stop offset="1" stop-color="#067ED3"/>
</linearGradient>
<linearGradient id="paint3_linear_70_4252" x1="1523.3" y1="180.443" x2="1594.51" y2="-84.0069" gradientUnits="userSpaceOnUse">
<stop stop-color="#1852A0"/>
<stop offset="1" stop-color="#067ED3"/>
</linearGradient>
<linearGradient id="paint4_linear_70_4252" x1="1489.86" y1="169.535" x2="1531.9" y2="-98.4032" gradientUnits="userSpaceOnUse">
<stop stop-color="#188DC1"/>
<stop offset="1" stop-color="#06BFE7"/>
</linearGradient>
<linearGradient id="paint5_linear_70_4252" x1="800" y1="0" x2="800" y2="600" gradientUnits="userSpaceOnUse">
<stop stop-color="#6F67F0"/>
<stop offset="1" stop-color="#59068C"/>
</linearGradient>
<clipPath id="clip0_70_4252">
<rect width="1600" height="600" rx="50" fill="white"/>
</clipPath>
</defs>
</svg>
