<svg width="768" height="776" viewBox="0 0 768 776" fill="none" xmlns="http://www.w3.org/2000/svg">
<g clip-path="url(#clip0_101_6563)">
<path d="M-170 0.0621254H-116.928C-82.0672 0.0621254 -82.3273 -0.0775026 -27.9547 0.0618944C26.418 0.201291 26.6227 0.0633842 103.164 0.0631173C179.705 0.0628503 135.423 0.0632212 295.68 0.0632139C455.936 0.0632066 406.563 0.0623311 455.936 0.0621817L481.06 0.0621293C491.342 0.0621563 501.623 0.0623246 621.655 0.0626405L829 0.0632136V567.766C829 623.308 714.809 644.239 563.641 647.612C521.947 648.543 477.441 648.137 431.741 646.755C153.052 638.321 -170 593.526 -170 593.526V0.0621254Z" fill="#13103B"/>
<path d="M-170 0.0621254H-116.928C-82.0672 0.0621254 -82.3273 -0.0775026 -27.9547 0.0618944C26.418 0.201291 26.6227 0.0633842 103.164 0.0631173C179.705 0.0628503 135.423 0.0632212 295.68 0.0632139C455.936 0.0632066 406.563 0.0623311 455.936 0.0621817L481.06 0.0621293C491.342 0.0621563 501.623 0.0623246 621.655 0.0626405L829 0.0632136V567.766C829 623.308 714.809 644.239 563.641 647.612C521.947 648.543 477.441 648.137 431.741 646.755C153.052 638.321 -170 593.526 -170 593.526V0.0621254Z" fill="url(#paint0_linear_101_6563)" fill-opacity="0.5"/>
<path opacity="0.3" d="M-126.1 89.8093C-160.767 89.5139 -170 103.585 -170 103.585V438.085C-170 438.085 845.65 603.806 829 404.704V250.643C829 250.643 785.657 212.899 661.251 301.27C536.844 389.64 511.609 196.444 486.894 171.926C462.18 147.408 437.514 127.423 295.945 200.511C154.377 273.599 188.495 160.705 122.668 116.328C56.842 71.9505 31.6211 122.894 -17.5981 131.137C-66.8172 139.38 -91.4329 90.1047 -126.1 89.8093Z" fill="url(#paint1_linear_101_6563)"/>
<path opacity="0.3" d="M-126.1 160.704C-160.767 160.408 -170 174.48 -170 174.48V508.98C-170 508.98 845.65 674.701 829 475.599V321.538C829 321.538 785.657 283.793 661.251 372.164C536.844 460.535 511.609 267.339 486.894 242.82C462.18 218.302 437.514 198.318 295.945 271.405C154.377 344.493 188.495 231.6 122.668 187.222C56.842 142.845 31.6211 193.789 -17.5981 202.032C-66.8172 210.274 -91.4329 160.999 -126.1 160.704Z" fill="url(#paint2_linear_101_6563)"/>
<path opacity="0.3" d="M-126.1 226.286C-160.767 225.99 -170 240.062 -170 240.062L-170 573.38C-170 573.38 818.594 742.055 829 544.43V387.12C829 387.12 785.657 349.375 661.251 437.746C536.844 526.117 511.609 332.921 486.894 308.402C462.18 283.884 437.514 263.9 295.945 336.987C154.377 410.075 188.495 297.182 122.669 252.804C56.8421 208.427 31.6212 259.371 -17.598 267.614C-66.8171 275.856 -91.4328 226.581 -126.1 226.286Z" fill="url(#paint3_linear_101_6563)"/>
<path opacity="0.5" d="M305.154 457.867C305.243 458.694 305.309 459.52 305.309 460.398C305.309 461.277 305.243 462.103 305.154 462.93L309.838 467.191C310.26 467.579 310.371 468.276 310.104 468.844L305.665 477.781C305.398 478.349 304.799 478.556 304.31 478.349L298.783 475.766C297.629 476.799 296.386 477.652 295.031 478.297L294.188 485.142C294.121 485.762 293.655 486.227 293.1 486.227H284.221C283.666 486.227 283.199 485.762 283.133 485.142L282.289 478.297C280.935 477.652 279.692 476.773 278.538 475.766L273.01 478.349C272.5 478.581 271.923 478.349 271.656 477.781L267.216 468.844C266.928 468.276 267.061 467.579 267.483 467.191L272.167 462.93C272.078 462.103 272.011 461.251 272.011 460.398C272.011 459.546 272.078 458.694 272.167 457.867L267.483 453.606C267.061 453.218 266.95 452.521 267.216 451.953L271.656 443.016C271.923 442.448 272.522 442.241 273.01 442.448L278.538 445.031C279.692 443.998 280.935 443.145 282.289 442.5L283.133 435.655C283.199 435.035 283.666 434.57 284.221 434.57H293.1C293.655 434.57 294.121 435.035 294.188 435.655L295.031 442.5C296.386 443.145 297.629 444.023 298.783 445.031L304.31 442.448C304.821 442.215 305.398 442.448 305.665 443.016L310.104 451.953C310.371 452.521 310.26 453.218 309.838 453.606L305.154 457.867ZM288.66 451.359C284.376 451.359 280.891 455.414 280.891 460.398C280.891 465.383 284.376 469.438 288.66 469.438C292.945 469.438 296.43 465.383 296.43 460.398C296.43 455.414 292.945 451.359 288.66 451.359Z" fill="url(#paint4_linear_101_6563)"/>
<path opacity="0.5" d="M183.987 380.043C184.056 380.687 184.109 381.331 184.109 382.015C184.109 382.699 184.056 383.343 183.987 383.987L187.655 387.307C187.985 387.609 188.072 388.152 187.864 388.595L184.387 395.557C184.178 396 183.709 396.161 183.326 396L178.998 393.987C178.094 394.792 177.12 395.456 176.06 395.959L175.399 401.292C175.347 401.775 174.982 402.137 174.547 402.137H167.593C167.159 402.137 166.794 401.775 166.741 401.292L166.081 395.959C165.02 395.456 164.047 394.772 163.143 393.987L158.814 396C158.414 396.181 157.962 396 157.754 395.557L154.277 388.595C154.051 388.152 154.155 387.609 154.485 387.307L158.154 383.987C158.084 383.343 158.032 382.679 158.032 382.015C158.032 381.351 158.084 380.687 158.154 380.043L154.485 376.723C154.155 376.421 154.068 375.878 154.277 375.435L157.754 368.473C157.962 368.03 158.432 367.869 158.814 368.03L163.143 370.042C164.047 369.237 165.02 368.573 166.081 368.07L166.741 362.738C166.794 362.255 167.159 361.893 167.593 361.893H174.547C174.982 361.893 175.347 362.255 175.399 362.738L176.06 368.07C177.12 368.573 178.094 369.258 178.998 370.042L183.326 368.03C183.726 367.849 184.178 368.03 184.387 368.473L187.864 375.435C188.072 375.878 187.985 376.421 187.655 376.723L183.987 380.043ZM171.07 374.972C167.715 374.972 164.986 378.131 164.986 382.015C164.986 385.898 167.715 389.058 171.07 389.058C174.425 389.058 177.155 385.898 177.155 382.015C177.155 378.131 174.425 374.972 171.07 374.972Z" fill="url(#paint5_linear_101_6563)"/>
<path opacity="0.5" d="M739.159 496.57C739.228 497.214 739.281 497.858 739.281 498.542C739.281 499.226 739.228 499.87 739.159 500.514L742.827 503.834C743.157 504.136 743.244 504.679 743.036 505.122L739.559 512.084C739.35 512.527 738.881 512.688 738.498 512.527L734.169 510.515C733.265 511.32 732.292 511.984 731.231 512.487L730.571 517.819C730.519 518.302 730.154 518.664 729.719 518.664H722.765C722.331 518.664 721.966 518.302 721.913 517.819L721.253 512.487C720.192 511.984 719.219 511.299 718.315 510.515L713.986 512.527C713.586 512.708 713.134 512.527 712.926 512.084L709.449 505.122C709.223 504.679 709.327 504.136 709.657 503.834L713.325 500.514C713.256 499.87 713.204 499.206 713.204 498.542C713.204 497.878 713.256 497.214 713.325 496.57L709.657 493.25C709.327 492.948 709.24 492.405 709.449 491.962L712.926 485C713.134 484.558 713.604 484.397 713.986 484.558L718.315 486.57C719.219 485.765 720.192 485.101 721.253 484.598L721.913 479.265C721.966 478.783 722.331 478.42 722.765 478.42H729.719C730.154 478.42 730.519 478.783 730.571 479.265L731.231 484.598C732.292 485.101 733.265 485.785 734.169 486.57L738.498 484.558C738.898 484.376 739.35 484.558 739.559 485L743.036 491.962C743.244 492.405 743.157 492.948 742.827 493.25L739.159 496.57ZM726.242 491.5C722.887 491.5 720.158 494.659 720.158 498.542C720.158 502.426 722.887 505.585 726.242 505.585C729.597 505.585 732.327 502.426 732.327 498.542C732.327 494.659 729.597 491.5 726.242 491.5Z" fill="url(#paint6_linear_101_6563)"/>
<path opacity="0.5" d="M711.19 243.29L722.147 220.389L702.309 207.74L691.352 230.641L711.19 243.29ZM709.625 246.561L689.787 233.912C688.228 232.919 687.657 230.633 688.518 228.834L699.475 205.933C700.336 204.134 702.316 203.475 703.875 204.468L723.712 217.117C725.271 218.111 725.842 220.396 724.981 222.196L714.024 245.097C713.163 246.896 711.183 247.555 709.625 246.561ZM709.672 227.677L708.45 218.636L703.391 220.94L702.161 211.915L719.165 222.757L709.672 227.677Z" fill="url(#paint7_linear_101_6563)"/>
<path opacity="0.5" d="M235.15 191.656C235.08 191.012 235.028 190.368 235.028 189.684C235.028 189 235.08 188.356 235.15 187.712L231.482 184.392C231.151 184.09 231.064 183.547 231.273 183.104L234.75 176.142C234.959 175.7 235.428 175.539 235.81 175.7L240.139 177.712C241.043 176.907 242.017 176.243 243.077 175.74L243.738 170.408C243.79 169.925 244.155 169.562 244.59 169.562H251.543C251.978 169.562 252.343 169.925 252.395 170.408L253.056 175.74C254.116 176.243 255.09 176.927 255.994 177.712L260.323 175.7C260.722 175.519 261.174 175.7 261.383 176.142L264.86 183.104C265.086 183.547 264.982 184.09 264.651 184.392L260.983 187.712C261.053 188.356 261.105 189.02 261.105 189.684C261.105 190.348 261.053 191.012 260.983 191.656L264.651 194.976C264.982 195.278 265.069 195.821 264.86 196.264L261.383 203.226C261.174 203.669 260.705 203.83 260.323 203.669L255.994 201.657C255.09 202.462 254.116 203.126 253.056 203.629L252.395 208.961C252.343 209.444 251.978 209.806 251.543 209.806H244.59C244.155 209.806 243.79 209.444 243.738 208.961L243.077 203.629C242.017 203.126 241.043 202.442 240.139 201.657L235.81 203.669C235.411 203.85 234.959 203.669 234.75 203.226L231.273 196.264C231.064 195.821 231.151 195.278 231.482 194.976L235.15 191.656ZM248.066 196.727C251.422 196.727 254.151 193.568 254.151 189.684C254.151 185.801 251.422 182.642 248.066 182.642C244.711 182.642 241.982 185.801 241.982 189.684C241.982 193.568 244.711 196.727 248.066 196.727Z" fill="url(#paint8_linear_101_6563)"/>
<path d="M607.407 233.522C692.737 257.119 706.685 330.881 719.65 397.85C732.616 464.807 781.146 527.403 683.281 554.046C585.415 580.688 439.903 544.459 415.65 438.391C391.396 332.322 484.373 342.836 550.58 309.564C616.787 276.293 569.614 223.083 607.407 233.522Z" fill="white"/>
<path d="M568.468 307.107C568.378 307.751 568.325 308.093 568.325 308.093C568.986 311.172 569.736 314.03 570.539 316.627C573.164 325.12 576.432 331.158 578.878 334.922C581.003 338.162 582.521 339.712 582.521 339.712C602.056 332.809 611.681 311.273 615.377 300.545C615.395 300.505 615.413 300.445 615.431 300.384C616.145 298.372 616.609 296.742 616.895 295.675C616.895 295.675 616.895 295.675 616.895 295.655C617.127 294.809 617.234 294.346 617.234 294.346C617.163 294.165 617.074 293.964 617.002 293.783L616.967 293.702C616.645 292.958 616.324 292.173 616.038 291.448C613.484 285.149 611.788 279.231 610.681 274.582C609.735 270.637 609.217 267.578 608.985 265.968C608.86 265.143 608.806 264.68 608.806 264.68L599.699 270.094L568.325 288.812C568.789 292.052 568.986 295.111 568.986 297.768C569.003 299.66 568.95 301.351 568.861 302.78C568.771 304.531 568.611 305.919 568.486 306.825V306.845C568.503 306.966 568.486 307.026 568.468 307.107Z" fill="#FE9083"/>
<path d="M577.453 342.018C579.231 344.01 581.326 345.802 583.843 347.296C583.896 347.335 583.949 347.375 584.002 347.395C584.002 347.395 584.072 347.355 584.196 347.276L584.213 347.256C584.882 346.798 587.188 345.205 590.269 342.576C598.349 335.685 611.834 321.785 615.69 303.025C615.707 303.005 615.707 302.985 615.707 302.945C616.165 300.715 616.464 298.445 616.623 296.095C616.623 296.095 616.623 296.095 616.623 296.075C616.658 295.457 616.693 294.86 616.711 294.223C616.711 294.223 614.035 301.352 609.387 309.039C603.93 318.081 595.726 327.958 585.938 328.018C577.471 328.078 573.122 321.526 570.922 315.472C569.989 312.903 569.425 310.433 569.144 308.601C569.126 308.581 569.126 308.581 569.126 308.581C569.038 308.044 568.968 307.566 568.897 307.167V307.147C568.862 306.948 568.844 306.769 568.827 306.59C568.756 305.913 568.721 305.534 568.721 305.534C568.721 305.534 565.482 328.476 577.453 342.018Z" fill="url(#paint9_linear_101_6563)"/>
<path opacity="0.5" d="M577.453 342.108C579.231 344.103 581.326 345.899 583.843 347.395H584.002L584.196 347.375L584.213 347.355C584.882 346.896 587.188 345.3 590.269 342.667C598.349 335.763 611.834 321.836 615.69 303.042C615.707 303.022 615.707 303.002 615.707 302.962C616.165 300.727 616.464 298.453 616.623 296.098C616.623 296.098 616.623 296.098 616.623 296.078C616.658 295.46 616.693 294.861 616.711 294.223C616.711 294.223 614.035 301.366 609.387 309.067C609.387 309.067 604.053 325.667 592.522 333.908C586.748 338.018 582.365 337.419 579.143 335.005C575.921 332.591 573.844 328.401 572.612 325.228C571.379 322.036 570.992 319.063 570.922 316.888C570.904 316.39 570.904 315.951 570.922 315.552C569.989 312.978 569.425 310.504 569.144 308.668C569.126 308.648 569.126 308.648 569.126 308.648C569.038 308.109 568.968 307.631 568.897 307.231V307.212C568.862 307.012 568.844 306.832 568.827 306.653C568.756 305.975 568.721 305.595 568.721 305.595C568.721 305.595 565.482 328.54 577.453 342.108Z" fill="url(#paint10_linear_101_6563)"/>
<path d="M503.232 478.814C503.374 478.894 503.444 478.934 503.444 478.934C504.521 479.075 507.911 478.252 512.325 473.897L512.342 473.877C512.342 473.857 512.36 473.857 512.378 473.837C512.395 473.816 512.413 473.796 512.431 473.776C516.138 470.083 520.587 463.942 525.018 453.847C533.881 433.696 536.423 420.249 536.847 417.901L536.9 417.539L542.072 426.872C545.586 438.874 552.224 488.488 552.1 490.635C551.977 492.783 546.203 503.179 546.327 504.464C546.327 504.464 546.327 504.484 546.345 504.484C546.504 505.768 549.099 508.618 549.84 511.729C550.335 513.796 546.821 520.299 544.35 525.156V525.176C543.061 527.705 542.072 529.772 542.072 530.555C542.072 532.823 548.34 543.942 548.34 543.942V549.923L548.428 550.023L548.728 550.324L548.958 550.545C551.341 552.673 561.439 559.677 593.005 561.604C630.398 563.872 655.308 550.204 655.308 550.204L653.437 544.343C653.437 544.343 655.185 542.637 655.308 541.795C655.432 540.932 653.931 538.945 653.931 538.945C653.931 538.945 657.691 536.677 657.691 533.807C657.691 530.957 650.153 522.126 650.418 514.559C650.665 507.013 656.438 500.309 657.197 496.034C657.956 491.759 647.417 481.202 647.417 481.202C656.438 448.689 658.203 405.076 658.203 405.076L659.951 402.788C659.951 402.788 670.738 430.726 680.519 444.414C681.684 446.039 682.92 447.645 684.191 449.19C686.91 452.542 689.823 455.693 692.612 458.443C699.391 465.146 705.553 469.562 707.106 469.22C709.613 468.658 719.659 446.12 719.2 423.019C718.988 412.04 713.162 399.737 707.106 389.883C706.453 388.839 705.818 387.795 705.147 386.792C700.857 380.149 696.743 374.95 694.766 372.562C694.007 371.639 693.565 371.137 693.565 371.137C693.565 371.137 694.942 366.099 695.878 361.724C695.896 361.624 695.913 361.523 695.949 361.403C695.949 361.363 695.966 361.303 695.966 361.262C695.984 361.182 696.002 361.162 696.002 361.162C696.549 358.473 696.902 356.144 696.584 355.562C695.754 354.037 690.899 352.331 690.052 351.207C689.222 350.063 685.709 330.856 683.043 328.769C680.483 326.762 675.964 325.317 660.905 318.573C660.163 318.252 659.404 317.911 658.609 317.549C641.732 309.943 625.172 300.73 625.172 300.73L618.816 291.859H615.992L616.91 294.107L616.945 294.188C616.486 296.476 615.974 298.663 615.391 300.771C615.374 300.831 615.356 300.891 615.338 300.931C606.599 332.261 584.125 342.356 584.125 342.356C568.501 329.25 568.819 308.437 568.819 308.437V305.587L565.888 306.571L563.893 311.99C563.893 311.99 560.504 317.971 547.086 324.694C544.773 325.858 542.284 327.303 539.707 328.989C527.419 336.917 513.755 349.18 512.713 351.789C512.607 352.07 512.483 352.472 512.36 353.074C510.912 359.516 507.946 383.641 505.192 392.251C503.48 397.63 500.761 400.58 498.766 402.125C498.748 402.146 498.748 402.146 498.731 402.146C497.248 403.31 496.171 403.671 496.171 403.671C495.959 404.996 495.765 406.3 495.57 407.605C489.815 448.849 500.761 476.847 503.232 478.814Z" fill="url(#paint11_linear_101_6563)"/>
<path opacity="0.5" d="M647.409 400.799L658.301 404.982L660.046 402.689C660.046 402.689 670.814 430.688 680.578 444.406C681.741 446.035 682.975 447.644 684.244 449.193C686.958 452.552 689.866 455.71 692.651 458.466L700.952 417.634L705.164 386.638C700.881 379.98 696.775 374.771 694.801 372.377C694.043 371.452 693.603 370.949 693.603 370.949C693.603 370.949 694.977 365.901 695.911 361.516C695.929 361.415 695.947 361.315 695.982 361.194C695.982 361.154 695.999 361.093 695.999 361.053C696.017 360.973 696.035 360.952 696.035 360.952C696.581 358.257 696.934 355.924 696.616 355.341C695.788 353.812 690.941 352.102 690.095 350.976C689.267 349.829 685.76 330.58 683.098 328.488C683.098 328.488 684.843 346.953 675.573 370.406L671.061 377.647L657.878 389.736C657.878 389.716 652.873 397.319 647.409 400.799Z" fill="url(#paint12_linear_101_6563)"/>
<path d="M679.079 434.085C681.413 453.864 707.156 469.101 707.156 469.101C712.894 469.101 719.3 457.683 725.108 443.593C730.917 429.502 731.285 389.02 731.583 386.527C731.899 384.035 735.128 379.03 735.339 376.879C735.532 374.748 730.109 370.306 730.109 370.306L730.144 370.206L730.18 370.105C730.741 368.718 733.935 360.899 733.707 359.472C733.461 357.904 727.372 354.487 727.372 354.487L726.986 362.186C726.986 362.186 712.807 359.11 707.998 346.527L707.156 342.668L704.787 344.477V361.04C704.787 361.04 704.296 363.613 703.559 363.613C702.822 363.613 697.276 360.457 696.118 360.879C694.943 361.321 693.802 370.186 692.258 371.311C690.713 372.457 686.607 375.733 685.975 377.301C685.695 378.005 685.677 380.558 685.642 383.553C685.607 387.231 685.572 391.573 685.098 394.005C684.221 398.427 676.745 414.286 679.079 434.085Z" fill="url(#paint13_linear_101_6563)"/>
<path d="M441.894 417.356C443.057 419.43 448.891 423.777 450.406 425.492C451.904 427.186 450.406 432.77 450.406 432.77C474.94 462.241 500.531 476.996 503.104 478.432C503.245 478.512 503.316 478.552 503.316 478.552C518.72 466.827 517.398 447.525 512.287 431.254C507.405 415.641 499.015 402.84 498.645 402.282L498.628 402.262C498.628 402.262 498.628 402.262 498.61 402.242C498.328 402.122 493.939 400.068 490.785 399.789C489.745 399.709 488.793 400.168 487.894 400.806C486.026 402.122 484.44 404.196 482.906 403.338C480.65 402.062 475.592 388.543 472.173 388.184C469.776 387.925 466.462 390.677 464.259 392.252C463.29 392.93 462.55 393.408 462.18 393.289C460.928 392.91 456.663 387.147 456.328 386.988C455.993 386.828 454.055 388.443 454.055 388.443L455.412 390.357C453.332 403.956 446.476 413.109 446.476 413.109L441.894 405.512C441.894 405.512 440.713 415.282 441.894 417.356Z" fill="url(#paint14_linear_101_6563)"/>
<path d="M568.844 306.829C568.861 307.03 568.897 307.21 568.914 307.411C568.984 307.812 569.055 308.213 569.16 308.614C569.16 308.614 569.16 308.634 569.178 308.634C570.743 315.27 577.091 322.046 585.093 318.778C593.833 315.209 610.469 275.034 610.469 275.034L608.798 266.453L569.301 303.121L568.861 306.589L568.844 306.829Z" fill="#CB4D7A"/>
<path d="M700.984 299.445C700.984 299.445 703.406 284.233 702.327 273.034C701.232 261.815 702.61 249.09 702.61 249.09C702.61 249.09 705.014 247.946 706.764 249.09C708.514 250.234 712.614 261.835 710.776 271.147C708.938 280.459 710.352 302.797 710.352 302.797H713.109L719.136 293.384L722.07 292.441C722.07 292.441 738.932 310.504 738.685 321.241L736.475 330.794L715.707 329.992L702.151 312.41L700.984 299.445Z" fill="#EE8183"/>
<path d="M722.068 292.423C722.068 292.423 721.626 304.405 719.257 314.661C719.257 314.661 719.646 318.875 723.976 319.156L725.037 317.812C725.037 317.812 725.797 322.588 729.615 322.949L733.256 318.815L732.319 322.227C732.319 322.227 733.645 325.86 737.091 325.719C737.091 325.719 742.871 320.581 743.242 313.878L737.533 308.399V304.184L730.746 298.765L730.622 295.695C730.658 295.695 726.681 292.343 722.068 292.423Z" fill="url(#paint15_linear_101_6563)"/>
<path opacity="0.6" d="M702.077 269.805C702.077 269.805 703.102 272.735 704.533 273.879C705.983 275.023 710.154 275.886 710.154 275.886L710.348 302.759H713.106L719.133 293.346C719.133 293.346 716.075 298.725 715.898 302.759L718.285 304.084L720.353 296.036L721.342 301.836L720.37 309.041C720.37 309.041 716.8 305.549 710.331 305.408L709.359 307.415C709.359 307.415 721.059 318.414 723.746 324.896C723.746 324.896 717.966 316.547 704.781 307.355L703.526 302.94L701.864 292.383C701.864 292.423 703.438 277.21 702.077 269.805Z" fill="url(#paint16_linear_101_6563)"/>
<path d="M692.269 316.649C693.348 320.342 704.748 335.736 706.003 339.087C707.258 342.419 708.018 346.774 708.018 346.774C713.603 360.522 727.142 362.408 727.142 362.408L727.761 350.005C727.761 350.005 735.043 345.249 736.263 342.64L736.28 342.599L736.422 342.158C736.793 339.729 736.475 330.758 736.475 330.758L723.731 324.898C718.199 316.77 704.766 307.377 704.766 307.377L704.147 303.122C713.798 297.744 712.171 281.447 710.545 279.44C708.919 277.453 705.915 277.453 705.915 277.453C705.915 277.453 702.397 290.559 700.135 296.7C697.872 302.821 691.191 312.956 692.269 316.649Z" fill="url(#paint17_linear_101_6563)"/>
<path d="M730.658 295.691C730.658 295.691 729.243 310.663 725.072 317.788C725.072 317.788 730.375 310.322 730.781 298.762L730.658 295.691Z" fill="#E28183"/>
<path d="M737.551 304.18C737.551 304.18 736.172 316.222 729.632 322.925C729.632 322.925 735.412 319.653 737.551 308.374V304.18Z" fill="#E28183"/>
<path opacity="0.91" d="M704.232 335.891C704.232 335.891 718.584 351.726 727.758 350L727.139 362.403C727.139 362.403 712.062 360.918 707.166 342.915C707.166 342.915 705.416 337.737 704.232 335.891Z" fill="url(#paint18_linear_101_6563)"/>
<path d="M400.702 357.406C400.702 357.406 413.888 384.781 429.336 393.191H434.603L446.781 414.143C446.781 414.143 454.646 408.524 455.23 390.1C455.23 390.1 452.472 386.828 451.801 383.156C451.801 383.156 456.149 379.282 457.333 376.432C458.5 373.582 458.924 365.033 459.754 361.501C460.585 357.988 467.708 350.663 469.299 349.72C470.89 348.776 478.083 348.295 478.083 348.295C478.083 348.295 479.091 345.344 478.083 343.94C477.076 342.515 465.87 337.557 459.754 342.314C459.754 342.314 459.33 345.926 458.676 347.833C458.005 349.72 452.649 356.463 451.818 356.463C450.988 356.463 447.382 353.051 445.791 350.382C444.271 347.833 436.176 328.004 434.214 321.301C434.196 321.221 434.196 321.16 434.161 321.1C434.126 321 434.09 320.899 434.09 320.799C434.055 320.719 434.055 320.659 434.037 320.598C434.02 320.578 434.02 320.558 434.02 320.518C432.517 314.718 423.715 303.599 419.031 300.569C419.031 300.569 417.034 300.007 415.938 302.837C415.938 302.837 419.703 315.019 423.644 322.224C424.298 323.448 425.023 324.873 425.765 326.399C425.765 326.399 425.765 326.399 425.783 326.399C429.141 333.403 432.906 342.555 433.454 343.899L433.525 344.06L431.439 345.284L425.783 339.183L419.986 332.941L406.659 348.917L407.967 350.803L412.12 356.864L410.017 357.306L405.121 351.145L400.702 357.406Z" fill="url(#paint19_linear_101_6563)"/>
<path opacity="0.6" d="M403.799 363.227L408.006 370.251C408.006 370.251 431.142 350.001 436.162 348.275C441.182 346.569 443.02 347.713 443.02 347.713L448.199 355.219C448.199 355.219 438.654 364.812 437.824 377.737C437.824 377.737 441.005 361.401 451.805 356.443C450.974 356.443 447.368 353.032 445.777 350.362C444.257 347.813 436.162 327.985 434.2 321.281C434.465 322.425 434.801 324.653 433.988 326.419C432.857 328.807 426.141 326.56 425.752 326.419C425.734 326.419 425.734 326.419 425.734 326.419L433.423 343.92L433.493 344.08L431.408 345.305L425.752 339.204L428.58 346.689L407.935 350.824L412.089 356.885L409.985 357.326L403.799 363.227Z" fill="url(#paint20_linear_101_6563)"/>
<path d="M419.915 333.003C419.915 333.003 415.902 332.341 413.304 338.221L413.888 340.128C413.888 340.128 409.964 340.991 406.181 348.216C406.181 348.216 409.522 355.16 417.811 358.291C417.811 358.291 421.665 357.046 422.336 353.353L421.576 350.985L424.581 353.554C424.581 353.554 428.187 354.798 429.777 348.697L419.915 333.003Z" fill="url(#paint21_linear_101_6563)"/>
<path d="M399.499 355.518C399.499 355.518 398.668 351.143 402.769 348.293L410.723 358.268C410.723 358.268 410.475 361.459 407.046 362.161C407.029 362.181 401.585 360.074 399.499 355.518Z" fill="url(#paint22_linear_101_6563)"/>
<path opacity="0.91" d="M457.336 376.43C457.336 376.43 448.127 388.11 434.606 393.188L440.439 403.223L452.599 385.702L451.821 383.173C451.804 383.153 456.664 379.019 457.336 376.43Z" fill="url(#paint23_linear_101_6563)"/>
<path d="M413.885 340.125C413.885 340.125 417.738 347.35 421.592 350.963L422.352 353.331C422.352 353.331 414.875 347.611 412.136 340.988C412.118 340.988 413.019 340.265 413.885 340.125Z" fill="#E28183"/>
<path opacity="0.5" d="M441.893 417.019C443.055 419.104 448.88 423.474 450.394 425.198C451.89 426.902 450.394 432.514 450.394 432.514C474.895 462.141 500.451 476.975 503.021 478.418C503.162 478.498 503.232 478.538 503.232 478.538C505.239 478.819 514.99 475.692 524.74 453.482C533.576 433.356 536.111 419.926 536.533 417.58L536.586 417.22L534.439 413.892L531.235 372.879L529 381.138C520.499 369.452 512.49 351.531 512.49 351.531L512.138 352.814V352.834C510.695 359.269 507.738 383.363 504.992 391.963C503.285 397.335 500.574 400.281 498.586 401.825L498.568 401.845L498.586 401.865C506.418 410.003 510.29 421.69 512.209 430.991C513.969 439.53 514.074 446.065 514.074 446.065C514.074 446.065 511.909 434.499 505.08 420.567C502.599 415.496 498.99 410.986 495.4 407.257C492.707 404.471 490.031 402.126 487.849 400.382C485.983 401.705 484.399 403.789 482.868 402.927C493.164 420.527 492.918 455.366 483.237 448.731C473.575 442.096 471.374 427.984 471.374 427.984C473.663 410.805 472.976 391.421 471.146 387.753C468.928 387.833 462.539 392.945 462.169 392.825C462.75 413.03 454.407 426.541 454.407 426.541L448.898 416.839C456.906 401.464 456.308 386.49 456.308 386.49C455.974 386.33 454.038 387.954 454.038 387.954L455.393 389.878C453.316 403.549 446.469 412.75 446.469 412.75L441.893 405.112C441.893 405.112 440.714 414.935 441.893 417.019Z" fill="url(#paint24_linear_101_6563)"/>
<path opacity="0.5" d="M548.552 543.912V549.902L548.64 550.002L548.939 550.304L549.168 550.525C551.548 552.655 561.628 559.67 593.139 561.6C630.466 563.871 655.333 550.183 655.333 550.183L653.465 544.314C653.465 544.314 655.209 542.605 655.333 541.761C655.456 540.897 653.958 538.907 653.958 538.907C653.958 538.907 657.712 536.635 657.712 533.761C657.712 531.188 651.579 523.731 650.592 516.716C650.469 515.972 650.416 515.229 650.451 514.485C650.698 506.947 656.408 500.274 657.201 495.993C657.218 495.953 657.218 495.933 657.218 495.933C657.976 491.651 647.455 481.079 647.455 481.079C656.461 448.516 658.223 404.839 658.223 404.839L659.968 402.547C659.968 402.547 670.736 430.527 680.499 444.235C690.263 457.943 704.538 469.662 707.04 469.079C712.803 469.079 719.236 457.662 725.069 443.572C730.903 429.481 731.273 389 731.572 386.507C731.89 384.015 735.132 379.01 735.344 376.859C729.087 389.14 719.112 385.522 719.112 385.522C726.338 385.703 730.092 370.286 730.092 370.286L730.127 370.186L730.162 370.085L733.687 359.452C733.282 359.955 725.034 370.507 717.05 363.995C708.873 357.342 704.661 344.438 704.661 344.438V361C704.661 361 704.168 363.573 703.427 363.573C703.921 371.191 705.331 380.477 707.04 389.623C710.759 409.401 715.834 428.517 715.834 428.517C715.834 428.517 702.035 419.954 697.189 398.246C694.88 387.854 694.492 378.829 694.721 372.256C694.915 366.628 695.567 362.789 695.832 361.382C695.849 361.281 695.867 361.181 695.902 361.06C695.902 361.02 695.92 360.96 695.92 360.92C695.92 360.879 695.937 360.859 695.937 360.839L694.598 364.055L692.06 371.231C689.117 399.09 695.197 441.059 695.197 441.059C686.35 428.496 684.5 400.698 684.887 393.944C685.064 390.728 685.275 386.748 685.434 383.492C685.628 379.934 685.769 377.241 685.769 377.241L667.652 389.562L671 377.482L657.818 389.562C657.818 389.562 645.957 405.844 633.779 407.733C621.601 409.643 576.873 408.497 576.873 408.497C576.873 408.497 615.768 411.351 627.117 415.15C638.467 418.969 640.635 423.331 640.635 423.331C632.422 470.948 587.006 486.988 585.596 487.47C626.8 480.415 645.975 440.456 645.975 440.456C645.975 440.456 646.644 462.928 643.472 471.491C640.3 480.053 621.601 500.998 597.563 505.36C595.536 505.721 593.545 505.942 591.571 506.043C571.304 507.128 554.526 495.309 552.799 494.043C552.711 493.963 552.658 493.943 552.658 493.943C552.658 493.943 552.676 493.963 552.693 494.023C553.345 495.149 561.646 508.475 595.219 509.942C597.245 510.043 599.237 510.023 601.158 509.922C601.176 509.922 601.176 509.922 601.176 509.922C632.281 508.435 648.125 484.797 648.125 484.797C648.125 484.797 659.633 491.852 652.284 502.304C652.213 502.405 652.125 502.525 652.055 502.646C649.887 505.5 645.111 508.978 639.472 512.555C639.313 512.656 639.154 512.756 639.013 512.857C632.193 517.158 624.21 521.58 618.024 525.239C617.988 525.259 617.953 525.259 617.936 525.279C614.164 527.53 611.045 529.46 609.318 530.907C609.3 530.907 609.3 530.927 609.3 530.927C607.555 532.374 607.203 533.299 608.912 533.54C617.601 534.686 650.469 526.505 651.808 528.776C653.147 531.068 650.187 536.957 650.187 536.957C620.015 554.022 555.425 545.6 553.398 545.359C607.45 561.138 651.649 541.158 651.649 541.158L650.187 547.067C650.187 547.067 626.113 556.575 597.739 557.339C569.347 558.082 551.671 549.821 551.671 549.821L548.552 543.912Z" fill="url(#paint25_linear_101_6563)"/>
<path opacity="0.5" d="M570.406 408.25C570.406 408.25 548.787 409.578 534.505 413.865L541.876 426.565C541.876 426.565 552.952 415.496 570.406 408.25Z" fill="url(#paint26_linear_101_6563)"/>
<path opacity="0.5" d="M550.113 476.191C550.113 476.191 563.546 488.928 576.75 494.805C589.954 500.682 602.664 501.264 602.664 501.264C602.664 501.264 595.074 503.831 576.38 500.402C557.703 496.992 551.313 485.478 551.313 485.478L550.113 476.191Z" fill="url(#paint27_linear_101_6563)"/>
<path opacity="0.5" d="M612.03 412.336C633.258 414.779 638.975 421.485 638.975 421.485C644.94 422.346 658.351 405.009 658.351 405.009L660.098 402.727C660.098 402.727 670.88 430.594 680.655 444.246C681.82 445.868 683.055 447.47 684.326 449.011L682.932 445.468C682.932 445.468 680.656 444.246 680.003 430.674C679.332 417.141 685.014 396.942 685.049 394.179C685.085 391.417 685.914 377.523 685.914 377.523L667.774 389.795L671.127 377.764L657.927 389.795C657.927 389.795 652.757 398.623 639.699 405.97C627.364 412.977 613.547 412.416 612.03 412.336Z" fill="url(#paint28_linear_101_6563)"/>
<path opacity="0.5" d="M659.898 403.044L647.304 401.156C647.304 401.156 642.274 404.973 632.16 409.673L640.585 423.874C640.585 423.874 637.243 444.121 627.639 455.51C627.639 455.51 653.126 439.341 656.697 425.762L659.898 403.044Z" fill="url(#paint29_linear_101_6563)"/>
<path opacity="0.5" d="M733.781 359.548L730.155 370.45C730.155 370.45 726.457 385.176 719.133 385.783C711.809 386.39 704.644 361.105 704.644 361.105V344.438C704.644 344.438 712.446 363.553 720.867 365.717C729.288 367.861 733.781 359.548 733.781 359.548Z" fill="url(#paint30_linear_101_6563)"/>
<path opacity="0.5" d="M690.078 350.992C690.078 350.992 683.554 365.846 675.509 370.436C675.509 370.436 685.075 344.027 683.059 328.488C683.059 328.488 686.577 330.964 690.078 350.992Z" fill="url(#paint31_linear_101_6563)"/>
<path opacity="0.76" d="M531.244 373.391L528.99 381.611L526.7 449.014C526.7 449.014 532.504 436.184 536.586 417.887L534.474 414.215C534.456 414.215 530.889 388.815 531.244 373.391Z" fill="url(#paint32_linear_101_6563)"/>
<path opacity="0.5" d="M461.97 392.887C461.97 392.887 463.237 426.548 450.828 429.47L450.212 433.062C450.194 433.062 466.264 432.372 461.97 392.887Z" fill="url(#paint33_linear_101_6563)"/>
<path opacity="0.3" d="M482.471 403.098C482.471 403.098 482.954 404.272 487.535 400.57C487.535 400.57 503.407 413.069 509.527 430.701C509.527 430.701 499.739 414.501 494.532 412.75C489.325 410.999 488.072 417.467 488.072 417.467C488.072 417.467 486.014 408.372 482.471 403.098Z" fill="url(#paint34_linear_101_6563)"/>
<path opacity="0.5" d="M695.874 360.984C695.874 360.984 687.516 396.404 709.328 423.019C709.328 423.019 695.161 414.78 691.953 395.697C688.728 376.634 695.874 360.984 695.874 360.984Z" fill="url(#paint35_linear_101_6563)"/>
<path opacity="0.5" d="M547.694 333.215C547.694 333.215 548.622 349.001 555.255 360.322C561.906 371.644 575.086 379.298 575.086 379.298C575.086 379.298 558.546 372.361 550.967 362.595C543.371 352.808 547.694 333.215 547.694 333.215Z" fill="url(#paint36_linear_101_6563)"/>
<path opacity="0.5" d="M633.02 308.992C633.02 308.992 633.02 322.352 629.205 335.974C625.39 349.597 592.258 373.39 592.258 373.39C592.258 373.39 626.393 357.407 633.02 343.038C639.646 328.669 633.02 308.992 633.02 308.992Z" fill="url(#paint37_linear_101_6563)"/>
<path d="M633.363 372.218V393.748C633.363 393.748 589.491 393.349 540.318 397.021L539.187 377.646C539.187 377.646 581.946 371.919 633.363 372.218Z" fill="url(#paint38_linear_101_6563)"/>
<path d="M544.334 380.008C544.335 379.649 544.469 379.46 544.789 379.437L553.724 379.088C554.612 379.043 555.364 379.148 555.997 379.381C556.631 379.614 557.126 379.937 557.52 380.386C557.913 380.836 558.205 381.373 558.376 382.018C558.565 382.662 558.669 383.391 558.67 384.208L558.723 386.954C558.741 387.77 558.667 388.492 558.502 389.162C558.336 389.831 558.076 390.388 557.706 390.853C557.335 391.319 556.836 391.694 556.226 391.977C555.616 392.26 554.857 392.395 553.969 392.44L549.155 392.629L548.02 389.563L547.896 389.572L547.948 392.697L544.572 392.822L544.334 380.008ZM547.879 389.195L553.582 388.981C554.221 388.954 554.676 388.782 554.946 388.444C555.215 388.105 555.332 387.539 555.332 386.742L555.285 384.514C555.265 383.678 555.134 383.13 554.853 382.831C554.574 382.553 554.122 382.406 553.465 382.434L547.994 382.651C547.923 382.657 547.853 382.682 547.82 382.744C547.77 382.807 547.755 382.868 547.758 382.947L547.879 389.195Z" fill="white"/>
<path d="M564.073 384.466L563.967 384.474L564.04 388.475C564.048 388.653 564.123 388.728 564.265 388.718L574.321 388.327L574.388 391.79L561.204 392.308C560.884 392.311 560.734 392.142 560.718 391.785L560.506 379.543C560.507 379.184 560.659 378.994 560.978 378.971L573.771 378.481C574.092 378.478 574.259 378.645 574.275 379.003L574.342 382.466L571.238 383.887L571.114 383.896L571.087 382.124C571.081 381.985 571.025 381.929 570.919 381.937L564.167 382.187C564.078 382.194 564.026 382.218 563.993 382.28C563.96 382.342 563.963 382.402 563.948 382.462L563.969 384.135L569.53 383.911L569.581 386.618L564.908 386.797L564.073 384.466Z" fill="white"/>
<path d="M587.215 382.743L587.091 382.752L587.061 381.279C587.054 381.14 586.998 381.065 586.856 381.075L580.566 381.312C580.336 381.329 580.178 381.38 580.094 381.506C580.01 381.611 579.964 381.774 579.974 381.993L579.971 382.332C579.983 382.59 580.008 382.747 580.1 382.82C580.175 382.895 580.319 382.944 580.552 382.967L587.977 383.843C588.442 383.909 588.856 383.999 589.182 384.134C589.509 384.27 589.785 384.469 589.991 384.713C590.198 384.958 590.354 385.265 590.441 385.617C590.529 385.99 590.584 386.404 590.589 386.922L590.601 387.977C590.608 388.535 590.559 389.016 590.453 389.443C590.348 389.869 590.15 390.222 589.879 390.52C589.607 390.819 589.262 391.043 588.807 391.216C588.369 391.387 587.804 391.468 587.164 391.494L576.558 391.905L576.491 388.443L585.996 388.072C586.28 388.051 586.473 387.998 586.556 387.872C586.64 387.746 586.684 387.544 586.688 387.245L586.69 386.886C586.679 386.647 586.654 386.49 586.579 386.396C586.503 386.302 586.359 386.252 586.162 386.227L579.01 385.49C578.527 385.425 578.113 385.336 577.769 385.201C577.425 385.067 577.132 384.889 576.908 384.646C576.683 384.403 576.528 384.116 576.423 383.765C576.318 383.414 576.264 382.999 576.26 382.501L576.235 381.566C576.209 380.592 576.425 379.839 576.88 379.288C577.336 378.737 578.088 378.443 579.154 378.405L589.743 377.996C590.081 377.992 590.249 378.179 590.266 378.556L590.318 381.302L587.215 382.743Z" fill="white"/>
<path d="M592.552 391.408L592.305 377.97L595.722 377.844L595.97 391.282L592.552 391.408Z" fill="white"/>
<path d="M608.781 385.145C608.772 384.946 608.763 384.748 608.735 384.531C608.708 384.313 608.699 384.135 608.675 383.977L608.667 383.818L612.007 383.696L612.124 390.242C612.121 390.581 611.988 390.77 611.721 390.77L602.75 391.121C601.861 391.146 601.11 391.061 600.477 390.828C599.843 390.595 599.348 390.272 598.954 389.823C598.56 389.373 598.269 388.836 598.098 388.191C597.909 387.547 597.805 386.818 597.804 386.021L597.752 383.275C597.733 382.459 597.808 381.737 597.973 381.067C598.139 380.398 598.398 379.841 598.787 379.374C599.157 378.909 599.657 378.534 600.267 378.251C600.877 377.968 601.635 377.813 602.524 377.788L611.441 377.44C611.762 377.437 611.929 377.604 611.928 377.963L611.986 380.848L608.882 382.249L608.757 382.258L608.736 380.984C608.73 380.865 608.692 380.808 608.586 380.816L602.901 381.029C602.581 381.032 602.299 381.092 602.071 381.169C601.843 381.245 601.671 381.377 601.536 381.546C601.401 381.715 601.305 381.941 601.246 382.225C601.188 382.508 601.15 382.849 601.168 383.246L601.202 385.595C601.22 386.391 601.37 386.958 601.633 387.257C601.913 387.556 602.365 387.702 603.022 387.675L608.671 387.464C608.795 387.455 608.846 387.392 608.839 387.233L608.781 385.145Z" fill="white"/>
<path d="M619.456 377.259C619.705 377.241 619.885 377.288 619.995 377.36C620.105 377.432 620.2 377.564 620.279 377.758L624.973 387.159C625.05 387.292 625.16 387.364 625.285 387.375L625.462 387.362C625.64 387.349 625.725 387.263 625.716 387.065L625.531 377.018L628.586 376.896L628.806 389.709C628.805 390.068 628.67 390.237 628.351 390.26L623.502 390.453C623.271 390.469 623.11 390.441 622.982 390.371C622.872 390.299 622.759 390.168 622.661 389.956L617.808 380.566C617.749 380.431 617.638 380.36 617.496 380.35L617.336 380.362C617.159 380.374 617.074 380.46 617.083 380.659L617.267 390.686L614.212 390.808L613.992 378.014C613.994 377.656 614.128 377.467 614.447 377.443L619.456 377.259Z" fill="white"/>
<path opacity="0.5" d="M564.162 312.005C565.181 326.004 568.92 335.766 572.887 342.353C578.363 351.392 584.279 354.485 584.279 354.485C590.195 351.532 595.338 347.857 599.762 343.8C618.527 326.627 624.583 302.846 625.039 300.878C617.122 322.77 605.484 336.047 596.655 343.518C589.545 349.564 584.262 351.834 584.262 351.834V344.824C585.666 344.221 587.035 343.539 588.334 342.775C603.869 333.817 612.032 315.138 615.841 303.067C615.858 303.047 615.858 303.027 615.858 302.987C617.93 296.459 618.72 291.859 618.72 291.859H615.911L616.824 294.109L616.859 294.189C616.403 296.479 615.894 298.668 615.314 300.777C615.297 300.837 615.279 300.898 615.262 300.938C606.572 332.291 584.226 342.394 584.226 342.394C568.691 329.278 569.007 308.45 569.007 308.45V305.598L566.093 306.582L564.162 312.005Z" fill="url(#paint39_linear_101_6563)"/>
<path opacity="0.3" d="M471.151 387.57C471.151 387.57 475.391 403.535 471.38 428.336C471.38 428.336 469.374 396.893 467.879 394.151C466.384 391.409 462.179 392.709 462.179 392.709C462.179 392.709 468.794 388.484 471.151 387.57Z" fill="url(#paint40_linear_101_6563)"/>
<path opacity="0.5" d="M512.221 473.828C515.921 470.126 520.36 463.97 524.782 453.851C533.626 433.653 536.163 420.174 536.586 417.82L534.489 414.118L531.671 383.036L529.046 381.245C529.046 381.245 519.656 369.396 512.521 351.531C512.415 351.813 512.292 352.215 512.168 352.819V352.859C510.724 359.317 507.764 383.499 505.016 392.129C503.307 397.521 500.594 400.478 498.603 402.027C498.603 402.027 514.864 429.569 515.657 449.224C516.344 467.109 512.856 472.923 512.221 473.828Z" fill="url(#paint41_linear_101_6563)"/>
<path opacity="0.5" d="M539.705 328.948L565.209 338.409L572.68 342.372L572.715 342.392L577.572 342.412L584.143 342.433L588.24 342.817L590.413 342.999L596.594 343.565L599.703 343.848L630.294 331.172L635.769 328.908L660.938 318.476C660.196 318.152 659.436 317.809 658.641 317.445C641.756 309.783 625.189 300.503 625.189 300.503L618.831 291.568H616.005C613.479 285.24 611.801 279.296 610.706 274.626L609.028 265.974C608.905 265.145 608.852 264.68 608.852 264.68L599.844 270.118L569.483 297.916C569.501 299.816 569.448 301.514 569.359 302.95L568.918 306.447C568.847 305.76 568.812 305.376 568.812 305.376L565.88 306.366L563.884 311.825C563.884 311.825 560.493 317.849 547.07 324.622C544.756 325.794 542.266 327.27 539.705 328.948Z" fill="#7A4AC0"/>
<path d="M559.117 302.45C559.117 302.45 570.979 305.487 584.074 298.268C597.169 291.028 608.184 269.692 608.854 264.383C609.506 259.054 603.849 245.138 603.849 234.279C603.849 223.42 608.519 204.759 600.676 194.664C592.833 184.569 556.773 183.061 545.088 196.011C545.088 196.011 541.475 206.388 541.475 212.26C541.475 213.667 541.704 215.759 542.022 218.152C542.127 219.036 542.268 219.982 542.409 220.967C543.449 228.066 544.894 236.733 544.225 240.533C543.996 241.861 543.625 243.087 543.185 244.233V244.254C541.74 248.054 539.607 251.091 539.219 254.369C538.708 258.652 543.749 289.118 559.117 302.45Z" fill="url(#paint42_linear_101_6563)"/>
<path d="M603.816 231.533C603.816 231.533 607.092 222.281 615.301 222.141C615.301 222.141 620.109 224.288 620.875 228.422C620.875 228.422 619.112 243.393 617.082 250.377C615.052 257.361 607.645 256.357 607.645 256.357C607.645 256.357 601.181 245.199 603.816 231.533Z" fill="url(#paint43_linear_101_6563)"/>
<path d="M572.484 261.79C572.484 261.79 569.788 261.542 568.632 262.578C567.476 263.614 563.238 268.464 557.897 269.79C552.556 271.117 548.966 265.728 547.827 265.438C546.689 265.169 545.428 267.075 545.428 267.075C545.428 267.075 545.919 264.878 548.703 263.863C548.703 263.863 549.824 268.94 557.582 267.2C565.339 265.459 568.632 261.376 568.632 261.376L569.017 260.547C569.017 260.568 571.206 261.106 572.484 261.79Z" fill="url(#paint44_linear_101_6563)"/>
<path opacity="0.6" d="M584.09 215.733L583.984 214.787C583.984 214.787 576.213 199.193 560.864 198.771C545.497 198.348 542.034 209.355 542.034 209.355L539.185 204.405L545.673 189.334L590.806 188.469L601.795 198.61L603.184 223.46L598.296 256.257L586.41 263.501L583.052 260.101C584.301 249.114 591.421 239.094 591.421 239.094L586.217 234.969C586.217 234.969 572.855 242.374 565.136 240.16C565.136 240.16 559.334 220.763 559.668 206.397C559.668 206.357 579.466 209.717 584.09 215.733Z" fill="url(#paint45_linear_101_6563)"/>
<path d="M584.973 216.825C584.973 216.825 584.209 211.251 575.845 209.013C566.522 206.536 558.957 204.418 558.957 204.418C558.957 204.418 560.609 210.532 563.716 212.829C563.716 212.829 573.572 212.43 578.562 213.708C583.57 214.987 584.973 216.825 584.973 216.825Z" fill="#38368E"/>
<path d="M541.851 209.734C541.851 209.734 546.448 213.737 549.594 223.323C549.594 223.323 546.586 218.891 543.821 218.95C541.92 218.989 542.231 221.117 542.231 221.117C542.231 221.117 540.347 215.396 541.851 209.734Z" fill="#38368E"/>
<path d="M581.852 232.778C581.852 232.778 581.361 220.986 571.262 218.008C571.262 218.008 567.651 223.324 567.283 229.36C567.283 229.36 572.647 228.221 581.852 232.778Z" fill="url(#paint46_linear_101_6563)"/>
<path d="M552.715 237.506C552.715 237.506 551.853 228.025 546.92 224.508C546.92 224.508 543.546 227.297 543.895 235.242C543.913 235.242 546.865 234.069 552.715 237.506Z" fill="url(#paint47_linear_101_6563)"/>
<path d="M581.852 232.719C581.852 232.719 578.571 237.217 569.394 238.096C569.394 238.096 567.64 235.124 567.815 229.316C567.815 229.316 576.255 228.397 581.852 232.719Z" fill="#FFEBED"/>
<path d="M552.715 237.54V238.91C552.715 238.91 551.28 242.245 546.179 242.821C546.179 242.821 544.532 239.942 544.39 235.276C544.39 235.256 547.649 234.343 552.715 237.54Z" fill="#FFEBED"/>
<path d="M571.97 229.357C571.97 229.357 574.238 232.409 574.034 237.243C574.034 237.243 571.066 238.021 569.395 238.096C569.395 238.096 567.45 235.082 567.86 229.584C567.86 229.603 570.452 228.977 571.97 229.357Z" fill="#7F9EC9"/>
<path d="M547.975 235.502C547.975 235.502 549.339 237.076 549.594 241.936C549.594 241.936 547.721 242.821 546.229 242.821C546.229 242.821 544.32 239.89 544.393 235.345C544.411 235.345 545.738 234.794 547.975 235.502Z" fill="#7F9EC9"/>
<path d="M572.385 237.566C572.385 237.566 573.222 231.526 570.031 229.234L567.433 229.594C567.433 229.594 566.561 234.366 569.002 238.096C569.002 238.078 571.583 237.756 572.385 237.566Z" fill="#38368E"/>
<path d="M546.751 235.247C546.751 235.247 547.969 238.014 548.551 242.35C548.551 242.35 547.606 242.762 546.224 242.821C546.224 242.821 544.37 240.368 544.388 235.364C544.388 235.364 545.806 234.952 546.751 235.247Z" fill="#38368E"/>
<path d="M581.852 232.776C581.852 232.776 575.694 228.581 565.202 230.969L567.148 229.245C567.148 229.225 574.632 226.504 581.852 232.776Z" fill="#131163"/>
<path d="M552.715 237.506C552.715 237.506 547.676 234.438 541.788 236.055L544.208 234.002C544.226 234.002 548.164 233.318 552.715 237.506Z" fill="#131163"/>
<path d="M575.086 232.814C575.086 232.814 573.438 232.474 571.964 233.867C571.964 233.867 573.993 234.419 575.086 232.814Z" fill="white"/>
<path d="M550.113 238.213C550.113 238.213 547.803 237.652 546.991 238.966C547.007 238.966 548.24 240.029 550.113 238.213Z" fill="white"/>
<path d="M581.332 233.367C581.332 233.367 576.42 238.61 568.524 239.866L568.324 236.764L569.052 238.079C569.052 238.079 576.62 237.608 581.332 233.367Z" fill="#C6659C"/>
<path d="M552.715 238.688C552.715 238.688 551.843 242.352 545.43 244.005L545.63 242.204L545.994 242.84C546.012 242.84 550.553 242.162 552.715 238.688Z" fill="#C6659C"/>
<path d="M565.203 252.545C565.203 252.545 562.896 251.934 558.634 252.545C554.372 253.157 549.599 254.621 546.992 252.545C546.992 252.545 550.462 256.849 553.474 257.504C556.485 258.159 561.064 254.883 561.064 254.883L563.072 254.926C563.054 254.926 564.604 253.987 565.203 252.545Z" fill="#CB5F7D"/>
<path d="M562.602 255.067C562.602 255.067 561.573 254.529 560.702 254.656C559.831 254.784 558.959 255.818 558.959 255.818C558.959 255.818 560.772 255.039 562.602 255.067Z" fill="#9F4A8B"/>
<path d="M546.61 252.971C545.489 251.695 551.308 239.719 554.085 239.287C556.861 238.855 559.477 252.703 559.477 252.703C559.477 252.703 555.615 253.321 551.86 253.917C548.105 254.494 546.61 252.971 546.61 252.971Z" fill="#FFBCAF"/>
<path opacity="0.6" d="M542.63 216.239C544.198 216.019 549.774 223.62 549.774 223.62C549.774 223.62 553.319 235.942 552.625 239.583C551.93 243.244 543.325 245.184 543.325 245.184L542.969 244.544V244.524C543.414 243.364 543.788 242.163 544.02 240.843C544.697 237.063 543.254 228.441 542.185 221.38C542.185 221.38 541.846 219.92 541.793 218.579C541.757 217.399 541.918 216.319 542.63 216.239Z" fill="url(#paint48_linear_101_6563)"/>
<path d="M542.836 266.375C544.602 262.191 543.507 259.999 558.797 257.726C580.443 254.488 582.297 262.01 585.969 260.864C586.093 260.824 586.252 260.763 586.411 260.683C590.401 258.913 599.776 248.413 600.023 234.253C600.271 219.529 591.619 209.09 591.619 209.09C594.762 206.093 596.015 197.384 592.626 193.663C589.236 189.962 583.462 190.806 569.302 192.516C555.125 194.226 555.125 193.24 555.125 193.24C550.622 194.548 548.045 199.355 547.321 200.904C547.179 201.205 547.109 201.386 547.109 201.386L545.343 199.536C540.576 207.401 541.459 215.969 541.459 215.969C541.459 215.969 533.69 197.967 534.573 195.413C536.18 190.706 540.682 183.847 540.947 183.404L540.965 183.384C540.965 183.384 542.218 169.666 545.979 169.666C549.739 169.666 565.789 173.79 565.789 173.79C564.023 169.083 564.288 163.652 564.288 163.652C564.288 163.652 564.306 163.672 564.359 163.733C569.602 169.083 574.723 169.666 581.979 173.508C585.634 175.459 587.346 177.249 588.777 179.12L589.271 179.784L589.783 180.488C590.277 181.212 590.807 181.956 591.425 182.7C591.46 182.741 591.496 182.781 591.513 182.781C591.549 182.801 591.549 182.821 591.549 182.821C592.131 183.545 592.82 184.289 593.65 185.074C598.417 189.499 608.904 192.456 610.158 197.122C611.411 201.789 608.569 208.165 607.068 214.742C605.567 221.32 606.256 227.132 606.256 227.132C606.256 227.132 601.259 234.454 602.919 245.175C604.384 254.789 607.598 256.358 607.598 256.358C609.858 261.648 608.781 266.596 608.781 266.596C604.155 287.596 584.981 300.086 584.981 300.086C567.925 307.327 556.714 304.17 556.714 304.17C556.714 304.17 556.714 304.17 556.696 304.149C544.284 294.937 540.047 264.444 539.852 263.016C540.082 263.418 542.377 267.481 542.836 266.375ZM550.499 285.805C553.5 285.242 554.136 276.553 555.125 275.406C556.131 274.28 561.569 274.743 561.569 274.743C561.569 274.743 566.583 281.219 568.578 281.4C570.591 281.602 581.29 276.633 578.978 269.211C576.682 261.769 568.578 260.824 568.578 260.824C568.578 260.824 564.394 264.826 558.126 265.289C551.858 265.752 549.581 264.444 548.839 264.062C548.08 263.68 544.054 265.772 544.16 272.248C544.249 276.794 547.48 286.369 550.499 285.805Z" fill="url(#paint49_linear_101_6563)"/>
<path d="M551.321 242.23C551.321 242.23 546 249.881 546.504 252.76C547.061 255.9 553.234 257.591 553.234 257.591C553.234 257.591 548.295 255.618 547.269 252.76C547.269 252.76 548.539 246.962 551.321 242.23Z" fill="#D2726C"/>
<path opacity="0.6" d="M541.514 215.643C541.514 215.643 540.642 207.098 545.43 199.255C541.568 191.493 541.016 183.148 541.016 183.148L540.998 183.169C539.699 186.799 538.952 193.839 538.952 193.839L534.574 195.123C533.684 197.691 541.514 215.643 541.514 215.643Z" fill="url(#paint50_linear_101_6563)"/>
<path opacity="0.6" d="M547.511 200.913C548.233 199.385 550.803 194.559 555.293 193.252C555.293 193.252 555.293 194.237 569.43 192.528C583.55 190.819 589.307 189.974 592.687 193.674C596.068 197.394 594.818 206.101 591.684 209.097C591.684 209.097 600.311 219.534 600.064 234.253C599.835 248.409 590.469 258.926 586.49 260.675L586.666 262.244C586.666 262.244 585.962 294.658 579.061 297.232C572.177 299.786 557.863 298.459 556.525 299.987C555.257 301.435 556.701 303.928 556.842 304.15C556.86 304.17 556.86 304.17 556.86 304.17C556.86 304.17 568.039 307.327 585.047 300.088C585.047 300.088 604.166 287.58 608.779 266.607C608.779 266.607 609.853 261.661 607.6 256.372C607.6 256.372 604.395 254.804 602.934 245.192C601.279 234.474 606.261 227.155 606.261 227.155C606.261 227.155 605.575 221.343 607.071 214.768C608.568 208.192 611.42 201.818 610.152 197.153C602.159 198.581 596.895 193.815 596.895 193.815C596.895 193.815 595.504 191.603 589.307 190.457C583.11 189.311 558.233 192.166 558.233 192.166C558.233 192.166 560.733 189.793 565.979 188.225C570.944 186.737 587.899 188.466 589.712 188.627C587.775 188.245 568.55 184.465 566.367 185.229C564.043 186.013 555.733 190.376 555.733 190.376C556.49 186.013 563.937 175.516 563.937 175.516C563.937 175.516 574.448 175.717 581.314 177.366C587.459 178.834 590.821 182.031 591.473 182.695L589.835 180.483L589.325 179.779L588.832 179.116L586.437 178.653L574.377 173.083C570.328 170.61 565.134 164.497 564.501 163.733C564.465 163.693 564.43 163.652 564.43 163.652C564.43 163.652 564.184 169.082 565.927 173.787C555.733 172.359 552.282 173.083 552.282 173.083C547.669 180.604 547.511 200.913 547.511 200.913Z" fill="url(#paint51_linear_101_6563)"/>
<path opacity="0.5" d="M584.973 299.659C584.973 299.659 578.743 298.014 569.356 298.425C559.968 298.856 554.563 298.895 556.897 303.634C556.88 303.634 568.689 306.61 584.973 299.659Z" fill="url(#paint52_linear_101_6563)"/>
<path d="M564.162 175.67C564.162 175.67 564.621 182.618 566.619 185.15L590.064 188.467L596.941 187.112C596.941 187.112 594.272 185.856 591.354 182.049C588.419 178.281 573.126 174.552 564.162 175.67Z" fill="url(#paint53_linear_101_6563)"/>
<path d="M541.266 183.148C541.266 183.148 539.248 190.401 539.098 194.225L534.502 195.555C534.502 195.555 535.884 190.09 541.266 183.148Z" fill="url(#paint54_linear_101_6563)"/>
<path opacity="0.8" d="M604.744 244.07C604.744 244.07 606.415 235.124 610.528 230.681C614.642 226.257 619.312 227.678 619.312 227.678C619.312 227.678 618.037 244.29 616.69 248.333C615.343 252.376 613.313 253.457 613.313 253.457C613.313 253.457 616.187 250.655 616.564 245.151C616.941 239.667 617.067 231.901 615.989 230.981C614.911 230.06 610.528 233.663 610.528 233.663C610.528 233.663 611.911 235.544 612.738 240.447C613.564 245.351 610.51 248.893 609.361 248.833C608.211 248.753 609.432 243.169 609.235 241.568C609.037 239.947 606.486 240.287 604.744 244.07Z" fill="url(#paint55_linear_101_6563)"/>
<path opacity="0.8" d="M609.168 232.777C609.168 232.777 613.503 236.08 613.035 242.846C612.567 249.612 609.237 249.33 609.22 247.9C609.202 246.471 609.861 242.826 609.515 240.752C609.168 238.678 606.306 239.624 606.306 239.624C606.306 239.624 608.197 234.247 609.168 232.777Z" fill="url(#paint56_linear_101_6563)"/>
<path d="M540.225 262.906C540.225 262.906 545.635 291.113 556.875 303.672C556.875 303.672 544.047 297.911 540.225 262.906Z" fill="#34C7FF"/>
<path d="M545.949 169.562C545.949 169.562 543.159 172.11 542.632 180.977C542.104 189.844 545.371 199.693 545.371 199.693C545.371 199.693 541.186 192.331 540.777 184.247C540.386 176.182 543.755 170.586 545.949 169.562Z" fill="#34C7FF"/>
<path d="M580.812 187.727C580.812 187.727 574.265 190.347 567.095 191.098C559.925 191.849 558.439 192.012 558.439 192.012C558.439 192.012 561.324 188.722 567.458 187.727C573.608 186.732 580.812 187.727 580.812 187.727Z" fill="url(#paint57_linear_101_6563)"/>
<path d="M548.482 263.752C548.482 263.752 545.367 263.752 544.145 268.169C543.164 271.691 542.888 274.726 542.888 274.726L541.787 269.881C541.787 269.881 543.232 263.733 544.73 262.351C545.814 261.359 547.673 260.347 548.551 260.581L548.482 263.752Z" fill="url(#paint58_linear_101_6563)"/>
<path d="M557.398 258.787L556.866 264.628C556.866 264.628 553.069 265.017 550.561 263.698L550.114 260.172C550.114 260.15 554.959 258.614 557.398 258.787Z" fill="url(#paint59_linear_101_6563)"/>
<path d="M539.707 328.488C539.707 328.488 516.961 347.479 514.02 354.024C511.063 360.549 509.883 381.051 505.887 389.932C505.887 389.932 508.616 375.432 510.535 364.054C512.454 352.675 511.996 352.514 513.052 349.735C514.109 346.915 531.08 333.442 539.707 328.488Z" fill="#34C7FF"/>
<path d="M543.433 434.242C543.433 434.242 554.784 487.889 554.256 491.512C553.745 495.136 546.403 502.523 546.057 504.556C546.057 504.556 551.668 512.87 551.413 514.702C551.158 516.534 541.575 528.169 541.83 531.772C541.903 532.819 548.116 544.132 548.116 544.132C548.116 544.132 541.101 533 540.755 531.229C540.409 529.457 549.355 514.581 549.61 513.071C550.284 509.166 545.146 506.288 544.982 503.711C544.818 501.134 551.942 494.854 551.996 490.647C552.069 486.46 543.433 434.242 543.433 434.242Z" fill="#34C7FF"/>
<path d="M692.406 316.673C692.406 316.673 698.573 315.191 701.142 309.103C703.694 303.015 702.028 294.223 702.028 294.223C702.028 294.223 697.19 304.697 694.798 308.282C692.388 311.847 691.732 315.912 692.406 316.673Z" fill="#FFBCAF"/>
<path opacity="0.73" d="M732.007 256.921H667.321C662.116 256.921 657.846 252.234 657.673 246.324L656.24 198.004C656.057 191.805 660.428 186.668 665.887 186.668H733.318C738.767 186.668 743.139 191.782 742.966 197.969L741.665 246.289C741.502 252.222 737.232 256.921 732.007 256.921Z" fill="url(#paint60_linear_101_6563)"/>
<path d="M732.006 257.22H667.32C661.942 257.22 657.591 252.441 657.408 246.335L655.975 198.014C655.883 194.932 656.869 192.023 658.76 189.807C660.641 187.591 663.182 186.367 665.897 186.367H733.328C736.032 186.367 738.563 187.579 740.444 189.784C742.325 191.989 743.321 194.898 743.239 197.968L741.938 246.289C741.765 252.43 737.404 257.22 732.006 257.22ZM665.876 186.979C663.304 186.979 660.915 188.133 659.126 190.234C657.337 192.335 656.402 195.094 656.493 198.003L657.926 246.323C658.099 252.106 662.217 256.631 667.31 256.631H732.006C737.109 256.631 741.237 252.095 741.389 246.289L742.69 197.968C742.772 195.059 741.826 192.312 740.047 190.223C738.258 188.133 735.869 186.979 733.307 186.979H665.876Z" fill="#953DA2"/>
<path d="M728.435 194.461H669.188V234.424H728.435V194.461Z" fill="#D1D4FB"/>
<path d="M693.57 204.375V224.495L708.718 213.517L693.57 204.375Z" fill="white"/>
<path d="M728.435 241.773H669.188V245.433H728.435V241.773Z" fill="#D1D4FB"/>
<path d="M684.528 241.773H669.188V245.433H684.528V241.773Z" fill="white"/>
<path opacity="0.5" d="M657.256 430.109C657.256 430.109 649.132 446.631 633.883 441.456C633.883 441.456 643.008 448.233 652.158 442.717C652.158 442.717 657.828 431.974 657.256 430.109Z" fill="url(#paint61_linear_101_6563)"/>
<path d="M659.897 554.159C659.897 554.159 671.093 500.564 674.336 460.321C674.336 460.321 592.433 447.082 531.124 454.615C531.124 454.615 533.771 508.072 540.633 554.159H659.897Z" fill="url(#paint62_linear_101_6563)"/>
<path opacity="0.5" d="M595.7 454.691L659.898 554.16H607.668L549.713 454.691C549.713 454.691 576.936 452.275 595.7 454.691Z" fill="white"/>
<path d="M674.336 460.32L671.865 456.153C671.865 456.153 602.36 444.628 535.051 451.898L531.113 454.614C531.124 454.601 610.468 450.509 674.336 460.32Z" fill="url(#paint63_linear_101_6563)"/>
<path d="M617.375 511.901C617.375 511.901 608.175 494.419 592.92 492.43C592.92 492.417 594.387 503.967 617.375 511.901Z" fill="white"/>
<path d="M555.415 450.234V453.988L579.352 453.788V449.496C579.352 449.496 561.581 449.846 555.415 450.234Z" fill="white"/>
<path d="M664.398 455.054V458.883L646.816 456.968L646.021 452.852C646.021 452.852 659.589 454.366 664.398 455.054Z" fill="white"/>
<path d="M661.586 545.711C661.586 545.711 651.934 552.105 602.362 553.131C552.79 554.157 539.807 548.451 539.807 548.451L540.634 554.158H659.898L661.586 545.711Z" fill="#EBC2D4"/>
<path d="M450.213 554.176H745.75V564.81H450.213V554.176Z" fill="url(#paint64_linear_101_6563)"/>
<path d="M434.602 228.771L438.329 230.414L439.285 227.402L435.222 225.688L434.602 228.771Z" fill="#4F31E0"/>
<path opacity="0.81" d="M164.668 529.949H132.497C131.067 529.949 129.896 528.649 129.865 527.024L129.266 497.064C129.235 495.386 130.421 494.004 131.899 494.004H165.392C166.874 494.004 168.066 495.392 168.024 497.076L167.301 527.036C167.265 528.661 166.094 529.949 164.668 529.949Z" fill="url(#paint65_linear_101_6563)"/>
<path d="M164.666 530.042H132.495C131.027 530.042 129.81 528.689 129.779 527.029L129.18 497.069C129.165 496.23 129.44 495.438 129.956 494.842C130.471 494.245 131.163 493.914 131.902 493.914H165.394C166.133 493.914 166.825 494.245 167.34 494.848C167.855 495.45 168.131 496.242 168.11 497.087L167.387 527.046C167.34 528.724 166.148 530.042 164.666 530.042ZM131.896 494.097C131.204 494.097 130.554 494.404 130.07 494.972C129.586 495.533 129.326 496.277 129.342 497.063L129.94 527.023C129.971 528.583 131.116 529.853 132.489 529.853H164.66C166.055 529.853 167.173 528.612 167.21 527.035L167.933 497.075C167.954 496.289 167.694 495.539 167.21 494.978C166.726 494.41 166.076 494.103 165.384 494.103H131.896V494.097Z" fill="#473DA2"/>
<path d="M154.85 500.137H137.93V500.958H154.85V500.137Z" fill="white"/>
<path d="M146.39 502.137H137.93V502.958H146.39V502.137Z" fill="white"/>
<path d="M146.39 503.805H137.93V504.626H146.39V503.805Z" fill="white"/>
<path d="M154.064 503.805H147.336V504.626H154.064V503.805Z" fill="white"/>
<path d="M151.567 505.477H137.93V506.298H151.567V505.477Z" fill="white"/>
<path d="M142.784 507.141H137.93V507.962H142.784V507.141Z" fill="white"/>
<path d="M152.174 512.152H143.781V512.974H152.174V512.152Z" fill="white"/>
<path d="M153.144 508.816H137.93V509.638H153.144V508.816Z" fill="white"/>
<path d="M149.632 510.488H137.93V511.309H149.632V510.488Z" fill="white"/>
<path d="M143.435 512.152H137.93V512.974H143.435V512.152Z" fill="white"/>
<path d="M146.39 513.828H137.93V514.649H146.39V513.828Z" fill="white"/>
<path d="M150.163 515.5H141.359V516.321H150.163V515.5Z" fill="white"/>
<path d="M152.174 517.117H143.781V517.938H152.174V517.117Z" fill="white"/>
<path d="M143.435 517.117H137.93V517.938H143.435V517.117Z" fill="white"/>
<path d="M146.39 518.789H137.93V519.61H146.39V518.789Z" fill="white"/>
<path d="M150.163 520.453H141.359V521.274H150.163V520.453Z" fill="white"/>
<path opacity="0.73" d="M492.167 123.258L477.56 125.075C476.383 125.221 475.292 124.285 475.084 122.954L473.401 112.083C473.186 110.687 474.028 109.41 475.262 109.256L490.489 107.362C491.718 107.209 492.848 108.241 492.985 109.641L494.048 120.589C494.178 121.93 493.345 123.111 492.167 123.258Z" fill="url(#paint66_linear_101_6563)"/>
<path d="M492.179 123.344L477.572 125.162C476.348 125.314 475.227 124.352 475.013 122.968L473.33 112.097C473.223 111.402 473.362 110.712 473.733 110.154C474.099 109.596 474.643 109.249 475.258 109.172L490.484 107.278C491.099 107.202 491.706 107.406 492.197 107.857C492.689 108.308 492.998 108.936 493.064 109.636L494.127 120.584C494.258 121.978 493.403 123.192 492.179 123.344ZM475.274 109.343C474.701 109.414 474.19 109.74 473.851 110.258C473.507 110.777 473.378 111.424 473.479 112.073L475.162 122.943C475.359 124.234 476.41 125.134 477.551 124.992L492.158 123.174C493.304 123.032 494.101 121.897 493.976 120.596L492.913 109.649C492.848 108.996 492.565 108.406 492.104 107.987C491.648 107.568 491.079 107.377 490.5 107.449L475.274 109.343Z" fill="#953DA2"/>
<path d="M479.97 112.654L476.96 117.839L481.066 120.918L480.839 119.095L478.458 117.271L480.116 114.499L479.97 112.654Z" fill="white"/>
<path d="M486.328 112.075L490.521 116.364L487.29 120.356L487.063 118.533L488.926 116.182L486.213 113.638L486.328 112.075Z" fill="white"/>
<path d="M481.781 120.827L483.944 112.586L485.416 112.403L482.84 120.695L481.781 120.827Z" fill="white"/>
<path fill-rule="evenodd" clip-rule="evenodd" d="M380.333 432.231L377.898 440.142C379.24 435.77 381.176 432.928 380.333 432.231ZM377.898 440.142L375.457 448.053C376.071 447.84 376.55 444.508 377.898 440.142ZM380.333 432.231L377.898 440.142C379.24 435.77 381.176 432.928 380.333 432.231ZM377.898 440.142L375.457 448.053C376.071 447.84 376.55 444.508 377.898 440.142ZM384.927 446.995L387.295 448.519L389.849 440.603L387.112 440.083C387.159 439.787 387.211 439.498 387.243 439.202C387.44 437.844 387.508 436.52 387.471 435.256L390.333 433.217L389.027 426.246L386.285 429.224C385.905 428.332 385.432 427.552 384.88 426.902C384.729 426.713 384.568 426.535 384.407 426.376L386.082 421.98L381.618 420.332L380.546 424.763C379.547 424.769 378.532 425.053 377.523 425.567L377.029 421.378L372.117 425.602L373.251 429.312C372.367 430.458 371.555 431.788 370.853 433.277L368.485 431.758L365.931 439.675L368.667 440.195C368.376 441.867 368.262 443.486 368.303 445.016L365.441 447.054L366.747 454.026L369.489 451.048C369.979 452.188 370.608 453.151 371.368 453.89L369.687 458.291L374.079 460.235L374.76 457.429L375.223 455.509C376.222 455.503 377.242 455.225 378.252 454.711L378.735 458.9L383.647 454.676L382.513 450.965C383.21 450.061 383.86 449.051 384.448 447.929C384.625 447.621 384.776 447.314 384.927 446.995ZM377.898 440.142C376.55 444.514 377.898 449.022 375.457 448.053C373.012 447.078 372.117 442.747 373.47 438.387C374.823 434.015 377.892 431.268 380.333 432.237C382.778 433.2 379.24 435.77 377.898 440.142ZM380.333 432.231L377.898 440.142C379.24 435.77 381.176 432.928 380.333 432.231ZM377.898 440.142L375.457 448.053C376.071 447.84 376.55 444.508 377.898 440.142Z" fill="url(#paint67_linear_101_6563)"/>
<path fill-rule="evenodd" clip-rule="evenodd" d="M387.296 448.52L389.851 440.603L387.244 439.203L386.823 438.978L387.098 434.618L389.991 433.017L389.039 426.246L382.743 423.918L383.904 427.061L386.099 421.981L381.635 420.332L379.804 419.653L375.402 417.703L374.58 421.112L370.75 419.044L365.838 423.269L367.332 427.835L362.737 442.298L360.469 451.692L364.834 452.236L363.414 455.958L367.816 457.907L374.111 460.235L373.102 457.937L372.467 456.56L374.793 457.423L378.768 458.894L383.68 454.67L380.641 450.605L384.481 447.923L387.296 448.52ZM373.471 438.381C374.824 434.009 377.894 431.262 380.334 432.231L377.899 440.142L375.459 448.053C373.013 447.072 372.119 442.747 373.471 438.381Z" fill="url(#paint68_linear_101_6563)"/>
<path fill-rule="evenodd" clip-rule="evenodd" d="M380.999 446.186L383.549 438.269L380.812 437.749C381.098 436.083 381.218 434.464 381.176 432.934L384.038 430.896L382.732 423.924L379.99 426.902C379.501 425.762 378.871 424.799 378.111 424.06L379.792 419.659L375.395 417.715L374.256 422.441C373.257 422.447 372.237 422.725 371.233 423.245L370.744 419.062L365.832 423.28L366.961 426.991C366.076 428.137 365.27 429.472 364.562 430.961L362.195 429.442L359.645 437.359L362.382 437.879C362.096 439.545 361.976 441.164 362.018 442.694L359.156 444.732L360.462 451.704L363.204 448.726C363.693 449.867 364.323 450.83 365.083 451.568L363.402 455.97L367.799 457.913L368.938 453.187C369.937 453.181 370.957 452.903 371.961 452.383L372.45 456.566L377.362 452.348L376.233 448.638C377.117 447.492 377.924 446.156 378.632 444.667L380.999 446.186ZM369.157 445.719C366.711 444.744 365.821 440.42 367.169 436.048C368.517 431.682 371.592 428.928 374.037 429.897C376.483 430.872 377.372 435.197 376.025 439.569C374.677 443.935 371.602 446.688 369.157 445.719Z" fill="url(#paint69_linear_101_6563)"/>
<path opacity="0.5" fill-rule="evenodd" clip-rule="evenodd" d="M390.333 433.22L384.037 430.898L381.176 432.937L387.472 435.264L390.333 433.22Z" fill="#601734"/>
<path fill-rule="evenodd" clip-rule="evenodd" d="M383.665 454.677L377.363 452.349L376.234 448.633L382.53 450.967L383.665 454.677Z" fill="#B3D9FF"/>
<path opacity="0.5" fill-rule="evenodd" clip-rule="evenodd" d="M378.109 424.054L381.564 425.188L382.73 423.918L385.024 424.769L386.086 421.986L379.79 419.652L378.109 424.054Z" fill="#601734"/>
<path opacity="0.5" fill-rule="evenodd" clip-rule="evenodd" d="M368.938 453.18L372.236 454.74L371.961 452.383C371.961 452.383 370.186 453.446 368.938 453.18Z" fill="#601734"/>
<path opacity="0.5" fill-rule="evenodd" clip-rule="evenodd" d="M369.445 431.744L374.997 435.076C374.997 435.076 375.803 433.853 376.423 433.357C376.428 433.357 374.976 426.403 369.445 431.744Z" fill="#601734"/>
<path d="M334.109 364.968C335.789 361.683 335.357 358.079 335.357 358.079L334.421 357.329L331.892 362.014C330.321 362.623 328.994 362.02 328.994 362.02L328.999 362.014C328.999 362.014 328.057 360.791 328.042 358.907L331.096 354.641L330.159 353.891C330.159 353.891 327.022 354.623 324.852 357.518C324.852 357.518 324.186 358.528 324.145 358.653C323.931 359.326 323.978 360.697 325.118 362.67L316.803 377.387C315.622 377.375 314.456 377.996 313.723 379.171C312.531 381.085 312.927 383.732 314.612 385.091C316.298 386.444 318.629 385.995 319.826 384.081C320.56 382.905 320.69 381.452 320.284 380.187L329.743 366.398C331.715 366.947 332.87 366.587 333.401 366.103C333.51 366.002 334.109 364.968 334.109 364.968ZM316.579 383.986L314.873 382.616L315.065 380.252L316.964 379.26L318.671 380.631L318.478 382.994L316.579 383.986Z" fill="url(#paint70_linear_101_6563)"/>
<path d="M333.402 366.101C335.082 362.816 334.65 359.212 334.65 359.212L333.714 358.462L331.185 363.147C329.614 363.756 328.287 363.153 328.287 363.153L328.292 363.147C328.292 363.147 327.35 361.924 327.335 360.039L330.389 355.774L329.452 355.023C329.452 355.023 326.315 355.756 324.145 358.651C324.145 358.651 323.063 361.463 324.41 363.803L316.096 378.52C314.915 378.508 313.749 379.128 313.016 380.304C311.824 382.218 312.22 384.865 313.905 386.224C315.591 387.577 317.922 387.128 319.119 385.214C319.853 384.038 319.983 382.585 319.577 381.32L329.036 367.531C331.424 368.198 333.402 366.101 333.402 366.101ZM315.872 385.125L314.166 383.754L314.358 381.391L316.257 380.399L317.964 381.769L317.771 384.133L315.872 385.125Z" fill="url(#paint71_linear_101_6563)"/>
<path d="M330.17 353.893L329.461 355.031L330.395 355.782L331.105 354.644L330.17 353.893Z" fill="white"/>
<path d="M334.425 357.336L333.719 358.469L334.653 359.22L335.359 358.087L334.425 357.336Z" fill="white"/>
<path d="M314.881 382.62L314.172 383.758L315.879 385.13L316.589 383.992L314.881 382.62Z" fill="white"/>
<path d="M324.285 365.887L317.5 377.821C318.192 379.357 319.602 379.511 319.602 379.511L327.355 368.356C326.371 366.223 324.285 365.887 324.285 365.887ZM319.3 379.121C319.092 379.038 318.796 378.89 318.504 378.66C318.275 378.477 318.072 378.258 317.901 378.01L324.483 366.194C324.842 366.336 325.403 366.602 325.965 367.051C326.387 367.387 326.746 367.783 327.037 368.226L319.3 379.121Z" fill="url(#paint72_linear_101_6563)"/>
<path d="M319.3 379.12L319.602 379.51C319.602 379.51 318.254 379.516 317.5 377.82L317.906 378.003C317.901 378.003 318.39 378.76 319.3 379.12Z" fill="white"/>
<path opacity="0.62" d="M324.285 365.887L324.488 366.188C324.488 366.188 325.867 366.584 327.043 368.22L327.355 368.35C327.355 368.35 327.105 367.553 326.07 366.72C325.029 365.893 324.285 365.887 324.285 365.887Z" fill="url(#paint73_linear_101_6563)"/>
<path opacity="0.62" d="M324.408 363.805C324.408 363.805 326.213 366.268 329.033 367.533L327.826 369.293C327.826 369.293 328.138 367.982 326.551 366.564C324.694 364.909 323.227 366.014 323.227 366.014L324.408 363.805Z" fill="url(#paint74_linear_101_6563)"/>
<path opacity="0.5" d="M327.822 369.3C327.889 368.562 327.598 367.953 327.598 367.953L318.633 381.051L319.569 381.323L327.822 369.3Z" fill="url(#paint75_linear_101_6563)"/>
<path d="M327.823 369.297C327.823 369.297 325.965 369.734 326.054 371.873L327.823 369.297Z" fill="white"/>
</g>
<defs>
<linearGradient id="paint0_linear_101_6563" x1="171.585" y1="283.85" x2="170.547" y2="0.000962937" gradientUnits="userSpaceOnUse">
<stop/>
<stop offset="1" stop-opacity="0"/>
</linearGradient>
<linearGradient id="paint1_linear_101_6563" x1="329.5" y1="89.8047" x2="329.5" y2="521.685" gradientUnits="userSpaceOnUse">
<stop stop-color="#0C0E2E" stop-opacity="0"/>
<stop offset="1" stop-color="#131641"/>
</linearGradient>
<linearGradient id="paint2_linear_101_6563" x1="329.5" y1="160.699" x2="329.5" y2="592.58" gradientUnits="userSpaceOnUse">
<stop stop-color="#0C0E2E" stop-opacity="0"/>
<stop offset="1" stop-color="#131641"/>
</linearGradient>
<linearGradient id="paint3_linear_101_6563" x1="329.499" y1="226.281" x2="329.499" y2="658.162" gradientUnits="userSpaceOnUse">
<stop stop-color="#0C0E2E" stop-opacity="0"/>
<stop offset="1" stop-color="#131641"/>
</linearGradient>
<linearGradient id="paint4_linear_101_6563" x1="288.655" y1="486.227" x2="288.655" y2="434.57" gradientUnits="userSpaceOnUse">
<stop stop-color="#3A3A3A"/>
<stop offset="1" stop-color="#616161"/>
</linearGradient>
<linearGradient id="paint5_linear_101_6563" x1="171.066" y1="402.137" x2="171.066" y2="361.893" gradientUnits="userSpaceOnUse">
<stop stop-color="#3A3A3A"/>
<stop offset="1" stop-color="#616161"/>
</linearGradient>
<linearGradient id="paint6_linear_101_6563" x1="726.238" y1="518.664" x2="726.238" y2="478.42" gradientUnits="userSpaceOnUse">
<stop stop-color="#3A3A3A"/>
<stop offset="1" stop-color="#616161"/>
</linearGradient>
<linearGradient id="paint7_linear_101_6563" x1="699.706" y1="240.237" x2="717.125" y2="212.917" gradientUnits="userSpaceOnUse">
<stop stop-color="#3A3A3A"/>
<stop offset="1" stop-color="#616161"/>
</linearGradient>
<linearGradient id="paint8_linear_101_6563" x1="248.07" y1="169.562" x2="248.07" y2="209.806" gradientUnits="userSpaceOnUse">
<stop stop-color="#3A3A3A"/>
<stop offset="1" stop-color="#616161"/>
</linearGradient>
<linearGradient id="paint9_linear_101_6563" x1="592.53" y1="347.407" x2="592.53" y2="294.235" gradientUnits="userSpaceOnUse">
<stop stop-color="#D5CDF8"/>
<stop offset="1" stop-color="#F3EDFB"/>
</linearGradient>
<linearGradient id="paint10_linear_101_6563" x1="616.727" y1="320.818" x2="568.333" y2="320.818" gradientUnits="userSpaceOnUse">
<stop stop-color="#CCCCFF"/>
<stop offset="1" stop-color="#755CBB"/>
</linearGradient>
<linearGradient id="paint11_linear_101_6563" x1="606.555" y1="561.872" x2="606.555" y2="291.847" gradientUnits="userSpaceOnUse">
<stop stop-color="#9E8CEF"/>
<stop offset="1" stop-color="#CAAFEE"/>
</linearGradient>
<linearGradient id="paint12_linear_101_6563" x1="705.163" y1="393.472" x2="647.417" y2="393.472" gradientUnits="userSpaceOnUse">
<stop stop-color="#CCCCFF"/>
<stop offset="1" stop-color="#755CBB"/>
</linearGradient>
<linearGradient id="paint13_linear_101_6563" x1="706.986" y1="469.116" x2="706.986" y2="342.656" gradientUnits="userSpaceOnUse">
<stop stop-color="#9E8CEF"/>
<stop offset="1" stop-color="#DAC7F3"/>
</linearGradient>
<linearGradient id="paint14_linear_101_6563" x1="515.77" y1="432.76" x2="441.364" y2="432.76" gradientUnits="userSpaceOnUse">
<stop stop-color="#A999F1"/>
<stop offset="1" stop-color="#DAC7F3"/>
</linearGradient>
<linearGradient id="paint15_linear_101_6563" x1="731.268" y1="325.71" x2="731.268" y2="292.417" gradientUnits="userSpaceOnUse">
<stop offset="0.016" stop-color="#FFC2A9"/>
<stop offset="1" stop-color="#FF9595"/>
</linearGradient>
<linearGradient id="paint16_linear_101_6563" x1="712.804" y1="324.921" x2="712.804" y2="269.812" gradientUnits="userSpaceOnUse">
<stop stop-color="#FFEADB"/>
<stop offset="0.9944" stop-color="#C27CB6"/>
</linearGradient>
<linearGradient id="paint17_linear_101_6563" x1="714.382" y1="362.415" x2="714.382" y2="277.455" gradientUnits="userSpaceOnUse">
<stop offset="0.016" stop-color="#FFC2A9"/>
<stop offset="1" stop-color="#FF9595"/>
</linearGradient>
<linearGradient id="paint18_linear_101_6563" x1="727.759" y1="349.151" x2="704.233" y2="349.151" gradientUnits="userSpaceOnUse">
<stop offset="0.016" stop-color="#D1A1D6"/>
<stop offset="0.9944" stop-color="#BD89C4"/>
</linearGradient>
<linearGradient id="paint19_linear_101_6563" x1="439.622" y1="414.16" x2="439.622" y2="300.547" gradientUnits="userSpaceOnUse">
<stop offset="0.016" stop-color="#FFC2A9"/>
<stop offset="1" stop-color="#FF9595"/>
</linearGradient>
<linearGradient id="paint20_linear_101_6563" x1="427.805" y1="377.76" x2="427.805" y2="321.316" gradientUnits="userSpaceOnUse">
<stop stop-color="#FFEADB"/>
<stop offset="0.9944" stop-color="#C27CB6"/>
</linearGradient>
<linearGradient id="paint21_linear_101_6563" x1="417.994" y1="358.279" x2="417.994" y2="332.976" gradientUnits="userSpaceOnUse">
<stop stop-color="#FFB0B0"/>
<stop offset="0.984" stop-color="#FFC2A9"/>
</linearGradient>
<linearGradient id="paint22_linear_101_6563" x1="405.069" y1="362.172" x2="405.069" y2="348.297" gradientUnits="userSpaceOnUse">
<stop stop-color="#FFB0B0"/>
<stop offset="0.984" stop-color="#FFC2A9"/>
</linearGradient>
<linearGradient id="paint23_linear_101_6563" x1="457.338" y1="389.827" x2="434.61" y2="389.827" gradientUnits="userSpaceOnUse">
<stop offset="0.016" stop-color="#D1A1D6"/>
<stop offset="0.9944" stop-color="#BD89C4"/>
</linearGradient>
<linearGradient id="paint24_linear_101_6563" x1="488.969" y1="478.547" x2="488.969" y2="351.531" gradientUnits="userSpaceOnUse">
<stop stop-color="#CCCCFF"/>
<stop offset="1" stop-color="#755CBB"/>
</linearGradient>
<linearGradient id="paint25_linear_101_6563" x1="735.325" y1="453.156" x2="548.549" y2="453.156" gradientUnits="userSpaceOnUse">
<stop stop-color="#CCCCFF"/>
<stop offset="1" stop-color="#755CBB"/>
</linearGradient>
<linearGradient id="paint26_linear_101_6563" x1="570.399" y1="417.415" x2="534.502" y2="417.415" gradientUnits="userSpaceOnUse">
<stop stop-color="#CCEDFF"/>
<stop offset="1" stop-color="#755CBB"/>
</linearGradient>
<linearGradient id="paint27_linear_101_6563" x1="602.663" y1="489.201" x2="550.11" y2="489.201" gradientUnits="userSpaceOnUse">
<stop stop-color="#CCEDFF"/>
<stop offset="1" stop-color="#755CBB"/>
</linearGradient>
<linearGradient id="paint28_linear_101_6563" x1="648.97" y1="449.027" x2="648.97" y2="377.566" gradientUnits="userSpaceOnUse">
<stop stop-color="#CCEDFF"/>
<stop offset="1" stop-color="#755CBB"/>
</linearGradient>
<linearGradient id="paint29_linear_101_6563" x1="643.769" y1="455.528" x2="643.769" y2="401.175" gradientUnits="userSpaceOnUse">
<stop stop-color="#CCEDFF"/>
<stop offset="1" stop-color="#755CBB"/>
</linearGradient>
<linearGradient id="paint30_linear_101_6563" x1="719.214" y1="385.799" x2="719.214" y2="344.445" gradientUnits="userSpaceOnUse">
<stop stop-color="#CCEDFF"/>
<stop offset="1" stop-color="#755CBB"/>
</linearGradient>
<linearGradient id="paint31_linear_101_6563" x1="690.082" y1="349.451" x2="675.514" y2="349.451" gradientUnits="userSpaceOnUse">
<stop stop-color="#CCEDFF"/>
<stop offset="1" stop-color="#755CBB"/>
</linearGradient>
<linearGradient id="paint32_linear_101_6563" x1="531.627" y1="449.01" x2="531.627" y2="373.399" gradientUnits="userSpaceOnUse">
<stop stop-color="#CCCCFF"/>
<stop offset="1" stop-color="#755CBB"/>
</linearGradient>
<linearGradient id="paint33_linear_101_6563" x1="456.448" y1="433.058" x2="456.448" y2="392.88" gradientUnits="userSpaceOnUse">
<stop stop-color="#CCCCFF"/>
<stop offset="1" stop-color="#755CBB"/>
</linearGradient>
<linearGradient id="paint34_linear_101_6563" x1="496" y1="430.708" x2="496" y2="400.581" gradientUnits="userSpaceOnUse">
<stop stop-color="#CCCCFF"/>
<stop offset="1" stop-color="#755CBB"/>
</linearGradient>
<linearGradient id="paint35_linear_101_6563" x1="700.219" y1="423.023" x2="700.219" y2="360.982" gradientUnits="userSpaceOnUse">
<stop stop-color="#CCCCFF"/>
<stop offset="1" stop-color="#755CBB"/>
</linearGradient>
<linearGradient id="paint36_linear_101_6563" x1="560.776" y1="379.291" x2="560.776" y2="333.208" gradientUnits="userSpaceOnUse">
<stop stop-color="#CCEDFF"/>
<stop offset="1" stop-color="#755CBB"/>
</linearGradient>
<linearGradient id="paint37_linear_101_6563" x1="614.114" y1="373.393" x2="614.114" y2="308.994" gradientUnits="userSpaceOnUse">
<stop stop-color="#CCEDFF"/>
<stop offset="1" stop-color="#755CBB"/>
</linearGradient>
<linearGradient id="paint38_linear_101_6563" x1="633.36" y1="384.605" x2="539.188" y2="384.605" gradientUnits="userSpaceOnUse">
<stop stop-color="#8642A0"/>
<stop offset="1" stop-color="#6456C0"/>
</linearGradient>
<linearGradient id="paint39_linear_101_6563" x1="625.044" y1="323.156" x2="564.159" y2="323.156" gradientUnits="userSpaceOnUse">
<stop stop-color="#CCCCFF"/>
<stop offset="1" stop-color="#755CBB"/>
</linearGradient>
<linearGradient id="paint40_linear_101_6563" x1="467.648" y1="428.337" x2="467.648" y2="387.566" gradientUnits="userSpaceOnUse">
<stop stop-color="#CCCCFF"/>
<stop offset="1" stop-color="#755CBB"/>
</linearGradient>
<linearGradient id="paint41_linear_101_6563" x1="517.579" y1="473.837" x2="517.579" y2="351.552" gradientUnits="userSpaceOnUse">
<stop stop-color="#CCCCFF"/>
<stop offset="1" stop-color="#755CBB"/>
</linearGradient>
<linearGradient id="paint42_linear_101_6563" x1="574.038" y1="303.081" x2="574.038" y2="186.672" gradientUnits="userSpaceOnUse">
<stop offset="0.016" stop-color="#FFC2A9"/>
<stop offset="1" stop-color="#FF9595"/>
</linearGradient>
<linearGradient id="paint43_linear_101_6563" x1="612.036" y1="256.387" x2="612.036" y2="222.136" gradientUnits="userSpaceOnUse">
<stop offset="0.016" stop-color="#FFC2A9"/>
<stop offset="1" stop-color="#FF9595"/>
</linearGradient>
<linearGradient id="paint44_linear_101_6563" x1="559.753" y1="269.373" x2="558.023" y2="261.76" gradientUnits="userSpaceOnUse">
<stop stop-color="#E1616A"/>
<stop offset="1" stop-color="#FF8883"/>
</linearGradient>
<linearGradient id="paint45_linear_101_6563" x1="571.183" y1="263.497" x2="571.183" y2="188.462" gradientUnits="userSpaceOnUse">
<stop stop-color="#FFEADB"/>
<stop offset="0.9944" stop-color="#C27CB6"/>
</linearGradient>
<linearGradient id="paint46_linear_101_6563" x1="574.571" y1="232.771" x2="574.571" y2="218.006" gradientUnits="userSpaceOnUse">
<stop stop-color="#CF6074"/>
<stop offset="1" stop-color="#F37270"/>
</linearGradient>
<linearGradient id="paint47_linear_101_6563" x1="548.3" y1="237.506" x2="548.3" y2="224.512" gradientUnits="userSpaceOnUse">
<stop stop-color="#CF6074"/>
<stop offset="1" stop-color="#FF817F"/>
</linearGradient>
<linearGradient id="paint48_linear_101_6563" x1="547.257" y1="245.166" x2="547.257" y2="216.23" gradientUnits="userSpaceOnUse">
<stop stop-color="#FFEADB"/>
<stop offset="0.9944" stop-color="#C27CB6"/>
</linearGradient>
<linearGradient id="paint49_linear_101_6563" x1="572.479" y1="304.857" x2="572.479" y2="163.648" gradientUnits="userSpaceOnUse">
<stop stop-color="#2E33A0"/>
<stop offset="1" stop-color="#0665A5"/>
</linearGradient>
<linearGradient id="paint50_linear_101_6563" x1="539.966" y1="215.648" x2="539.966" y2="183.164" gradientUnits="userSpaceOnUse">
<stop stop-color="#FFEADB"/>
<stop offset="0.9944" stop-color="#8860C7"/>
</linearGradient>
<linearGradient id="paint51_linear_101_6563" x1="578.989" y1="304.857" x2="578.989" y2="163.689" gradientUnits="userSpaceOnUse">
<stop stop-color="#CCC2DB"/>
<stop offset="0.9944" stop-color="#8860C7"/>
</linearGradient>
<linearGradient id="paint52_linear_101_6563" x1="570.657" y1="304.271" x2="570.657" y2="298.364" gradientUnits="userSpaceOnUse">
<stop stop-color="#776D7E"/>
<stop offset="1" stop-color="#9D68C2"/>
</linearGradient>
<linearGradient id="paint53_linear_101_6563" x1="580.548" y1="188.475" x2="580.548" y2="175.472" gradientUnits="userSpaceOnUse">
<stop stop-color="#1F77D1"/>
<stop offset="1" stop-color="#0686C9"/>
</linearGradient>
<linearGradient id="paint54_linear_101_6563" x1="537.882" y1="195.562" x2="537.882" y2="183.143" gradientUnits="userSpaceOnUse">
<stop stop-color="#1F77D1"/>
<stop offset="1" stop-color="#0686C9"/>
</linearGradient>
<linearGradient id="paint55_linear_101_6563" x1="607.583" y1="248.232" x2="623.129" y2="231.137" gradientUnits="userSpaceOnUse">
<stop stop-color="#FFEADB"/>
<stop offset="0.9944" stop-color="#B060F4"/>
</linearGradient>
<linearGradient id="paint56_linear_101_6563" x1="606.567" y1="245.752" x2="614.287" y2="237.608" gradientUnits="userSpaceOnUse">
<stop stop-color="#FFEADB"/>
<stop offset="0.9944" stop-color="#B060F4"/>
</linearGradient>
<linearGradient id="paint57_linear_101_6563" x1="580.813" y1="189.65" x2="558.447" y2="189.65" gradientUnits="userSpaceOnUse">
<stop stop-color="#1F77D1"/>
<stop offset="1" stop-color="#0686C9"/>
</linearGradient>
<linearGradient id="paint58_linear_101_6563" x1="548.551" y1="267.652" x2="541.793" y2="267.652" gradientUnits="userSpaceOnUse">
<stop stop-color="#1F77D1"/>
<stop offset="1" stop-color="#0686C9"/>
</linearGradient>
<linearGradient id="paint59_linear_101_6563" x1="557.395" y1="261.717" x2="550.119" y2="261.717" gradientUnits="userSpaceOnUse">
<stop stop-color="#1F77D1"/>
<stop offset="1" stop-color="#0686C9"/>
</linearGradient>
<linearGradient id="paint60_linear_101_6563" x1="699.596" y1="256.924" x2="699.596" y2="186.68" gradientUnits="userSpaceOnUse">
<stop stop-color="#D906E3"/>
<stop offset="1" stop-color="#FF6DF9"/>
</linearGradient>
<linearGradient id="paint61_linear_101_6563" x1="645.594" y1="444.879" x2="645.594" y2="430.113" gradientUnits="userSpaceOnUse">
<stop stop-color="#CCEDFF"/>
<stop offset="1" stop-color="#755CBB"/>
</linearGradient>
<linearGradient id="paint62_linear_101_6563" x1="602.731" y1="554.158" x2="602.731" y2="452.294" gradientUnits="userSpaceOnUse">
<stop stop-color="#C9B6E9"/>
<stop offset="1" stop-color="#BBABD1"/>
</linearGradient>
<linearGradient id="paint63_linear_101_6563" x1="602.731" y1="460.318" x2="602.731" y2="449.484" gradientUnits="userSpaceOnUse">
<stop stop-color="#D8CAEF"/>
<stop offset="1" stop-color="#EADEF4"/>
</linearGradient>
<linearGradient id="paint64_linear_101_6563" x1="597.981" y1="554.176" x2="597.981" y2="564.81" gradientUnits="userSpaceOnUse">
<stop stop-color="#6F67F0"/>
<stop offset="1" stop-color="#59068C"/>
</linearGradient>
<linearGradient id="paint65_linear_101_6563" x1="146.079" y1="531.91" x2="151.765" y2="492.038" gradientUnits="userSpaceOnUse">
<stop stop-color="#067EFF"/>
<stop offset="1" stop-color="#3E37A0"/>
</linearGradient>
<linearGradient id="paint66_linear_101_6563" x1="484.848" y1="124.169" x2="482.875" y2="108.309" gradientUnits="userSpaceOnUse">
<stop stop-color="#D906E3"/>
<stop offset="1" stop-color="#FF6DF9"/>
</linearGradient>
<linearGradient id="paint67_linear_101_6563" x1="375.247" y1="460.434" x2="381.981" y2="420.394" gradientUnits="userSpaceOnUse">
<stop stop-color="#1852A0"/>
<stop offset="1" stop-color="#067ED3"/>
</linearGradient>
<linearGradient id="paint68_linear_101_6563" x1="371.328" y1="459.394" x2="383.332" y2="420.135" gradientUnits="userSpaceOnUse">
<stop stop-color="#1852A0"/>
<stop offset="1" stop-color="#067ED3"/>
</linearGradient>
<linearGradient id="paint69_linear_101_6563" x1="366.87" y1="457.743" x2="374.044" y2="417.468" gradientUnits="userSpaceOnUse">
<stop stop-color="#188DC1"/>
<stop offset="1" stop-color="#06BFE7"/>
</linearGradient>
<linearGradient id="paint70_linear_101_6563" x1="318.407" y1="387.005" x2="333.392" y2="355.426" gradientUnits="userSpaceOnUse">
<stop stop-color="#DBCCFF"/>
<stop offset="1" stop-color="#D1BBFF"/>
</linearGradient>
<linearGradient id="paint71_linear_101_6563" x1="317.7" y1="388.139" x2="332.685" y2="356.56" gradientUnits="userSpaceOnUse">
<stop stop-color="#B5A6E7"/>
<stop offset="1" stop-color="#7760BF"/>
</linearGradient>
<linearGradient id="paint72_linear_101_6563" x1="319.957" y1="379.788" x2="326.185" y2="366.663" gradientUnits="userSpaceOnUse">
<stop stop-color="#B5A6E7"/>
<stop offset="1" stop-color="#7760BF"/>
</linearGradient>
<linearGradient id="paint73_linear_101_6563" x1="324.377" y1="365.735" x2="327.693" y2="367.802" gradientUnits="userSpaceOnUse">
<stop stop-color="#8B8BE0"/>
<stop offset="1" stop-color="#A177B7"/>
</linearGradient>
<linearGradient id="paint74_linear_101_6563" x1="325.409" y1="367.773" x2="326.955" y2="365.851" gradientUnits="userSpaceOnUse">
<stop stop-color="white"/>
<stop offset="1" stop-color="#A177B7"/>
</linearGradient>
<linearGradient id="paint75_linear_101_6563" x1="319.254" y1="381.547" x2="329.169" y2="369.212" gradientUnits="userSpaceOnUse">
<stop/>
<stop offset="1" stop-color="white"/>
</linearGradient>
<clipPath id="clip0_101_6563">
<rect width="771" height="776" fill="white" transform="matrix(1 0 0 -1 0 776)"/>
</clipPath>
</defs>
</svg>
